M48
;Layer_Color=9474304
;FILE_FORMAT=4:4
METRIC,LZ
;TYPE=PLATED
T1F00S00C0.3048
;TYPE=NON_PLATED
T2F00S00C0.7000
%
T01
X0037Y0033
X00456Y00376
X0047Y00362
X00551Y00340107
X00565893Y00355
X00568Y00378
X006Y00396
X00628
X00644946Y00388
X0065Y0034
Y00275
X0074Y003
X0078Y00385
X00619Y00406
X00601
X00628Y00459
X00624Y0048
X00612Y00479
X006079Y0055
X0069Y00504
X00498Y00463
X00499Y00444
X0049Y00405
X0048Y00397
X00435Y00415
X0043Y0056
X00470054Y00576946
X00342838Y00447162
T02
X006515Y0029475
Y0031275
M30
