G04*
G04 #@! TF.GenerationSoftware,Altium Limited,Altium Designer,22.9.1 (49)*
G04*
G04 Layer_Color=8388736*
%FSLAX44Y44*%
%MOMM*%
G71*
G04*
G04 #@! TF.SameCoordinates,EB67C6D0-91D5-4CF3-8B5F-14A5E2A69FE3*
G04*
G04*
G04 #@! TF.FilePolarity,Negative*
G04*
G01*
G75*
G04:AMPARAMS|DCode=24|XSize=1.4732mm|YSize=0.8132mm|CornerRadius=0.2541mm|HoleSize=0mm|Usage=FLASHONLY|Rotation=270.000|XOffset=0mm|YOffset=0mm|HoleType=Round|Shape=RoundedRectangle|*
%AMROUNDEDRECTD24*
21,1,1.4732,0.3050,0,0,270.0*
21,1,0.9650,0.8132,0,0,270.0*
1,1,0.5082,-0.1525,-0.4825*
1,1,0.5082,-0.1525,0.4825*
1,1,0.5082,0.1525,0.4825*
1,1,0.5082,0.1525,-0.4825*
%
%ADD24ROUNDEDRECTD24*%
G04:AMPARAMS|DCode=25|XSize=1.4732mm|YSize=0.8132mm|CornerRadius=0.2541mm|HoleSize=0mm|Usage=FLASHONLY|Rotation=0.000|XOffset=0mm|YOffset=0mm|HoleType=Round|Shape=RoundedRectangle|*
%AMROUNDEDRECTD25*
21,1,1.4732,0.3050,0,0,0.0*
21,1,0.9650,0.8132,0,0,0.0*
1,1,0.5082,0.4825,-0.1525*
1,1,0.5082,-0.4825,-0.1525*
1,1,0.5082,-0.4825,0.1525*
1,1,0.5082,0.4825,0.1525*
%
%ADD25ROUNDEDRECTD25*%
%ADD26R,1.2032X1.2032*%
%ADD27R,1.2032X1.2032*%
%ADD28R,3.7632X1.4732*%
%ADD29R,3.7632X1.4732*%
%ADD30R,1.1532X1.6032*%
%ADD31R,1.3532X0.9532*%
%ADD32R,1.4732X3.7632*%
%ADD33R,1.4732X3.7632*%
G04:AMPARAMS|DCode=34|XSize=1.3032mm|YSize=2.1032mm|CornerRadius=0.3766mm|HoleSize=0mm|Usage=FLASHONLY|Rotation=0.000|XOffset=0mm|YOffset=0mm|HoleType=Round|Shape=RoundedRectangle|*
%AMROUNDEDRECTD34*
21,1,1.3032,1.3500,0,0,0.0*
21,1,0.5500,2.1032,0,0,0.0*
1,1,0.7532,0.2750,-0.6750*
1,1,0.7532,-0.2750,-0.6750*
1,1,0.7532,-0.2750,0.6750*
1,1,0.7532,0.2750,0.6750*
%
%ADD34ROUNDEDRECTD34*%
%ADD35R,3.1632X1.4732*%
%ADD36R,0.8532X1.0532*%
%ADD37C,0.2032*%
D24*
X569850Y421750D02*
D03*
X560850D02*
D03*
X551850D02*
D03*
X533750D02*
D03*
X506750D02*
D03*
X515750D02*
D03*
X524750D02*
D03*
X542850D02*
D03*
X497750D02*
D03*
X488750D02*
D03*
X479650D02*
D03*
X470650D02*
D03*
X461650D02*
D03*
X452650D02*
D03*
X569850Y554150D02*
D03*
X560850D02*
D03*
X551850D02*
D03*
X533750D02*
D03*
X506750D02*
D03*
X515750D02*
D03*
X524750D02*
D03*
X542850D02*
D03*
X497750D02*
D03*
X488750D02*
D03*
X479650D02*
D03*
X470650D02*
D03*
X461650D02*
D03*
X452650D02*
D03*
D25*
X584550Y469950D02*
D03*
Y460950D02*
D03*
Y433850D02*
D03*
Y424850D02*
D03*
Y442850D02*
D03*
Y451850D02*
D03*
Y478950D02*
D03*
Y487950D02*
D03*
Y551050D02*
D03*
Y542050D02*
D03*
Y515050D02*
D03*
Y505950D02*
D03*
Y496950D02*
D03*
Y524050D02*
D03*
Y533050D02*
D03*
D26*
X373000Y545000D02*
D03*
X356000D02*
D03*
X373000Y517500D02*
D03*
X356000D02*
D03*
X455000Y595000D02*
D03*
X438000D02*
D03*
X454500Y617500D02*
D03*
X437500D02*
D03*
X703000Y302500D02*
D03*
X720000D02*
D03*
X628000Y357500D02*
D03*
X645000D02*
D03*
X372500Y492500D02*
D03*
X355500D02*
D03*
X657500Y415000D02*
D03*
X674500D02*
D03*
X323000Y330000D02*
D03*
X340000D02*
D03*
X323000Y352500D02*
D03*
X340000D02*
D03*
X657500Y460000D02*
D03*
X674500D02*
D03*
X657500Y480000D02*
D03*
X674500D02*
D03*
X657500Y437500D02*
D03*
X674500D02*
D03*
D27*
X777500Y453000D02*
D03*
Y470000D02*
D03*
X795000Y453000D02*
D03*
Y470000D02*
D03*
X597500Y340000D02*
D03*
Y323000D02*
D03*
Y302500D02*
D03*
Y285500D02*
D03*
X685000Y379500D02*
D03*
Y362500D02*
D03*
D28*
X723240Y412750D02*
D03*
Y514350D02*
D03*
D29*
Y463550D02*
D03*
X749940Y438150D02*
D03*
X723240Y361950D02*
D03*
X749940Y387350D02*
D03*
Y539750D02*
D03*
Y488950D02*
D03*
Y590550D02*
D03*
X723240Y565150D02*
D03*
D30*
X672250Y303750D02*
D03*
X630750D02*
D03*
D31*
X667250Y319000D02*
D03*
X635750D02*
D03*
X667250Y288500D02*
D03*
X635750D02*
D03*
D32*
X499600Y298300D02*
D03*
D33*
X448800D02*
D03*
X474200Y325000D02*
D03*
X550400Y298300D02*
D03*
X525000Y325000D02*
D03*
D34*
X477500Y597500D02*
D03*
X502500D02*
D03*
D35*
X323800Y465100D02*
D03*
X291000Y439700D02*
D03*
Y541300D02*
D03*
X323800Y515900D02*
D03*
X291000Y490500D02*
D03*
D36*
X295470Y385710D02*
D03*
X303970D02*
D03*
X295470Y371210D02*
D03*
X303970D02*
D03*
D37*
X651500Y312750D02*
D03*
Y294750D02*
D03*
M02*
