G04*
G04 #@! TF.GenerationSoftware,Altium Limited,Altium Designer,22.9.1 (49)*
G04*
G04 Layer_Physical_Order=1*
G04 Layer_Color=255*
%FSLAX44Y44*%
%MOMM*%
G71*
G04*
G04 #@! TF.SameCoordinates,EB67C6D0-91D5-4CF3-8B5F-14A5E2A69FE3*
G04*
G04*
G04 #@! TF.FilePolarity,Positive*
G04*
G01*
G75*
G04:AMPARAMS|DCode=11|XSize=1.27mm|YSize=0.61mm|CornerRadius=0.1525mm|HoleSize=0mm|Usage=FLASHONLY|Rotation=270.000|XOffset=0mm|YOffset=0mm|HoleType=Round|Shape=RoundedRectangle|*
%AMROUNDEDRECTD11*
21,1,1.2700,0.3050,0,0,270.0*
21,1,0.9650,0.6100,0,0,270.0*
1,1,0.3050,-0.1525,-0.4825*
1,1,0.3050,-0.1525,0.4825*
1,1,0.3050,0.1525,0.4825*
1,1,0.3050,0.1525,-0.4825*
%
%ADD11ROUNDEDRECTD11*%
G04:AMPARAMS|DCode=12|XSize=1.27mm|YSize=0.61mm|CornerRadius=0.1525mm|HoleSize=0mm|Usage=FLASHONLY|Rotation=0.000|XOffset=0mm|YOffset=0mm|HoleType=Round|Shape=RoundedRectangle|*
%AMROUNDEDRECTD12*
21,1,1.2700,0.3050,0,0,0.0*
21,1,0.9650,0.6100,0,0,0.0*
1,1,0.3050,0.4825,-0.1525*
1,1,0.3050,-0.4825,-0.1525*
1,1,0.3050,-0.4825,0.1525*
1,1,0.3050,0.4825,0.1525*
%
%ADD12ROUNDEDRECTD12*%
%ADD13R,1.0000X1.0000*%
%ADD14R,1.0000X1.0000*%
%ADD15R,3.5600X1.2700*%
%ADD16R,3.5600X1.2700*%
%ADD17R,0.9500X1.4000*%
%ADD18R,1.1500X0.7500*%
%ADD19R,1.2700X3.5600*%
%ADD20R,1.2700X3.5600*%
G04:AMPARAMS|DCode=21|XSize=1.1mm|YSize=1.9mm|CornerRadius=0.275mm|HoleSize=0mm|Usage=FLASHONLY|Rotation=0.000|XOffset=0mm|YOffset=0mm|HoleType=Round|Shape=RoundedRectangle|*
%AMROUNDEDRECTD21*
21,1,1.1000,1.3500,0,0,0.0*
21,1,0.5500,1.9000,0,0,0.0*
1,1,0.5500,0.2750,-0.6750*
1,1,0.5500,-0.2750,-0.6750*
1,1,0.5500,-0.2750,0.6750*
1,1,0.5500,0.2750,0.6750*
%
%ADD21ROUNDEDRECTD21*%
%ADD22R,2.9600X1.2700*%
%ADD23R,0.6500X0.8500*%
%ADD38C,0.1524*%
%ADD39C,0.6096*%
G36*
X808356Y259144D02*
X259144D01*
Y658356D01*
X808356D01*
Y259144D01*
D02*
G37*
%LPC*%
G36*
X461024Y624024D02*
X447976D01*
Y610976D01*
X461024D01*
Y615169D01*
X500169D01*
Y608608D01*
X499750D01*
X498082Y608276D01*
X496669Y607331D01*
X495724Y605918D01*
X495392Y604250D01*
Y590750D01*
X495724Y589082D01*
X496669Y587669D01*
X498082Y586724D01*
X499750Y586392D01*
X500169D01*
Y563166D01*
X499087Y562084D01*
X496225D01*
X495035Y561847D01*
X494027Y561173D01*
X492938Y561760D01*
X492331Y562359D01*
Y583107D01*
X492153Y583999D01*
X491648Y584755D01*
X490755Y585648D01*
X489999Y586153D01*
X489107Y586331D01*
X487966D01*
X484432Y589865D01*
X484608Y590750D01*
Y604250D01*
X484276Y605918D01*
X483331Y607331D01*
X481918Y608276D01*
X480250Y608608D01*
X474750D01*
X473082Y608276D01*
X471669Y607331D01*
X470724Y605918D01*
X470392Y604250D01*
Y599831D01*
X461524D01*
Y601524D01*
X448476D01*
Y588476D01*
X461524D01*
Y595169D01*
X470392D01*
Y590750D01*
X470724Y589082D01*
X471669Y587669D01*
X473082Y586724D01*
X474750Y586392D01*
X480250D01*
X481135Y586568D01*
X485352Y582352D01*
X486108Y581847D01*
X487000Y581669D01*
X487669D01*
Y562084D01*
X487225D01*
X486035Y561847D01*
X485027Y561173D01*
X484132Y561879D01*
X484106Y561906D01*
X484106Y561906D01*
X482761Y562804D01*
X481175Y563120D01*
X480920D01*
Y554150D01*
Y545180D01*
X481175D01*
X482761Y545496D01*
X484106Y546394D01*
X484106Y546394D01*
X484132Y546421D01*
X485027Y547127D01*
X486035Y546453D01*
X487225Y546216D01*
X490275D01*
X491465Y546453D01*
X492473Y547127D01*
X492486Y547146D01*
X494014D01*
X494027Y547127D01*
X495035Y546453D01*
X496225Y546216D01*
X499275D01*
X500465Y546453D01*
X501473Y547127D01*
X501486Y547146D01*
X503014D01*
X503027Y547127D01*
X504035Y546453D01*
X505225Y546216D01*
X508275D01*
X509465Y546453D01*
X510473Y547127D01*
X510486Y547146D01*
X512014D01*
X512027Y547127D01*
X513035Y546453D01*
X514225Y546216D01*
X517275D01*
X518465Y546453D01*
X519473Y547127D01*
X519486Y547146D01*
X521014D01*
X521027Y547127D01*
X522035Y546453D01*
X523225Y546216D01*
X526275D01*
X527465Y546453D01*
X528473Y547127D01*
X528486Y547146D01*
X530014D01*
X530027Y547127D01*
X531035Y546453D01*
X532225Y546216D01*
X535275D01*
X536465Y546453D01*
X537473Y547127D01*
X537536Y547221D01*
X539064D01*
X539127Y547127D01*
X540135Y546453D01*
X541325Y546216D01*
X544375D01*
X545565Y546453D01*
X546573Y547127D01*
X546586Y547146D01*
X548114D01*
X548127Y547127D01*
X549135Y546453D01*
X550325Y546216D01*
X553375D01*
X554565Y546453D01*
X555573Y547127D01*
X555586Y547146D01*
X557114D01*
X557127Y547127D01*
X558135Y546453D01*
X559325Y546216D01*
X562375D01*
X563565Y546453D01*
X564573Y547127D01*
X564586Y547146D01*
X566114D01*
X566127Y547127D01*
X567135Y546453D01*
X568325Y546216D01*
X571375D01*
X572565Y546453D01*
X573573Y547127D01*
X574247Y548135D01*
X574484Y549325D01*
Y558975D01*
X574247Y560165D01*
X573573Y561173D01*
X572565Y561847D01*
X571375Y562084D01*
X568325D01*
X567135Y561847D01*
X566127Y561173D01*
X566114Y561154D01*
X564586D01*
X564573Y561173D01*
X563565Y561847D01*
X563331Y561894D01*
Y569035D01*
X565965Y571669D01*
X688669D01*
Y561000D01*
X688847Y560108D01*
X689352Y559352D01*
X703871Y544832D01*
Y519938D01*
X703916Y519713D01*
Y506476D01*
X742564D01*
Y522224D01*
X708533D01*
Y545798D01*
X708355Y546690D01*
X707850Y547446D01*
X693331Y561965D01*
Y573107D01*
X693153Y573999D01*
X692648Y574755D01*
X691755Y575648D01*
X690999Y576153D01*
X690107Y576331D01*
X565000D01*
X564108Y576153D01*
X563352Y575648D01*
X559352Y571648D01*
X558847Y570892D01*
X558669Y570000D01*
Y561953D01*
X558135Y561847D01*
X557127Y561173D01*
X557114Y561154D01*
X555586D01*
X555573Y561173D01*
X554565Y561847D01*
X553438Y562071D01*
Y577669D01*
X696669D01*
Y562007D01*
X696847Y561115D01*
X697352Y560359D01*
X719609Y538102D01*
X720365Y537597D01*
X721257Y537419D01*
X730616D01*
Y531876D01*
X769264D01*
Y547624D01*
X730616D01*
Y542081D01*
X722223D01*
X708201Y556103D01*
X708687Y557276D01*
X742564D01*
Y573024D01*
X708533D01*
Y578798D01*
X708355Y579690D01*
X707850Y580446D01*
X701347Y586949D01*
X701873Y588219D01*
X730616D01*
Y582676D01*
X769264D01*
Y598424D01*
X730616D01*
Y592881D01*
X534893D01*
X534001Y592703D01*
X533245Y592198D01*
X532352Y591305D01*
X531847Y590549D01*
X531669Y589657D01*
Y561973D01*
X531035Y561847D01*
X530027Y561173D01*
X530014Y561154D01*
X528486D01*
X528473Y561173D01*
X527465Y561847D01*
X526275Y562084D01*
X523225D01*
X522035Y561847D01*
X521027Y561173D01*
X521014Y561154D01*
X519486D01*
X519473Y561173D01*
X518465Y561847D01*
X517275Y562084D01*
X514225D01*
X513035Y561847D01*
X512027Y561173D01*
X512014Y561154D01*
X510486D01*
X510473Y561173D01*
X509465Y561847D01*
X508275Y562084D01*
X506050D01*
X505199Y562165D01*
X504831Y563300D01*
Y586392D01*
X505250D01*
X506918Y586724D01*
X508331Y587669D01*
X509276Y589082D01*
X509608Y590750D01*
Y604250D01*
X509276Y605918D01*
X508331Y607331D01*
X506918Y608276D01*
X505250Y608608D01*
X504831D01*
Y616500D01*
X504653Y617392D01*
X504148Y618148D01*
X503148Y619148D01*
X502392Y619653D01*
X501500Y619831D01*
X461024D01*
Y624024D01*
D02*
G37*
G36*
X444024D02*
X430976D01*
Y610976D01*
X435669D01*
Y601524D01*
X431476D01*
Y588476D01*
X435669D01*
Y572100D01*
X435847Y571208D01*
X436352Y570452D01*
X445087Y561717D01*
X444601Y560544D01*
X434572D01*
Y560909D01*
X433876Y562590D01*
X432590Y563876D01*
X430909Y564572D01*
X429091D01*
X427410Y563876D01*
X426124Y562590D01*
X425428Y560909D01*
Y559091D01*
X426124Y557410D01*
X427410Y556124D01*
X429091Y555428D01*
X430909D01*
X432006Y555882D01*
X448016D01*
Y549325D01*
X448253Y548135D01*
X448927Y547127D01*
X449935Y546453D01*
X451125Y546216D01*
X454175D01*
X455365Y546453D01*
X456373Y547127D01*
X456386Y547146D01*
X457914D01*
X457927Y547127D01*
X458935Y546453D01*
X460125Y546216D01*
X463175D01*
X464365Y546453D01*
X465373Y547127D01*
X465386Y547146D01*
X466914D01*
X466927Y547127D01*
X467935Y546453D01*
X469125Y546216D01*
X472175D01*
X473365Y546453D01*
X474373Y547127D01*
X475161Y546442D01*
X475193Y546396D01*
X475194Y546394D01*
X476539Y545496D01*
X478125Y545180D01*
X478380D01*
Y554150D01*
Y563120D01*
X478125D01*
X476539Y562804D01*
X475194Y561906D01*
X475193Y561904D01*
X475161Y561858D01*
X474373Y561173D01*
X473365Y561847D01*
X472683Y561983D01*
Y573110D01*
X473930Y574357D01*
X474626Y576037D01*
Y577856D01*
X473930Y579536D01*
X472644Y580822D01*
X470963Y581518D01*
X469144D01*
X467464Y580822D01*
X466178Y579536D01*
X465482Y577856D01*
Y576037D01*
X466178Y574357D01*
X467464Y573070D01*
X468021Y572840D01*
Y561864D01*
X467935Y561847D01*
X466927Y561173D01*
X466914Y561154D01*
X465386D01*
X465373Y561173D01*
X464365Y561847D01*
X463175Y562084D01*
X460125D01*
X458935Y561847D01*
X457927Y561173D01*
X457914Y561154D01*
X456386D01*
X456373Y561173D01*
X455365Y561847D01*
X454175Y562084D01*
X451312D01*
X440331Y573065D01*
Y588476D01*
X444524D01*
Y601524D01*
X440331D01*
Y610976D01*
X444024D01*
Y624024D01*
D02*
G37*
G36*
X589375Y555684D02*
X579725D01*
X578535Y555447D01*
X577527Y554773D01*
X576853Y553765D01*
X576616Y552575D01*
Y549525D01*
X576853Y548335D01*
X577527Y547327D01*
X577546Y547314D01*
Y545786D01*
X577527Y545773D01*
X576853Y544765D01*
X576616Y543575D01*
Y540525D01*
X576853Y539335D01*
X577527Y538327D01*
X577546Y538314D01*
Y536786D01*
X577527Y536773D01*
X576853Y535765D01*
X576616Y534575D01*
Y531525D01*
X576853Y530335D01*
X577527Y529327D01*
X577546Y529314D01*
Y527786D01*
X577527Y527773D01*
X576853Y526765D01*
X576616Y525575D01*
Y522525D01*
X576853Y521335D01*
X577527Y520327D01*
X577546Y520314D01*
Y518786D01*
X577527Y518773D01*
X576853Y517765D01*
X576616Y516575D01*
Y513525D01*
X576853Y512335D01*
X577527Y511327D01*
X577621Y511264D01*
Y509736D01*
X577527Y509673D01*
X576853Y508665D01*
X576616Y507475D01*
Y504425D01*
X576853Y503235D01*
X577527Y502227D01*
X577546Y502214D01*
Y500686D01*
X577527Y500673D01*
X576853Y499665D01*
X576616Y498475D01*
Y495425D01*
X576853Y494235D01*
X577527Y493227D01*
X577546Y493214D01*
Y491686D01*
X577527Y491673D01*
X576853Y490665D01*
X576616Y489475D01*
Y486425D01*
X576853Y485235D01*
X577527Y484227D01*
X577546Y484214D01*
Y482686D01*
X577527Y482673D01*
X576853Y481665D01*
X576616Y480475D01*
Y477425D01*
X576853Y476235D01*
X577527Y475227D01*
X577546Y475214D01*
Y473686D01*
X577527Y473673D01*
X576853Y472665D01*
X576616Y471475D01*
Y468425D01*
X576853Y467235D01*
X577527Y466227D01*
X577546Y466214D01*
Y464686D01*
X577527Y464673D01*
X576853Y463665D01*
X576616Y462475D01*
Y459425D01*
X576853Y458235D01*
X577527Y457227D01*
X577621Y457164D01*
Y455636D01*
X577527Y455573D01*
X576853Y454565D01*
X576777Y454181D01*
X439615D01*
X379524Y514272D01*
Y524024D01*
X366476D01*
Y510976D01*
X376228D01*
X437002Y450202D01*
X437758Y449697D01*
X438650Y449519D01*
X497059D01*
X497311Y448249D01*
X496410Y447876D01*
X495124Y446590D01*
X494428Y444909D01*
Y443091D01*
X495124Y441410D01*
X496410Y440124D01*
X498091Y439428D01*
X499909D01*
X501590Y440124D01*
X502560Y441094D01*
X576662D01*
X576853Y440135D01*
X577527Y439127D01*
X577546Y439114D01*
Y437586D01*
X577527Y437573D01*
X576853Y436565D01*
X576616Y435375D01*
Y432325D01*
X576853Y431135D01*
X577527Y430127D01*
X577546Y430114D01*
Y428586D01*
X577527Y428573D01*
X576853Y427565D01*
X576616Y426375D01*
Y423325D01*
X576853Y422135D01*
X577527Y421127D01*
X578535Y420453D01*
X579725Y420216D01*
X589188D01*
X596052Y413352D01*
X596808Y412847D01*
X597700Y412669D01*
X650976D01*
Y408476D01*
X664024D01*
Y421524D01*
X650976D01*
Y417331D01*
X598665D01*
X592484Y423512D01*
Y426375D01*
X592247Y427565D01*
X591573Y428573D01*
X591554Y428586D01*
Y430114D01*
X591573Y430127D01*
X592247Y431135D01*
X592484Y432325D01*
Y435375D01*
X592247Y436565D01*
X591573Y437573D01*
X591554Y437586D01*
Y439114D01*
X591573Y439127D01*
X592247Y440135D01*
X592484Y441325D01*
Y444375D01*
X592247Y445565D01*
X591573Y446573D01*
X591554Y446586D01*
Y448114D01*
X591573Y448127D01*
X592247Y449135D01*
X592484Y450325D01*
Y453375D01*
X592247Y454565D01*
X591573Y455573D01*
X591479Y455636D01*
Y457164D01*
X591573Y457227D01*
X592247Y458235D01*
X592484Y459425D01*
Y462475D01*
X592247Y463665D01*
X591573Y464673D01*
X591554Y464686D01*
Y466214D01*
X591573Y466227D01*
X592247Y467235D01*
X592333Y467669D01*
X603669D01*
Y467000D01*
X603847Y466108D01*
X604352Y465352D01*
X633852Y435852D01*
X634608Y435347D01*
X635500Y435169D01*
X650976D01*
Y430976D01*
X664024D01*
Y444024D01*
X650976D01*
Y439831D01*
X636465D01*
X608331Y467965D01*
Y470000D01*
X608153Y470892D01*
X607648Y471648D01*
X606892Y472153D01*
X606000Y472331D01*
X592313D01*
X592247Y472665D01*
X591573Y473673D01*
X591554Y473686D01*
Y475214D01*
X591573Y475227D01*
X592247Y476235D01*
X592328Y476644D01*
X608027D01*
X608124Y476410D01*
X609410Y475124D01*
X611091Y474428D01*
X612909D01*
X614590Y475124D01*
X615876Y476410D01*
X616572Y478091D01*
Y479909D01*
X615876Y481590D01*
X614590Y482876D01*
X612909Y483572D01*
X611091D01*
X609410Y482876D01*
X608124Y481590D01*
X608006Y481306D01*
X592318D01*
X592247Y481665D01*
X591573Y482673D01*
X591554Y482686D01*
Y484214D01*
X591573Y484227D01*
X592247Y485235D01*
X592484Y486425D01*
Y489475D01*
X592247Y490665D01*
X591573Y491673D01*
X591554Y491686D01*
Y493214D01*
X591573Y493227D01*
X592247Y494235D01*
X592484Y495425D01*
Y498475D01*
X592247Y499665D01*
X591573Y500673D01*
X591554Y500686D01*
Y502214D01*
X591573Y502227D01*
X592247Y503235D01*
X592484Y504425D01*
Y507475D01*
X592247Y508665D01*
X591573Y509673D01*
X591479Y509736D01*
Y511264D01*
X591573Y511327D01*
X592247Y512335D01*
X592484Y513525D01*
Y516575D01*
X592247Y517765D01*
X591573Y518773D01*
X591554Y518786D01*
Y520314D01*
X591573Y520327D01*
X592247Y521335D01*
X592484Y522525D01*
Y525575D01*
X592247Y526765D01*
X591573Y527773D01*
X591554Y527786D01*
Y529314D01*
X591573Y529327D01*
X592247Y530335D01*
X592484Y531525D01*
Y532461D01*
X593657Y532947D01*
X623252Y503352D01*
X624008Y502847D01*
X624900Y502669D01*
X685602D01*
X686124Y501410D01*
X687410Y500124D01*
X689091Y499428D01*
X690909D01*
X692590Y500124D01*
X693876Y501410D01*
X694572Y503091D01*
Y504909D01*
X693876Y506590D01*
X692590Y507876D01*
X690909Y508572D01*
X689091D01*
X687410Y507876D01*
X686865Y507331D01*
X625865D01*
X592484Y540713D01*
Y543575D01*
X592247Y544765D01*
X591573Y545773D01*
X591554Y545786D01*
Y547314D01*
X591573Y547327D01*
X592247Y548335D01*
X592323Y548719D01*
X603482D01*
X604024Y547410D01*
X605310Y546124D01*
X606991Y545428D01*
X608809D01*
X610490Y546124D01*
X611776Y547410D01*
X612472Y549091D01*
Y550909D01*
X611776Y552590D01*
X610490Y553876D01*
X608809Y554572D01*
X606991D01*
X605310Y553876D01*
X604815Y553381D01*
X592323D01*
X592247Y553765D01*
X591573Y554773D01*
X590565Y555447D01*
X589375Y555684D01*
D02*
G37*
G36*
X362524Y524024D02*
X349476D01*
Y518231D01*
X340124D01*
Y523774D01*
X307476D01*
Y508026D01*
X340124D01*
Y513569D01*
X349476D01*
Y510976D01*
X362524D01*
Y524024D01*
D02*
G37*
G36*
X362024Y499024D02*
X348976D01*
Y492831D01*
X307324D01*
Y498374D01*
X274676D01*
Y482626D01*
X307324D01*
Y488169D01*
X348976D01*
Y485976D01*
X362024D01*
Y499024D01*
D02*
G37*
G36*
X664024Y486524D02*
X650976D01*
Y482331D01*
X627983D01*
X627876Y482590D01*
X626590Y483876D01*
X624909Y484572D01*
X623091D01*
X621410Y483876D01*
X620124Y482590D01*
X619428Y480909D01*
Y479091D01*
X620124Y477410D01*
X621410Y476124D01*
X623091Y475428D01*
X624909D01*
X626590Y476124D01*
X627876Y477410D01*
X627983Y477669D01*
X650976D01*
Y473476D01*
X664024D01*
Y486524D01*
D02*
G37*
G36*
X769264Y496824D02*
X730616D01*
Y491281D01*
X683450D01*
X682558Y491103D01*
X681802Y490598D01*
X677728Y486524D01*
X667976D01*
Y473476D01*
X681024D01*
Y483228D01*
X684415Y486619D01*
X730616D01*
Y481076D01*
X769264D01*
Y496824D01*
D02*
G37*
G36*
X742564Y471424D02*
X703916D01*
Y465881D01*
X681024D01*
Y466524D01*
X667976D01*
Y453476D01*
X681024D01*
Y461219D01*
X703916D01*
Y455676D01*
X742564D01*
Y471424D01*
D02*
G37*
G36*
X779000Y638331D02*
X361000D01*
X360108Y638153D01*
X359352Y637648D01*
X264352Y542648D01*
X263847Y541892D01*
X263669Y541000D01*
Y460893D01*
X263847Y460001D01*
X264352Y459245D01*
X265245Y458352D01*
X266001Y457847D01*
X266893Y457669D01*
X274669D01*
Y445288D01*
X274676Y445254D01*
Y431826D01*
X288669D01*
Y405893D01*
X288847Y405001D01*
X289352Y404245D01*
X290245Y403352D01*
X291001Y402847D01*
X291893Y402669D01*
X302669D01*
Y391484D01*
X290696D01*
Y379936D01*
X308744D01*
Y391484D01*
X307331D01*
Y404107D01*
X307153Y404999D01*
X306648Y405755D01*
X305755Y406648D01*
X304999Y407153D01*
X304107Y407331D01*
X293331D01*
Y431826D01*
X307324D01*
Y447574D01*
X279331D01*
Y459107D01*
X279153Y459999D01*
X278648Y460755D01*
X277755Y461648D01*
X276999Y462153D01*
X276107Y462331D01*
X268331D01*
Y540035D01*
X273503Y545206D01*
X274676Y544720D01*
Y533426D01*
X307324D01*
Y538969D01*
X349476D01*
Y538476D01*
X362524D01*
Y551524D01*
X349476D01*
Y543631D01*
X307324D01*
Y549174D01*
X279130D01*
X278643Y550347D01*
X361965Y633669D01*
X778035D01*
X783919Y627785D01*
Y476524D01*
X770976D01*
Y463476D01*
X784024D01*
Y467669D01*
X788476D01*
Y463476D01*
X801524D01*
Y476524D01*
X788581D01*
Y628750D01*
X788403Y629642D01*
X787898Y630398D01*
X780648Y637648D01*
X779892Y638153D01*
X779000Y638331D01*
D02*
G37*
G36*
X664024Y466524D02*
X650976D01*
Y462331D01*
X631135D01*
X630590Y462876D01*
X628909Y463572D01*
X627091D01*
X625410Y462876D01*
X624124Y461590D01*
X623428Y459909D01*
Y458091D01*
X624124Y456410D01*
X625410Y455124D01*
X627091Y454428D01*
X628909D01*
X630590Y455124D01*
X631876Y456410D01*
X632397Y457669D01*
X650976D01*
Y453476D01*
X664024D01*
Y466524D01*
D02*
G37*
G36*
X379524Y551524D02*
X366476D01*
Y538476D01*
X376228D01*
X454352Y460352D01*
X455108Y459847D01*
X456000Y459669D01*
X494865D01*
X495410Y459124D01*
X497091Y458428D01*
X498909D01*
X500590Y459124D01*
X501876Y460410D01*
X502572Y462091D01*
Y463909D01*
X501876Y465590D01*
X500590Y466876D01*
X498909Y467572D01*
X497091D01*
X495410Y466876D01*
X494124Y465590D01*
X493602Y464331D01*
X456965D01*
X379524Y541772D01*
Y551524D01*
D02*
G37*
G36*
X340124Y472974D02*
X307476D01*
Y457226D01*
X335507D01*
Y448055D01*
X335685Y447163D01*
X336190Y446407D01*
X336208Y446389D01*
X336964Y445883D01*
X337856Y445706D01*
X338492D01*
X338962Y444572D01*
X340248Y443286D01*
X341929Y442590D01*
X343747D01*
X345428Y443286D01*
X346714Y444572D01*
X347410Y446253D01*
Y448071D01*
X346714Y449752D01*
X345428Y451038D01*
X343747Y451734D01*
X341929D01*
X341439Y451531D01*
X340169Y452380D01*
Y459512D01*
X340124Y459737D01*
Y472974D01*
D02*
G37*
G36*
X784024Y459524D02*
X770976D01*
Y446476D01*
X775169D01*
Y439831D01*
X769264D01*
Y446024D01*
X730616D01*
Y440481D01*
X681024D01*
Y444024D01*
X667976D01*
Y430976D01*
X681024D01*
Y435819D01*
X730616D01*
Y430276D01*
X769264D01*
Y435169D01*
X776607D01*
X777499Y435347D01*
X778255Y435852D01*
X779148Y436745D01*
X779653Y437501D01*
X779831Y438393D01*
Y446476D01*
X784024D01*
Y459524D01*
D02*
G37*
G36*
X801524D02*
X788476D01*
Y446476D01*
X792669D01*
Y412331D01*
X742564D01*
Y420624D01*
X703916D01*
Y417331D01*
X681024D01*
Y421524D01*
X667976D01*
Y408476D01*
X681024D01*
Y412669D01*
X703916D01*
Y404876D01*
X742564D01*
Y407669D01*
X794107D01*
X794999Y407847D01*
X795755Y408352D01*
X796648Y409245D01*
X797153Y410001D01*
X797331Y410893D01*
Y446476D01*
X801524D01*
Y459524D01*
D02*
G37*
G36*
X619909Y410572D02*
X618091D01*
X616410Y409876D01*
X615124Y408590D01*
X615017Y408331D01*
X604983D01*
X604876Y408590D01*
X603590Y409876D01*
X601909Y410572D01*
X600091D01*
X598410Y409876D01*
X597124Y408590D01*
X596428Y406909D01*
Y405091D01*
X597124Y403410D01*
X598410Y402124D01*
X599091Y401842D01*
X599091Y400949D01*
X598965Y400520D01*
X597410Y399876D01*
X596124Y398590D01*
X595428Y396909D01*
Y395091D01*
X596124Y393410D01*
X597410Y392124D01*
X599091Y391428D01*
X600909D01*
X602590Y392124D01*
X603876Y393410D01*
X603983Y393669D01*
X624017D01*
X624124Y393410D01*
X625410Y392124D01*
X627091Y391428D01*
X628909D01*
X630590Y392124D01*
X631876Y393410D01*
X632572Y395091D01*
Y396909D01*
X631876Y398590D01*
X630590Y399876D01*
X628909Y400572D01*
X627091D01*
X625410Y399876D01*
X624124Y398590D01*
X624017Y398331D01*
X603983D01*
X603876Y398590D01*
X602590Y399876D01*
X601909Y400158D01*
X601909Y401051D01*
X602035Y401480D01*
X603590Y402124D01*
X604876Y403410D01*
X604983Y403669D01*
X615017D01*
X615124Y403410D01*
X616410Y402124D01*
X618091Y401428D01*
X619909D01*
X621590Y402124D01*
X622876Y403410D01*
X623572Y405091D01*
Y406909D01*
X622876Y408590D01*
X621590Y409876D01*
X619909Y410572D01*
D02*
G37*
G36*
X645856Y392572D02*
X644037D01*
X642357Y391876D01*
X641070Y390590D01*
X640374Y388909D01*
Y387091D01*
X640482Y386832D01*
X610981Y357331D01*
X598393D01*
X597501Y357153D01*
X596745Y356648D01*
X595852Y355755D01*
X595347Y354999D01*
X595169Y354107D01*
Y346524D01*
X590976D01*
Y333476D01*
X604024D01*
Y346524D01*
X599831D01*
Y352669D01*
X621476D01*
Y350976D01*
X634524D01*
Y364024D01*
X625926D01*
X625440Y365197D01*
X643778Y383535D01*
X644037Y383428D01*
X645856D01*
X647536Y384124D01*
X648822Y385410D01*
X649518Y387091D01*
Y388909D01*
X648822Y390590D01*
X647536Y391876D01*
X645856Y392572D01*
D02*
G37*
G36*
X769264Y395224D02*
X730616D01*
Y382772D01*
X729675Y381831D01*
X691524D01*
Y386024D01*
X678476D01*
Y372976D01*
X691524D01*
Y377169D01*
X730640D01*
X731532Y377347D01*
X732288Y377852D01*
X733912Y379476D01*
X769264D01*
Y385019D01*
X775428D01*
Y384091D01*
X776124Y382410D01*
X777410Y381124D01*
X779091Y380428D01*
X780909D01*
X782590Y381124D01*
X783876Y382410D01*
X784572Y384091D01*
Y385909D01*
X783876Y387590D01*
X782590Y388876D01*
X780909Y389572D01*
X779091D01*
X778689Y389405D01*
X778542Y389503D01*
X777650Y389681D01*
X769264D01*
Y395224D01*
D02*
G37*
G36*
X379024Y499024D02*
X365976D01*
Y485976D01*
X370169D01*
Y395893D01*
X370347Y395001D01*
X370852Y394245D01*
X371745Y393352D01*
X372501Y392847D01*
X373393Y392669D01*
X460757D01*
X461649Y392847D01*
X462405Y393352D01*
X463298Y394245D01*
X463803Y395001D01*
X463981Y395893D01*
Y413977D01*
X464365Y414053D01*
X465373Y414727D01*
X465386Y414746D01*
X466914D01*
X466927Y414727D01*
X467935Y414053D01*
X467994Y414041D01*
Y366118D01*
X467410Y365876D01*
X466124Y364590D01*
X465428Y362909D01*
Y361091D01*
X466124Y359410D01*
X467410Y358124D01*
X469091Y357428D01*
X470909D01*
X472590Y358124D01*
X473876Y359410D01*
X474572Y361091D01*
Y362909D01*
X473876Y364590D01*
X472656Y365810D01*
Y413912D01*
X473365Y414053D01*
X474373Y414727D01*
X474386Y414746D01*
X475914D01*
X475927Y414727D01*
X476935Y414053D01*
X477494Y413942D01*
Y400911D01*
X477410Y400876D01*
X476124Y399590D01*
X475428Y397909D01*
Y396091D01*
X476124Y394410D01*
X477410Y393124D01*
X479091Y392428D01*
X480909D01*
X482590Y393124D01*
X483876Y394410D01*
X484572Y396091D01*
Y397909D01*
X483876Y399590D01*
X482590Y400876D01*
X482156Y401056D01*
Y414011D01*
X482365Y414053D01*
X483373Y414727D01*
X483436Y414821D01*
X484964D01*
X485027Y414727D01*
X486035Y414053D01*
X487044Y413852D01*
Y408510D01*
X486124Y407590D01*
X485428Y405909D01*
Y404091D01*
X486124Y402410D01*
X487410Y401124D01*
X489091Y400428D01*
X490909D01*
X492590Y401124D01*
X493876Y402410D01*
X494572Y404091D01*
Y405909D01*
X493876Y407590D01*
X492590Y408876D01*
X491706Y409242D01*
Y414214D01*
X492473Y414727D01*
X492486Y414746D01*
X494014D01*
X494027Y414727D01*
X495035Y414053D01*
X496225Y413816D01*
X499275D01*
X500465Y414053D01*
X501473Y414727D01*
X502668Y414670D01*
X503669Y413748D01*
Y367965D01*
X489035Y353331D01*
X472817D01*
X471925Y353153D01*
X471169Y352648D01*
X447152Y328631D01*
X446647Y327875D01*
X446469Y326983D01*
Y317624D01*
X440926D01*
Y278976D01*
X456674D01*
Y317624D01*
X451131D01*
Y326017D01*
X465153Y340039D01*
X466326Y339553D01*
Y305676D01*
X482074D01*
Y339707D01*
X491038D01*
X491930Y339885D01*
X492686Y340390D01*
X516399Y364103D01*
X517376Y363832D01*
X517669Y363623D01*
Y351965D01*
X497952Y332248D01*
X497447Y331492D01*
X497269Y330600D01*
Y317624D01*
X491726D01*
Y278976D01*
X507474D01*
Y317624D01*
X501931D01*
Y329635D01*
X515856Y343560D01*
X517126Y343034D01*
Y305676D01*
X532874D01*
Y344324D01*
X527331D01*
Y369035D01*
X534648Y376352D01*
X535153Y377108D01*
X535331Y378000D01*
Y413827D01*
X536465Y414053D01*
X537473Y414727D01*
X537536Y414821D01*
X539064D01*
X539127Y414727D01*
X540135Y414053D01*
X541325Y413816D01*
X544375D01*
X545565Y414053D01*
X546573Y414727D01*
X546586Y414746D01*
X548114D01*
X548127Y414727D01*
X549135Y414053D01*
X550325Y413816D01*
X553375D01*
X554565Y414053D01*
X555573Y414727D01*
X555586Y414746D01*
X557114D01*
X557127Y414727D01*
X558135Y414053D01*
X559325Y413816D01*
X562375D01*
X563565Y414053D01*
X564573Y414727D01*
X565721Y414438D01*
X566544Y413655D01*
Y382346D01*
X565410Y381876D01*
X564124Y380590D01*
X563428Y378909D01*
Y377091D01*
X564124Y375410D01*
X565410Y374124D01*
X567091Y373428D01*
X568909D01*
X570590Y374124D01*
X571876Y375410D01*
X572572Y377091D01*
Y378909D01*
X571876Y380590D01*
X571206Y381260D01*
Y413816D01*
X571375D01*
X572565Y414053D01*
X573573Y414727D01*
X574247Y415735D01*
X574484Y416925D01*
Y426575D01*
X574247Y427765D01*
X573573Y428773D01*
X572565Y429447D01*
X571375Y429684D01*
X568325D01*
X567135Y429447D01*
X566127Y428773D01*
X566114Y428754D01*
X564586D01*
X564573Y428773D01*
X563565Y429447D01*
X562375Y429684D01*
X559325D01*
X558135Y429447D01*
X557127Y428773D01*
X557114Y428754D01*
X555586D01*
X555573Y428773D01*
X554565Y429447D01*
X553375Y429684D01*
X550325D01*
X549135Y429447D01*
X548127Y428773D01*
X548114Y428754D01*
X546586D01*
X546573Y428773D01*
X545565Y429447D01*
X544375Y429684D01*
X541325D01*
X540135Y429447D01*
X539127Y428773D01*
X539064Y428679D01*
X537536D01*
X537473Y428773D01*
X536465Y429447D01*
X535275Y429684D01*
X532225D01*
X531035Y429447D01*
X530027Y428773D01*
X530014Y428754D01*
X528486D01*
X528473Y428773D01*
X527465Y429447D01*
X526275Y429684D01*
X523225D01*
X522035Y429447D01*
X521027Y428773D01*
X521014Y428754D01*
X519486D01*
X519473Y428773D01*
X518465Y429447D01*
X517275Y429684D01*
X514225D01*
X513035Y429447D01*
X512027Y428773D01*
X512014Y428754D01*
X510486D01*
X510473Y428773D01*
X509465Y429447D01*
X508275Y429684D01*
X505225D01*
X504035Y429447D01*
X503027Y428773D01*
X503014Y428754D01*
X501486D01*
X501473Y428773D01*
X500465Y429447D01*
X499275Y429684D01*
X496225D01*
X495035Y429447D01*
X494027Y428773D01*
X494014Y428754D01*
X492486D01*
X492473Y428773D01*
X491465Y429447D01*
X490275Y429684D01*
X487225D01*
X486035Y429447D01*
X485027Y428773D01*
X484964Y428679D01*
X483436D01*
X483373Y428773D01*
X482365Y429447D01*
X481175Y429684D01*
X478125D01*
X476935Y429447D01*
X475927Y428773D01*
X475914Y428754D01*
X474386D01*
X474373Y428773D01*
X473365Y429447D01*
X472175Y429684D01*
X469125D01*
X467935Y429447D01*
X466927Y428773D01*
X466914Y428754D01*
X465386D01*
X465373Y428773D01*
X464365Y429447D01*
X463175Y429684D01*
X460125D01*
X458935Y429447D01*
X457927Y428773D01*
X457914Y428754D01*
X456386D01*
X456373Y428773D01*
X455365Y429447D01*
X454175Y429684D01*
X451125D01*
X449935Y429447D01*
X448927Y428773D01*
X448253Y427765D01*
X448016Y426575D01*
Y420018D01*
X437687D01*
X436795Y419840D01*
X436208Y419448D01*
X435909Y419572D01*
X434091D01*
X432410Y418876D01*
X431124Y417590D01*
X430428Y415909D01*
Y414091D01*
X431124Y412410D01*
X432410Y411124D01*
X434091Y410428D01*
X435909D01*
X437590Y411124D01*
X438876Y412410D01*
X439572Y414091D01*
Y415356D01*
X448506D01*
X448927Y414727D01*
X449935Y414053D01*
X451125Y413816D01*
X454175D01*
X455365Y414053D01*
X456373Y414727D01*
X456386Y414746D01*
X457914D01*
X457927Y414727D01*
X458935Y414053D01*
X459319Y413977D01*
Y397331D01*
X374831D01*
Y485976D01*
X379024D01*
Y499024D01*
D02*
G37*
G36*
X456909Y380572D02*
X455091D01*
X453410Y379876D01*
X452124Y378590D01*
X452017Y378331D01*
X363500D01*
X362608Y378153D01*
X361852Y377648D01*
X343228Y359024D01*
X333476D01*
Y345976D01*
X346524D01*
Y355728D01*
X364465Y373669D01*
X452017D01*
X452124Y373410D01*
X453410Y372124D01*
X455091Y371428D01*
X456909D01*
X458590Y372124D01*
X459876Y373410D01*
X460572Y375091D01*
Y376909D01*
X459876Y378590D01*
X458590Y379876D01*
X456909Y380572D01*
D02*
G37*
G36*
X721970Y370840D02*
X702900D01*
Y364281D01*
X692540D01*
Y370040D01*
X686270D01*
Y362500D01*
Y354960D01*
X692540D01*
Y359619D01*
X702900D01*
Y353060D01*
X721970D01*
Y361950D01*
Y370840D01*
D02*
G37*
G36*
X683730Y370040D02*
X677460D01*
Y363770D01*
X683730D01*
Y370040D01*
D02*
G37*
G36*
X743580Y370840D02*
X724510D01*
Y363220D01*
X743580D01*
Y370840D01*
D02*
G37*
G36*
X683730Y361230D02*
X677460D01*
Y354960D01*
X683730D01*
Y361230D01*
D02*
G37*
G36*
X743580Y360680D02*
X724510D01*
Y353060D01*
X743580D01*
Y360680D01*
D02*
G37*
G36*
X308744Y376984D02*
X290696D01*
Y365436D01*
X293139D01*
Y357530D01*
X293317Y356638D01*
X293822Y355882D01*
X316476Y333228D01*
Y323476D01*
X329524D01*
Y336524D01*
X319772D01*
X297801Y358495D01*
Y365436D01*
X305448D01*
X315794Y355090D01*
X316476Y354634D01*
Y345976D01*
X329524D01*
Y359024D01*
X318987D01*
X318762Y359069D01*
X318407D01*
X308744Y368732D01*
Y376984D01*
D02*
G37*
G36*
X346524Y336524D02*
X333476D01*
Y323476D01*
X346524D01*
Y327669D01*
X366017D01*
X366124Y327410D01*
X367410Y326124D01*
X369091Y325428D01*
X370909D01*
X372590Y326124D01*
X373876Y327410D01*
X374572Y329091D01*
Y330909D01*
X373876Y332590D01*
X372590Y333876D01*
X370909Y334572D01*
X369091D01*
X367410Y333876D01*
X366124Y332590D01*
X366017Y332331D01*
X346524D01*
Y336524D01*
D02*
G37*
G36*
X650909Y344572D02*
X649091D01*
X647410Y343876D01*
X646124Y342590D01*
X645428Y340909D01*
Y339091D01*
X646124Y337410D01*
X647410Y336124D01*
X647669Y336017D01*
Y332331D01*
X645000D01*
X644108Y332153D01*
X643352Y331648D01*
X639090Y327386D01*
X638585Y326630D01*
X638407Y325738D01*
Y324274D01*
X628476D01*
Y313726D01*
X643024D01*
Y321763D01*
X643069Y321988D01*
Y324773D01*
X645965Y327669D01*
X653285D01*
X659976Y320978D01*
Y313726D01*
X674524D01*
Y324274D01*
X663272D01*
X655898Y331648D01*
X655142Y332153D01*
X654250Y332331D01*
X652331D01*
Y336017D01*
X652590Y336124D01*
X653876Y337410D01*
X654572Y339091D01*
Y340909D01*
X653876Y342590D01*
X652590Y343876D01*
X650909Y344572D01*
D02*
G37*
G36*
X652499Y317774D02*
X650501D01*
X648654Y317009D01*
X647241Y315596D01*
X646476Y313749D01*
Y311751D01*
X647241Y309904D01*
X648654Y308491D01*
X650501Y307726D01*
X652499D01*
X654346Y308491D01*
X655759Y309904D01*
X656524Y311751D01*
Y313749D01*
X655759Y315596D01*
X654346Y317009D01*
X652499Y317774D01*
D02*
G37*
G36*
X651524Y364024D02*
X638476D01*
Y350976D01*
X651524D01*
Y352669D01*
X663035D01*
X700669Y315035D01*
Y309024D01*
X696476D01*
Y306081D01*
X678524D01*
Y312274D01*
X665976D01*
Y295226D01*
X678524D01*
Y301419D01*
X696476D01*
Y295976D01*
X709524D01*
Y309024D01*
X705331D01*
Y316000D01*
X705153Y316892D01*
X704648Y317648D01*
X665648Y356648D01*
X664892Y357153D01*
X664000Y357331D01*
X651524D01*
Y364024D01*
D02*
G37*
G36*
X726524Y309024D02*
X713476D01*
Y295976D01*
X726524D01*
Y300169D01*
X735428D01*
Y299091D01*
X736124Y297410D01*
X737410Y296124D01*
X739091Y295428D01*
X740909D01*
X742590Y296124D01*
X743876Y297410D01*
X744572Y299091D01*
Y300909D01*
X743876Y302590D01*
X742590Y303876D01*
X740909Y304572D01*
X739091D01*
X738735Y304424D01*
X738392Y304653D01*
X737500Y304831D01*
X726524D01*
Y309024D01*
D02*
G37*
G36*
X566802Y359572D02*
X564983D01*
X563303Y358876D01*
X562017Y357590D01*
X561321Y355909D01*
Y354091D01*
X562017Y352410D01*
X563303Y351124D01*
X564983Y350428D01*
X566802D01*
X568483Y351124D01*
X569769Y352410D01*
X569876Y352669D01*
X578669D01*
Y316000D01*
X578847Y315108D01*
X579352Y314352D01*
X582602Y311102D01*
X583358Y310597D01*
X584250Y310419D01*
X595169D01*
Y309024D01*
X590976D01*
Y295976D01*
X604024D01*
Y309024D01*
X599831D01*
Y310419D01*
X607285D01*
X615352Y302352D01*
X616108Y301847D01*
X617000Y301669D01*
X624476D01*
Y295226D01*
X637024D01*
Y312274D01*
X624476D01*
Y306331D01*
X617965D01*
X609898Y314398D01*
X609142Y314903D01*
X608250Y315081D01*
X599831D01*
Y316476D01*
X604024D01*
Y329524D01*
X590976D01*
Y316476D01*
X595169D01*
Y315081D01*
X585215D01*
X583331Y316965D01*
Y354107D01*
X583153Y354999D01*
X582648Y355755D01*
X581755Y356648D01*
X580999Y357153D01*
X580107Y357331D01*
X569876D01*
X569769Y357590D01*
X568483Y358876D01*
X566802Y359572D01*
D02*
G37*
G36*
X652499Y299774D02*
X650501D01*
X648654Y299009D01*
X647241Y297596D01*
X646476Y295749D01*
Y293751D01*
X647241Y291904D01*
X648654Y290491D01*
X650501Y289726D01*
X652499D01*
X654346Y290491D01*
X655759Y291904D01*
X656524Y293751D01*
Y295749D01*
X655759Y297596D01*
X654346Y299009D01*
X652499Y299774D01*
D02*
G37*
G36*
X551909Y344679D02*
X550091D01*
X548410Y343983D01*
X547124Y342697D01*
X546428Y341017D01*
Y339198D01*
X547124Y337517D01*
X548410Y336231D01*
X548669Y336124D01*
Y317624D01*
X542526D01*
Y278976D01*
X558274D01*
Y317624D01*
X553331D01*
Y336124D01*
X553590Y336231D01*
X554876Y337517D01*
X555572Y339198D01*
Y341017D01*
X554876Y342697D01*
X553590Y343983D01*
X551909Y344679D01*
D02*
G37*
G36*
X674524Y293774D02*
X659976D01*
Y286522D01*
X652406Y278952D01*
X650909Y279572D01*
X649974D01*
X643024Y286522D01*
Y293774D01*
X628476D01*
Y283226D01*
X639728D01*
X644450Y278504D01*
X643964Y277331D01*
X608965D01*
X604024Y282272D01*
Y292024D01*
X590976D01*
Y278976D01*
X600728D01*
X606352Y273352D01*
X607108Y272847D01*
X608000Y272669D01*
X646017D01*
X646124Y272410D01*
X647410Y271124D01*
X649091Y270428D01*
X650909D01*
X652590Y271124D01*
X653876Y272410D01*
X654572Y274091D01*
Y274526D01*
X663272Y283226D01*
X674524D01*
Y293774D01*
D02*
G37*
%LPD*%
G36*
X696802Y583601D02*
X696124Y582331D01*
X552000D01*
X551108Y582153D01*
X550352Y581648D01*
X549459Y580755D01*
X548954Y579999D01*
X548776Y579107D01*
Y561607D01*
X548127Y561173D01*
X548114Y561154D01*
X546586D01*
X546573Y561173D01*
X545565Y561847D01*
X545331Y561894D01*
Y583669D01*
X696757D01*
X696802Y583601D01*
D02*
G37*
G36*
X576853Y449135D02*
X577527Y448127D01*
X577546Y448114D01*
Y446791D01*
X576620Y445756D01*
X503221D01*
X502876Y446590D01*
X501590Y447876D01*
X500689Y448249D01*
X500941Y449519D01*
X576777D01*
X576853Y449135D01*
D02*
G37*
G36*
X521027Y414727D02*
X522035Y414053D01*
X523225Y413816D01*
X523669D01*
Y381965D01*
X518601Y376897D01*
X517624Y377168D01*
X517331Y377377D01*
Y413827D01*
X518465Y414053D01*
X519473Y414727D01*
X519486Y414746D01*
X521014D01*
X521027Y414727D01*
D02*
G37*
G36*
X511668Y414670D02*
X512669Y413748D01*
Y366965D01*
X490073Y344369D01*
X479788D01*
X479563Y344324D01*
X471097D01*
X470611Y345497D01*
X473783Y348669D01*
X490000D01*
X490892Y348847D01*
X491648Y349352D01*
X507648Y365352D01*
X508153Y366108D01*
X508331Y367000D01*
Y413827D01*
X509465Y414053D01*
X510473Y414727D01*
X511668Y414670D01*
D02*
G37*
D11*
X569850Y421750D02*
D03*
X560850D02*
D03*
X551850D02*
D03*
X533750D02*
D03*
X506750D02*
D03*
X515750D02*
D03*
X524750D02*
D03*
X542850D02*
D03*
X497750D02*
D03*
X488750D02*
D03*
X479650D02*
D03*
X470650D02*
D03*
X461650D02*
D03*
X452650D02*
D03*
X569850Y554150D02*
D03*
X560850D02*
D03*
X551850D02*
D03*
X533750D02*
D03*
X506750D02*
D03*
X515750D02*
D03*
X524750D02*
D03*
X542850D02*
D03*
X497750D02*
D03*
X488750D02*
D03*
X479650D02*
D03*
X470650D02*
D03*
X461650D02*
D03*
X452650D02*
D03*
D12*
X584550Y469950D02*
D03*
Y460950D02*
D03*
Y433850D02*
D03*
Y424850D02*
D03*
Y442850D02*
D03*
Y451850D02*
D03*
Y478950D02*
D03*
Y487950D02*
D03*
Y551050D02*
D03*
Y542050D02*
D03*
Y515050D02*
D03*
Y505950D02*
D03*
Y496950D02*
D03*
Y524050D02*
D03*
Y533050D02*
D03*
D13*
X373000Y545000D02*
D03*
X356000D02*
D03*
X373000Y517500D02*
D03*
X356000D02*
D03*
X455000Y595000D02*
D03*
X438000D02*
D03*
X454500Y617500D02*
D03*
X437500D02*
D03*
X703000Y302500D02*
D03*
X720000D02*
D03*
X628000Y357500D02*
D03*
X645000D02*
D03*
X372500Y492500D02*
D03*
X355500D02*
D03*
X657500Y415000D02*
D03*
X674500D02*
D03*
X323000Y330000D02*
D03*
X340000D02*
D03*
X323000Y352500D02*
D03*
X340000D02*
D03*
X657500Y460000D02*
D03*
X674500D02*
D03*
X657500Y480000D02*
D03*
X674500D02*
D03*
X657500Y437500D02*
D03*
X674500D02*
D03*
D14*
X777500Y453000D02*
D03*
Y470000D02*
D03*
X795000Y453000D02*
D03*
Y470000D02*
D03*
X597500Y340000D02*
D03*
Y323000D02*
D03*
Y302500D02*
D03*
Y285500D02*
D03*
X685000Y379500D02*
D03*
Y362500D02*
D03*
D15*
X723240Y412750D02*
D03*
Y514350D02*
D03*
D16*
Y463550D02*
D03*
X749940Y438150D02*
D03*
X723240Y361950D02*
D03*
X749940Y387350D02*
D03*
Y539750D02*
D03*
Y488950D02*
D03*
Y590550D02*
D03*
X723240Y565150D02*
D03*
D17*
X672250Y303750D02*
D03*
X630750D02*
D03*
D18*
X667250Y319000D02*
D03*
X635750D02*
D03*
X667250Y288500D02*
D03*
X635750D02*
D03*
D19*
X499600Y298300D02*
D03*
D20*
X448800D02*
D03*
X474200Y325000D02*
D03*
X550400Y298300D02*
D03*
X525000Y325000D02*
D03*
D21*
X477500Y597500D02*
D03*
X502500D02*
D03*
D22*
X323800Y465100D02*
D03*
X291000Y439700D02*
D03*
Y541300D02*
D03*
X323800Y515900D02*
D03*
X291000Y490500D02*
D03*
D23*
X295470Y385710D02*
D03*
X303970D02*
D03*
X295470Y371210D02*
D03*
X303970D02*
D03*
D38*
X435000Y415000D02*
X437687Y417687D01*
X373393Y395000D02*
X460757D01*
X372500Y395893D02*
X373393Y395000D01*
X460757D02*
X461650Y395893D01*
X340000Y352500D02*
X363500Y376000D01*
X456000D01*
X450420Y417687D02*
X452650Y419917D01*
Y421750D01*
X437687Y417687D02*
X450420D01*
X649625Y330000D02*
X654250D01*
X645000D02*
X649625D01*
X650000Y330375D02*
Y340000D01*
X649625Y330000D02*
X650000Y330375D01*
X654250Y330000D02*
X665250Y319000D01*
X667250D01*
X640738Y325738D02*
X645000Y330000D01*
X637750Y319000D02*
X640738Y321988D01*
X635750Y319000D02*
X637750D01*
X640738Y321988D02*
Y325738D01*
X652625Y275875D02*
X665250Y288500D01*
X667250D01*
X650875Y275875D02*
X652625D01*
X650000Y275000D02*
X650875Y275875D01*
X635750Y288500D02*
X637750D01*
X649125Y277125D01*
Y275875D02*
Y277125D01*
Y275875D02*
X650000Y275000D01*
X608000D02*
X650000D01*
X607900Y550000D02*
Y550157D01*
X607007Y551050D02*
X607900Y550157D01*
X584550Y551050D02*
X607007D01*
X584550D02*
X585600Y550000D01*
X597500Y285500D02*
X608000Y275000D01*
X452650Y555983D02*
Y557450D01*
X430000Y560000D02*
X431787Y558213D01*
X450420D01*
X461650Y395893D02*
Y421750D01*
X456000Y462000D02*
X495000D01*
X373000Y545000D02*
X456000Y462000D01*
X452650Y554150D02*
Y555983D01*
X450420Y558213D02*
X452650Y555983D01*
X341963Y448037D02*
X342838Y447162D01*
X337856Y448037D02*
X341963D01*
X337838Y448055D02*
X337856Y448037D01*
X337838Y448055D02*
Y459512D01*
X332250Y465100D02*
X337838Y459512D01*
X323800Y465100D02*
X332250D01*
X372500Y395893D02*
Y492500D01*
X777650Y387350D02*
X780000Y385000D01*
X749940Y387350D02*
X777650D01*
X737500Y302500D02*
X740000Y300000D01*
X720000Y302500D02*
X737500D01*
X664000Y355000D02*
X703000Y316000D01*
X647500Y355000D02*
X664000D01*
X645000Y357500D02*
X647500Y355000D01*
X550400Y298300D02*
X551000Y298900D01*
Y340107D01*
X689000Y505000D02*
X690000Y504000D01*
X683450Y488950D02*
X749940D01*
X674500Y480000D02*
X683450Y488950D01*
X624900Y505000D02*
X689000D01*
X568000Y378000D02*
X568875Y378875D01*
Y420775D01*
X584600Y542000D02*
X587900D01*
X624900Y505000D01*
X584550Y542050D02*
X584600Y542000D01*
X611946Y355000D02*
X625500D01*
X598393D02*
X611946D01*
X470352Y554448D02*
Y576648D01*
X470054Y576946D02*
X470352Y576648D01*
Y554448D02*
X470650Y554150D01*
X495125Y462125D02*
X497125D01*
X438650Y451850D02*
X584550D01*
X497125Y462125D02*
X498000Y463000D01*
X495000Y462000D02*
X495125Y462125D01*
X373000Y517500D02*
X438650Y451850D01*
X438000Y572100D02*
X452650Y557450D01*
X611946Y355000D02*
X644946Y388000D01*
X565893Y355000D02*
X580107D01*
X581000Y316000D02*
Y354107D01*
X580107Y355000D02*
X581000Y354107D01*
Y316000D02*
X584250Y312750D01*
X479825Y397175D02*
Y421575D01*
X479650Y421750D02*
X479825Y421575D01*
Y397175D02*
X480000Y397000D01*
X490000Y351000D02*
X506000Y367000D01*
X491038Y342038D02*
X515000Y366000D01*
X474200Y325000D02*
Y336450D01*
X506000Y367000D02*
Y421000D01*
X479788Y342038D02*
X491038D01*
X474200Y336450D02*
X479788Y342038D01*
X515000Y366000D02*
Y421000D01*
X448800Y326983D02*
X472817Y351000D01*
X448800Y298300D02*
Y326983D01*
X499600Y298300D02*
Y330600D01*
X472817Y351000D02*
X490000D01*
X499600Y330600D02*
X520000Y351000D01*
X470325Y362325D02*
Y421425D01*
X470000Y362000D02*
X470325Y362325D01*
X600000Y396000D02*
X628000D01*
X597500Y340000D02*
Y354107D01*
X598393Y355000D01*
X625500D02*
X628000Y357500D01*
X628000Y459000D02*
X629000Y460000D01*
X657500D01*
X635500Y437500D02*
X657500D01*
X606000Y467000D02*
X635500Y437500D01*
X584600Y470000D02*
X606000D01*
Y467000D02*
Y470000D01*
X520000Y351000D02*
Y375000D01*
X597700Y415000D02*
X657500D01*
X587850Y424850D02*
X597700Y415000D01*
X488750Y421750D02*
X489375Y421125D01*
Y405625D02*
Y421125D01*
Y405625D02*
X490000Y405000D01*
X601000Y406000D02*
X619000D01*
X624000Y480000D02*
X657500D01*
X568875Y420775D02*
X569850Y421750D01*
X611975Y478975D02*
X612000Y479000D01*
X584550Y478950D02*
X584575Y478975D01*
X611975D01*
X340000Y330000D02*
X370000D01*
X470325Y421425D02*
X470650Y421750D01*
X730640Y379500D02*
X738490Y387350D01*
X749940D01*
X685000Y379500D02*
X730640D01*
X584250Y312750D02*
X597500D01*
X499000Y444000D02*
X499575Y443425D01*
X583975D02*
X584550Y442850D01*
X499575Y443425D02*
X583975D01*
X533000Y421000D02*
X533750Y421750D01*
X524750D02*
X526000Y420500D01*
X533000Y378000D02*
Y421000D01*
X520000Y375000D02*
X526000Y381000D01*
Y420500D01*
X525000Y370000D02*
X533000Y378000D01*
X561000Y570000D02*
X565000Y574000D01*
X691000Y561000D02*
Y573107D01*
X565000Y574000D02*
X690107D01*
X691000Y573107D01*
X561000Y554300D02*
Y570000D01*
X699000Y562007D02*
Y579107D01*
X551107Y554893D02*
Y579107D01*
X552000Y580000D01*
X698107D01*
X699000Y579107D01*
Y586000D02*
X706202Y578798D01*
Y519938D02*
Y545798D01*
X691000Y561000D02*
X706202Y545798D01*
X560850Y554150D02*
X561000Y554300D01*
X543000D02*
Y585000D01*
X551107Y554893D02*
X551850Y554150D01*
X543000Y585000D02*
X544000Y586000D01*
X706202Y519938D02*
X711790Y514350D01*
X723240D01*
X699000Y562007D02*
X721257Y539750D01*
X749940D01*
X542850Y554150D02*
X543000Y554300D01*
X544000Y586000D02*
X699000D01*
X711790Y565150D02*
X723240D01*
X706202Y570738D02*
X711790Y565150D01*
X706202Y570738D02*
Y578798D01*
X533750Y554150D02*
X534000Y554400D01*
X534893Y590550D02*
X749940D01*
X534000Y554400D02*
Y589657D01*
X534893Y590550D01*
X497750Y557450D02*
X502500Y562200D01*
X497750Y554150D02*
Y557450D01*
X502500Y562200D02*
Y597500D01*
X488750Y554150D02*
X490000Y555400D01*
X487000Y584000D02*
X489107D01*
X490000Y555400D02*
Y583107D01*
X489107Y584000D02*
X490000Y583107D01*
X477500Y593500D02*
Y597500D01*
Y593500D02*
X487000Y584000D01*
X457500Y597500D02*
X477500D01*
X455000Y595000D02*
X457500Y597500D01*
X501500Y617500D02*
X502500Y616500D01*
Y597500D02*
Y616500D01*
X454500Y617500D02*
X501500D01*
X438000Y595000D02*
Y617000D01*
X437500Y617500D02*
X438000Y617000D01*
Y572100D02*
Y595000D01*
X584550Y424850D02*
X587850D01*
X584550Y469950D02*
X584600Y470000D01*
X678050Y463550D02*
X723240D01*
X674500Y460000D02*
X678050Y463550D01*
X674500Y437500D02*
X675150Y438150D01*
X749940D01*
X720990Y415000D02*
X723240Y412750D01*
X674500Y415000D02*
X720990D01*
X685000Y362500D02*
X685550Y361950D01*
X723240D01*
X703000Y302500D02*
Y316000D01*
X701750Y303750D02*
X703000Y302500D01*
X672250Y303750D02*
X701750D01*
X506000Y421000D02*
X506750Y421750D01*
X515000Y421000D02*
X515750Y421750D01*
X525000Y325000D02*
Y370000D01*
X597500Y312750D02*
Y323000D01*
Y302500D02*
Y312750D01*
X630500Y304000D02*
X630750Y303750D01*
X617000Y304000D02*
X630500D01*
X608250Y312750D02*
X617000Y304000D01*
X597500Y312750D02*
X608250D01*
X786250Y470000D02*
X795000D01*
X777500D02*
X786250D01*
Y628750D01*
X361000Y636000D02*
X779000D01*
X786250Y628750D01*
X266000Y541000D02*
X361000Y636000D01*
X266893Y460000D02*
X276107D01*
X266000Y460893D02*
X266893Y460000D01*
X266000Y460893D02*
Y541000D01*
X276107Y460000D02*
X277000Y459107D01*
Y445288D02*
Y459107D01*
X282588Y439700D02*
X291000D01*
X277000Y445288D02*
X282588Y439700D01*
X291000Y541300D02*
X352300D01*
X356000Y545000D01*
X354400Y515900D02*
X356000Y517500D01*
X323800Y515900D02*
X354400D01*
X291000Y490500D02*
X353500D01*
X355500Y492500D01*
X295470Y357530D02*
X323000Y330000D01*
X295470Y357530D02*
Y371210D01*
X303970Y370210D02*
X317442Y356738D01*
X318762D01*
X303970Y370210D02*
Y371210D01*
X318762Y356738D02*
X323000Y352500D01*
X303970Y385710D02*
X305000Y386740D01*
X304107Y405000D02*
X305000Y404107D01*
X291893Y405000D02*
X304107D01*
X305000Y386740D02*
Y404107D01*
X291000Y405893D02*
Y439700D01*
Y405893D02*
X291893Y405000D01*
X723240Y412750D02*
X725990Y410000D01*
X795000Y410893D02*
Y453000D01*
X725990Y410000D02*
X794107D01*
X795000Y410893D01*
X749940Y438150D02*
X750590Y437500D01*
X776607D01*
X777500Y438393D01*
Y453000D01*
D39*
X435000Y415000D02*
D03*
X650000Y340000D02*
D03*
Y275000D02*
D03*
X607900Y550000D02*
D03*
X430000Y560000D02*
D03*
X342838Y447162D02*
D03*
X780000Y385000D02*
D03*
X740000Y300000D02*
D03*
X551000Y340107D02*
D03*
X690000Y504000D02*
D03*
X568000Y378000D02*
D03*
X470054Y576946D02*
D03*
X644946Y388000D02*
D03*
X480000Y397000D02*
D03*
X600000Y396000D02*
D03*
X565893Y355000D02*
D03*
X628000Y396000D02*
D03*
Y459000D02*
D03*
X490000Y405000D02*
D03*
X456000Y376000D02*
D03*
X601000Y406000D02*
D03*
X619000D02*
D03*
X624000Y480000D02*
D03*
X612000Y479000D02*
D03*
X370000Y330000D02*
D03*
X470000Y362000D02*
D03*
X499000Y444000D02*
D03*
X498000Y463000D02*
D03*
M02*
