G04*
G04 #@! TF.GenerationSoftware,Altium Limited,Altium Designer,22.9.1 (49)*
G04*
G04 Layer_Color=16711935*
%FSLAX44Y44*%
%MOMM*%
G71*
G04*
G04 #@! TF.SameCoordinates,EB67C6D0-91D5-4CF3-8B5F-14A5E2A69FE3*
G04*
G04*
G04 #@! TF.FilePolarity,Negative*
G04*
G01*
G75*
%ADD37C,0.2032*%
%ADD40C,0.8128*%
D37*
X651500Y312750D02*
D03*
Y294750D02*
D03*
D40*
X435000Y415000D02*
D03*
X650000Y340000D02*
D03*
Y275000D02*
D03*
X607900Y550000D02*
D03*
X430000Y560000D02*
D03*
X342838Y447162D02*
D03*
X780000Y385000D02*
D03*
X740000Y300000D02*
D03*
X551000Y340107D02*
D03*
X690000Y504000D02*
D03*
X568000Y378000D02*
D03*
X470054Y576946D02*
D03*
X644946Y388000D02*
D03*
X480000Y397000D02*
D03*
X600000Y396000D02*
D03*
X565893Y355000D02*
D03*
X628000Y396000D02*
D03*
Y459000D02*
D03*
X490000Y405000D02*
D03*
X456000Y376000D02*
D03*
X601000Y406000D02*
D03*
X619000D02*
D03*
X624000Y480000D02*
D03*
X612000Y479000D02*
D03*
X370000Y330000D02*
D03*
X470000Y362000D02*
D03*
X499000Y444000D02*
D03*
X498000Y463000D02*
D03*
M02*
