G04*
G04 #@! TF.GenerationSoftware,Altium Limited,Altium Designer,22.9.1 (49)*
G04*
G04 Layer_Color=16711935*
%FSLAX44Y44*%
%MOMM*%
G71*
G04*
G04 #@! TF.SameCoordinates,EB67C6D0-91D5-4CF3-8B5F-14A5E2A69FE3*
G04*
G04*
G04 #@! TF.FilePolarity,Positive*
G04*
G01*
G75*
%ADD41C,0.1000*%
G36*
X374025Y548997D02*
X374053D01*
X374083Y548995D01*
X374121Y548990D01*
X374162Y548982D01*
X374205Y548974D01*
X374254Y548964D01*
X374304Y548952D01*
X374355Y548936D01*
X374406Y548916D01*
X374457Y548893D01*
X374505Y548868D01*
X374553Y548837D01*
X374599Y548802D01*
X374602Y548799D01*
X374609Y548792D01*
X374622Y548782D01*
X374637Y548764D01*
X374655Y548743D01*
X374675Y548718D01*
X374698Y548688D01*
X374723Y548652D01*
X374746Y548611D01*
X374772Y548568D01*
X374797Y548517D01*
X374820Y548464D01*
X374843Y548406D01*
X374863Y548342D01*
X374881Y548274D01*
X374894Y548202D01*
X374299Y548136D01*
Y548139D01*
Y548144D01*
X374297Y548154D01*
X374294Y548167D01*
X374292Y548182D01*
X374289Y548200D01*
X374276Y548238D01*
X374264Y548281D01*
X374243Y548327D01*
X374218Y548370D01*
X374188Y548406D01*
X374182Y548408D01*
X374170Y548418D01*
X374149Y548433D01*
X374121Y548449D01*
X374088Y548464D01*
X374045Y548479D01*
X373997Y548489D01*
X373944Y548492D01*
X373926D01*
X373913Y548489D01*
X373895Y548487D01*
X373878Y548482D01*
X373832Y548469D01*
X373784Y548449D01*
X373756Y548436D01*
X373730Y548418D01*
X373702Y548398D01*
X373674Y548375D01*
X373649Y548350D01*
X373624Y548319D01*
X373621Y548317D01*
X373619Y548312D01*
X373611Y548299D01*
X373601Y548284D01*
X373591Y548261D01*
X373578Y548235D01*
X373565Y548202D01*
X373553Y548162D01*
X373537Y548119D01*
X373522Y548065D01*
X373507Y548007D01*
X373494Y547941D01*
X373481Y547865D01*
X373469Y547783D01*
X373459Y547694D01*
X373451Y547595D01*
X373453Y547598D01*
X373461Y547606D01*
X373474Y547621D01*
X373492Y547636D01*
X373514Y547656D01*
X373542Y547679D01*
X373573Y547705D01*
X373611Y547727D01*
X373649Y547753D01*
X373695Y547778D01*
X373740Y547801D01*
X373794Y547821D01*
X373847Y547837D01*
X373905Y547849D01*
X373966Y547859D01*
X374030Y547862D01*
X374048D01*
X374066Y547859D01*
X374094Y547857D01*
X374127Y547852D01*
X374165Y547847D01*
X374208Y547837D01*
X374254Y547826D01*
X374304Y547811D01*
X374355Y547791D01*
X374411Y547768D01*
X374464Y547740D01*
X374520Y547707D01*
X374576Y547669D01*
X374629Y547623D01*
X374683Y547573D01*
X374685Y547570D01*
X374696Y547560D01*
X374708Y547542D01*
X374726Y547519D01*
X374746Y547491D01*
X374769Y547456D01*
X374792Y547415D01*
X374817Y547367D01*
X374843Y547316D01*
X374868Y547257D01*
X374891Y547197D01*
X374911Y547128D01*
X374929Y547057D01*
X374942Y546981D01*
X374952Y546899D01*
X374954Y546813D01*
Y546810D01*
Y546808D01*
Y546800D01*
Y546790D01*
X374952Y546765D01*
X374949Y546732D01*
X374947Y546691D01*
X374939Y546643D01*
X374932Y546590D01*
X374919Y546531D01*
X374904Y546470D01*
X374883Y546407D01*
X374861Y546341D01*
X374833Y546277D01*
X374800Y546211D01*
X374762Y546147D01*
X374718Y546087D01*
X374668Y546028D01*
X374665Y546026D01*
X374655Y546015D01*
X374637Y546000D01*
X374614Y545982D01*
X374586Y545960D01*
X374553Y545934D01*
X374513Y545906D01*
X374467Y545878D01*
X374416Y545850D01*
X374360Y545822D01*
X374299Y545797D01*
X374233Y545774D01*
X374165Y545756D01*
X374088Y545741D01*
X374010Y545731D01*
X373928Y545728D01*
X373905D01*
X373880Y545731D01*
X373847Y545733D01*
X373806Y545741D01*
X373758Y545749D01*
X373705Y545759D01*
X373646Y545777D01*
X373583Y545794D01*
X373519Y545820D01*
X373453Y545850D01*
X373385Y545888D01*
X373319Y545932D01*
X373253Y545982D01*
X373189Y546041D01*
X373128Y546107D01*
X373126Y546112D01*
X373116Y546125D01*
X373100Y546147D01*
X373080Y546178D01*
X373055Y546221D01*
X373029Y546272D01*
X373001Y546333D01*
X372971Y546401D01*
X372958Y546442D01*
X372943Y546483D01*
X372928Y546529D01*
X372915Y546574D01*
X372902Y546625D01*
X372887Y546676D01*
X372877Y546732D01*
X372864Y546788D01*
X372854Y546849D01*
X372844Y546912D01*
X372836Y546976D01*
X372829Y547044D01*
X372823Y547115D01*
X372818Y547189D01*
X372816Y547268D01*
Y547346D01*
Y547349D01*
Y547357D01*
Y547369D01*
Y547384D01*
Y547405D01*
X372818Y547430D01*
Y547458D01*
X372821Y547489D01*
X372823Y547524D01*
X372826Y547562D01*
X372829Y547600D01*
X372834Y547644D01*
X372844Y547735D01*
X372856Y547834D01*
X372874Y547936D01*
X372895Y548040D01*
X372923Y548147D01*
X372953Y548251D01*
X372991Y548350D01*
X373034Y548446D01*
X373085Y548533D01*
X373113Y548573D01*
X373144Y548611D01*
X373146Y548616D01*
X373159Y548629D01*
X373176Y548647D01*
X373202Y548672D01*
X373235Y548700D01*
X373273Y548733D01*
X373319Y548769D01*
X373372Y548804D01*
X373428Y548843D01*
X373494Y548878D01*
X373563Y548909D01*
X373636Y548939D01*
X373718Y548964D01*
X373804Y548982D01*
X373893Y548995D01*
X373989Y549000D01*
X374007D01*
X374025Y548997D01*
D02*
G37*
G36*
X378000Y545739D02*
X376557D01*
X376514Y545741D01*
X376466Y545744D01*
X376413Y545746D01*
X376357Y545749D01*
X376296Y545754D01*
X376235Y545759D01*
X376110Y545774D01*
X376052Y545784D01*
X375996Y545797D01*
X375943Y545810D01*
X375897Y545825D01*
X375894D01*
X375887Y545830D01*
X375874Y545835D01*
X375859Y545843D01*
X375839Y545853D01*
X375816Y545863D01*
X375790Y545878D01*
X375762Y545896D01*
X375734Y545916D01*
X375704Y545937D01*
X375671Y545962D01*
X375640Y545990D01*
X375610Y546021D01*
X375579Y546056D01*
X375551Y546092D01*
X375523Y546132D01*
X375521Y546135D01*
X375518Y546142D01*
X375511Y546155D01*
X375501Y546170D01*
X375490Y546193D01*
X375478Y546216D01*
X375465Y546247D01*
X375452Y546277D01*
X375440Y546315D01*
X375427Y546353D01*
X375414Y546394D01*
X375404Y546440D01*
X375386Y546534D01*
X375384Y546584D01*
X375381Y546638D01*
Y546643D01*
Y546653D01*
X375384Y546673D01*
Y546699D01*
X375389Y546729D01*
X375391Y546765D01*
X375399Y546805D01*
X375407Y546849D01*
X375419Y546894D01*
X375432Y546942D01*
X375450Y546991D01*
X375470Y547042D01*
X375496Y547092D01*
X375523Y547141D01*
X375556Y547189D01*
X375595Y547235D01*
X375597Y547237D01*
X375605Y547245D01*
X375617Y547257D01*
X375635Y547273D01*
X375656Y547290D01*
X375684Y547311D01*
X375717Y547334D01*
X375752Y547359D01*
X375795Y547384D01*
X375841Y547410D01*
X375894Y547433D01*
X375950Y547458D01*
X376011Y547478D01*
X376080Y547499D01*
X376151Y547517D01*
X376227Y547529D01*
X376225Y547532D01*
X376217Y547534D01*
X376207Y547542D01*
X376191Y547552D01*
X376174Y547562D01*
X376153Y547578D01*
X376105Y547611D01*
X376052Y547651D01*
X375993Y547697D01*
X375935Y547748D01*
X375882Y547801D01*
X375879Y547804D01*
X375874Y547809D01*
X375866Y547816D01*
X375856Y547829D01*
X375844Y547847D01*
X375826Y547867D01*
X375805Y547890D01*
X375785Y547920D01*
X375760Y547953D01*
X375732Y547992D01*
X375701Y548035D01*
X375668Y548080D01*
X375633Y548134D01*
X375595Y548190D01*
X375556Y548251D01*
X375513Y548319D01*
X375122Y548944D01*
X375897D01*
X376362Y548248D01*
X376364Y548243D01*
X376372Y548233D01*
X376385Y548213D01*
X376402Y548187D01*
X376423Y548159D01*
X376446Y548124D01*
X376471Y548088D01*
X376496Y548050D01*
X376555Y547969D01*
X376583Y547931D01*
X376611Y547892D01*
X376636Y547857D01*
X376661Y547826D01*
X376684Y547799D01*
X376702Y547778D01*
X376707Y547773D01*
X376717Y547763D01*
X376738Y547745D01*
X376760Y547725D01*
X376791Y547702D01*
X376824Y547679D01*
X376860Y547659D01*
X376898Y547644D01*
X376903Y547641D01*
X376918Y547639D01*
X376928Y547633D01*
X376941Y547631D01*
X376959Y547628D01*
X376976Y547623D01*
X376997Y547621D01*
X377022Y547618D01*
X377048Y547613D01*
X377078Y547611D01*
X377108Y547608D01*
X377144D01*
X377182Y547606D01*
X377352D01*
Y548944D01*
X378000D01*
Y545739D01*
D02*
G37*
G36*
Y518239D02*
X376557D01*
X376514Y518241D01*
X376466Y518244D01*
X376413Y518246D01*
X376357Y518249D01*
X376296Y518254D01*
X376235Y518259D01*
X376110Y518274D01*
X376052Y518284D01*
X375996Y518297D01*
X375943Y518310D01*
X375897Y518325D01*
X375894D01*
X375887Y518330D01*
X375874Y518335D01*
X375859Y518343D01*
X375839Y518353D01*
X375816Y518363D01*
X375790Y518378D01*
X375762Y518396D01*
X375734Y518416D01*
X375704Y518437D01*
X375671Y518462D01*
X375640Y518490D01*
X375610Y518521D01*
X375579Y518556D01*
X375551Y518592D01*
X375523Y518632D01*
X375521Y518635D01*
X375518Y518643D01*
X375511Y518655D01*
X375501Y518670D01*
X375490Y518693D01*
X375478Y518716D01*
X375465Y518747D01*
X375452Y518777D01*
X375440Y518815D01*
X375427Y518853D01*
X375414Y518894D01*
X375404Y518940D01*
X375386Y519034D01*
X375384Y519085D01*
X375381Y519138D01*
Y519143D01*
Y519153D01*
X375384Y519173D01*
Y519199D01*
X375389Y519229D01*
X375391Y519265D01*
X375399Y519305D01*
X375407Y519349D01*
X375419Y519394D01*
X375432Y519443D01*
X375450Y519491D01*
X375470Y519542D01*
X375496Y519593D01*
X375523Y519641D01*
X375556Y519689D01*
X375595Y519735D01*
X375597Y519737D01*
X375605Y519745D01*
X375617Y519758D01*
X375635Y519773D01*
X375656Y519791D01*
X375684Y519811D01*
X375717Y519834D01*
X375752Y519859D01*
X375795Y519885D01*
X375841Y519910D01*
X375894Y519933D01*
X375950Y519958D01*
X376011Y519978D01*
X376080Y519999D01*
X376151Y520017D01*
X376227Y520029D01*
X376225Y520032D01*
X376217Y520034D01*
X376207Y520042D01*
X376191Y520052D01*
X376174Y520062D01*
X376153Y520078D01*
X376105Y520111D01*
X376052Y520151D01*
X375993Y520197D01*
X375935Y520248D01*
X375882Y520301D01*
X375879Y520304D01*
X375874Y520309D01*
X375866Y520316D01*
X375856Y520329D01*
X375844Y520347D01*
X375826Y520367D01*
X375805Y520390D01*
X375785Y520420D01*
X375760Y520453D01*
X375732Y520492D01*
X375701Y520535D01*
X375668Y520580D01*
X375633Y520634D01*
X375595Y520690D01*
X375556Y520751D01*
X375513Y520819D01*
X375122Y521444D01*
X375897D01*
X376362Y520748D01*
X376364Y520743D01*
X376372Y520733D01*
X376385Y520713D01*
X376402Y520687D01*
X376423Y520659D01*
X376446Y520624D01*
X376471Y520588D01*
X376496Y520550D01*
X376555Y520469D01*
X376583Y520431D01*
X376611Y520393D01*
X376636Y520357D01*
X376661Y520326D01*
X376684Y520299D01*
X376702Y520278D01*
X376707Y520273D01*
X376717Y520263D01*
X376738Y520245D01*
X376760Y520225D01*
X376791Y520202D01*
X376824Y520179D01*
X376860Y520159D01*
X376898Y520144D01*
X376903Y520141D01*
X376918Y520139D01*
X376928Y520134D01*
X376941Y520131D01*
X376959Y520128D01*
X376976Y520123D01*
X376997Y520121D01*
X377022Y520118D01*
X377048Y520113D01*
X377078Y520111D01*
X377108Y520108D01*
X377144D01*
X377182Y520106D01*
X377352D01*
Y521444D01*
X378000D01*
Y518239D01*
D02*
G37*
G36*
X373890Y521497D02*
X373921D01*
X373956Y521492D01*
X373999Y521487D01*
X374048Y521480D01*
X374101Y521472D01*
X374157Y521459D01*
X374215Y521444D01*
X374276Y521426D01*
X374337Y521404D01*
X374398Y521378D01*
X374459Y521348D01*
X374518Y521312D01*
X374574Y521271D01*
X374576Y521269D01*
X374589Y521259D01*
X374604Y521244D01*
X374627Y521221D01*
X374652Y521195D01*
X374683Y521162D01*
X374713Y521121D01*
X374744Y521078D01*
X374777Y521028D01*
X374807Y520972D01*
X374838Y520911D01*
X374863Y520845D01*
X374886Y520774D01*
X374901Y520697D01*
X374911Y520616D01*
X374916Y520530D01*
Y520527D01*
Y520517D01*
Y520504D01*
X374914Y520486D01*
X374911Y520464D01*
X374909Y520436D01*
X374906Y520405D01*
X374901Y520372D01*
X374894Y520337D01*
X374886Y520299D01*
X374863Y520220D01*
X374848Y520177D01*
X374830Y520136D01*
X374812Y520093D01*
X374789Y520052D01*
X374787Y520050D01*
X374784Y520042D01*
X374777Y520032D01*
X374764Y520017D01*
X374751Y519999D01*
X374734Y519976D01*
X374713Y519953D01*
X374690Y519928D01*
X374662Y519902D01*
X374632Y519874D01*
X374599Y519846D01*
X374563Y519818D01*
X374523Y519791D01*
X374480Y519765D01*
X374434Y519740D01*
X374383Y519717D01*
X374386D01*
X374393Y519712D01*
X374406Y519707D01*
X374421Y519699D01*
X374441Y519689D01*
X374464Y519676D01*
X374515Y519643D01*
X374571Y519605D01*
X374629Y519557D01*
X374683Y519501D01*
X374708Y519473D01*
X374729Y519440D01*
Y519437D01*
X374734Y519432D01*
X374739Y519422D01*
X374746Y519410D01*
X374754Y519392D01*
X374762Y519374D01*
X374772Y519351D01*
X374782Y519326D01*
X374802Y519270D01*
X374817Y519204D01*
X374830Y519133D01*
X374835Y519057D01*
Y519051D01*
Y519041D01*
X374833Y519021D01*
X374830Y518996D01*
X374827Y518965D01*
X374823Y518929D01*
X374815Y518891D01*
X374805Y518846D01*
X374792Y518800D01*
X374774Y518752D01*
X374754Y518703D01*
X374731Y518653D01*
X374701Y518604D01*
X374668Y518554D01*
X374629Y518508D01*
X374586Y518462D01*
X374584Y518460D01*
X374574Y518452D01*
X374561Y518439D01*
X374540Y518427D01*
X374513Y518409D01*
X374482Y518388D01*
X374444Y518368D01*
X374403Y518345D01*
X374355Y518322D01*
X374302Y518302D01*
X374243Y518282D01*
X374180Y518264D01*
X374109Y518249D01*
X374035Y518239D01*
X373956Y518231D01*
X373872Y518228D01*
X373852D01*
X373829Y518231D01*
X373796D01*
X373758Y518236D01*
X373715Y518241D01*
X373664Y518249D01*
X373613Y518256D01*
X373558Y518269D01*
X373499Y518284D01*
X373441Y518305D01*
X373380Y518327D01*
X373321Y518353D01*
X373265Y518386D01*
X373212Y518422D01*
X373164Y518462D01*
X373161Y518465D01*
X373154Y518472D01*
X373141Y518485D01*
X373123Y518505D01*
X373105Y518528D01*
X373083Y518556D01*
X373060Y518587D01*
X373037Y518625D01*
X373014Y518665D01*
X372991Y518711D01*
X372968Y518759D01*
X372951Y518810D01*
X372933Y518869D01*
X372920Y518927D01*
X372912Y518991D01*
X372910Y519057D01*
Y519059D01*
Y519067D01*
Y519077D01*
X372912Y519095D01*
Y519112D01*
X372915Y519135D01*
X372920Y519161D01*
X372925Y519189D01*
X372938Y519250D01*
X372958Y519316D01*
X372989Y519384D01*
X373006Y519420D01*
X373027Y519453D01*
X373029Y519455D01*
X373032Y519460D01*
X373039Y519468D01*
X373047Y519481D01*
X373060Y519496D01*
X373075Y519511D01*
X373111Y519549D01*
X373159Y519593D01*
X373215Y519638D01*
X373281Y519679D01*
X373354Y519717D01*
X373352D01*
X373342Y519722D01*
X373329Y519727D01*
X373311Y519737D01*
X373288Y519747D01*
X373263Y519763D01*
X373235Y519778D01*
X373204Y519796D01*
X373138Y519839D01*
X373070Y519895D01*
X373006Y519956D01*
X372976Y519991D01*
X372948Y520029D01*
X372945Y520032D01*
X372943Y520039D01*
X372935Y520050D01*
X372925Y520065D01*
X372915Y520085D01*
X372905Y520108D01*
X372892Y520136D01*
X372877Y520167D01*
X372864Y520200D01*
X372851Y520235D01*
X372841Y520276D01*
X372831Y520316D01*
X372813Y520405D01*
X372811Y520453D01*
X372808Y520504D01*
Y520509D01*
Y520525D01*
X372811Y520547D01*
X372813Y520578D01*
X372816Y520616D01*
X372823Y520659D01*
X372831Y520708D01*
X372844Y520761D01*
X372859Y520817D01*
X372877Y520875D01*
X372900Y520934D01*
X372928Y520994D01*
X372961Y521053D01*
X372999Y521114D01*
X373042Y521170D01*
X373093Y521223D01*
X373095Y521226D01*
X373105Y521236D01*
X373121Y521249D01*
X373144Y521266D01*
X373172Y521287D01*
X373207Y521310D01*
X373248Y521335D01*
X373293Y521360D01*
X373344Y521388D01*
X373400Y521411D01*
X373464Y521437D01*
X373530Y521457D01*
X373601Y521475D01*
X373680Y521487D01*
X373761Y521497D01*
X373847Y521500D01*
X373867D01*
X373890Y521497D01*
D02*
G37*
G36*
X780527Y455686D02*
X780558Y455684D01*
X780593Y455678D01*
X780636Y455673D01*
X780682Y455663D01*
X780735Y455650D01*
X780789Y455633D01*
X780847Y455612D01*
X780906Y455587D01*
X780967Y455559D01*
X781028Y455523D01*
X781088Y455480D01*
X781150Y455435D01*
X781205Y455379D01*
X781208Y455376D01*
X781218Y455364D01*
X781233Y455348D01*
X781251Y455323D01*
X781274Y455292D01*
X781299Y455257D01*
X781325Y455216D01*
X781353Y455168D01*
X781381Y455115D01*
X781406Y455056D01*
X781431Y454993D01*
X781454Y454927D01*
X781472Y454853D01*
X781487Y454777D01*
X781497Y454696D01*
X781500Y454612D01*
Y454591D01*
X781497Y454571D01*
X781495Y454540D01*
X781492Y454502D01*
X781487Y454459D01*
X781480Y454411D01*
X781469Y454358D01*
X781457Y454302D01*
X781439Y454246D01*
X781419Y454185D01*
X781396Y454124D01*
X781365Y454063D01*
X781332Y454005D01*
X781294Y453946D01*
X781251Y453890D01*
X781248Y453888D01*
X781238Y453878D01*
X781226Y453865D01*
X781205Y453845D01*
X781180Y453824D01*
X781152Y453799D01*
X781116Y453771D01*
X781076Y453743D01*
X781033Y453713D01*
X780982Y453685D01*
X780928Y453657D01*
X780870Y453631D01*
X780809Y453608D01*
X780743Y453588D01*
X780672Y453570D01*
X780598Y453560D01*
X780525Y454154D01*
X780527D01*
X780535Y454157D01*
X780547D01*
X780563Y454162D01*
X780581Y454165D01*
X780603Y454170D01*
X780654Y454185D01*
X780710Y454205D01*
X780769Y454231D01*
X780824Y454264D01*
X780850Y454284D01*
X780873Y454307D01*
Y454309D01*
X780878Y454312D01*
X780883Y454319D01*
X780890Y454330D01*
X780911Y454355D01*
X780931Y454391D01*
X780954Y454434D01*
X780974Y454485D01*
X780987Y454543D01*
X780989Y454574D01*
X780992Y454607D01*
Y454624D01*
X780989Y454640D01*
X780987Y454655D01*
X780984Y454673D01*
X780974Y454718D01*
X780956Y454769D01*
X780931Y454823D01*
X780916Y454848D01*
X780895Y454876D01*
X780875Y454901D01*
X780850Y454927D01*
X780847Y454929D01*
X780842Y454932D01*
X780835Y454939D01*
X780824Y454947D01*
X780809Y454957D01*
X780791Y454967D01*
X780771Y454980D01*
X780746Y454993D01*
X780720Y455005D01*
X780690Y455018D01*
X780659Y455028D01*
X780624Y455038D01*
X780586Y455046D01*
X780545Y455054D01*
X780504Y455056D01*
X780459Y455059D01*
X780456D01*
X780448D01*
X780436D01*
X780421Y455056D01*
X780400D01*
X780377Y455051D01*
X780327Y455043D01*
X780268Y455028D01*
X780207Y455005D01*
X780177Y454993D01*
X780146Y454975D01*
X780118Y454957D01*
X780093Y454934D01*
X780090Y454932D01*
X780088Y454929D01*
X780080Y454921D01*
X780072Y454911D01*
X780050Y454886D01*
X780024Y454850D01*
X779999Y454805D01*
X779976Y454754D01*
X779961Y454696D01*
X779958Y454662D01*
X779956Y454629D01*
Y454609D01*
X779958Y454584D01*
X779961Y454551D01*
X779968Y454510D01*
X779976Y454462D01*
X779989Y454408D01*
X780004Y454350D01*
X779501Y454416D01*
Y454457D01*
X779499Y454477D01*
Y454502D01*
X779493Y454528D01*
X779491Y454558D01*
X779478Y454619D01*
X779460Y454683D01*
X779432Y454744D01*
X779415Y454772D01*
X779394Y454797D01*
X779392Y454800D01*
X779389Y454802D01*
X779382Y454810D01*
X779374Y454817D01*
X779349Y454838D01*
X779313Y454863D01*
X779270Y454888D01*
X779217Y454909D01*
X779158Y454924D01*
X779125Y454927D01*
X779090Y454929D01*
X779087D01*
X779082D01*
X779074D01*
X779062Y454927D01*
X779034Y454924D01*
X778996Y454916D01*
X778955Y454906D01*
X778912Y454888D01*
X778868Y454866D01*
X778830Y454833D01*
X778825Y454827D01*
X778815Y454815D01*
X778800Y454795D01*
X778782Y454764D01*
X778764Y454729D01*
X778749Y454683D01*
X778739Y454632D01*
X778734Y454576D01*
Y454561D01*
X778736Y454551D01*
X778739Y454520D01*
X778747Y454485D01*
X778762Y454441D01*
X778782Y454396D01*
X778808Y454350D01*
X778825Y454327D01*
X778846Y454307D01*
X778851Y454302D01*
X778866Y454289D01*
X778891Y454271D01*
X778927Y454248D01*
X778970Y454226D01*
X779026Y454203D01*
X779090Y454185D01*
X779163Y454172D01*
X779069Y453606D01*
X779067D01*
X779056Y453608D01*
X779041Y453611D01*
X779021Y453616D01*
X778996Y453624D01*
X778968Y453631D01*
X778935Y453639D01*
X778902Y453649D01*
X778828Y453674D01*
X778749Y453705D01*
X778673Y453743D01*
X778637Y453761D01*
X778604Y453784D01*
X778602Y453786D01*
X778597Y453789D01*
X778587Y453796D01*
X778576Y453806D01*
X778561Y453817D01*
X778543Y453832D01*
X778526Y453850D01*
X778505Y453870D01*
X778460Y453918D01*
X778414Y453974D01*
X778371Y454040D01*
X778330Y454116D01*
Y454119D01*
X778325Y454127D01*
X778320Y454137D01*
X778315Y454154D01*
X778307Y454175D01*
X778297Y454198D01*
X778289Y454226D01*
X778279Y454256D01*
X778269Y454289D01*
X778261Y454327D01*
X778251Y454365D01*
X778244Y454408D01*
X778233Y454497D01*
X778229Y454594D01*
Y454614D01*
X778231Y454637D01*
X778233Y454670D01*
X778236Y454708D01*
X778244Y454751D01*
X778254Y454800D01*
X778264Y454855D01*
X778279Y454911D01*
X778300Y454970D01*
X778322Y455031D01*
X778350Y455092D01*
X778383Y455153D01*
X778421Y455211D01*
X778467Y455267D01*
X778518Y455320D01*
X778521Y455323D01*
X778528Y455331D01*
X778541Y455341D01*
X778559Y455356D01*
X778581Y455374D01*
X778609Y455391D01*
X778640Y455412D01*
X778673Y455435D01*
X778711Y455455D01*
X778752Y455475D01*
X778795Y455493D01*
X778843Y455511D01*
X778891Y455526D01*
X778942Y455536D01*
X778996Y455544D01*
X779051Y455546D01*
X779056D01*
X779069D01*
X779092Y455544D01*
X779120Y455539D01*
X779156Y455531D01*
X779199Y455521D01*
X779245Y455508D01*
X779293Y455488D01*
X779346Y455465D01*
X779402Y455435D01*
X779458Y455396D01*
X779514Y455351D01*
X779570Y455297D01*
X779623Y455237D01*
X779651Y455204D01*
X779676Y455165D01*
X779699Y455127D01*
X779725Y455084D01*
Y455087D01*
X779727Y455097D01*
X779732Y455109D01*
X779737Y455130D01*
X779745Y455153D01*
X779755Y455181D01*
X779765Y455209D01*
X779780Y455242D01*
X779796Y455277D01*
X779813Y455313D01*
X779836Y455348D01*
X779862Y455386D01*
X779887Y455422D01*
X779918Y455457D01*
X779951Y455490D01*
X779989Y455523D01*
X779991Y455526D01*
X779999Y455531D01*
X780009Y455539D01*
X780024Y455549D01*
X780045Y455562D01*
X780070Y455577D01*
X780098Y455589D01*
X780128Y455607D01*
X780161Y455623D01*
X780200Y455635D01*
X780243Y455650D01*
X780286Y455663D01*
X780332Y455673D01*
X780382Y455681D01*
X780433Y455686D01*
X780487Y455689D01*
X780492D01*
X780504D01*
X780527Y455686D01*
D02*
G37*
G36*
X781444Y452049D02*
X779133D01*
X779135Y452044D01*
X779145Y452034D01*
X779163Y452016D01*
X779184Y451988D01*
X779209Y451957D01*
X779239Y451919D01*
X779272Y451874D01*
X779308Y451823D01*
X779343Y451767D01*
X779382Y451706D01*
X779422Y451642D01*
X779460Y451571D01*
X779496Y451498D01*
X779531Y451421D01*
X779565Y451340D01*
X779595Y451256D01*
X779039D01*
Y451259D01*
X779036Y451267D01*
X779031Y451279D01*
X779024Y451297D01*
X779013Y451320D01*
X779003Y451348D01*
X778990Y451378D01*
X778973Y451411D01*
X778955Y451449D01*
X778932Y451487D01*
X778909Y451531D01*
X778881Y451576D01*
X778853Y451625D01*
X778820Y451673D01*
X778782Y451724D01*
X778744Y451777D01*
X778742Y451780D01*
X778734Y451790D01*
X778721Y451805D01*
X778706Y451823D01*
X778683Y451846D01*
X778658Y451871D01*
X778630Y451902D01*
X778597Y451932D01*
X778561Y451962D01*
X778521Y451995D01*
X778477Y452029D01*
X778434Y452059D01*
X778386Y452089D01*
X778335Y452117D01*
X778282Y452143D01*
X778229Y452163D01*
Y452663D01*
X781444D01*
Y452049D01*
D02*
G37*
G36*
Y450103D02*
X780748Y449638D01*
X780743Y449636D01*
X780733Y449628D01*
X780713Y449616D01*
X780687Y449598D01*
X780659Y449577D01*
X780624Y449554D01*
X780588Y449529D01*
X780550Y449504D01*
X780469Y449445D01*
X780431Y449417D01*
X780393Y449389D01*
X780357Y449364D01*
X780327Y449339D01*
X780299Y449316D01*
X780278Y449298D01*
X780273Y449293D01*
X780263Y449283D01*
X780245Y449262D01*
X780225Y449240D01*
X780202Y449209D01*
X780179Y449176D01*
X780159Y449141D01*
X780144Y449102D01*
X780141Y449097D01*
X780138Y449082D01*
X780134Y449072D01*
X780131Y449059D01*
X780128Y449041D01*
X780123Y449024D01*
X780121Y449003D01*
X780118Y448978D01*
X780113Y448952D01*
X780111Y448922D01*
X780108Y448892D01*
Y448856D01*
X780106Y448818D01*
Y448648D01*
X781444D01*
Y448000D01*
X778239D01*
Y449443D01*
X778241Y449486D01*
X778244Y449534D01*
X778246Y449588D01*
X778249Y449643D01*
X778254Y449704D01*
X778259Y449765D01*
X778274Y449890D01*
X778284Y449948D01*
X778297Y450004D01*
X778310Y450057D01*
X778325Y450103D01*
Y450106D01*
X778330Y450113D01*
X778335Y450126D01*
X778343Y450141D01*
X778353Y450162D01*
X778363Y450184D01*
X778378Y450210D01*
X778396Y450238D01*
X778416Y450266D01*
X778437Y450296D01*
X778462Y450329D01*
X778490Y450360D01*
X778521Y450390D01*
X778556Y450421D01*
X778592Y450449D01*
X778632Y450476D01*
X778635Y450479D01*
X778643Y450482D01*
X778655Y450489D01*
X778670Y450499D01*
X778693Y450509D01*
X778716Y450522D01*
X778747Y450535D01*
X778777Y450548D01*
X778815Y450560D01*
X778853Y450573D01*
X778894Y450586D01*
X778940Y450596D01*
X779034Y450614D01*
X779084Y450616D01*
X779138Y450619D01*
X779143D01*
X779153D01*
X779173Y450616D01*
X779199D01*
X779229Y450611D01*
X779265Y450609D01*
X779305Y450601D01*
X779349Y450593D01*
X779394Y450581D01*
X779443Y450568D01*
X779491Y450550D01*
X779542Y450530D01*
X779592Y450504D01*
X779641Y450476D01*
X779689Y450443D01*
X779735Y450405D01*
X779737Y450403D01*
X779745Y450395D01*
X779758Y450382D01*
X779773Y450365D01*
X779791Y450344D01*
X779811Y450317D01*
X779834Y450284D01*
X779859Y450248D01*
X779884Y450205D01*
X779910Y450159D01*
X779933Y450106D01*
X779958Y450050D01*
X779978Y449989D01*
X779999Y449920D01*
X780017Y449849D01*
X780029Y449773D01*
X780032Y449776D01*
X780034Y449783D01*
X780042Y449793D01*
X780052Y449809D01*
X780062Y449826D01*
X780078Y449847D01*
X780111Y449895D01*
X780151Y449948D01*
X780197Y450007D01*
X780248Y450065D01*
X780301Y450118D01*
X780304Y450121D01*
X780309Y450126D01*
X780316Y450134D01*
X780329Y450144D01*
X780347Y450157D01*
X780367Y450174D01*
X780390Y450195D01*
X780421Y450215D01*
X780453Y450240D01*
X780492Y450268D01*
X780535Y450299D01*
X780581Y450332D01*
X780634Y450367D01*
X780690Y450405D01*
X780751Y450443D01*
X780819Y450487D01*
X781444Y450878D01*
Y450103D01*
D02*
G37*
G36*
X799000Y453504D02*
X798997D01*
X798985Y453507D01*
X798967Y453509D01*
X798944Y453512D01*
X798916Y453517D01*
X798883Y453525D01*
X798845Y453532D01*
X798802Y453542D01*
X798756Y453555D01*
X798708Y453570D01*
X798657Y453586D01*
X798606Y453606D01*
X798553Y453629D01*
X798497Y453654D01*
X798441Y453682D01*
X798388Y453713D01*
X798385Y453715D01*
X798375Y453720D01*
X798357Y453733D01*
X798335Y453748D01*
X798307Y453768D01*
X798271Y453796D01*
X798230Y453827D01*
X798182Y453865D01*
X798131Y453908D01*
X798073Y453959D01*
X798009Y454015D01*
X797941Y454076D01*
X797870Y454147D01*
X797791Y454223D01*
X797707Y454309D01*
X797621Y454401D01*
X797616Y454406D01*
X797603Y454419D01*
X797583Y454439D01*
X797557Y454467D01*
X797527Y454500D01*
X797491Y454538D01*
X797451Y454579D01*
X797410Y454622D01*
X797321Y454708D01*
X797278Y454751D01*
X797235Y454792D01*
X797194Y454830D01*
X797156Y454863D01*
X797123Y454891D01*
X797095Y454911D01*
X797092Y454914D01*
X797087Y454916D01*
X797077Y454924D01*
X797062Y454932D01*
X797044Y454942D01*
X797024Y454952D01*
X797001Y454962D01*
X796976Y454975D01*
X796920Y454998D01*
X796856Y455018D01*
X796788Y455033D01*
X796755Y455036D01*
X796719Y455038D01*
X796717D01*
X796709D01*
X796699D01*
X796686Y455036D01*
X796668D01*
X796648Y455033D01*
X796602Y455026D01*
X796551Y455010D01*
X796498Y454990D01*
X796450Y454965D01*
X796424Y454947D01*
X796404Y454927D01*
X796402D01*
X796399Y454921D01*
X796386Y454906D01*
X796368Y454881D01*
X796348Y454848D01*
X796328Y454805D01*
X796310Y454751D01*
X796297Y454690D01*
X796292Y454657D01*
Y454604D01*
X796295Y454591D01*
Y454574D01*
X796297Y454556D01*
X796308Y454513D01*
X796320Y454464D01*
X796341Y454413D01*
X796371Y454363D01*
X796389Y454340D01*
X796409Y454317D01*
X796412D01*
X796414Y454312D01*
X796422Y454307D01*
X796432Y454299D01*
X796445Y454289D01*
X796460Y454279D01*
X796478Y454269D01*
X796501Y454259D01*
X796526Y454246D01*
X796554Y454236D01*
X796584Y454226D01*
X796620Y454215D01*
X796658Y454205D01*
X796699Y454198D01*
X796745Y454193D01*
X796793Y454187D01*
X796732Y453575D01*
X796729D01*
X796727D01*
X796719Y453578D01*
X796709D01*
X796684Y453583D01*
X796650Y453588D01*
X796607Y453596D01*
X796559Y453608D01*
X796508Y453621D01*
X796452Y453639D01*
X796391Y453659D01*
X796333Y453682D01*
X796272Y453710D01*
X796211Y453740D01*
X796155Y453778D01*
X796099Y453819D01*
X796051Y453865D01*
X796005Y453916D01*
X796003Y453918D01*
X795995Y453928D01*
X795985Y453946D01*
X795970Y453969D01*
X795955Y453997D01*
X795934Y454030D01*
X795916Y454071D01*
X795894Y454114D01*
X795873Y454165D01*
X795853Y454218D01*
X795835Y454279D01*
X795820Y454342D01*
X795805Y454411D01*
X795795Y454482D01*
X795787Y454558D01*
X795784Y454637D01*
Y454657D01*
X795787Y454683D01*
X795789Y454716D01*
X795792Y454756D01*
X795797Y454802D01*
X795805Y454853D01*
X795817Y454909D01*
X795830Y454967D01*
X795848Y455028D01*
X795868Y455089D01*
X795894Y455153D01*
X795921Y455214D01*
X795957Y455275D01*
X795995Y455330D01*
X796041Y455384D01*
X796043Y455386D01*
X796054Y455396D01*
X796066Y455409D01*
X796087Y455427D01*
X796112Y455447D01*
X796143Y455470D01*
X796178Y455495D01*
X796216Y455521D01*
X796259Y455546D01*
X796308Y455569D01*
X796361Y455592D01*
X796417Y455612D01*
X796478Y455630D01*
X796539Y455643D01*
X796607Y455653D01*
X796676Y455656D01*
X796678D01*
X796686D01*
X796696D01*
X796711D01*
X796732Y455653D01*
X796755Y455650D01*
X796780Y455648D01*
X796808Y455645D01*
X796871Y455635D01*
X796940Y455622D01*
X797014Y455602D01*
X797087Y455577D01*
X797090D01*
X797095Y455574D01*
X797108Y455569D01*
X797120Y455562D01*
X797138Y455554D01*
X797161Y455544D01*
X797184Y455531D01*
X797212Y455516D01*
X797273Y455483D01*
X797341Y455440D01*
X797418Y455389D01*
X797496Y455330D01*
X797499D01*
X797504Y455325D01*
X797512Y455318D01*
X797522Y455308D01*
X797537Y455295D01*
X797555Y455280D01*
X797578Y455262D01*
X797600Y455239D01*
X797628Y455211D01*
X797659Y455183D01*
X797692Y455150D01*
X797730Y455112D01*
X797768Y455071D01*
X797811Y455028D01*
X797857Y454980D01*
X797905Y454927D01*
X797908Y454924D01*
X797918Y454914D01*
X797931Y454899D01*
X797948Y454881D01*
X797969Y454858D01*
X797994Y454830D01*
X798050Y454772D01*
X798108Y454711D01*
X798167Y454650D01*
X798195Y454622D01*
X798220Y454596D01*
X798243Y454576D01*
X798261Y454558D01*
X798263Y454556D01*
X798276Y454546D01*
X798291Y454533D01*
X798314Y454515D01*
X798340Y454495D01*
X798367Y454474D01*
X798398Y454454D01*
X798428Y454434D01*
Y455656D01*
X799000D01*
Y453504D01*
D02*
G37*
G36*
Y452049D02*
X796689D01*
X796691Y452044D01*
X796701Y452034D01*
X796719Y452016D01*
X796739Y451988D01*
X796765Y451957D01*
X796795Y451919D01*
X796828Y451874D01*
X796864Y451823D01*
X796899Y451767D01*
X796937Y451706D01*
X796978Y451642D01*
X797016Y451571D01*
X797052Y451498D01*
X797087Y451421D01*
X797120Y451340D01*
X797151Y451256D01*
X796595D01*
Y451259D01*
X796592Y451266D01*
X796587Y451279D01*
X796579Y451297D01*
X796569Y451320D01*
X796559Y451348D01*
X796546Y451378D01*
X796529Y451411D01*
X796511Y451449D01*
X796488Y451487D01*
X796465Y451531D01*
X796437Y451576D01*
X796409Y451625D01*
X796376Y451673D01*
X796338Y451724D01*
X796300Y451777D01*
X796297Y451780D01*
X796290Y451790D01*
X796277Y451805D01*
X796262Y451823D01*
X796239Y451846D01*
X796214Y451871D01*
X796186Y451901D01*
X796153Y451932D01*
X796117Y451962D01*
X796076Y451995D01*
X796033Y452028D01*
X795990Y452059D01*
X795942Y452089D01*
X795891Y452117D01*
X795838Y452143D01*
X795784Y452163D01*
Y452663D01*
X799000D01*
Y452049D01*
D02*
G37*
G36*
Y450103D02*
X798304Y449638D01*
X798299Y449636D01*
X798289Y449628D01*
X798269Y449615D01*
X798243Y449598D01*
X798215Y449577D01*
X798180Y449554D01*
X798144Y449529D01*
X798106Y449504D01*
X798025Y449445D01*
X797987Y449417D01*
X797948Y449389D01*
X797913Y449364D01*
X797882Y449339D01*
X797854Y449316D01*
X797834Y449298D01*
X797829Y449293D01*
X797819Y449283D01*
X797801Y449262D01*
X797781Y449240D01*
X797758Y449209D01*
X797735Y449176D01*
X797715Y449141D01*
X797700Y449102D01*
X797697Y449097D01*
X797694Y449082D01*
X797689Y449072D01*
X797687Y449059D01*
X797684Y449041D01*
X797679Y449024D01*
X797677Y449003D01*
X797674Y448978D01*
X797669Y448952D01*
X797666Y448922D01*
X797664Y448891D01*
Y448856D01*
X797661Y448818D01*
Y448648D01*
X799000D01*
Y448000D01*
X795795D01*
Y449443D01*
X795797Y449486D01*
X795800Y449534D01*
X795802Y449588D01*
X795805Y449643D01*
X795810Y449704D01*
X795815Y449765D01*
X795830Y449890D01*
X795840Y449948D01*
X795853Y450004D01*
X795866Y450057D01*
X795881Y450103D01*
Y450106D01*
X795886Y450113D01*
X795891Y450126D01*
X795899Y450141D01*
X795909Y450162D01*
X795919Y450184D01*
X795934Y450210D01*
X795952Y450238D01*
X795972Y450266D01*
X795993Y450296D01*
X796018Y450329D01*
X796046Y450360D01*
X796076Y450390D01*
X796112Y450421D01*
X796148Y450449D01*
X796188Y450476D01*
X796191Y450479D01*
X796198Y450482D01*
X796211Y450489D01*
X796226Y450499D01*
X796249Y450509D01*
X796272Y450522D01*
X796302Y450535D01*
X796333Y450548D01*
X796371Y450560D01*
X796409Y450573D01*
X796450Y450586D01*
X796496Y450596D01*
X796590Y450614D01*
X796640Y450616D01*
X796694Y450619D01*
X796699D01*
X796709D01*
X796729Y450616D01*
X796755D01*
X796785Y450611D01*
X796821Y450609D01*
X796861Y450601D01*
X796905Y450593D01*
X796950Y450581D01*
X796999Y450568D01*
X797047Y450550D01*
X797097Y450530D01*
X797148Y450504D01*
X797197Y450476D01*
X797245Y450443D01*
X797291Y450405D01*
X797293Y450403D01*
X797301Y450395D01*
X797313Y450382D01*
X797329Y450365D01*
X797346Y450344D01*
X797367Y450317D01*
X797390Y450284D01*
X797415Y450248D01*
X797440Y450205D01*
X797466Y450159D01*
X797489Y450106D01*
X797514Y450050D01*
X797534Y449989D01*
X797555Y449920D01*
X797572Y449849D01*
X797585Y449773D01*
X797588Y449776D01*
X797590Y449783D01*
X797598Y449793D01*
X797608Y449809D01*
X797618Y449826D01*
X797634Y449847D01*
X797666Y449895D01*
X797707Y449948D01*
X797753Y450007D01*
X797804Y450065D01*
X797857Y450118D01*
X797859Y450121D01*
X797865Y450126D01*
X797872Y450134D01*
X797885Y450144D01*
X797903Y450157D01*
X797923Y450174D01*
X797946Y450195D01*
X797976Y450215D01*
X798009Y450240D01*
X798047Y450268D01*
X798091Y450299D01*
X798136Y450332D01*
X798190Y450367D01*
X798246Y450405D01*
X798307Y450443D01*
X798375Y450487D01*
X799000Y450878D01*
Y450103D01*
D02*
G37*
G36*
X743081Y380687D02*
X735578D01*
X735585Y380681D01*
X735599Y380667D01*
X735619Y380646D01*
X735647Y380611D01*
X735682Y380570D01*
X735730Y380514D01*
X735779Y380452D01*
X735834Y380389D01*
X735890Y380306D01*
X735959Y380223D01*
X736021Y380133D01*
X736098Y380036D01*
X736167Y379925D01*
X736243Y379814D01*
X736396Y379564D01*
X736403Y379557D01*
X736417Y379536D01*
X736438Y379495D01*
X736458Y379446D01*
X736493Y379391D01*
X736535Y379321D01*
X736576Y379238D01*
X736625Y379155D01*
X736722Y378961D01*
X736819Y378753D01*
X736916Y378538D01*
X736999Y378330D01*
X735862D01*
X735855Y378344D01*
X735841Y378372D01*
X735814Y378427D01*
X735779Y378496D01*
X735737Y378579D01*
X735682Y378684D01*
X735619Y378794D01*
X735550Y378912D01*
X735467Y379044D01*
X735384Y379183D01*
X735189Y379474D01*
X734974Y379772D01*
X734739Y380056D01*
X734732Y380063D01*
X734711Y380091D01*
X734676Y380126D01*
X734628Y380174D01*
X734565Y380237D01*
X734496Y380306D01*
X734413Y380382D01*
X734330Y380466D01*
X734232Y380549D01*
X734128Y380639D01*
X733913Y380812D01*
X733685Y380972D01*
X733567Y381041D01*
X733449Y381104D01*
Y381866D01*
X743081D01*
Y380687D01*
D02*
G37*
G36*
Y374461D02*
X735550Y369433D01*
X743081D01*
Y368213D01*
X733484D01*
Y369516D01*
X741021Y374551D01*
X733484D01*
Y375771D01*
X743081D01*
Y374461D01*
D02*
G37*
G36*
X738441Y366583D02*
X738546D01*
X738670Y366569D01*
X738816Y366562D01*
X738989Y366542D01*
X739170Y366514D01*
X739371Y366486D01*
X739579Y366445D01*
X739794Y366396D01*
X740016Y366341D01*
X740244Y366271D01*
X740466Y366195D01*
X740688Y366105D01*
X740910Y366001D01*
X740924Y365994D01*
X740959Y365973D01*
X741021Y365938D01*
X741097Y365890D01*
X741194Y365834D01*
X741305Y365758D01*
X741430Y365668D01*
X741562Y365571D01*
X741701Y365460D01*
X741839Y365335D01*
X741985Y365196D01*
X742131Y365051D01*
X742269Y364884D01*
X742408Y364711D01*
X742533Y364524D01*
X742651Y364330D01*
X742657Y364316D01*
X742678Y364281D01*
X742706Y364219D01*
X742741Y364142D01*
X742789Y364039D01*
X742838Y363921D01*
X742893Y363789D01*
X742942Y363636D01*
X742997Y363463D01*
X743053Y363283D01*
X743101Y363095D01*
X743150Y362887D01*
X743185Y362679D01*
X743212Y362458D01*
X743233Y362229D01*
X743240Y362000D01*
Y361937D01*
X743233Y361868D01*
X743226Y361771D01*
X743219Y361653D01*
X743205Y361514D01*
X743185Y361355D01*
X743157Y361189D01*
X743122Y361001D01*
X743081Y360807D01*
X743025Y360606D01*
X742963Y360405D01*
X742893Y360197D01*
X742803Y359982D01*
X742706Y359774D01*
X742588Y359573D01*
X742581Y359559D01*
X742560Y359524D01*
X742519Y359469D01*
X742470Y359399D01*
X742401Y359309D01*
X742325Y359205D01*
X742228Y359094D01*
X742124Y358970D01*
X741999Y358845D01*
X741867Y358706D01*
X741721Y358574D01*
X741562Y358443D01*
X741389Y358311D01*
X741208Y358186D01*
X741014Y358068D01*
X740806Y357957D01*
X740792Y357950D01*
X740758Y357936D01*
X740695Y357909D01*
X740605Y357874D01*
X740501Y357832D01*
X740376Y357784D01*
X740238Y357735D01*
X740078Y357687D01*
X739905Y357631D01*
X739717Y357583D01*
X739523Y357534D01*
X739315Y357493D01*
X739093Y357458D01*
X738871Y357430D01*
X738643Y357416D01*
X738407Y357409D01*
X738400D01*
X738379D01*
X738344D01*
X738303D01*
X738247Y357416D01*
X738178D01*
X738102Y357423D01*
X738012Y357430D01*
X737915Y357437D01*
X737811Y357451D01*
X737700Y357465D01*
X737582Y357479D01*
X737325Y357520D01*
X737048Y357569D01*
X736750Y357638D01*
X736444Y357721D01*
X736132Y357825D01*
X735820Y357950D01*
X735515Y358096D01*
X735217Y358269D01*
X735071Y358366D01*
X734933Y358463D01*
X734801Y358574D01*
X734669Y358692D01*
X734662Y358699D01*
X734656Y358706D01*
X734635Y358727D01*
X734614Y358755D01*
X734579Y358782D01*
X734545Y358824D01*
X734454Y358928D01*
X734357Y359053D01*
X734239Y359205D01*
X734121Y359386D01*
X733990Y359587D01*
X733865Y359815D01*
X733747Y360065D01*
X733629Y360336D01*
X733525Y360627D01*
X733442Y360946D01*
X733373Y361279D01*
X733352Y361452D01*
X733331Y361632D01*
X733324Y361813D01*
X733317Y362000D01*
Y362062D01*
X733324Y362132D01*
Y362222D01*
X733338Y362340D01*
X733352Y362478D01*
X733373Y362631D01*
X733393Y362797D01*
X733428Y362977D01*
X733470Y363172D01*
X733525Y363373D01*
X733588Y363574D01*
X733657Y363782D01*
X733747Y363990D01*
X733844Y364198D01*
X733955Y364399D01*
X733962Y364413D01*
X733983Y364448D01*
X734017Y364503D01*
X734073Y364572D01*
X734135Y364663D01*
X734212Y364767D01*
X734309Y364878D01*
X734413Y365002D01*
X734531Y365134D01*
X734662Y365266D01*
X734808Y365405D01*
X734967Y365536D01*
X735141Y365668D01*
X735321Y365800D01*
X735515Y365918D01*
X735723Y366029D01*
X735737Y366035D01*
X735772Y366056D01*
X735834Y366084D01*
X735924Y366119D01*
X736028Y366160D01*
X736160Y366209D01*
X736306Y366257D01*
X736472Y366313D01*
X736653Y366361D01*
X736854Y366410D01*
X737062Y366459D01*
X737290Y366500D01*
X737526Y366542D01*
X737776Y366569D01*
X738032Y366583D01*
X738296Y366590D01*
X738303D01*
X738310D01*
X738331D01*
X738358D01*
X738393D01*
X738441Y366583D01*
D02*
G37*
G36*
X740057Y356231D02*
X740078Y356224D01*
X740106Y356217D01*
X740140Y356210D01*
X740189Y356196D01*
X740293Y356161D01*
X740425Y356113D01*
X740570Y356057D01*
X740737Y355988D01*
X740917Y355905D01*
X741111Y355815D01*
X741305Y355710D01*
X741499Y355593D01*
X741701Y355461D01*
X741895Y355315D01*
X742082Y355156D01*
X742255Y354982D01*
X742422Y354795D01*
X742429Y354781D01*
X742456Y354747D01*
X742498Y354691D01*
X742547Y354608D01*
X742609Y354511D01*
X742678Y354386D01*
X742755Y354247D01*
X742831Y354088D01*
X742907Y353914D01*
X742983Y353720D01*
X743053Y353512D01*
X743115Y353290D01*
X743164Y353048D01*
X743205Y352798D01*
X743233Y352535D01*
X743240Y352257D01*
Y352153D01*
X743233Y352105D01*
Y352001D01*
X743219Y351869D01*
X743205Y351716D01*
X743185Y351543D01*
X743164Y351363D01*
X743129Y351162D01*
X743087Y350961D01*
X743032Y350746D01*
X742977Y350538D01*
X742900Y350330D01*
X742817Y350121D01*
X742720Y349920D01*
X742609Y349733D01*
X742602Y349719D01*
X742581Y349692D01*
X742540Y349643D01*
X742491Y349574D01*
X742429Y349491D01*
X742346Y349400D01*
X742255Y349296D01*
X742144Y349185D01*
X742020Y349067D01*
X741888Y348950D01*
X741735Y348825D01*
X741576Y348700D01*
X741395Y348582D01*
X741208Y348464D01*
X741000Y348353D01*
X740785Y348256D01*
X740778D01*
X740771Y348249D01*
X740730Y348235D01*
X740667Y348208D01*
X740577Y348180D01*
X740466Y348138D01*
X740335Y348097D01*
X740182Y348048D01*
X740016Y348007D01*
X739828Y347958D01*
X739627Y347910D01*
X739419Y347868D01*
X739190Y347826D01*
X738962Y347799D01*
X738719Y347771D01*
X738469Y347757D01*
X738213Y347750D01*
X738206D01*
X738192D01*
X738171D01*
X738143D01*
X738109D01*
X738067Y347757D01*
X737963D01*
X737831Y347771D01*
X737679Y347778D01*
X737505Y347799D01*
X737318Y347819D01*
X737124Y347854D01*
X736916Y347889D01*
X736694Y347937D01*
X736472Y347993D01*
X736250Y348055D01*
X736028Y348131D01*
X735814Y348222D01*
X735599Y348319D01*
X735585Y348326D01*
X735550Y348346D01*
X735495Y348381D01*
X735411Y348423D01*
X735321Y348485D01*
X735217Y348554D01*
X735092Y348644D01*
X734967Y348742D01*
X734836Y348846D01*
X734690Y348970D01*
X734551Y349102D01*
X734413Y349248D01*
X734274Y349407D01*
X734142Y349574D01*
X734017Y349754D01*
X733900Y349948D01*
X733893Y349962D01*
X733872Y349997D01*
X733844Y350052D01*
X733810Y350135D01*
X733761Y350233D01*
X733712Y350350D01*
X733664Y350489D01*
X733608Y350635D01*
X733553Y350801D01*
X733504Y350981D01*
X733449Y351175D01*
X733407Y351377D01*
X733373Y351592D01*
X733345Y351814D01*
X733324Y352042D01*
X733317Y352278D01*
Y352375D01*
X733324Y352417D01*
X733331Y352521D01*
X733338Y352646D01*
X733359Y352784D01*
X733380Y352944D01*
X733407Y353124D01*
X733449Y353311D01*
X733497Y353505D01*
X733553Y353707D01*
X733629Y353908D01*
X733712Y354109D01*
X733810Y354317D01*
X733920Y354511D01*
X734052Y354698D01*
X734059Y354712D01*
X734087Y354740D01*
X734128Y354795D01*
X734191Y354858D01*
X734260Y354941D01*
X734357Y355031D01*
X734461Y355128D01*
X734586Y355239D01*
X734725Y355350D01*
X734877Y355468D01*
X735051Y355579D01*
X735231Y355690D01*
X735432Y355801D01*
X735647Y355898D01*
X735876Y355995D01*
X736119Y356071D01*
X736410Y354823D01*
X736396Y354816D01*
X736361Y354809D01*
X736313Y354788D01*
X736236Y354761D01*
X736153Y354726D01*
X736056Y354684D01*
X735945Y354629D01*
X735827Y354573D01*
X735703Y354511D01*
X735578Y354435D01*
X735453Y354358D01*
X735321Y354268D01*
X735203Y354171D01*
X735085Y354074D01*
X734981Y353963D01*
X734884Y353845D01*
X734877Y353838D01*
X734864Y353817D01*
X734843Y353783D01*
X734808Y353734D01*
X734773Y353672D01*
X734732Y353596D01*
X734690Y353505D01*
X734642Y353408D01*
X734600Y353297D01*
X734558Y353180D01*
X734517Y353048D01*
X734482Y352909D01*
X734447Y352757D01*
X734427Y352597D01*
X734413Y352431D01*
X734406Y352250D01*
Y352146D01*
X734413Y352070D01*
X734420Y351973D01*
X734434Y351862D01*
X734447Y351737D01*
X734475Y351605D01*
X734503Y351460D01*
X734538Y351314D01*
X734579Y351162D01*
X734628Y351002D01*
X734690Y350850D01*
X734766Y350697D01*
X734843Y350545D01*
X734940Y350399D01*
X734947Y350392D01*
X734961Y350364D01*
X734995Y350330D01*
X735037Y350281D01*
X735092Y350219D01*
X735155Y350149D01*
X735231Y350073D01*
X735314Y349990D01*
X735411Y349907D01*
X735515Y349816D01*
X735633Y349733D01*
X735765Y349650D01*
X735897Y349567D01*
X736042Y349491D01*
X736195Y349421D01*
X736361Y349359D01*
X736368D01*
X736403Y349345D01*
X736451Y349331D01*
X736514Y349310D01*
X736597Y349289D01*
X736694Y349262D01*
X736805Y349241D01*
X736930Y349213D01*
X737062Y349185D01*
X737207Y349158D01*
X737360Y349130D01*
X737519Y349109D01*
X737852Y349075D01*
X738026Y349067D01*
X738206Y349061D01*
X738220D01*
X738261D01*
X738324D01*
X738414Y349067D01*
X738518Y349075D01*
X738643Y349081D01*
X738781Y349088D01*
X738927Y349102D01*
X739093Y349123D01*
X739267Y349144D01*
X739620Y349213D01*
X739808Y349248D01*
X739988Y349296D01*
X740168Y349352D01*
X740341Y349414D01*
X740348Y349421D01*
X740383Y349428D01*
X740425Y349449D01*
X740487Y349484D01*
X740563Y349518D01*
X740654Y349567D01*
X740751Y349622D01*
X740855Y349685D01*
X740959Y349761D01*
X741070Y349844D01*
X741188Y349934D01*
X741298Y350031D01*
X741409Y350142D01*
X741513Y350260D01*
X741610Y350385D01*
X741701Y350524D01*
X741708Y350531D01*
X741721Y350558D01*
X741742Y350600D01*
X741770Y350656D01*
X741805Y350725D01*
X741846Y350808D01*
X741881Y350905D01*
X741923Y351009D01*
X741971Y351127D01*
X742006Y351252D01*
X742047Y351390D01*
X742082Y351529D01*
X742110Y351682D01*
X742131Y351834D01*
X742144Y351994D01*
X742151Y352153D01*
Y352202D01*
X742144Y352257D01*
Y352333D01*
X742131Y352424D01*
X742117Y352528D01*
X742103Y352653D01*
X742075Y352777D01*
X742040Y352916D01*
X741999Y353062D01*
X741950Y353214D01*
X741895Y353367D01*
X741825Y353519D01*
X741742Y353672D01*
X741645Y353817D01*
X741541Y353963D01*
X741534Y353970D01*
X741513Y353998D01*
X741479Y354032D01*
X741423Y354081D01*
X741361Y354143D01*
X741284Y354213D01*
X741188Y354289D01*
X741084Y354365D01*
X740959Y354449D01*
X740827Y354532D01*
X740674Y354622D01*
X740508Y354698D01*
X740335Y354781D01*
X740140Y354851D01*
X739939Y354913D01*
X739717Y354968D01*
X740036Y356237D01*
X740043D01*
X740057Y356231D01*
D02*
G37*
G36*
X624107Y306361D02*
X624167D01*
X624241Y306351D01*
X624320Y306347D01*
X624412Y306338D01*
X624505Y306324D01*
X624607Y306310D01*
X624814Y306268D01*
X624925Y306240D01*
X625032Y306213D01*
X625138Y306176D01*
X625240Y306134D01*
X625244Y306129D01*
X625263Y306125D01*
X625291Y306111D01*
X625328Y306092D01*
X625374Y306069D01*
X625425Y306037D01*
X625485Y306005D01*
X625545Y305963D01*
X625614Y305921D01*
X625679Y305871D01*
X625748Y305815D01*
X625818Y305755D01*
X625887Y305690D01*
X625952Y305616D01*
X626017Y305542D01*
X626072Y305459D01*
X626077Y305455D01*
X626086Y305441D01*
X626100Y305413D01*
X626118Y305381D01*
X626141Y305339D01*
X626169Y305288D01*
X626192Y305233D01*
X626225Y305168D01*
X626252Y305099D01*
X626280Y305020D01*
X626308Y304937D01*
X626331Y304849D01*
X626354Y304757D01*
X626372Y304659D01*
X626382Y304558D01*
X626391Y304456D01*
X625577Y304396D01*
Y304405D01*
X625573Y304424D01*
X625568Y304456D01*
X625559Y304498D01*
X625550Y304544D01*
X625536Y304604D01*
X625517Y304669D01*
X625494Y304738D01*
X625471Y304812D01*
X625439Y304886D01*
X625402Y304960D01*
X625360Y305039D01*
X625314Y305112D01*
X625258Y305182D01*
X625198Y305251D01*
X625134Y305311D01*
X625129Y305316D01*
X625115Y305325D01*
X625097Y305339D01*
X625064Y305362D01*
X625023Y305385D01*
X624976Y305408D01*
X624921Y305436D01*
X624856Y305468D01*
X624782Y305496D01*
X624699Y305524D01*
X624607Y305547D01*
X624509Y305575D01*
X624398Y305593D01*
X624283Y305607D01*
X624158Y305616D01*
X624024Y305621D01*
X623950D01*
X623899Y305616D01*
X623834Y305612D01*
X623765Y305607D01*
X623682Y305598D01*
X623599Y305584D01*
X623414Y305552D01*
X623321Y305529D01*
X623229Y305501D01*
X623141Y305468D01*
X623053Y305431D01*
X622975Y305390D01*
X622905Y305339D01*
X622901Y305334D01*
X622892Y305325D01*
X622873Y305311D01*
X622850Y305288D01*
X622827Y305260D01*
X622794Y305228D01*
X622767Y305191D01*
X622734Y305149D01*
X622702Y305103D01*
X622670Y305048D01*
X622614Y304932D01*
X622591Y304872D01*
X622573Y304803D01*
X622563Y304733D01*
X622559Y304659D01*
Y304655D01*
Y304646D01*
Y304627D01*
X622563Y304604D01*
X622568Y304572D01*
X622573Y304539D01*
X622591Y304461D01*
X622619Y304368D01*
X622660Y304276D01*
X622688Y304225D01*
X622725Y304179D01*
X622762Y304132D01*
X622804Y304091D01*
X622808Y304086D01*
X622817Y304082D01*
X622831Y304068D01*
X622859Y304054D01*
X622892Y304031D01*
X622938Y304008D01*
X622989Y303980D01*
X623053Y303948D01*
X623132Y303915D01*
X623220Y303878D01*
X623326Y303841D01*
X623442Y303800D01*
X623576Y303758D01*
X623724Y303716D01*
X623890Y303675D01*
X624075Y303629D01*
X624080D01*
X624089Y303624D01*
X624103D01*
X624121Y303619D01*
X624144Y303615D01*
X624172Y303605D01*
X624241Y303591D01*
X624324Y303568D01*
X624422Y303545D01*
X624528Y303522D01*
X624639Y303490D01*
X624875Y303430D01*
X624990Y303397D01*
X625106Y303360D01*
X625217Y303328D01*
X625318Y303291D01*
X625411Y303259D01*
X625490Y303226D01*
X625494Y303222D01*
X625513Y303213D01*
X625545Y303199D01*
X625582Y303180D01*
X625628Y303152D01*
X625679Y303125D01*
X625739Y303088D01*
X625804Y303046D01*
X625868Y303004D01*
X625938Y302954D01*
X626077Y302843D01*
X626206Y302713D01*
X626261Y302644D01*
X626317Y302570D01*
X626322Y302565D01*
X626331Y302551D01*
X626340Y302528D01*
X626359Y302501D01*
X626377Y302464D01*
X626400Y302417D01*
X626428Y302367D01*
X626451Y302311D01*
X626474Y302246D01*
X626502Y302177D01*
X626525Y302103D01*
X626544Y302020D01*
X626562Y301937D01*
X626576Y301849D01*
X626581Y301761D01*
X626585Y301664D01*
Y301659D01*
Y301641D01*
Y301613D01*
X626581Y301576D01*
X626576Y301530D01*
X626571Y301479D01*
X626562Y301419D01*
X626548Y301350D01*
X626534Y301280D01*
X626511Y301202D01*
X626488Y301123D01*
X626460Y301040D01*
X626428Y300956D01*
X626386Y300869D01*
X626340Y300786D01*
X626289Y300698D01*
X626285Y300693D01*
X626275Y300679D01*
X626257Y300656D01*
X626234Y300624D01*
X626206Y300587D01*
X626169Y300541D01*
X626127Y300494D01*
X626077Y300443D01*
X626021Y300388D01*
X625956Y300333D01*
X625887Y300272D01*
X625813Y300212D01*
X625734Y300157D01*
X625647Y300101D01*
X625554Y300051D01*
X625452Y300000D01*
X625448Y299995D01*
X625429Y299990D01*
X625397Y299977D01*
X625355Y299963D01*
X625305Y299944D01*
X625244Y299921D01*
X625175Y299898D01*
X625097Y299875D01*
X625009Y299852D01*
X624912Y299829D01*
X624810Y299810D01*
X624704Y299787D01*
X624593Y299773D01*
X624473Y299759D01*
X624348Y299755D01*
X624223Y299750D01*
X624140D01*
X624080Y299755D01*
X624006Y299759D01*
X623918Y299764D01*
X623821Y299773D01*
X623714Y299782D01*
X623603Y299796D01*
X623488Y299810D01*
X623243Y299856D01*
X623118Y299884D01*
X622998Y299916D01*
X622878Y299958D01*
X622767Y300000D01*
X622762Y300004D01*
X622739Y300014D01*
X622711Y300027D01*
X622670Y300046D01*
X622619Y300074D01*
X622563Y300106D01*
X622499Y300148D01*
X622434Y300189D01*
X622360Y300240D01*
X622286Y300296D01*
X622207Y300360D01*
X622133Y300429D01*
X622055Y300504D01*
X621981Y300582D01*
X621911Y300670D01*
X621847Y300762D01*
X621842Y300767D01*
X621833Y300786D01*
X621814Y300813D01*
X621796Y300850D01*
X621768Y300901D01*
X621740Y300956D01*
X621708Y301021D01*
X621680Y301095D01*
X621648Y301178D01*
X621616Y301266D01*
X621588Y301363D01*
X621560Y301460D01*
X621537Y301567D01*
X621519Y301678D01*
X621505Y301793D01*
X621500Y301914D01*
X622300Y301983D01*
Y301978D01*
X622304Y301960D01*
Y301937D01*
X622314Y301904D01*
X622318Y301863D01*
X622327Y301812D01*
X622341Y301761D01*
X622355Y301701D01*
X622388Y301576D01*
X622434Y301442D01*
X622489Y301313D01*
X622559Y301188D01*
X622563Y301183D01*
X622568Y301174D01*
X622582Y301160D01*
X622600Y301137D01*
X622619Y301109D01*
X622646Y301081D01*
X622679Y301049D01*
X622716Y301012D01*
X622757Y300975D01*
X622808Y300933D01*
X622859Y300892D01*
X622919Y300850D01*
X622979Y300809D01*
X623049Y300767D01*
X623123Y300730D01*
X623201Y300693D01*
X623206D01*
X623220Y300684D01*
X623247Y300675D01*
X623280Y300665D01*
X623321Y300651D01*
X623368Y300633D01*
X623428Y300614D01*
X623488Y300601D01*
X623557Y300582D01*
X623636Y300564D01*
X623714Y300550D01*
X623802Y300531D01*
X623987Y300513D01*
X624186Y300504D01*
X624232D01*
X624269Y300508D01*
X624311D01*
X624357Y300513D01*
X624412Y300517D01*
X624473Y300522D01*
X624607Y300541D01*
X624750Y300564D01*
X624893Y300601D01*
X625036Y300647D01*
X625041D01*
X625055Y300651D01*
X625073Y300661D01*
X625097Y300675D01*
X625129Y300688D01*
X625161Y300707D01*
X625244Y300749D01*
X625332Y300804D01*
X625425Y300873D01*
X625513Y300952D01*
X625587Y301040D01*
Y301044D01*
X625596Y301054D01*
X625605Y301068D01*
X625614Y301086D01*
X625628Y301109D01*
X625647Y301137D01*
X625679Y301206D01*
X625711Y301285D01*
X625744Y301377D01*
X625762Y301483D01*
X625771Y301590D01*
Y301595D01*
Y301604D01*
Y301618D01*
X625767Y301641D01*
Y301668D01*
X625762Y301696D01*
X625748Y301770D01*
X625730Y301849D01*
X625698Y301937D01*
X625651Y302024D01*
X625591Y302112D01*
Y302117D01*
X625582Y302122D01*
X625559Y302149D01*
X625513Y302191D01*
X625485Y302219D01*
X625452Y302246D01*
X625415Y302274D01*
X625374Y302306D01*
X625328Y302339D01*
X625272Y302371D01*
X625217Y302404D01*
X625152Y302436D01*
X625087Y302464D01*
X625013Y302496D01*
X625009D01*
X625000Y302501D01*
X624986Y302505D01*
X624958Y302514D01*
X624925Y302524D01*
X624888Y302537D01*
X624838Y302551D01*
X624778Y302570D01*
X624704Y302593D01*
X624625Y302616D01*
X624533Y302639D01*
X624426Y302667D01*
X624311Y302699D01*
X624177Y302732D01*
X624033Y302769D01*
X623876Y302806D01*
X623871D01*
X623867Y302810D01*
X623853D01*
X623839Y302815D01*
X623793Y302829D01*
X623733Y302843D01*
X623663Y302861D01*
X623580Y302884D01*
X623488Y302907D01*
X623395Y302935D01*
X623192Y302995D01*
X622989Y303064D01*
X622892Y303102D01*
X622799Y303139D01*
X622720Y303171D01*
X622646Y303208D01*
X622642Y303213D01*
X622628Y303217D01*
X622605Y303231D01*
X622573Y303249D01*
X622536Y303273D01*
X622489Y303305D01*
X622443Y303337D01*
X622388Y303374D01*
X622277Y303458D01*
X622166Y303559D01*
X622055Y303675D01*
X622009Y303739D01*
X621962Y303804D01*
X621958Y303809D01*
X621953Y303823D01*
X621944Y303841D01*
X621930Y303869D01*
X621911Y303901D01*
X621893Y303938D01*
X621874Y303985D01*
X621851Y304035D01*
X621833Y304095D01*
X621810Y304156D01*
X621777Y304290D01*
X621750Y304438D01*
X621745Y304516D01*
X621740Y304599D01*
Y304604D01*
Y304622D01*
Y304646D01*
X621745Y304683D01*
X621750Y304724D01*
X621754Y304775D01*
X621763Y304830D01*
X621773Y304895D01*
X621791Y304965D01*
X621805Y305034D01*
X621828Y305108D01*
X621856Y305186D01*
X621888Y305265D01*
X621925Y305344D01*
X621967Y305427D01*
X622013Y305505D01*
X622018Y305510D01*
X622027Y305524D01*
X622041Y305547D01*
X622064Y305575D01*
X622092Y305612D01*
X622129Y305649D01*
X622170Y305695D01*
X622216Y305741D01*
X622267Y305792D01*
X622327Y305847D01*
X622392Y305898D01*
X622466Y305954D01*
X622545Y306005D01*
X622628Y306056D01*
X622716Y306102D01*
X622813Y306143D01*
X622817Y306148D01*
X622836Y306153D01*
X622864Y306162D01*
X622905Y306180D01*
X622956Y306194D01*
X623012Y306213D01*
X623081Y306236D01*
X623160Y306254D01*
X623243Y306277D01*
X623331Y306296D01*
X623428Y306314D01*
X623529Y306333D01*
X623640Y306347D01*
X623751Y306356D01*
X623867Y306361D01*
X623987Y306365D01*
X624056D01*
X624107Y306361D01*
D02*
G37*
G36*
X633630Y299856D02*
X632807D01*
X631471Y304729D01*
Y304738D01*
X631462Y304757D01*
X631453Y304784D01*
X631444Y304826D01*
X631430Y304877D01*
X631416Y304928D01*
X631397Y304988D01*
X631379Y305052D01*
X631342Y305182D01*
X631328Y305242D01*
X631310Y305302D01*
X631296Y305357D01*
X631282Y305404D01*
X631273Y305445D01*
X631263Y305478D01*
Y305473D01*
X631259Y305459D01*
X631254Y305436D01*
X631245Y305404D01*
X631236Y305367D01*
X631226Y305320D01*
X631213Y305274D01*
X631199Y305219D01*
X631171Y305103D01*
X631138Y304978D01*
X631106Y304849D01*
X631074Y304729D01*
X629729Y299856D01*
X628850D01*
X627163Y306254D01*
X628027D01*
X628998Y302057D01*
Y302048D01*
X629007Y302029D01*
X629012Y301992D01*
X629026Y301946D01*
X629040Y301886D01*
X629054Y301816D01*
X629072Y301733D01*
X629091Y301645D01*
X629114Y301553D01*
X629132Y301451D01*
X629155Y301340D01*
X629179Y301229D01*
X629225Y300993D01*
X629271Y300749D01*
Y300753D01*
X629276Y300762D01*
Y300776D01*
X629280Y300795D01*
X629289Y300818D01*
X629294Y300846D01*
X629308Y300910D01*
X629331Y300993D01*
X629350Y301081D01*
X629373Y301178D01*
X629400Y301280D01*
X629451Y301488D01*
X629474Y301590D01*
X629497Y301682D01*
X629521Y301765D01*
X629534Y301835D01*
X629553Y301895D01*
X629557Y301914D01*
X629562Y301932D01*
X630773Y306254D01*
X631795D01*
X632710Y303014D01*
Y303009D01*
X632715Y303000D01*
X632719Y302981D01*
X632724Y302958D01*
X632733Y302931D01*
X632743Y302894D01*
X632752Y302857D01*
X632766Y302810D01*
X632780Y302759D01*
X632794Y302704D01*
X632826Y302575D01*
X632863Y302436D01*
X632900Y302279D01*
X632941Y302108D01*
X632983Y301932D01*
X633025Y301742D01*
X633066Y301548D01*
X633145Y301151D01*
X633210Y300749D01*
Y300758D01*
X633214Y300776D01*
X633223Y300809D01*
X633233Y300855D01*
X633246Y300915D01*
X633260Y300980D01*
X633279Y301063D01*
X633297Y301151D01*
X633321Y301248D01*
X633344Y301354D01*
X633367Y301470D01*
X633399Y301590D01*
X633427Y301719D01*
X633459Y301853D01*
X633492Y301997D01*
X633529Y302140D01*
X634532Y306254D01*
X635387D01*
X633630Y299856D01*
D02*
G37*
G36*
X638812D02*
X638027D01*
Y304858D01*
X638022Y304854D01*
X638013Y304844D01*
X637999Y304830D01*
X637976Y304812D01*
X637948Y304789D01*
X637911Y304757D01*
X637869Y304724D01*
X637828Y304687D01*
X637772Y304650D01*
X637717Y304604D01*
X637657Y304562D01*
X637592Y304512D01*
X637518Y304465D01*
X637444Y304414D01*
X637278Y304313D01*
X637273Y304308D01*
X637259Y304299D01*
X637231Y304285D01*
X637199Y304271D01*
X637162Y304248D01*
X637116Y304220D01*
X637060Y304193D01*
X637005Y304160D01*
X636875Y304095D01*
X636737Y304031D01*
X636593Y303966D01*
X636455Y303911D01*
Y304669D01*
X636464Y304673D01*
X636483Y304683D01*
X636520Y304701D01*
X636566Y304724D01*
X636621Y304752D01*
X636690Y304789D01*
X636764Y304830D01*
X636843Y304877D01*
X636931Y304932D01*
X637023Y304988D01*
X637217Y305117D01*
X637416Y305260D01*
X637606Y305418D01*
X637611Y305422D01*
X637629Y305436D01*
X637652Y305459D01*
X637684Y305492D01*
X637726Y305533D01*
X637772Y305579D01*
X637823Y305635D01*
X637879Y305690D01*
X637934Y305755D01*
X637994Y305824D01*
X638110Y305968D01*
X638216Y306120D01*
X638262Y306199D01*
X638304Y306277D01*
X638812D01*
Y299856D01*
D02*
G37*
G36*
X434554Y594312D02*
X434575D01*
X434598Y594310D01*
X434646Y594305D01*
X434704Y594297D01*
X434768Y594284D01*
X434839Y594272D01*
X434913Y594251D01*
X434991Y594228D01*
X435070Y594200D01*
X435151Y594167D01*
X435230Y594127D01*
X435309Y594081D01*
X435382Y594025D01*
X435454Y593964D01*
X435456Y593962D01*
X435464Y593954D01*
X435474Y593944D01*
X435489Y593926D01*
X435507Y593906D01*
X435530Y593878D01*
X435553Y593847D01*
X435578Y593814D01*
X435603Y593774D01*
X435631Y593731D01*
X435657Y593682D01*
X435685Y593629D01*
X435713Y593573D01*
X435738Y593509D01*
X435761Y593446D01*
X435784Y593375D01*
X435144Y593223D01*
Y593225D01*
X435141Y593233D01*
X435136Y593245D01*
X435131Y593263D01*
X435126Y593286D01*
X435116Y593309D01*
X435106Y593337D01*
X435093Y593365D01*
X435060Y593428D01*
X435019Y593494D01*
X434994Y593527D01*
X434966Y593558D01*
X434938Y593588D01*
X434905Y593616D01*
X434902Y593619D01*
X434897Y593621D01*
X434887Y593629D01*
X434872Y593639D01*
X434854Y593649D01*
X434834Y593662D01*
X434811Y593675D01*
X434783Y593690D01*
X434753Y593703D01*
X434720Y593715D01*
X434682Y593728D01*
X434643Y593738D01*
X434603Y593748D01*
X434560Y593756D01*
X434514Y593759D01*
X434466Y593761D01*
X434450D01*
X434433Y593759D01*
X434407Y593756D01*
X434377Y593753D01*
X434341Y593748D01*
X434303Y593741D01*
X434260Y593728D01*
X434214Y593715D01*
X434168Y593698D01*
X434120Y593677D01*
X434072Y593652D01*
X434024Y593624D01*
X433975Y593588D01*
X433930Y593550D01*
X433886Y593504D01*
X433884Y593502D01*
X433876Y593492D01*
X433866Y593476D01*
X433851Y593456D01*
X433836Y593428D01*
X433818Y593393D01*
X433798Y593352D01*
X433777Y593304D01*
X433754Y593251D01*
X433737Y593190D01*
X433716Y593121D01*
X433701Y593047D01*
X433686Y592966D01*
X433676Y592877D01*
X433668Y592781D01*
X433666Y592676D01*
Y592674D01*
Y592669D01*
Y592661D01*
Y592651D01*
Y592636D01*
X433668Y592618D01*
Y592577D01*
X433673Y592527D01*
X433678Y592471D01*
X433683Y592407D01*
X433693Y592341D01*
X433704Y592270D01*
X433719Y592199D01*
X433737Y592125D01*
X433757Y592054D01*
X433782Y591986D01*
X433813Y591922D01*
X433846Y591864D01*
X433884Y591810D01*
X433886Y591808D01*
X433894Y591800D01*
X433907Y591787D01*
X433925Y591770D01*
X433945Y591752D01*
X433973Y591729D01*
X434003Y591706D01*
X434036Y591683D01*
X434077Y591658D01*
X434120Y591635D01*
X434166Y591612D01*
X434217Y591594D01*
X434270Y591577D01*
X434328Y591564D01*
X434389Y591556D01*
X434453Y591554D01*
X434478D01*
X434496Y591556D01*
X434519Y591559D01*
X434544Y591561D01*
X434572Y591566D01*
X434605Y591574D01*
X434674Y591594D01*
X434709Y591607D01*
X434748Y591622D01*
X434786Y591640D01*
X434824Y591663D01*
X434859Y591688D01*
X434895Y591716D01*
X434897Y591719D01*
X434902Y591724D01*
X434913Y591734D01*
X434925Y591747D01*
X434941Y591765D01*
X434958Y591787D01*
X434979Y591813D01*
X434999Y591843D01*
X435022Y591876D01*
X435042Y591914D01*
X435065Y591958D01*
X435088Y592006D01*
X435108Y592057D01*
X435129Y592110D01*
X435149Y592171D01*
X435164Y592234D01*
X435792Y592036D01*
Y592034D01*
X435789Y592031D01*
Y592024D01*
X435784Y592014D01*
X435776Y591986D01*
X435764Y591950D01*
X435748Y591907D01*
X435728Y591856D01*
X435705Y591800D01*
X435677Y591742D01*
X435647Y591678D01*
X435611Y591612D01*
X435570Y591549D01*
X435527Y591483D01*
X435479Y591422D01*
X435426Y591361D01*
X435370Y591305D01*
X435309Y591254D01*
X435304Y591251D01*
X435294Y591244D01*
X435276Y591231D01*
X435248Y591213D01*
X435215Y591196D01*
X435177Y591173D01*
X435129Y591150D01*
X435078Y591127D01*
X435019Y591104D01*
X434953Y591081D01*
X434885Y591058D01*
X434809Y591041D01*
X434727Y591023D01*
X434643Y591010D01*
X434552Y591003D01*
X434458Y591000D01*
X434430D01*
X434415Y591003D01*
X434397D01*
X434377Y591005D01*
X434351Y591008D01*
X434298Y591013D01*
X434235Y591023D01*
X434163Y591036D01*
X434087Y591053D01*
X434006Y591076D01*
X433922Y591107D01*
X433836Y591142D01*
X433747Y591183D01*
X433658Y591234D01*
X433572Y591292D01*
X433488Y591358D01*
X433447Y591394D01*
X433409Y591434D01*
Y591437D01*
X433404Y591439D01*
X433391Y591455D01*
X433371Y591480D01*
X433345Y591516D01*
X433315Y591559D01*
X433279Y591612D01*
X433244Y591676D01*
X433206Y591747D01*
X433168Y591828D01*
X433130Y591917D01*
X433094Y592016D01*
X433064Y592123D01*
X433038Y592237D01*
X433018Y592359D01*
X433005Y592491D01*
X433000Y592628D01*
Y592631D01*
Y592638D01*
Y592649D01*
Y592664D01*
X433003Y592682D01*
Y592704D01*
X433005Y592730D01*
X433008Y592760D01*
X433010Y592793D01*
X433013Y592826D01*
X433018Y592864D01*
X433023Y592905D01*
X433036Y592991D01*
X433051Y593083D01*
X433074Y593182D01*
X433102Y593284D01*
X433135Y593388D01*
X433173Y593489D01*
X433221Y593591D01*
X433277Y593690D01*
X433340Y593784D01*
X433411Y593870D01*
X433414Y593873D01*
X433417Y593875D01*
X433432Y593890D01*
X433455Y593911D01*
X433488Y593939D01*
X433528Y593974D01*
X433579Y594010D01*
X433638Y594051D01*
X433704Y594094D01*
X433777Y594134D01*
X433858Y594175D01*
X433947Y594211D01*
X434044Y594246D01*
X434148Y594274D01*
X434260Y594297D01*
X434377Y594310D01*
X434435Y594315D01*
X434539D01*
X434554Y594312D01*
D02*
G37*
G36*
X437265Y594269D02*
X437298Y594267D01*
X437336Y594264D01*
X437379Y594256D01*
X437427Y594246D01*
X437483Y594236D01*
X437539Y594221D01*
X437597Y594200D01*
X437658Y594178D01*
X437719Y594150D01*
X437780Y594117D01*
X437839Y594078D01*
X437895Y594033D01*
X437948Y593982D01*
X437951Y593979D01*
X437958Y593972D01*
X437968Y593959D01*
X437984Y593941D01*
X438001Y593918D01*
X438019Y593890D01*
X438039Y593860D01*
X438062Y593827D01*
X438083Y593789D01*
X438103Y593748D01*
X438121Y593705D01*
X438138Y593657D01*
X438154Y593609D01*
X438164Y593558D01*
X438172Y593504D01*
X438174Y593449D01*
Y593443D01*
Y593431D01*
X438172Y593408D01*
X438166Y593380D01*
X438159Y593344D01*
X438149Y593301D01*
X438136Y593256D01*
X438116Y593207D01*
X438093Y593154D01*
X438062Y593098D01*
X438024Y593042D01*
X437978Y592986D01*
X437925Y592930D01*
X437864Y592877D01*
X437831Y592849D01*
X437793Y592824D01*
X437755Y592801D01*
X437712Y592775D01*
X437714D01*
X437724Y592773D01*
X437737Y592768D01*
X437757Y592763D01*
X437780Y592755D01*
X437808Y592745D01*
X437836Y592735D01*
X437869Y592720D01*
X437905Y592704D01*
X437940Y592687D01*
X437976Y592664D01*
X438014Y592638D01*
X438050Y592613D01*
X438085Y592582D01*
X438118Y592549D01*
X438151Y592511D01*
X438154Y592509D01*
X438159Y592501D01*
X438166Y592491D01*
X438176Y592476D01*
X438189Y592455D01*
X438204Y592430D01*
X438217Y592402D01*
X438235Y592372D01*
X438250Y592339D01*
X438263Y592300D01*
X438278Y592257D01*
X438291Y592214D01*
X438301Y592168D01*
X438309Y592118D01*
X438314Y592067D01*
X438316Y592014D01*
Y592008D01*
Y591996D01*
X438314Y591973D01*
X438311Y591942D01*
X438306Y591907D01*
X438301Y591864D01*
X438291Y591818D01*
X438278Y591765D01*
X438260Y591711D01*
X438240Y591653D01*
X438215Y591594D01*
X438187Y591533D01*
X438151Y591473D01*
X438108Y591412D01*
X438062Y591351D01*
X438006Y591295D01*
X438004Y591292D01*
X437991Y591282D01*
X437976Y591267D01*
X437951Y591249D01*
X437920Y591226D01*
X437884Y591201D01*
X437844Y591175D01*
X437795Y591147D01*
X437742Y591119D01*
X437684Y591094D01*
X437620Y591069D01*
X437554Y591046D01*
X437481Y591028D01*
X437404Y591013D01*
X437323Y591003D01*
X437239Y591000D01*
X437219D01*
X437199Y591003D01*
X437168Y591005D01*
X437130Y591008D01*
X437087Y591013D01*
X437039Y591020D01*
X436985Y591031D01*
X436929Y591043D01*
X436874Y591061D01*
X436813Y591081D01*
X436752Y591104D01*
X436691Y591135D01*
X436632Y591168D01*
X436574Y591206D01*
X436518Y591249D01*
X436515Y591251D01*
X436505Y591262D01*
X436493Y591274D01*
X436472Y591295D01*
X436452Y591320D01*
X436427Y591348D01*
X436399Y591384D01*
X436371Y591424D01*
X436340Y591467D01*
X436312Y591518D01*
X436284Y591572D01*
X436259Y591630D01*
X436236Y591691D01*
X436216Y591757D01*
X436198Y591828D01*
X436188Y591902D01*
X436782Y591975D01*
Y591973D01*
X436785Y591965D01*
Y591953D01*
X436790Y591937D01*
X436792Y591920D01*
X436797Y591897D01*
X436813Y591846D01*
X436833Y591790D01*
X436858Y591731D01*
X436891Y591676D01*
X436912Y591650D01*
X436935Y591627D01*
X436937D01*
X436940Y591622D01*
X436947Y591617D01*
X436957Y591610D01*
X436983Y591589D01*
X437018Y591569D01*
X437062Y591546D01*
X437112Y591526D01*
X437171Y591513D01*
X437201Y591511D01*
X437234Y591508D01*
X437252D01*
X437267Y591511D01*
X437282Y591513D01*
X437300Y591516D01*
X437346Y591526D01*
X437397Y591544D01*
X437450Y591569D01*
X437476Y591584D01*
X437503Y591604D01*
X437529Y591625D01*
X437554Y591650D01*
X437557Y591653D01*
X437559Y591658D01*
X437567Y591665D01*
X437575Y591676D01*
X437585Y591691D01*
X437595Y591709D01*
X437608Y591729D01*
X437620Y591754D01*
X437633Y591780D01*
X437646Y591810D01*
X437656Y591841D01*
X437666Y591876D01*
X437674Y591914D01*
X437681Y591955D01*
X437684Y591996D01*
X437686Y592041D01*
Y592044D01*
Y592052D01*
Y592064D01*
X437684Y592080D01*
Y592100D01*
X437679Y592123D01*
X437671Y592174D01*
X437656Y592232D01*
X437633Y592293D01*
X437620Y592323D01*
X437603Y592354D01*
X437585Y592382D01*
X437562Y592407D01*
X437559Y592410D01*
X437557Y592412D01*
X437549Y592420D01*
X437539Y592427D01*
X437514Y592450D01*
X437478Y592476D01*
X437432Y592501D01*
X437382Y592524D01*
X437323Y592539D01*
X437290Y592542D01*
X437257Y592544D01*
X437237D01*
X437211Y592542D01*
X437178Y592539D01*
X437138Y592532D01*
X437089Y592524D01*
X437036Y592511D01*
X436978Y592496D01*
X437044Y592999D01*
X437084D01*
X437105Y593002D01*
X437130D01*
X437155Y593007D01*
X437186Y593009D01*
X437247Y593022D01*
X437310Y593040D01*
X437371Y593068D01*
X437399Y593085D01*
X437425Y593106D01*
X437427Y593108D01*
X437430Y593111D01*
X437437Y593118D01*
X437445Y593126D01*
X437465Y593151D01*
X437491Y593187D01*
X437516Y593230D01*
X437537Y593284D01*
X437552Y593342D01*
X437554Y593375D01*
X437557Y593410D01*
Y593413D01*
Y593418D01*
Y593426D01*
X437554Y593438D01*
X437552Y593466D01*
X437544Y593504D01*
X437534Y593545D01*
X437516Y593588D01*
X437493Y593632D01*
X437460Y593670D01*
X437455Y593675D01*
X437443Y593685D01*
X437422Y593700D01*
X437392Y593718D01*
X437356Y593736D01*
X437310Y593751D01*
X437260Y593761D01*
X437204Y593766D01*
X437188D01*
X437178Y593764D01*
X437148Y593761D01*
X437112Y593753D01*
X437069Y593738D01*
X437023Y593718D01*
X436978Y593692D01*
X436955Y593675D01*
X436935Y593654D01*
X436929Y593649D01*
X436917Y593634D01*
X436899Y593609D01*
X436876Y593573D01*
X436853Y593530D01*
X436830Y593474D01*
X436813Y593410D01*
X436800Y593337D01*
X436233Y593431D01*
Y593433D01*
X436236Y593443D01*
X436239Y593459D01*
X436244Y593479D01*
X436251Y593504D01*
X436259Y593532D01*
X436267Y593565D01*
X436277Y593598D01*
X436302Y593672D01*
X436333Y593751D01*
X436371Y593827D01*
X436388Y593863D01*
X436411Y593896D01*
X436414Y593898D01*
X436416Y593903D01*
X436424Y593913D01*
X436434Y593924D01*
X436444Y593939D01*
X436460Y593957D01*
X436477Y593974D01*
X436498Y593995D01*
X436546Y594040D01*
X436602Y594086D01*
X436668Y594129D01*
X436744Y594170D01*
X436746D01*
X436754Y594175D01*
X436764Y594180D01*
X436782Y594185D01*
X436802Y594193D01*
X436825Y594203D01*
X436853Y594211D01*
X436884Y594221D01*
X436917Y594231D01*
X436955Y594239D01*
X436993Y594249D01*
X437036Y594256D01*
X437125Y594267D01*
X437221Y594272D01*
X437242D01*
X437265Y594269D01*
D02*
G37*
G36*
X434054Y616812D02*
X434075D01*
X434098Y616810D01*
X434146Y616805D01*
X434204Y616797D01*
X434268Y616784D01*
X434339Y616772D01*
X434413Y616751D01*
X434491Y616728D01*
X434570Y616700D01*
X434651Y616667D01*
X434730Y616627D01*
X434809Y616581D01*
X434883Y616525D01*
X434954Y616464D01*
X434956Y616462D01*
X434964Y616454D01*
X434974Y616444D01*
X434989Y616426D01*
X435007Y616406D01*
X435030Y616378D01*
X435053Y616347D01*
X435078Y616314D01*
X435103Y616274D01*
X435131Y616231D01*
X435157Y616182D01*
X435185Y616129D01*
X435213Y616073D01*
X435238Y616009D01*
X435261Y615946D01*
X435284Y615875D01*
X434644Y615723D01*
Y615725D01*
X434641Y615733D01*
X434636Y615745D01*
X434631Y615763D01*
X434626Y615786D01*
X434616Y615809D01*
X434606Y615837D01*
X434593Y615865D01*
X434560Y615928D01*
X434519Y615994D01*
X434494Y616027D01*
X434466Y616058D01*
X434438Y616088D01*
X434405Y616116D01*
X434403Y616119D01*
X434397Y616121D01*
X434387Y616129D01*
X434372Y616139D01*
X434354Y616149D01*
X434334Y616162D01*
X434311Y616175D01*
X434283Y616190D01*
X434253Y616203D01*
X434220Y616215D01*
X434182Y616228D01*
X434143Y616238D01*
X434103Y616248D01*
X434060Y616256D01*
X434014Y616259D01*
X433966Y616261D01*
X433950D01*
X433933Y616259D01*
X433907Y616256D01*
X433877Y616253D01*
X433841Y616248D01*
X433803Y616241D01*
X433760Y616228D01*
X433714Y616215D01*
X433668Y616198D01*
X433620Y616177D01*
X433572Y616152D01*
X433524Y616124D01*
X433475Y616088D01*
X433430Y616050D01*
X433386Y616004D01*
X433384Y616002D01*
X433376Y615992D01*
X433366Y615976D01*
X433351Y615956D01*
X433336Y615928D01*
X433318Y615893D01*
X433298Y615852D01*
X433277Y615804D01*
X433254Y615751D01*
X433237Y615690D01*
X433216Y615621D01*
X433201Y615547D01*
X433186Y615466D01*
X433176Y615377D01*
X433168Y615281D01*
X433166Y615176D01*
Y615174D01*
Y615169D01*
Y615161D01*
Y615151D01*
Y615136D01*
X433168Y615118D01*
Y615077D01*
X433173Y615027D01*
X433178Y614971D01*
X433183Y614907D01*
X433193Y614841D01*
X433204Y614770D01*
X433219Y614699D01*
X433237Y614625D01*
X433257Y614554D01*
X433282Y614486D01*
X433313Y614422D01*
X433346Y614364D01*
X433384Y614310D01*
X433386Y614308D01*
X433394Y614300D01*
X433407Y614287D01*
X433425Y614270D01*
X433445Y614252D01*
X433473Y614229D01*
X433503Y614206D01*
X433536Y614183D01*
X433577Y614158D01*
X433620Y614135D01*
X433666Y614112D01*
X433717Y614094D01*
X433770Y614077D01*
X433828Y614064D01*
X433889Y614056D01*
X433953Y614054D01*
X433978D01*
X433996Y614056D01*
X434019Y614059D01*
X434044Y614061D01*
X434072Y614066D01*
X434105Y614074D01*
X434174Y614094D01*
X434209Y614107D01*
X434248Y614122D01*
X434286Y614140D01*
X434324Y614163D01*
X434359Y614188D01*
X434395Y614216D01*
X434397Y614219D01*
X434403Y614224D01*
X434413Y614234D01*
X434425Y614247D01*
X434441Y614265D01*
X434458Y614287D01*
X434479Y614313D01*
X434499Y614343D01*
X434522Y614376D01*
X434542Y614414D01*
X434565Y614458D01*
X434588Y614506D01*
X434608Y614557D01*
X434628Y614610D01*
X434649Y614671D01*
X434664Y614734D01*
X435291Y614536D01*
Y614534D01*
X435289Y614531D01*
Y614524D01*
X435284Y614514D01*
X435276Y614486D01*
X435263Y614450D01*
X435248Y614407D01*
X435228Y614356D01*
X435205Y614300D01*
X435177Y614242D01*
X435147Y614178D01*
X435111Y614112D01*
X435070Y614049D01*
X435027Y613983D01*
X434979Y613922D01*
X434926Y613861D01*
X434870Y613805D01*
X434809Y613754D01*
X434804Y613751D01*
X434794Y613744D01*
X434776Y613731D01*
X434748Y613713D01*
X434715Y613696D01*
X434677Y613673D01*
X434628Y613650D01*
X434578Y613627D01*
X434519Y613604D01*
X434453Y613581D01*
X434385Y613558D01*
X434309Y613541D01*
X434227Y613523D01*
X434143Y613510D01*
X434052Y613503D01*
X433958Y613500D01*
X433930D01*
X433915Y613503D01*
X433897D01*
X433877Y613505D01*
X433851Y613508D01*
X433798Y613513D01*
X433734Y613523D01*
X433663Y613536D01*
X433587Y613553D01*
X433506Y613576D01*
X433422Y613607D01*
X433336Y613642D01*
X433247Y613683D01*
X433158Y613734D01*
X433072Y613792D01*
X432988Y613858D01*
X432947Y613894D01*
X432909Y613934D01*
Y613937D01*
X432904Y613939D01*
X432891Y613955D01*
X432871Y613980D01*
X432845Y614016D01*
X432815Y614059D01*
X432779Y614112D01*
X432744Y614176D01*
X432706Y614247D01*
X432668Y614328D01*
X432630Y614417D01*
X432594Y614516D01*
X432564Y614623D01*
X432538Y614737D01*
X432518Y614859D01*
X432505Y614991D01*
X432500Y615128D01*
Y615131D01*
Y615138D01*
Y615149D01*
Y615164D01*
X432503Y615182D01*
Y615204D01*
X432505Y615230D01*
X432508Y615260D01*
X432510Y615293D01*
X432513Y615326D01*
X432518Y615364D01*
X432523Y615405D01*
X432536Y615491D01*
X432551Y615583D01*
X432574Y615682D01*
X432602Y615784D01*
X432635Y615888D01*
X432673Y615989D01*
X432721Y616091D01*
X432777Y616190D01*
X432840Y616284D01*
X432911Y616370D01*
X432914Y616373D01*
X432917Y616375D01*
X432932Y616390D01*
X432955Y616411D01*
X432988Y616439D01*
X433028Y616474D01*
X433079Y616510D01*
X433138Y616551D01*
X433204Y616594D01*
X433277Y616634D01*
X433358Y616675D01*
X433447Y616711D01*
X433544Y616746D01*
X433648Y616774D01*
X433760Y616797D01*
X433877Y616810D01*
X433935Y616815D01*
X434039D01*
X434054Y616812D01*
D02*
G37*
G36*
X436810Y616769D02*
X436843Y616767D01*
X436884Y616764D01*
X436930Y616759D01*
X436981Y616751D01*
X437036Y616739D01*
X437095Y616726D01*
X437156Y616708D01*
X437217Y616688D01*
X437280Y616662D01*
X437341Y616634D01*
X437402Y616599D01*
X437458Y616561D01*
X437511Y616515D01*
X437514Y616512D01*
X437524Y616502D01*
X437537Y616490D01*
X437555Y616469D01*
X437575Y616444D01*
X437598Y616413D01*
X437623Y616378D01*
X437649Y616340D01*
X437674Y616297D01*
X437697Y616248D01*
X437720Y616195D01*
X437740Y616139D01*
X437758Y616078D01*
X437771Y616017D01*
X437781Y615949D01*
X437783Y615880D01*
Y615877D01*
Y615870D01*
Y615860D01*
Y615844D01*
X437781Y615824D01*
X437778Y615801D01*
X437776Y615776D01*
X437773Y615748D01*
X437763Y615684D01*
X437750Y615616D01*
X437730Y615542D01*
X437705Y615468D01*
Y615466D01*
X437702Y615461D01*
X437697Y615448D01*
X437689Y615435D01*
X437682Y615418D01*
X437671Y615395D01*
X437659Y615372D01*
X437644Y615344D01*
X437611Y615283D01*
X437567Y615215D01*
X437517Y615138D01*
X437458Y615060D01*
Y615057D01*
X437453Y615052D01*
X437445Y615044D01*
X437435Y615034D01*
X437422Y615019D01*
X437407Y615001D01*
X437389Y614978D01*
X437367Y614955D01*
X437339Y614927D01*
X437311Y614897D01*
X437278Y614864D01*
X437240Y614826D01*
X437199Y614788D01*
X437156Y614745D01*
X437108Y614699D01*
X437054Y614651D01*
X437052Y614648D01*
X437042Y614638D01*
X437026Y614625D01*
X437009Y614608D01*
X436986Y614587D01*
X436958Y614562D01*
X436899Y614506D01*
X436838Y614447D01*
X436777Y614389D01*
X436749Y614361D01*
X436724Y614336D01*
X436704Y614313D01*
X436686Y614295D01*
X436683Y614292D01*
X436673Y614280D01*
X436660Y614265D01*
X436643Y614242D01*
X436622Y614216D01*
X436602Y614188D01*
X436582Y614158D01*
X436562Y614127D01*
X437783D01*
Y613556D01*
X435632D01*
Y613558D01*
X435634Y613571D01*
X435637Y613589D01*
X435639Y613612D01*
X435644Y613640D01*
X435652Y613673D01*
X435660Y613711D01*
X435670Y613754D01*
X435683Y613800D01*
X435698Y613848D01*
X435713Y613899D01*
X435733Y613950D01*
X435756Y614003D01*
X435782Y614059D01*
X435810Y614115D01*
X435840Y614168D01*
X435843Y614171D01*
X435848Y614181D01*
X435860Y614198D01*
X435876Y614221D01*
X435896Y614249D01*
X435924Y614285D01*
X435954Y614325D01*
X435993Y614374D01*
X436036Y614425D01*
X436087Y614483D01*
X436142Y614547D01*
X436203Y614615D01*
X436274Y614686D01*
X436351Y614765D01*
X436437Y614849D01*
X436528Y614935D01*
X436534Y614940D01*
X436546Y614953D01*
X436567Y614973D01*
X436595Y614999D01*
X436628Y615029D01*
X436666Y615065D01*
X436706Y615105D01*
X436749Y615146D01*
X436836Y615235D01*
X436879Y615278D01*
X436920Y615321D01*
X436958Y615362D01*
X436991Y615400D01*
X437019Y615433D01*
X437039Y615461D01*
X437042Y615463D01*
X437044Y615468D01*
X437052Y615479D01*
X437059Y615494D01*
X437070Y615512D01*
X437080Y615532D01*
X437090Y615555D01*
X437103Y615580D01*
X437125Y615636D01*
X437146Y615700D01*
X437161Y615768D01*
X437163Y615801D01*
X437166Y615837D01*
Y615839D01*
Y615847D01*
Y615857D01*
X437163Y615870D01*
Y615888D01*
X437161Y615908D01*
X437153Y615954D01*
X437138Y616004D01*
X437118Y616058D01*
X437092Y616106D01*
X437075Y616132D01*
X437054Y616152D01*
Y616154D01*
X437049Y616157D01*
X437034Y616170D01*
X437009Y616187D01*
X436976Y616208D01*
X436932Y616228D01*
X436879Y616246D01*
X436818Y616259D01*
X436785Y616264D01*
X436732D01*
X436719Y616261D01*
X436701D01*
X436683Y616259D01*
X436640Y616248D01*
X436592Y616236D01*
X436541Y616215D01*
X436490Y616185D01*
X436468Y616167D01*
X436445Y616147D01*
Y616144D01*
X436440Y616142D01*
X436435Y616134D01*
X436427Y616124D01*
X436417Y616111D01*
X436407Y616096D01*
X436396Y616078D01*
X436386Y616055D01*
X436373Y616030D01*
X436363Y616002D01*
X436353Y615971D01*
X436343Y615936D01*
X436333Y615898D01*
X436325Y615857D01*
X436320Y615811D01*
X436315Y615763D01*
X435703Y615824D01*
Y615827D01*
Y615829D01*
X435705Y615837D01*
Y615847D01*
X435711Y615872D01*
X435716Y615905D01*
X435723Y615949D01*
X435736Y615997D01*
X435749Y616048D01*
X435766Y616104D01*
X435787Y616165D01*
X435810Y616223D01*
X435838Y616284D01*
X435868Y616345D01*
X435906Y616401D01*
X435947Y616457D01*
X435993Y616505D01*
X436043Y616551D01*
X436046Y616553D01*
X436056Y616561D01*
X436074Y616571D01*
X436097Y616586D01*
X436125Y616601D01*
X436158Y616622D01*
X436198Y616640D01*
X436241Y616662D01*
X436292Y616683D01*
X436346Y616703D01*
X436407Y616721D01*
X436470Y616736D01*
X436539Y616751D01*
X436610Y616761D01*
X436686Y616769D01*
X436765Y616772D01*
X436785D01*
X436810Y616769D01*
D02*
G37*
G36*
X564600Y308703D02*
X560751D01*
X560654Y308710D01*
X560557D01*
X560446Y308717D01*
X560211Y308724D01*
X559968Y308745D01*
X559732Y308766D01*
X559621Y308786D01*
X559524Y308800D01*
X559517D01*
X559490Y308807D01*
X559455Y308814D01*
X559406Y308821D01*
X559344Y308835D01*
X559274Y308856D01*
X559198Y308876D01*
X559108Y308897D01*
X558921Y308960D01*
X558727Y309043D01*
X558526Y309133D01*
X558338Y309251D01*
X558331Y309258D01*
X558318Y309265D01*
X558290Y309286D01*
X558262Y309313D01*
X558220Y309341D01*
X558172Y309383D01*
X558116Y309431D01*
X558061Y309487D01*
X558006Y309549D01*
X557943Y309618D01*
X557811Y309778D01*
X557687Y309965D01*
X557569Y310173D01*
X557562Y310180D01*
X557555Y310201D01*
X557541Y310236D01*
X557520Y310277D01*
X557499Y310333D01*
X557479Y310402D01*
X557451Y310478D01*
X557423Y310562D01*
X557395Y310652D01*
X557368Y310756D01*
X557347Y310860D01*
X557326Y310977D01*
X557291Y311220D01*
X557277Y311484D01*
Y311498D01*
Y311539D01*
X557284Y311602D01*
X557291Y311685D01*
X557298Y311796D01*
X557319Y311914D01*
X557340Y312052D01*
X557375Y312198D01*
X557416Y312357D01*
X557472Y312524D01*
X557534Y312697D01*
X557610Y312871D01*
X557701Y313044D01*
X557804Y313217D01*
X557922Y313391D01*
X558061Y313550D01*
X558068Y313557D01*
X558096Y313585D01*
X558144Y313626D01*
X558214Y313682D01*
X558304Y313744D01*
X558415Y313820D01*
X558546Y313897D01*
X558706Y313973D01*
X558886Y314049D01*
X559087Y314126D01*
X559323Y314202D01*
X559573Y314264D01*
X559857Y314320D01*
X560009Y314341D01*
X560169Y314361D01*
X560336Y314375D01*
X560509Y314389D01*
X560689Y314396D01*
X563331D01*
Y318300D01*
X564600D01*
Y308703D01*
D02*
G37*
G36*
X556286Y318293D02*
Y318279D01*
Y318258D01*
Y318231D01*
Y318189D01*
X556279Y318148D01*
X556272Y318036D01*
X556258Y317919D01*
X556237Y317780D01*
X556203Y317634D01*
X556154Y317489D01*
Y317482D01*
X556140Y317461D01*
X556126Y317426D01*
X556106Y317378D01*
X556085Y317315D01*
X556050Y317246D01*
X556008Y317170D01*
X555967Y317087D01*
X555918Y316989D01*
X555856Y316892D01*
X555724Y316677D01*
X555565Y316449D01*
X555378Y316213D01*
X555371Y316206D01*
X555350Y316185D01*
X555322Y316150D01*
X555280Y316102D01*
X555225Y316040D01*
X555156Y315970D01*
X555079Y315887D01*
X554982Y315797D01*
X554878Y315693D01*
X554767Y315582D01*
X554642Y315464D01*
X554504Y315332D01*
X554351Y315200D01*
X554192Y315062D01*
X554018Y314916D01*
X553838Y314764D01*
X553831Y314757D01*
X553817Y314750D01*
X553797Y314729D01*
X553769Y314708D01*
X553734Y314673D01*
X553693Y314639D01*
X553588Y314549D01*
X553457Y314445D01*
X553318Y314313D01*
X553159Y314174D01*
X552992Y314022D01*
X552812Y313862D01*
X552639Y313696D01*
X552458Y313529D01*
X552292Y313356D01*
X552125Y313190D01*
X551980Y313030D01*
X551841Y312871D01*
X551730Y312725D01*
X551723Y312718D01*
X551709Y312690D01*
X551682Y312649D01*
X551640Y312600D01*
X551598Y312531D01*
X551557Y312454D01*
X551501Y312364D01*
X551453Y312267D01*
X551404Y312163D01*
X551349Y312052D01*
X551259Y311810D01*
X551224Y311685D01*
X551196Y311560D01*
X551182Y311435D01*
X551175Y311310D01*
Y311303D01*
Y311276D01*
Y311241D01*
X551182Y311192D01*
X551189Y311130D01*
X551203Y311061D01*
X551217Y310984D01*
X551238Y310901D01*
X551265Y310811D01*
X551300Y310714D01*
X551342Y310617D01*
X551390Y310520D01*
X551446Y310416D01*
X551515Y310319D01*
X551591Y310222D01*
X551682Y310131D01*
X551688Y310125D01*
X551702Y310111D01*
X551730Y310090D01*
X551772Y310055D01*
X551820Y310021D01*
X551883Y309979D01*
X551952Y309930D01*
X552028Y309889D01*
X552118Y309840D01*
X552215Y309799D01*
X552327Y309757D01*
X552437Y309722D01*
X552562Y309688D01*
X552694Y309667D01*
X552833Y309653D01*
X552978Y309646D01*
X553061D01*
X553117Y309653D01*
X553193Y309660D01*
X553276Y309674D01*
X553367Y309688D01*
X553471Y309709D01*
X553575Y309736D01*
X553686Y309771D01*
X553797Y309813D01*
X553914Y309861D01*
X554025Y309923D01*
X554136Y309993D01*
X554247Y310069D01*
X554344Y310159D01*
X554351Y310166D01*
X554365Y310180D01*
X554393Y310215D01*
X554421Y310249D01*
X554462Y310305D01*
X554504Y310367D01*
X554552Y310444D01*
X554594Y310527D01*
X554642Y310617D01*
X554691Y310728D01*
X554733Y310839D01*
X554774Y310964D01*
X554802Y311102D01*
X554830Y311248D01*
X554844Y311401D01*
X554851Y311567D01*
X556064Y311442D01*
Y311435D01*
Y311428D01*
X556057Y311407D01*
Y311380D01*
X556050Y311310D01*
X556029Y311220D01*
X556008Y311109D01*
X555981Y310977D01*
X555946Y310832D01*
X555905Y310679D01*
X555849Y310513D01*
X555787Y310347D01*
X555710Y310173D01*
X555620Y310000D01*
X555523Y309833D01*
X555405Y309674D01*
X555280Y309521D01*
X555135Y309383D01*
X555128Y309376D01*
X555100Y309355D01*
X555052Y309313D01*
X554989Y309272D01*
X554906Y309216D01*
X554809Y309154D01*
X554691Y309091D01*
X554559Y309022D01*
X554407Y308960D01*
X554247Y308897D01*
X554067Y308835D01*
X553873Y308779D01*
X553665Y308731D01*
X553443Y308696D01*
X553207Y308675D01*
X552957Y308668D01*
X552895D01*
X552826Y308675D01*
X552729Y308682D01*
X552611Y308689D01*
X552479Y308710D01*
X552327Y308731D01*
X552167Y308766D01*
X551994Y308807D01*
X551820Y308856D01*
X551633Y308918D01*
X551453Y308994D01*
X551273Y309084D01*
X551099Y309182D01*
X550933Y309299D01*
X550773Y309438D01*
X550766Y309445D01*
X550738Y309473D01*
X550697Y309514D01*
X550648Y309577D01*
X550586Y309646D01*
X550517Y309736D01*
X550440Y309840D01*
X550364Y309958D01*
X550295Y310090D01*
X550219Y310236D01*
X550149Y310395D01*
X550087Y310562D01*
X550038Y310742D01*
X549997Y310929D01*
X549969Y311130D01*
X549962Y311338D01*
Y311345D01*
Y311366D01*
Y311394D01*
Y311435D01*
X549969Y311491D01*
X549976Y311546D01*
X549983Y311616D01*
X549990Y311692D01*
X550017Y311865D01*
X550059Y312059D01*
X550121Y312260D01*
X550198Y312468D01*
Y312475D01*
X550211Y312496D01*
X550225Y312524D01*
X550246Y312565D01*
X550267Y312614D01*
X550302Y312676D01*
X550336Y312746D01*
X550385Y312822D01*
X550433Y312905D01*
X550489Y312995D01*
X550628Y313197D01*
X550704Y313300D01*
X550787Y313411D01*
X550884Y313522D01*
X550981Y313640D01*
X550988Y313647D01*
X551009Y313668D01*
X551037Y313703D01*
X551085Y313751D01*
X551148Y313814D01*
X551224Y313890D01*
X551307Y313980D01*
X551411Y314084D01*
X551529Y314195D01*
X551668Y314320D01*
X551813Y314459D01*
X551980Y314611D01*
X552160Y314771D01*
X552354Y314944D01*
X552569Y315131D01*
X552798Y315325D01*
X552812Y315332D01*
X552846Y315367D01*
X552895Y315408D01*
X552964Y315471D01*
X553055Y315540D01*
X553145Y315623D01*
X553249Y315714D01*
X553360Y315811D01*
X553595Y316012D01*
X553706Y316116D01*
X553817Y316213D01*
X553921Y316310D01*
X554011Y316393D01*
X554095Y316469D01*
X554157Y316539D01*
X554171Y316553D01*
X554206Y316594D01*
X554261Y316657D01*
X554330Y316733D01*
X554407Y316830D01*
X554490Y316934D01*
X554573Y317052D01*
X554649Y317170D01*
X549948D01*
Y318300D01*
X556286D01*
Y318293D01*
D02*
G37*
G36*
X702300Y301769D02*
X702326D01*
X702356Y301766D01*
X702392Y301761D01*
X702432Y301754D01*
X702476Y301746D01*
X702524Y301736D01*
X702572Y301721D01*
X702620Y301705D01*
X702671Y301685D01*
X702722Y301662D01*
X702773Y301634D01*
X702821Y301601D01*
X702867Y301566D01*
X702869Y301563D01*
X702877Y301556D01*
X702889Y301546D01*
X702905Y301528D01*
X702925Y301507D01*
X702945Y301482D01*
X702971Y301451D01*
X702996Y301416D01*
X703022Y301375D01*
X703047Y301332D01*
X703072Y301284D01*
X703098Y301231D01*
X703121Y301172D01*
X703141Y301111D01*
X703159Y301045D01*
X703174Y300974D01*
X702580Y300910D01*
Y300913D01*
Y300918D01*
X702577Y300928D01*
X702575Y300941D01*
X702572Y300956D01*
X702567Y300971D01*
X702557Y301012D01*
X702542Y301055D01*
X702521Y301098D01*
X702496Y301142D01*
X702465Y301177D01*
X702460Y301182D01*
X702450Y301192D01*
X702430Y301205D01*
X702402Y301223D01*
X702366Y301238D01*
X702326Y301253D01*
X702280Y301264D01*
X702227Y301266D01*
X702209D01*
X702194Y301264D01*
X702178Y301261D01*
X702158Y301256D01*
X702112Y301243D01*
X702087Y301236D01*
X702059Y301223D01*
X702033Y301210D01*
X702006Y301192D01*
X701978Y301172D01*
X701950Y301149D01*
X701922Y301121D01*
X701896Y301091D01*
X701894Y301088D01*
X701891Y301083D01*
X701884Y301070D01*
X701876Y301055D01*
X701866Y301032D01*
X701853Y301007D01*
X701841Y300974D01*
X701825Y300933D01*
X701813Y300888D01*
X701797Y300837D01*
X701785Y300778D01*
X701769Y300710D01*
X701757Y300636D01*
X701747Y300555D01*
X701736Y300463D01*
X701729Y300364D01*
X701731Y300367D01*
X701739Y300377D01*
X701752Y300390D01*
X701769Y300408D01*
X701792Y300428D01*
X701820Y300451D01*
X701851Y300476D01*
X701886Y300501D01*
X701924Y300527D01*
X701967Y300550D01*
X702016Y300573D01*
X702067Y300593D01*
X702120Y300611D01*
X702176Y300623D01*
X702234Y300634D01*
X702298Y300636D01*
X702316D01*
X702336Y300634D01*
X702361Y300631D01*
X702397Y300626D01*
X702435Y300621D01*
X702478Y300611D01*
X702526Y300601D01*
X702575Y300583D01*
X702628Y300565D01*
X702684Y300540D01*
X702740Y300512D01*
X702795Y300479D01*
X702851Y300438D01*
X702905Y300392D01*
X702958Y300341D01*
X702961Y300339D01*
X702971Y300329D01*
X702983Y300311D01*
X703001Y300288D01*
X703022Y300260D01*
X703045Y300225D01*
X703070Y300184D01*
X703095Y300138D01*
X703121Y300085D01*
X703146Y300029D01*
X703169Y299966D01*
X703189Y299900D01*
X703207Y299826D01*
X703220Y299750D01*
X703230Y299671D01*
X703232Y299585D01*
Y299582D01*
Y299580D01*
Y299572D01*
Y299564D01*
X703230Y299536D01*
X703227Y299503D01*
X703225Y299463D01*
X703217Y299414D01*
X703207Y299361D01*
X703197Y299303D01*
X703182Y299242D01*
X703161Y299178D01*
X703138Y299112D01*
X703111Y299046D01*
X703077Y298980D01*
X703039Y298917D01*
X702994Y298856D01*
X702943Y298797D01*
X702940Y298795D01*
X702930Y298785D01*
X702912Y298769D01*
X702889Y298752D01*
X702862Y298729D01*
X702829Y298703D01*
X702788Y298675D01*
X702742Y298650D01*
X702691Y298622D01*
X702635Y298594D01*
X702575Y298569D01*
X702508Y298546D01*
X702437Y298528D01*
X702364Y298513D01*
X702285Y298503D01*
X702201Y298500D01*
X702181D01*
X702156Y298503D01*
X702120Y298505D01*
X702079Y298513D01*
X702031Y298520D01*
X701978Y298531D01*
X701919Y298548D01*
X701858Y298566D01*
X701792Y298591D01*
X701726Y298622D01*
X701660Y298657D01*
X701594Y298701D01*
X701528Y298752D01*
X701465Y298810D01*
X701404Y298876D01*
X701401Y298881D01*
X701391Y298894D01*
X701376Y298917D01*
X701355Y298947D01*
X701332Y298990D01*
X701305Y299041D01*
X701277Y299102D01*
X701249Y299171D01*
X701233Y299211D01*
X701221Y299252D01*
X701206Y299295D01*
X701193Y299343D01*
X701178Y299392D01*
X701165Y299445D01*
X701155Y299498D01*
X701142Y299557D01*
X701132Y299615D01*
X701122Y299679D01*
X701114Y299742D01*
X701106Y299811D01*
X701101Y299882D01*
X701096Y299955D01*
X701094Y300032D01*
Y300110D01*
Y300113D01*
Y300121D01*
Y300133D01*
Y300149D01*
X701096Y300169D01*
Y300194D01*
Y300222D01*
X701099Y300255D01*
X701101Y300288D01*
X701104Y300326D01*
X701106Y300367D01*
X701112Y300410D01*
X701122Y300501D01*
X701134Y300601D01*
X701152Y300702D01*
X701172Y300809D01*
X701200Y300913D01*
X701231Y301017D01*
X701269Y301119D01*
X701312Y301215D01*
X701363Y301302D01*
X701388Y301342D01*
X701419Y301380D01*
X701424Y301385D01*
X701434Y301398D01*
X701452Y301416D01*
X701477Y301441D01*
X701510Y301472D01*
X701548Y301505D01*
X701594Y301540D01*
X701647Y301576D01*
X701703Y301611D01*
X701769Y301647D01*
X701838Y301680D01*
X701914Y301711D01*
X701993Y301736D01*
X702079Y301754D01*
X702171Y301766D01*
X702265Y301772D01*
X702280D01*
X702300Y301769D01*
D02*
G37*
G36*
X699486Y301759D02*
X699534Y301756D01*
X699587Y301754D01*
X699643Y301751D01*
X699704Y301746D01*
X699765Y301741D01*
X699890Y301726D01*
X699948Y301716D01*
X700004Y301703D01*
X700057Y301690D01*
X700103Y301675D01*
X700106D01*
X700113Y301670D01*
X700126Y301665D01*
X700141Y301657D01*
X700162Y301647D01*
X700184Y301637D01*
X700210Y301622D01*
X700238Y301604D01*
X700266Y301584D01*
X700296Y301563D01*
X700329Y301538D01*
X700360Y301510D01*
X700390Y301479D01*
X700421Y301444D01*
X700449Y301408D01*
X700477Y301368D01*
X700479Y301365D01*
X700482Y301357D01*
X700489Y301345D01*
X700499Y301330D01*
X700509Y301307D01*
X700522Y301284D01*
X700535Y301253D01*
X700548Y301223D01*
X700560Y301185D01*
X700573Y301147D01*
X700586Y301106D01*
X700596Y301060D01*
X700614Y300966D01*
X700616Y300916D01*
X700619Y300862D01*
Y300857D01*
Y300847D01*
X700616Y300827D01*
Y300801D01*
X700611Y300771D01*
X700609Y300735D01*
X700601Y300695D01*
X700593Y300651D01*
X700581Y300606D01*
X700568Y300557D01*
X700550Y300509D01*
X700530Y300458D01*
X700505Y300408D01*
X700477Y300359D01*
X700443Y300311D01*
X700405Y300265D01*
X700403Y300263D01*
X700395Y300255D01*
X700383Y300243D01*
X700365Y300227D01*
X700344Y300209D01*
X700316Y300189D01*
X700284Y300166D01*
X700248Y300141D01*
X700205Y300116D01*
X700159Y300090D01*
X700106Y300067D01*
X700050Y300042D01*
X699989Y300021D01*
X699920Y300001D01*
X699849Y299983D01*
X699773Y299971D01*
X699775Y299968D01*
X699783Y299966D01*
X699793Y299958D01*
X699809Y299948D01*
X699826Y299938D01*
X699847Y299922D01*
X699895Y299889D01*
X699948Y299849D01*
X700007Y299803D01*
X700065Y299752D01*
X700118Y299699D01*
X700121Y299696D01*
X700126Y299691D01*
X700134Y299684D01*
X700144Y299671D01*
X700156Y299653D01*
X700174Y299633D01*
X700195Y299610D01*
X700215Y299580D01*
X700240Y299547D01*
X700268Y299508D01*
X700299Y299465D01*
X700332Y299419D01*
X700367Y299366D01*
X700405Y299310D01*
X700443Y299249D01*
X700487Y299181D01*
X700878Y298556D01*
X700103D01*
X699638Y299252D01*
X699636Y299257D01*
X699628Y299267D01*
X699615Y299287D01*
X699598Y299313D01*
X699577Y299341D01*
X699555Y299376D01*
X699529Y299412D01*
X699504Y299450D01*
X699445Y299531D01*
X699417Y299569D01*
X699389Y299608D01*
X699364Y299643D01*
X699339Y299674D01*
X699316Y299701D01*
X699298Y299722D01*
X699293Y299727D01*
X699283Y299737D01*
X699262Y299755D01*
X699240Y299775D01*
X699209Y299798D01*
X699176Y299821D01*
X699140Y299841D01*
X699102Y299856D01*
X699097Y299859D01*
X699082Y299862D01*
X699072Y299867D01*
X699059Y299869D01*
X699041Y299872D01*
X699024Y299877D01*
X699003Y299879D01*
X698978Y299882D01*
X698952Y299887D01*
X698922Y299889D01*
X698892Y299892D01*
X698856D01*
X698818Y299895D01*
X698648D01*
Y298556D01*
X698000D01*
Y301761D01*
X699443D01*
X699486Y301759D01*
D02*
G37*
G36*
X627892Y354684D02*
X628291D01*
Y354145D01*
X627892D01*
Y353500D01*
X627298D01*
Y354145D01*
X625987D01*
Y354681D01*
X627374Y356716D01*
X627892D01*
Y354684D01*
D02*
G37*
G36*
X624486Y356703D02*
X624534Y356700D01*
X624588Y356698D01*
X624643Y356695D01*
X624704Y356690D01*
X624765Y356685D01*
X624890Y356670D01*
X624948Y356660D01*
X625004Y356647D01*
X625057Y356634D01*
X625103Y356619D01*
X625106D01*
X625113Y356614D01*
X625126Y356609D01*
X625141Y356601D01*
X625162Y356591D01*
X625184Y356581D01*
X625210Y356566D01*
X625238Y356548D01*
X625266Y356528D01*
X625296Y356507D01*
X625329Y356482D01*
X625360Y356454D01*
X625390Y356423D01*
X625421Y356388D01*
X625449Y356352D01*
X625476Y356312D01*
X625479Y356309D01*
X625482Y356302D01*
X625489Y356289D01*
X625499Y356274D01*
X625509Y356251D01*
X625522Y356228D01*
X625535Y356198D01*
X625548Y356167D01*
X625560Y356129D01*
X625573Y356091D01*
X625586Y356050D01*
X625596Y356004D01*
X625614Y355910D01*
X625616Y355860D01*
X625619Y355806D01*
Y355801D01*
Y355791D01*
X625616Y355771D01*
Y355745D01*
X625611Y355715D01*
X625609Y355679D01*
X625601Y355639D01*
X625593Y355596D01*
X625581Y355550D01*
X625568Y355502D01*
X625550Y355453D01*
X625530Y355402D01*
X625504Y355352D01*
X625476Y355303D01*
X625443Y355255D01*
X625405Y355209D01*
X625403Y355207D01*
X625395Y355199D01*
X625382Y355187D01*
X625365Y355171D01*
X625344Y355154D01*
X625317Y355133D01*
X625284Y355110D01*
X625248Y355085D01*
X625205Y355060D01*
X625159Y355034D01*
X625106Y355011D01*
X625050Y354986D01*
X624989Y354966D01*
X624920Y354945D01*
X624849Y354927D01*
X624773Y354915D01*
X624776Y354912D01*
X624783Y354910D01*
X624793Y354902D01*
X624809Y354892D01*
X624826Y354882D01*
X624847Y354866D01*
X624895Y354833D01*
X624948Y354793D01*
X625007Y354747D01*
X625065Y354696D01*
X625118Y354643D01*
X625121Y354641D01*
X625126Y354635D01*
X625134Y354628D01*
X625144Y354615D01*
X625157Y354597D01*
X625174Y354577D01*
X625195Y354554D01*
X625215Y354524D01*
X625240Y354491D01*
X625268Y354453D01*
X625299Y354409D01*
X625332Y354364D01*
X625367Y354310D01*
X625405Y354254D01*
X625443Y354193D01*
X625487Y354125D01*
X625878Y353500D01*
X625103D01*
X624638Y354196D01*
X624636Y354201D01*
X624628Y354211D01*
X624616Y354231D01*
X624598Y354257D01*
X624577Y354285D01*
X624554Y354320D01*
X624529Y354356D01*
X624504Y354394D01*
X624445Y354475D01*
X624417Y354514D01*
X624389Y354552D01*
X624364Y354587D01*
X624339Y354618D01*
X624316Y354646D01*
X624298Y354666D01*
X624293Y354671D01*
X624283Y354681D01*
X624262Y354699D01*
X624240Y354719D01*
X624209Y354742D01*
X624176Y354765D01*
X624141Y354785D01*
X624102Y354800D01*
X624097Y354803D01*
X624082Y354806D01*
X624072Y354811D01*
X624059Y354813D01*
X624041Y354816D01*
X624024Y354821D01*
X624003Y354823D01*
X623978Y354826D01*
X623952Y354831D01*
X623922Y354833D01*
X623892Y354836D01*
X623856D01*
X623818Y354839D01*
X623648D01*
Y353500D01*
X623000D01*
Y356706D01*
X624443D01*
X624486Y356703D01*
D02*
G37*
G36*
X596761Y343557D02*
X596759Y343514D01*
X596756Y343466D01*
X596754Y343413D01*
X596751Y343357D01*
X596746Y343296D01*
X596741Y343235D01*
X596726Y343110D01*
X596716Y343052D01*
X596703Y342996D01*
X596690Y342943D01*
X596675Y342897D01*
Y342894D01*
X596670Y342887D01*
X596665Y342874D01*
X596657Y342859D01*
X596647Y342838D01*
X596637Y342816D01*
X596622Y342790D01*
X596604Y342762D01*
X596584Y342734D01*
X596563Y342704D01*
X596538Y342671D01*
X596510Y342640D01*
X596479Y342610D01*
X596444Y342579D01*
X596408Y342551D01*
X596368Y342523D01*
X596365Y342521D01*
X596357Y342518D01*
X596345Y342511D01*
X596329Y342501D01*
X596307Y342491D01*
X596284Y342478D01*
X596253Y342465D01*
X596223Y342452D01*
X596185Y342440D01*
X596147Y342427D01*
X596106Y342414D01*
X596060Y342404D01*
X595966Y342386D01*
X595915Y342384D01*
X595862Y342381D01*
X595857D01*
X595847D01*
X595827Y342384D01*
X595801D01*
X595771Y342389D01*
X595735Y342391D01*
X595695Y342399D01*
X595651Y342407D01*
X595606Y342419D01*
X595557Y342432D01*
X595509Y342450D01*
X595458Y342470D01*
X595407Y342495D01*
X595359Y342523D01*
X595311Y342556D01*
X595265Y342595D01*
X595263Y342597D01*
X595255Y342605D01*
X595242Y342617D01*
X595227Y342635D01*
X595209Y342656D01*
X595189Y342683D01*
X595166Y342716D01*
X595141Y342752D01*
X595115Y342795D01*
X595090Y342841D01*
X595067Y342894D01*
X595042Y342950D01*
X595021Y343011D01*
X595001Y343080D01*
X594983Y343151D01*
X594971Y343227D01*
X594968Y343224D01*
X594966Y343217D01*
X594958Y343207D01*
X594948Y343191D01*
X594938Y343174D01*
X594922Y343153D01*
X594889Y343105D01*
X594849Y343052D01*
X594803Y342993D01*
X594752Y342935D01*
X594699Y342882D01*
X594696Y342879D01*
X594691Y342874D01*
X594684Y342866D01*
X594671Y342856D01*
X594653Y342844D01*
X594633Y342826D01*
X594610Y342805D01*
X594580Y342785D01*
X594547Y342760D01*
X594508Y342732D01*
X594465Y342701D01*
X594420Y342668D01*
X594366Y342633D01*
X594310Y342595D01*
X594249Y342556D01*
X594181Y342513D01*
X593556Y342122D01*
Y342897D01*
X594252Y343362D01*
X594257Y343364D01*
X594267Y343372D01*
X594287Y343385D01*
X594313Y343402D01*
X594341Y343423D01*
X594376Y343446D01*
X594412Y343471D01*
X594450Y343496D01*
X594531Y343555D01*
X594569Y343583D01*
X594607Y343611D01*
X594643Y343636D01*
X594674Y343661D01*
X594701Y343684D01*
X594722Y343702D01*
X594727Y343707D01*
X594737Y343717D01*
X594755Y343738D01*
X594775Y343760D01*
X594798Y343791D01*
X594821Y343824D01*
X594841Y343859D01*
X594856Y343898D01*
X594859Y343903D01*
X594861Y343918D01*
X594866Y343928D01*
X594869Y343941D01*
X594872Y343959D01*
X594877Y343976D01*
X594879Y343997D01*
X594882Y344022D01*
X594887Y344048D01*
X594889Y344078D01*
X594892Y344108D01*
Y344144D01*
X594894Y344182D01*
Y344352D01*
X593556D01*
Y345000D01*
X596761D01*
Y343557D01*
D02*
G37*
G36*
X594475Y341335D02*
X594473D01*
X594465Y341332D01*
X594453D01*
X594437Y341327D01*
X594420Y341325D01*
X594397Y341320D01*
X594346Y341304D01*
X594290Y341284D01*
X594231Y341259D01*
X594176Y341226D01*
X594150Y341205D01*
X594127Y341182D01*
Y341180D01*
X594122Y341177D01*
X594117Y341170D01*
X594110Y341160D01*
X594089Y341134D01*
X594069Y341099D01*
X594046Y341055D01*
X594026Y341005D01*
X594013Y340946D01*
X594011Y340916D01*
X594008Y340883D01*
Y340865D01*
X594011Y340850D01*
X594013Y340834D01*
X594016Y340817D01*
X594026Y340771D01*
X594044Y340720D01*
X594069Y340667D01*
X594084Y340641D01*
X594104Y340613D01*
X594125Y340588D01*
X594150Y340563D01*
X594153Y340560D01*
X594158Y340558D01*
X594165Y340550D01*
X594176Y340542D01*
X594191Y340532D01*
X594209Y340522D01*
X594229Y340509D01*
X594254Y340497D01*
X594280Y340484D01*
X594310Y340471D01*
X594341Y340461D01*
X594376Y340451D01*
X594414Y340443D01*
X594455Y340436D01*
X594496Y340433D01*
X594541Y340430D01*
X594544D01*
X594552D01*
X594564D01*
X594580Y340433D01*
X594600D01*
X594623Y340438D01*
X594674Y340446D01*
X594732Y340461D01*
X594793Y340484D01*
X594823Y340497D01*
X594854Y340514D01*
X594882Y340532D01*
X594907Y340555D01*
X594910Y340558D01*
X594912Y340560D01*
X594920Y340568D01*
X594927Y340578D01*
X594950Y340603D01*
X594976Y340639D01*
X595001Y340685D01*
X595024Y340735D01*
X595039Y340794D01*
X595042Y340827D01*
X595044Y340860D01*
Y340880D01*
X595042Y340905D01*
X595039Y340938D01*
X595032Y340979D01*
X595024Y341027D01*
X595011Y341081D01*
X594996Y341139D01*
X595499Y341073D01*
Y341032D01*
X595502Y341012D01*
Y340987D01*
X595507Y340961D01*
X595509Y340931D01*
X595522Y340870D01*
X595540Y340806D01*
X595568Y340746D01*
X595585Y340718D01*
X595606Y340692D01*
X595608Y340690D01*
X595611Y340687D01*
X595618Y340679D01*
X595626Y340672D01*
X595651Y340652D01*
X595687Y340626D01*
X595730Y340601D01*
X595783Y340580D01*
X595842Y340565D01*
X595875Y340563D01*
X595910Y340560D01*
X595913D01*
X595918D01*
X595926D01*
X595938Y340563D01*
X595966Y340565D01*
X596004Y340573D01*
X596045Y340583D01*
X596088Y340601D01*
X596131Y340624D01*
X596170Y340657D01*
X596175Y340662D01*
X596185Y340674D01*
X596200Y340695D01*
X596218Y340725D01*
X596236Y340761D01*
X596251Y340806D01*
X596261Y340857D01*
X596266Y340913D01*
Y340928D01*
X596264Y340938D01*
X596261Y340969D01*
X596253Y341005D01*
X596238Y341048D01*
X596218Y341093D01*
X596192Y341139D01*
X596175Y341162D01*
X596154Y341182D01*
X596149Y341187D01*
X596134Y341200D01*
X596109Y341218D01*
X596073Y341241D01*
X596030Y341264D01*
X595974Y341287D01*
X595910Y341304D01*
X595837Y341317D01*
X595931Y341883D01*
X595933D01*
X595943Y341881D01*
X595959Y341878D01*
X595979Y341873D01*
X596004Y341866D01*
X596032Y341858D01*
X596065Y341850D01*
X596098Y341840D01*
X596172Y341815D01*
X596251Y341784D01*
X596327Y341746D01*
X596363Y341729D01*
X596396Y341706D01*
X596398Y341703D01*
X596403Y341701D01*
X596413Y341693D01*
X596423Y341683D01*
X596439Y341673D01*
X596456Y341657D01*
X596474Y341640D01*
X596495Y341619D01*
X596540Y341571D01*
X596586Y341515D01*
X596629Y341449D01*
X596670Y341373D01*
Y341370D01*
X596675Y341363D01*
X596680Y341353D01*
X596685Y341335D01*
X596693Y341314D01*
X596703Y341292D01*
X596711Y341264D01*
X596721Y341233D01*
X596731Y341200D01*
X596739Y341162D01*
X596749Y341124D01*
X596756Y341081D01*
X596766Y340992D01*
X596772Y340895D01*
Y340875D01*
X596769Y340852D01*
X596766Y340819D01*
X596764Y340781D01*
X596756Y340738D01*
X596746Y340690D01*
X596736Y340634D01*
X596721Y340578D01*
X596700Y340519D01*
X596678Y340458D01*
X596650Y340397D01*
X596617Y340336D01*
X596578Y340278D01*
X596533Y340222D01*
X596482Y340169D01*
X596479Y340166D01*
X596472Y340159D01*
X596459Y340149D01*
X596441Y340133D01*
X596418Y340116D01*
X596390Y340098D01*
X596360Y340078D01*
X596327Y340055D01*
X596289Y340034D01*
X596248Y340014D01*
X596205Y339996D01*
X596157Y339978D01*
X596109Y339963D01*
X596058Y339953D01*
X596004Y339945D01*
X595948Y339943D01*
X595943D01*
X595931D01*
X595908Y339945D01*
X595880Y339950D01*
X595844Y339958D01*
X595801Y339968D01*
X595756Y339981D01*
X595707Y340001D01*
X595654Y340024D01*
X595598Y340055D01*
X595542Y340093D01*
X595486Y340138D01*
X595430Y340192D01*
X595377Y340253D01*
X595349Y340286D01*
X595324Y340324D01*
X595301Y340362D01*
X595275Y340405D01*
Y340403D01*
X595273Y340392D01*
X595268Y340380D01*
X595263Y340359D01*
X595255Y340336D01*
X595245Y340309D01*
X595235Y340281D01*
X595220Y340248D01*
X595204Y340212D01*
X595187Y340177D01*
X595164Y340141D01*
X595138Y340103D01*
X595113Y340067D01*
X595082Y340032D01*
X595049Y339999D01*
X595011Y339966D01*
X595009Y339963D01*
X595001Y339958D01*
X594991Y339950D01*
X594976Y339940D01*
X594955Y339928D01*
X594930Y339912D01*
X594902Y339900D01*
X594872Y339882D01*
X594839Y339867D01*
X594800Y339854D01*
X594757Y339839D01*
X594714Y339826D01*
X594668Y339816D01*
X594618Y339808D01*
X594567Y339803D01*
X594513Y339801D01*
X594508D01*
X594496D01*
X594473Y339803D01*
X594442Y339806D01*
X594407Y339811D01*
X594364Y339816D01*
X594318Y339826D01*
X594264Y339839D01*
X594211Y339856D01*
X594153Y339877D01*
X594094Y339902D01*
X594033Y339930D01*
X593972Y339966D01*
X593912Y340009D01*
X593851Y340055D01*
X593795Y340111D01*
X593792Y340113D01*
X593782Y340126D01*
X593767Y340141D01*
X593749Y340166D01*
X593726Y340197D01*
X593701Y340232D01*
X593675Y340273D01*
X593647Y340321D01*
X593619Y340375D01*
X593594Y340433D01*
X593569Y340497D01*
X593546Y340563D01*
X593528Y340636D01*
X593513Y340713D01*
X593503Y340794D01*
X593500Y340878D01*
Y340898D01*
X593503Y340918D01*
X593505Y340949D01*
X593508Y340987D01*
X593513Y341030D01*
X593520Y341078D01*
X593531Y341132D01*
X593543Y341187D01*
X593561Y341243D01*
X593581Y341304D01*
X593604Y341365D01*
X593635Y341426D01*
X593668Y341485D01*
X593706Y341543D01*
X593749Y341599D01*
X593751Y341601D01*
X593762Y341612D01*
X593774Y341624D01*
X593795Y341645D01*
X593820Y341665D01*
X593848Y341690D01*
X593884Y341718D01*
X593924Y341746D01*
X593967Y341777D01*
X594018Y341805D01*
X594072Y341833D01*
X594130Y341858D01*
X594191Y341881D01*
X594257Y341901D01*
X594328Y341919D01*
X594402Y341929D01*
X594475Y341335D01*
D02*
G37*
G36*
X596761Y306057D02*
X596759Y306014D01*
X596756Y305966D01*
X596754Y305912D01*
X596751Y305857D01*
X596746Y305796D01*
X596741Y305735D01*
X596726Y305610D01*
X596716Y305552D01*
X596703Y305496D01*
X596690Y305443D01*
X596675Y305397D01*
Y305394D01*
X596670Y305387D01*
X596665Y305374D01*
X596657Y305359D01*
X596647Y305338D01*
X596637Y305316D01*
X596622Y305290D01*
X596604Y305262D01*
X596584Y305234D01*
X596563Y305204D01*
X596538Y305171D01*
X596510Y305140D01*
X596479Y305110D01*
X596444Y305079D01*
X596408Y305051D01*
X596368Y305023D01*
X596365Y305021D01*
X596357Y305018D01*
X596345Y305011D01*
X596329Y305001D01*
X596307Y304990D01*
X596284Y304978D01*
X596253Y304965D01*
X596223Y304952D01*
X596185Y304940D01*
X596147Y304927D01*
X596106Y304914D01*
X596060Y304904D01*
X595966Y304886D01*
X595915Y304884D01*
X595862Y304881D01*
X595857D01*
X595847D01*
X595827Y304884D01*
X595801D01*
X595771Y304889D01*
X595735Y304891D01*
X595695Y304899D01*
X595651Y304907D01*
X595606Y304919D01*
X595557Y304932D01*
X595509Y304950D01*
X595458Y304970D01*
X595407Y304995D01*
X595359Y305023D01*
X595311Y305056D01*
X595265Y305095D01*
X595263Y305097D01*
X595255Y305105D01*
X595242Y305117D01*
X595227Y305135D01*
X595209Y305156D01*
X595189Y305184D01*
X595166Y305217D01*
X595141Y305252D01*
X595115Y305295D01*
X595090Y305341D01*
X595067Y305394D01*
X595042Y305450D01*
X595021Y305511D01*
X595001Y305580D01*
X594983Y305651D01*
X594971Y305727D01*
X594968Y305725D01*
X594966Y305717D01*
X594958Y305707D01*
X594948Y305692D01*
X594938Y305674D01*
X594922Y305653D01*
X594889Y305605D01*
X594849Y305552D01*
X594803Y305493D01*
X594752Y305435D01*
X594699Y305382D01*
X594696Y305379D01*
X594691Y305374D01*
X594684Y305366D01*
X594671Y305356D01*
X594653Y305343D01*
X594633Y305326D01*
X594610Y305305D01*
X594580Y305285D01*
X594547Y305260D01*
X594508Y305232D01*
X594465Y305201D01*
X594420Y305168D01*
X594366Y305133D01*
X594310Y305095D01*
X594249Y305056D01*
X594181Y305013D01*
X593556Y304622D01*
Y305397D01*
X594252Y305862D01*
X594257Y305864D01*
X594267Y305872D01*
X594287Y305884D01*
X594313Y305902D01*
X594341Y305923D01*
X594376Y305945D01*
X594412Y305971D01*
X594450Y305996D01*
X594531Y306055D01*
X594569Y306083D01*
X594607Y306111D01*
X594643Y306136D01*
X594674Y306161D01*
X594701Y306184D01*
X594722Y306202D01*
X594727Y306207D01*
X594737Y306217D01*
X594755Y306238D01*
X594775Y306260D01*
X594798Y306291D01*
X594821Y306324D01*
X594841Y306360D01*
X594856Y306398D01*
X594859Y306403D01*
X594861Y306418D01*
X594866Y306428D01*
X594869Y306441D01*
X594872Y306459D01*
X594877Y306476D01*
X594879Y306497D01*
X594882Y306522D01*
X594887Y306548D01*
X594889Y306578D01*
X594892Y306608D01*
Y306644D01*
X594894Y306682D01*
Y306852D01*
X593556D01*
Y307500D01*
X596761D01*
Y306057D01*
D02*
G37*
G36*
X594442Y303787D02*
X594440D01*
X594432Y303784D01*
X594422D01*
X594407Y303781D01*
X594392Y303776D01*
X594371Y303771D01*
X594323Y303759D01*
X594270Y303738D01*
X594216Y303710D01*
X594160Y303677D01*
X594112Y303634D01*
Y303631D01*
X594107Y303629D01*
X594102Y303621D01*
X594094Y303611D01*
X594074Y303583D01*
X594054Y303548D01*
X594031Y303505D01*
X594011Y303454D01*
X593998Y303395D01*
X593995Y303365D01*
X593993Y303334D01*
Y303317D01*
X593995Y303301D01*
X593998Y303286D01*
X594000Y303266D01*
X594013Y303223D01*
X594031Y303172D01*
X594044Y303144D01*
X594059Y303116D01*
X594077Y303088D01*
X594097Y303063D01*
X594120Y303035D01*
X594148Y303009D01*
X594150Y303007D01*
X594155Y303004D01*
X594163Y302997D01*
X594178Y302989D01*
X594193Y302979D01*
X594214Y302966D01*
X594237Y302953D01*
X594264Y302941D01*
X594295Y302931D01*
X594331Y302918D01*
X594369Y302905D01*
X594412Y302895D01*
X594458Y302887D01*
X594506Y302880D01*
X594562Y302877D01*
X594618Y302875D01*
X594620D01*
X594630D01*
X594646D01*
X594666Y302877D01*
X594691Y302880D01*
X594719Y302882D01*
X594750Y302885D01*
X594783Y302892D01*
X594854Y302908D01*
X594927Y302931D01*
X594963Y302946D01*
X594999Y302964D01*
X595032Y302986D01*
X595060Y303009D01*
X595062Y303012D01*
X595067Y303014D01*
X595072Y303022D01*
X595082Y303032D01*
X595095Y303047D01*
X595108Y303063D01*
X595121Y303080D01*
X595136Y303101D01*
X595161Y303151D01*
X595187Y303210D01*
X595197Y303243D01*
X595202Y303279D01*
X595207Y303317D01*
X595209Y303355D01*
Y303367D01*
X595207Y303380D01*
Y303400D01*
X595202Y303423D01*
X595197Y303449D01*
X595189Y303479D01*
X595182Y303512D01*
X595169Y303548D01*
X595154Y303586D01*
X595133Y303626D01*
X595110Y303667D01*
X595085Y303708D01*
X595052Y303748D01*
X595016Y303789D01*
X594976Y303830D01*
X595047Y304325D01*
X596716Y304010D01*
Y302384D01*
X596142D01*
Y303545D01*
X595596Y303644D01*
Y303642D01*
X595601Y303634D01*
X595606Y303624D01*
X595611Y303609D01*
X595621Y303591D01*
X595629Y303568D01*
X595639Y303543D01*
X595649Y303515D01*
X595667Y303451D01*
X595684Y303380D01*
X595695Y303304D01*
X595700Y303223D01*
Y303205D01*
X595697Y303182D01*
X595695Y303154D01*
X595690Y303118D01*
X595684Y303078D01*
X595674Y303032D01*
X595662Y302981D01*
X595646Y302931D01*
X595626Y302875D01*
X595603Y302816D01*
X595573Y302758D01*
X595540Y302699D01*
X595499Y302641D01*
X595453Y302582D01*
X595400Y302529D01*
X595397Y302527D01*
X595387Y302516D01*
X595369Y302504D01*
X595347Y302484D01*
X595316Y302463D01*
X595280Y302438D01*
X595240Y302412D01*
X595192Y302384D01*
X595141Y302359D01*
X595082Y302334D01*
X595019Y302308D01*
X594950Y302288D01*
X594877Y302268D01*
X594798Y302255D01*
X594717Y302245D01*
X594630Y302242D01*
X594625D01*
X594613D01*
X594592Y302245D01*
X594564D01*
X594529Y302250D01*
X594488Y302255D01*
X594442Y302262D01*
X594394Y302270D01*
X594341Y302283D01*
X594285Y302298D01*
X594226Y302318D01*
X594165Y302339D01*
X594104Y302367D01*
X594044Y302397D01*
X593983Y302433D01*
X593924Y302473D01*
X593919Y302476D01*
X593906Y302488D01*
X593886Y302506D01*
X593858Y302532D01*
X593825Y302562D01*
X593789Y302600D01*
X593751Y302646D01*
X593713Y302699D01*
X593673Y302758D01*
X593635Y302824D01*
X593599Y302895D01*
X593566Y302971D01*
X593538Y303055D01*
X593518Y303144D01*
X593505Y303240D01*
X593500Y303342D01*
Y303362D01*
X593503Y303385D01*
Y303416D01*
X593508Y303454D01*
X593513Y303497D01*
X593520Y303545D01*
X593531Y303598D01*
X593543Y303654D01*
X593558Y303713D01*
X593576Y303774D01*
X593599Y303835D01*
X593627Y303896D01*
X593657Y303954D01*
X593696Y304013D01*
X593736Y304066D01*
X593739Y304068D01*
X593746Y304079D01*
X593762Y304091D01*
X593779Y304109D01*
X593805Y304132D01*
X593833Y304157D01*
X593868Y304183D01*
X593906Y304213D01*
X593950Y304241D01*
X593998Y304269D01*
X594051Y304297D01*
X594107Y304325D01*
X594170Y304348D01*
X594237Y304368D01*
X594305Y304386D01*
X594379Y304399D01*
X594442Y303787D01*
D02*
G37*
G36*
X316000Y439891D02*
X308387D01*
X308394Y439883D01*
X308408Y439869D01*
X308430Y439848D01*
X308458Y439813D01*
X308493Y439771D01*
X308542Y439715D01*
X308591Y439651D01*
X308648Y439588D01*
X308704Y439504D01*
X308774Y439419D01*
X308838Y439328D01*
X308915Y439229D01*
X308985Y439117D01*
X309063Y439004D01*
X309217Y438751D01*
X309224Y438744D01*
X309239Y438723D01*
X309260Y438680D01*
X309281Y438631D01*
X309316Y438575D01*
X309358Y438504D01*
X309400Y438420D01*
X309450Y438336D01*
X309548Y438139D01*
X309647Y437928D01*
X309745Y437709D01*
X309830Y437498D01*
X308676D01*
X308669Y437512D01*
X308655Y437541D01*
X308626Y437597D01*
X308591Y437667D01*
X308549Y437752D01*
X308493Y437857D01*
X308430Y437970D01*
X308359Y438089D01*
X308275Y438223D01*
X308190Y438364D01*
X307993Y438659D01*
X307775Y438962D01*
X307536Y439250D01*
X307529Y439257D01*
X307508Y439286D01*
X307473Y439321D01*
X307423Y439370D01*
X307360Y439433D01*
X307290Y439504D01*
X307205Y439581D01*
X307121Y439665D01*
X307022Y439750D01*
X306917Y439841D01*
X306699Y440017D01*
X306467Y440179D01*
X306347Y440249D01*
X306227Y440313D01*
Y441087D01*
X316000D01*
Y439891D01*
D02*
G37*
G36*
X309203Y435423D02*
X309288Y435416D01*
X309400Y435409D01*
X309520Y435388D01*
X309661Y435367D01*
X309809Y435331D01*
X309970Y435289D01*
X310139Y435233D01*
X310315Y435169D01*
X310491Y435092D01*
X310667Y435001D01*
X310843Y434895D01*
X311019Y434776D01*
X311180Y434635D01*
X311187Y434628D01*
X311216Y434600D01*
X311258Y434550D01*
X311314Y434480D01*
X311378Y434389D01*
X311455Y434276D01*
X311532Y434142D01*
X311610Y433980D01*
X311687Y433797D01*
X311764Y433593D01*
X311842Y433354D01*
X311905Y433101D01*
X311961Y432812D01*
X311982Y432658D01*
X312004Y432496D01*
X312018Y432327D01*
X312032Y432151D01*
X312039Y431968D01*
Y429288D01*
X316000D01*
Y428000D01*
X306262D01*
Y431905D01*
X306269Y432003D01*
Y432102D01*
X306276Y432215D01*
X306283Y432454D01*
X306305Y432700D01*
X306326Y432939D01*
X306347Y433052D01*
X306361Y433150D01*
Y433157D01*
X306368Y433185D01*
X306375Y433221D01*
X306382Y433270D01*
X306396Y433333D01*
X306417Y433404D01*
X306438Y433481D01*
X306459Y433572D01*
X306523Y433762D01*
X306607Y433959D01*
X306699Y434163D01*
X306818Y434353D01*
X306825Y434360D01*
X306832Y434375D01*
X306853Y434403D01*
X306882Y434431D01*
X306910Y434473D01*
X306952Y434522D01*
X307001Y434579D01*
X307057Y434635D01*
X307121Y434691D01*
X307191Y434754D01*
X307353Y434888D01*
X307543Y435015D01*
X307754Y435134D01*
X307761Y435141D01*
X307782Y435148D01*
X307817Y435163D01*
X307860Y435184D01*
X307916Y435205D01*
X307986Y435226D01*
X308064Y435254D01*
X308148Y435282D01*
X308239Y435310D01*
X308345Y435338D01*
X308451Y435359D01*
X308570Y435381D01*
X308816Y435416D01*
X309084Y435430D01*
X309098D01*
X309140D01*
X309203Y435423D01*
D02*
G37*
G36*
X377500Y493294D02*
X376057D01*
X376014Y493297D01*
X375966Y493300D01*
X375913Y493302D01*
X375857Y493305D01*
X375796Y493310D01*
X375735Y493315D01*
X375610Y493330D01*
X375552Y493340D01*
X375496Y493353D01*
X375443Y493366D01*
X375397Y493381D01*
X375394D01*
X375387Y493386D01*
X375374Y493391D01*
X375359Y493399D01*
X375338Y493409D01*
X375316Y493419D01*
X375290Y493434D01*
X375262Y493452D01*
X375234Y493472D01*
X375204Y493493D01*
X375171Y493518D01*
X375140Y493546D01*
X375110Y493577D01*
X375079Y493612D01*
X375051Y493648D01*
X375023Y493688D01*
X375021Y493691D01*
X375018Y493698D01*
X375011Y493711D01*
X375001Y493726D01*
X374991Y493749D01*
X374978Y493772D01*
X374965Y493802D01*
X374952Y493833D01*
X374940Y493871D01*
X374927Y493909D01*
X374914Y493950D01*
X374904Y493996D01*
X374886Y494090D01*
X374884Y494140D01*
X374881Y494194D01*
Y494199D01*
Y494209D01*
X374884Y494229D01*
Y494255D01*
X374889Y494285D01*
X374891Y494321D01*
X374899Y494361D01*
X374907Y494404D01*
X374919Y494450D01*
X374932Y494498D01*
X374950Y494547D01*
X374970Y494598D01*
X374995Y494648D01*
X375023Y494697D01*
X375056Y494745D01*
X375095Y494791D01*
X375097Y494793D01*
X375105Y494801D01*
X375117Y494813D01*
X375135Y494829D01*
X375156Y494846D01*
X375183Y494867D01*
X375216Y494890D01*
X375252Y494915D01*
X375295Y494940D01*
X375341Y494966D01*
X375394Y494989D01*
X375450Y495014D01*
X375511Y495034D01*
X375580Y495055D01*
X375651Y495073D01*
X375727Y495085D01*
X375724Y495088D01*
X375717Y495090D01*
X375707Y495098D01*
X375691Y495108D01*
X375674Y495118D01*
X375653Y495134D01*
X375605Y495167D01*
X375552Y495207D01*
X375493Y495253D01*
X375435Y495304D01*
X375382Y495357D01*
X375379Y495359D01*
X375374Y495365D01*
X375366Y495372D01*
X375356Y495385D01*
X375344Y495403D01*
X375326Y495423D01*
X375305Y495446D01*
X375285Y495476D01*
X375260Y495509D01*
X375232Y495547D01*
X375201Y495591D01*
X375168Y495636D01*
X375133Y495690D01*
X375095Y495746D01*
X375056Y495807D01*
X375013Y495875D01*
X374622Y496500D01*
X375397D01*
X375862Y495804D01*
X375864Y495799D01*
X375872Y495789D01*
X375885Y495769D01*
X375902Y495743D01*
X375923Y495715D01*
X375946Y495680D01*
X375971Y495644D01*
X375996Y495606D01*
X376055Y495525D01*
X376083Y495486D01*
X376111Y495448D01*
X376136Y495413D01*
X376161Y495382D01*
X376184Y495354D01*
X376202Y495334D01*
X376207Y495329D01*
X376217Y495319D01*
X376238Y495301D01*
X376260Y495281D01*
X376291Y495258D01*
X376324Y495235D01*
X376359Y495215D01*
X376398Y495200D01*
X376403Y495197D01*
X376418Y495194D01*
X376428Y495189D01*
X376441Y495187D01*
X376459Y495184D01*
X376476Y495179D01*
X376497Y495177D01*
X376522Y495174D01*
X376548Y495169D01*
X376578Y495167D01*
X376608Y495164D01*
X376644D01*
X376682Y495161D01*
X376852D01*
Y496500D01*
X377500D01*
Y493294D01*
D02*
G37*
G36*
X373974Y496497D02*
Y496492D01*
Y496482D01*
Y496469D01*
X373972Y496454D01*
Y496434D01*
X373969Y496411D01*
X373967Y496386D01*
Y496358D01*
X373962Y496325D01*
X373959Y496292D01*
X373957Y496254D01*
X373946Y496172D01*
X373934Y496083D01*
X373919Y495984D01*
X373901Y495878D01*
X373881Y495766D01*
X373853Y495649D01*
X373822Y495530D01*
X373789Y495405D01*
X373748Y495278D01*
X373703Y495149D01*
Y495146D01*
X373700Y495141D01*
X373695Y495131D01*
X373690Y495118D01*
X373685Y495101D01*
X373675Y495080D01*
X373667Y495057D01*
X373654Y495032D01*
X373642Y495004D01*
X373629Y494971D01*
X373599Y494902D01*
X373560Y494821D01*
X373520Y494735D01*
X373471Y494641D01*
X373418Y494544D01*
X373362Y494440D01*
X373301Y494336D01*
X373235Y494229D01*
X373164Y494123D01*
X373088Y494016D01*
X373009Y493912D01*
X374406D01*
Y493340D01*
X372306D01*
Y493787D01*
X372308Y493790D01*
X372318Y493800D01*
X372331Y493815D01*
X372351Y493835D01*
X372374Y493861D01*
X372402Y493894D01*
X372435Y493932D01*
X372471Y493975D01*
X372509Y494026D01*
X372550Y494079D01*
X372595Y494140D01*
X372641Y494206D01*
X372687Y494277D01*
X372738Y494354D01*
X372786Y494437D01*
X372836Y494524D01*
Y494526D01*
X372839Y494529D01*
X372844Y494537D01*
X372849Y494544D01*
X372862Y494572D01*
X372880Y494608D01*
X372903Y494651D01*
X372928Y494704D01*
X372956Y494763D01*
X372986Y494829D01*
X373019Y494902D01*
X373052Y494981D01*
X373088Y495065D01*
X373121Y495154D01*
X373154Y495245D01*
X373187Y495342D01*
X373218Y495441D01*
X373246Y495540D01*
Y495542D01*
X373248Y495545D01*
Y495553D01*
X373251Y495563D01*
X373256Y495578D01*
X373258Y495593D01*
X373268Y495631D01*
X373279Y495677D01*
X373289Y495733D01*
X373301Y495794D01*
X373314Y495863D01*
X373327Y495934D01*
X373340Y496010D01*
X373352Y496091D01*
X373362Y496172D01*
X373378Y496337D01*
X373383Y496419D01*
Y496500D01*
X373974D01*
Y496497D01*
D02*
G37*
G36*
X688944Y361666D02*
X686633D01*
X686635Y361660D01*
X686645Y361650D01*
X686663Y361633D01*
X686684Y361605D01*
X686709Y361574D01*
X686739Y361536D01*
X686772Y361490D01*
X686808Y361440D01*
X686843Y361384D01*
X686882Y361323D01*
X686922Y361259D01*
X686960Y361188D01*
X686996Y361114D01*
X687031Y361038D01*
X687065Y360957D01*
X687095Y360873D01*
X686539D01*
Y360876D01*
X686536Y360883D01*
X686531Y360896D01*
X686524Y360914D01*
X686513Y360937D01*
X686503Y360965D01*
X686490Y360995D01*
X686473Y361028D01*
X686455Y361066D01*
X686432Y361104D01*
X686409Y361147D01*
X686381Y361193D01*
X686353Y361241D01*
X686320Y361290D01*
X686282Y361340D01*
X686244Y361394D01*
X686242Y361396D01*
X686234Y361407D01*
X686221Y361422D01*
X686206Y361440D01*
X686183Y361462D01*
X686158Y361488D01*
X686130Y361518D01*
X686097Y361549D01*
X686061Y361579D01*
X686021Y361612D01*
X685977Y361645D01*
X685934Y361676D01*
X685886Y361706D01*
X685835Y361734D01*
X685782Y361760D01*
X685729Y361780D01*
Y362280D01*
X688944D01*
Y361666D01*
D02*
G37*
G36*
X687969Y360289D02*
X687976D01*
X687987Y360284D01*
X688015Y360276D01*
X688050Y360263D01*
X688093Y360248D01*
X688144Y360228D01*
X688200Y360205D01*
X688258Y360177D01*
X688322Y360147D01*
X688388Y360111D01*
X688451Y360070D01*
X688517Y360027D01*
X688578Y359979D01*
X688639Y359926D01*
X688695Y359870D01*
X688746Y359809D01*
X688748Y359804D01*
X688756Y359794D01*
X688769Y359776D01*
X688787Y359748D01*
X688804Y359715D01*
X688827Y359677D01*
X688850Y359628D01*
X688873Y359578D01*
X688896Y359519D01*
X688919Y359453D01*
X688942Y359385D01*
X688959Y359309D01*
X688977Y359227D01*
X688990Y359143D01*
X688997Y359052D01*
X689000Y358958D01*
Y358930D01*
X688997Y358915D01*
Y358897D01*
X688995Y358877D01*
X688992Y358851D01*
X688987Y358798D01*
X688977Y358735D01*
X688964Y358663D01*
X688947Y358587D01*
X688924Y358506D01*
X688893Y358422D01*
X688858Y358336D01*
X688817Y358247D01*
X688766Y358158D01*
X688708Y358072D01*
X688642Y357988D01*
X688606Y357947D01*
X688566Y357909D01*
X688563D01*
X688561Y357904D01*
X688545Y357891D01*
X688520Y357871D01*
X688484Y357845D01*
X688441Y357815D01*
X688388Y357779D01*
X688324Y357744D01*
X688253Y357706D01*
X688172Y357668D01*
X688083Y357630D01*
X687984Y357594D01*
X687877Y357564D01*
X687763Y357538D01*
X687641Y357518D01*
X687509Y357505D01*
X687372Y357500D01*
X687369D01*
X687362D01*
X687352D01*
X687336D01*
X687318Y357503D01*
X687296D01*
X687270Y357505D01*
X687240Y357508D01*
X687207Y357510D01*
X687174Y357513D01*
X687136Y357518D01*
X687095Y357523D01*
X687009Y357536D01*
X686917Y357551D01*
X686818Y357574D01*
X686717Y357602D01*
X686612Y357635D01*
X686511Y357673D01*
X686409Y357721D01*
X686310Y357777D01*
X686216Y357840D01*
X686130Y357911D01*
X686127Y357914D01*
X686125Y357917D01*
X686109Y357932D01*
X686089Y357955D01*
X686061Y357988D01*
X686026Y358028D01*
X685990Y358079D01*
X685949Y358138D01*
X685906Y358204D01*
X685866Y358277D01*
X685825Y358358D01*
X685789Y358447D01*
X685754Y358544D01*
X685726Y358648D01*
X685703Y358760D01*
X685690Y358877D01*
X685685Y358935D01*
Y359039D01*
X685688Y359054D01*
Y359075D01*
X685690Y359098D01*
X685695Y359146D01*
X685703Y359204D01*
X685716Y359268D01*
X685729Y359339D01*
X685749Y359413D01*
X685772Y359491D01*
X685800Y359570D01*
X685833Y359651D01*
X685873Y359730D01*
X685919Y359809D01*
X685975Y359883D01*
X686036Y359954D01*
X686038Y359956D01*
X686046Y359964D01*
X686056Y359974D01*
X686074Y359989D01*
X686094Y360007D01*
X686122Y360030D01*
X686153Y360053D01*
X686186Y360078D01*
X686226Y360103D01*
X686270Y360131D01*
X686318Y360157D01*
X686371Y360185D01*
X686427Y360213D01*
X686490Y360238D01*
X686554Y360261D01*
X686625Y360284D01*
X686777Y359644D01*
X686775D01*
X686767Y359641D01*
X686755Y359636D01*
X686737Y359631D01*
X686714Y359626D01*
X686691Y359616D01*
X686663Y359606D01*
X686635Y359593D01*
X686572Y359560D01*
X686506Y359519D01*
X686473Y359494D01*
X686442Y359466D01*
X686412Y359438D01*
X686384Y359405D01*
X686381Y359403D01*
X686379Y359397D01*
X686371Y359387D01*
X686361Y359372D01*
X686351Y359354D01*
X686338Y359334D01*
X686325Y359311D01*
X686310Y359283D01*
X686297Y359253D01*
X686285Y359220D01*
X686272Y359182D01*
X686262Y359143D01*
X686252Y359103D01*
X686244Y359060D01*
X686242Y359014D01*
X686239Y358966D01*
Y358950D01*
X686242Y358933D01*
X686244Y358907D01*
X686247Y358877D01*
X686252Y358841D01*
X686259Y358803D01*
X686272Y358760D01*
X686285Y358714D01*
X686302Y358668D01*
X686323Y358620D01*
X686348Y358572D01*
X686376Y358524D01*
X686412Y358475D01*
X686450Y358430D01*
X686496Y358386D01*
X686498Y358384D01*
X686508Y358376D01*
X686524Y358366D01*
X686544Y358351D01*
X686572Y358336D01*
X686607Y358318D01*
X686648Y358298D01*
X686696Y358277D01*
X686750Y358254D01*
X686811Y358237D01*
X686879Y358216D01*
X686953Y358201D01*
X687034Y358186D01*
X687123Y358176D01*
X687219Y358168D01*
X687324Y358166D01*
X687326D01*
X687331D01*
X687339D01*
X687349D01*
X687364D01*
X687382Y358168D01*
X687423D01*
X687474Y358173D01*
X687529Y358178D01*
X687593Y358183D01*
X687659Y358193D01*
X687730Y358204D01*
X687801Y358219D01*
X687875Y358237D01*
X687946Y358257D01*
X688015Y358282D01*
X688078Y358313D01*
X688136Y358346D01*
X688190Y358384D01*
X688192Y358386D01*
X688200Y358394D01*
X688213Y358407D01*
X688230Y358425D01*
X688248Y358445D01*
X688271Y358473D01*
X688294Y358503D01*
X688317Y358536D01*
X688342Y358577D01*
X688365Y358620D01*
X688388Y358666D01*
X688406Y358717D01*
X688423Y358770D01*
X688436Y358828D01*
X688444Y358889D01*
X688446Y358953D01*
Y358978D01*
X688444Y358996D01*
X688441Y359019D01*
X688439Y359044D01*
X688434Y359072D01*
X688426Y359105D01*
X688406Y359174D01*
X688393Y359209D01*
X688378Y359248D01*
X688360Y359286D01*
X688337Y359324D01*
X688312Y359359D01*
X688284Y359395D01*
X688281Y359397D01*
X688276Y359403D01*
X688266Y359413D01*
X688253Y359425D01*
X688235Y359441D01*
X688213Y359458D01*
X688187Y359479D01*
X688157Y359499D01*
X688124Y359522D01*
X688086Y359542D01*
X688042Y359565D01*
X687994Y359588D01*
X687943Y359608D01*
X687890Y359628D01*
X687829Y359649D01*
X687766Y359664D01*
X687964Y360291D01*
X687966D01*
X687969Y360289D01*
D02*
G37*
G36*
X659881Y412184D02*
X660280D01*
Y411645D01*
X659881D01*
Y411000D01*
X659287D01*
Y411645D01*
X657976D01*
Y412181D01*
X659363Y414216D01*
X659881D01*
Y412184D01*
D02*
G37*
G36*
X657163Y411000D02*
X656549D01*
Y413311D01*
X656544Y413309D01*
X656534Y413299D01*
X656516Y413281D01*
X656488Y413261D01*
X656457Y413235D01*
X656419Y413205D01*
X656374Y413172D01*
X656323Y413136D01*
X656267Y413101D01*
X656206Y413063D01*
X656142Y413022D01*
X656071Y412984D01*
X655998Y412948D01*
X655921Y412913D01*
X655840Y412880D01*
X655756Y412849D01*
Y413405D01*
X655759D01*
X655767Y413408D01*
X655779Y413413D01*
X655797Y413421D01*
X655820Y413431D01*
X655848Y413441D01*
X655878Y413454D01*
X655911Y413471D01*
X655949Y413489D01*
X655987Y413512D01*
X656031Y413535D01*
X656076Y413563D01*
X656125Y413591D01*
X656173Y413624D01*
X656224Y413662D01*
X656277Y413700D01*
X656280Y413703D01*
X656290Y413710D01*
X656305Y413723D01*
X656323Y413738D01*
X656346Y413761D01*
X656371Y413786D01*
X656402Y413814D01*
X656432Y413847D01*
X656462Y413883D01*
X656495Y413924D01*
X656528Y413967D01*
X656559Y414010D01*
X656589Y414058D01*
X656617Y414109D01*
X656643Y414162D01*
X656663Y414216D01*
X657163D01*
Y411000D01*
D02*
G37*
G36*
X653986Y414203D02*
X654034Y414200D01*
X654088Y414198D01*
X654143Y414195D01*
X654204Y414190D01*
X654265Y414185D01*
X654390Y414170D01*
X654448Y414160D01*
X654504Y414147D01*
X654557Y414134D01*
X654603Y414119D01*
X654606D01*
X654613Y414114D01*
X654626Y414109D01*
X654641Y414101D01*
X654662Y414091D01*
X654684Y414081D01*
X654710Y414066D01*
X654738Y414048D01*
X654766Y414028D01*
X654796Y414007D01*
X654829Y413982D01*
X654860Y413954D01*
X654890Y413924D01*
X654921Y413888D01*
X654949Y413852D01*
X654977Y413812D01*
X654979Y413809D01*
X654982Y413802D01*
X654989Y413789D01*
X654999Y413774D01*
X655010Y413751D01*
X655022Y413728D01*
X655035Y413698D01*
X655048Y413667D01*
X655060Y413629D01*
X655073Y413591D01*
X655086Y413550D01*
X655096Y413504D01*
X655114Y413410D01*
X655116Y413360D01*
X655119Y413306D01*
Y413301D01*
Y413291D01*
X655116Y413271D01*
Y413245D01*
X655111Y413215D01*
X655109Y413179D01*
X655101Y413139D01*
X655093Y413096D01*
X655081Y413050D01*
X655068Y413002D01*
X655050Y412953D01*
X655030Y412902D01*
X655005Y412852D01*
X654977Y412803D01*
X654943Y412755D01*
X654905Y412709D01*
X654903Y412707D01*
X654895Y412699D01*
X654883Y412687D01*
X654865Y412671D01*
X654844Y412654D01*
X654817Y412633D01*
X654783Y412610D01*
X654748Y412585D01*
X654705Y412560D01*
X654659Y412534D01*
X654606Y412511D01*
X654550Y412486D01*
X654489Y412466D01*
X654420Y412445D01*
X654349Y412427D01*
X654273Y412415D01*
X654276Y412412D01*
X654283Y412410D01*
X654293Y412402D01*
X654308Y412392D01*
X654326Y412382D01*
X654347Y412366D01*
X654395Y412333D01*
X654448Y412293D01*
X654507Y412247D01*
X654565Y412196D01*
X654618Y412143D01*
X654621Y412141D01*
X654626Y412135D01*
X654634Y412128D01*
X654644Y412115D01*
X654657Y412097D01*
X654674Y412077D01*
X654695Y412054D01*
X654715Y412024D01*
X654740Y411991D01*
X654768Y411953D01*
X654799Y411909D01*
X654832Y411864D01*
X654867Y411810D01*
X654905Y411754D01*
X654943Y411693D01*
X654987Y411625D01*
X655378Y411000D01*
X654603D01*
X654138Y411696D01*
X654136Y411701D01*
X654128Y411711D01*
X654116Y411731D01*
X654098Y411757D01*
X654077Y411785D01*
X654054Y411820D01*
X654029Y411856D01*
X654004Y411894D01*
X653945Y411975D01*
X653917Y412014D01*
X653889Y412052D01*
X653864Y412087D01*
X653839Y412118D01*
X653816Y412146D01*
X653798Y412166D01*
X653793Y412171D01*
X653783Y412181D01*
X653762Y412199D01*
X653739Y412219D01*
X653709Y412242D01*
X653676Y412265D01*
X653641Y412285D01*
X653602Y412300D01*
X653597Y412303D01*
X653582Y412306D01*
X653572Y412311D01*
X653559Y412313D01*
X653541Y412316D01*
X653524Y412321D01*
X653503Y412323D01*
X653478Y412326D01*
X653453Y412331D01*
X653422Y412333D01*
X653392Y412336D01*
X653356D01*
X653318Y412339D01*
X653148D01*
Y411000D01*
X652500D01*
Y414206D01*
X653943D01*
X653986Y414203D01*
D02*
G37*
G36*
X322663Y326000D02*
X322049D01*
Y328311D01*
X322044Y328309D01*
X322034Y328299D01*
X322016Y328281D01*
X321988Y328261D01*
X321957Y328235D01*
X321919Y328205D01*
X321874Y328172D01*
X321823Y328136D01*
X321767Y328101D01*
X321706Y328063D01*
X321642Y328022D01*
X321571Y327984D01*
X321498Y327948D01*
X321421Y327913D01*
X321340Y327880D01*
X321256Y327849D01*
Y328405D01*
X321259D01*
X321267Y328408D01*
X321279Y328413D01*
X321297Y328421D01*
X321320Y328431D01*
X321348Y328441D01*
X321378Y328454D01*
X321411Y328471D01*
X321449Y328489D01*
X321487Y328512D01*
X321531Y328535D01*
X321576Y328563D01*
X321625Y328591D01*
X321673Y328624D01*
X321724Y328662D01*
X321777Y328700D01*
X321780Y328703D01*
X321790Y328710D01*
X321805Y328723D01*
X321823Y328738D01*
X321846Y328761D01*
X321871Y328786D01*
X321902Y328814D01*
X321932Y328847D01*
X321962Y328883D01*
X321995Y328923D01*
X322029Y328967D01*
X322059Y329010D01*
X322089Y329058D01*
X322117Y329109D01*
X322143Y329162D01*
X322163Y329216D01*
X322663D01*
Y326000D01*
D02*
G37*
G36*
X319486Y329203D02*
X319534Y329200D01*
X319587Y329198D01*
X319643Y329195D01*
X319704Y329190D01*
X319765Y329185D01*
X319890Y329170D01*
X319948Y329160D01*
X320004Y329147D01*
X320057Y329134D01*
X320103Y329119D01*
X320106D01*
X320113Y329114D01*
X320126Y329109D01*
X320141Y329101D01*
X320162Y329091D01*
X320184Y329081D01*
X320210Y329066D01*
X320238Y329048D01*
X320266Y329028D01*
X320296Y329007D01*
X320329Y328982D01*
X320360Y328954D01*
X320390Y328923D01*
X320421Y328888D01*
X320449Y328852D01*
X320476Y328812D01*
X320479Y328809D01*
X320482Y328802D01*
X320489Y328789D01*
X320499Y328774D01*
X320509Y328751D01*
X320522Y328728D01*
X320535Y328698D01*
X320548Y328667D01*
X320560Y328629D01*
X320573Y328591D01*
X320586Y328550D01*
X320596Y328504D01*
X320614Y328410D01*
X320616Y328360D01*
X320619Y328306D01*
Y328301D01*
Y328291D01*
X320616Y328271D01*
Y328245D01*
X320611Y328215D01*
X320609Y328179D01*
X320601Y328139D01*
X320593Y328096D01*
X320581Y328050D01*
X320568Y328002D01*
X320550Y327953D01*
X320530Y327902D01*
X320504Y327852D01*
X320476Y327803D01*
X320443Y327755D01*
X320405Y327709D01*
X320403Y327707D01*
X320395Y327699D01*
X320382Y327687D01*
X320365Y327671D01*
X320344Y327654D01*
X320317Y327633D01*
X320284Y327610D01*
X320248Y327585D01*
X320205Y327560D01*
X320159Y327534D01*
X320106Y327511D01*
X320050Y327486D01*
X319989Y327466D01*
X319920Y327445D01*
X319849Y327427D01*
X319773Y327415D01*
X319776Y327412D01*
X319783Y327410D01*
X319793Y327402D01*
X319809Y327392D01*
X319826Y327382D01*
X319847Y327366D01*
X319895Y327333D01*
X319948Y327293D01*
X320007Y327247D01*
X320065Y327196D01*
X320118Y327143D01*
X320121Y327141D01*
X320126Y327135D01*
X320134Y327128D01*
X320144Y327115D01*
X320157Y327097D01*
X320174Y327077D01*
X320195Y327054D01*
X320215Y327024D01*
X320240Y326991D01*
X320268Y326953D01*
X320299Y326909D01*
X320332Y326864D01*
X320367Y326810D01*
X320405Y326754D01*
X320443Y326693D01*
X320487Y326625D01*
X320878Y326000D01*
X320103D01*
X319638Y326696D01*
X319636Y326701D01*
X319628Y326711D01*
X319615Y326731D01*
X319598Y326757D01*
X319577Y326785D01*
X319555Y326820D01*
X319529Y326856D01*
X319504Y326894D01*
X319445Y326975D01*
X319417Y327014D01*
X319389Y327052D01*
X319364Y327087D01*
X319339Y327118D01*
X319316Y327146D01*
X319298Y327166D01*
X319293Y327171D01*
X319283Y327181D01*
X319262Y327199D01*
X319240Y327219D01*
X319209Y327242D01*
X319176Y327265D01*
X319140Y327285D01*
X319102Y327300D01*
X319097Y327303D01*
X319082Y327306D01*
X319072Y327311D01*
X319059Y327313D01*
X319041Y327316D01*
X319024Y327321D01*
X319003Y327323D01*
X318978Y327326D01*
X318953Y327331D01*
X318922Y327333D01*
X318892Y327336D01*
X318856D01*
X318818Y327339D01*
X318648D01*
Y326000D01*
X318000D01*
Y329206D01*
X319443D01*
X319486Y329203D01*
D02*
G37*
G36*
X322194Y351713D02*
X322227Y351711D01*
X322267Y351708D01*
X322313Y351703D01*
X322364Y351695D01*
X322420Y351683D01*
X322478Y351670D01*
X322539Y351652D01*
X322600Y351632D01*
X322663Y351606D01*
X322724Y351578D01*
X322785Y351543D01*
X322841Y351505D01*
X322895Y351459D01*
X322897Y351457D01*
X322907Y351446D01*
X322920Y351434D01*
X322938Y351413D01*
X322958Y351388D01*
X322981Y351357D01*
X323006Y351322D01*
X323032Y351284D01*
X323057Y351241D01*
X323080Y351192D01*
X323103Y351139D01*
X323123Y351083D01*
X323141Y351022D01*
X323154Y350961D01*
X323164Y350893D01*
X323166Y350824D01*
Y350822D01*
Y350814D01*
Y350804D01*
Y350789D01*
X323164Y350768D01*
X323161Y350745D01*
X323159Y350720D01*
X323156Y350692D01*
X323146Y350629D01*
X323133Y350560D01*
X323113Y350486D01*
X323088Y350413D01*
Y350410D01*
X323085Y350405D01*
X323080Y350392D01*
X323072Y350380D01*
X323065Y350362D01*
X323055Y350339D01*
X323042Y350316D01*
X323027Y350288D01*
X322994Y350227D01*
X322951Y350159D01*
X322900Y350082D01*
X322841Y350004D01*
Y350001D01*
X322836Y349996D01*
X322829Y349989D01*
X322818Y349978D01*
X322806Y349963D01*
X322790Y349945D01*
X322773Y349922D01*
X322750Y349900D01*
X322722Y349872D01*
X322694Y349841D01*
X322661Y349808D01*
X322623Y349770D01*
X322582Y349732D01*
X322539Y349689D01*
X322491Y349643D01*
X322437Y349595D01*
X322435Y349592D01*
X322425Y349582D01*
X322410Y349569D01*
X322392Y349552D01*
X322369Y349531D01*
X322341Y349506D01*
X322282Y349450D01*
X322221Y349392D01*
X322160Y349333D01*
X322133Y349305D01*
X322107Y349280D01*
X322087Y349257D01*
X322069Y349239D01*
X322067Y349237D01*
X322056Y349224D01*
X322044Y349209D01*
X322026Y349186D01*
X322006Y349160D01*
X321985Y349132D01*
X321965Y349102D01*
X321945Y349072D01*
X323166D01*
Y348500D01*
X321015D01*
Y348503D01*
X321017Y348515D01*
X321020Y348533D01*
X321023Y348556D01*
X321028Y348584D01*
X321035Y348617D01*
X321043Y348655D01*
X321053Y348698D01*
X321066Y348744D01*
X321081Y348792D01*
X321096Y348843D01*
X321117Y348894D01*
X321139Y348947D01*
X321165Y349003D01*
X321193Y349059D01*
X321223Y349112D01*
X321226Y349115D01*
X321231Y349125D01*
X321244Y349143D01*
X321259Y349165D01*
X321279Y349193D01*
X321307Y349229D01*
X321338Y349270D01*
X321376Y349318D01*
X321419Y349369D01*
X321470Y349427D01*
X321525Y349491D01*
X321586Y349559D01*
X321658Y349630D01*
X321734Y349709D01*
X321820Y349793D01*
X321912Y349879D01*
X321917Y349884D01*
X321929Y349897D01*
X321950Y349917D01*
X321978Y349943D01*
X322011Y349973D01*
X322049Y350009D01*
X322089Y350049D01*
X322133Y350090D01*
X322219Y350179D01*
X322262Y350222D01*
X322303Y350265D01*
X322341Y350306D01*
X322374Y350344D01*
X322402Y350377D01*
X322422Y350405D01*
X322425Y350408D01*
X322427Y350413D01*
X322435Y350423D01*
X322443Y350438D01*
X322453Y350456D01*
X322463Y350476D01*
X322473Y350499D01*
X322486Y350524D01*
X322509Y350580D01*
X322529Y350644D01*
X322544Y350712D01*
X322547Y350745D01*
X322549Y350781D01*
Y350784D01*
Y350791D01*
Y350801D01*
X322547Y350814D01*
Y350832D01*
X322544Y350852D01*
X322537Y350898D01*
X322521Y350949D01*
X322501Y351002D01*
X322476Y351050D01*
X322458Y351076D01*
X322437Y351096D01*
Y351098D01*
X322432Y351101D01*
X322417Y351114D01*
X322392Y351132D01*
X322359Y351152D01*
X322315Y351172D01*
X322262Y351190D01*
X322201Y351203D01*
X322168Y351208D01*
X322115D01*
X322102Y351205D01*
X322084D01*
X322067Y351203D01*
X322023Y351192D01*
X321975Y351180D01*
X321924Y351159D01*
X321874Y351129D01*
X321851Y351111D01*
X321828Y351091D01*
Y351088D01*
X321823Y351086D01*
X321818Y351078D01*
X321810Y351068D01*
X321800Y351055D01*
X321790Y351040D01*
X321780Y351022D01*
X321769Y350999D01*
X321757Y350974D01*
X321746Y350946D01*
X321736Y350916D01*
X321726Y350880D01*
X321716Y350842D01*
X321708Y350801D01*
X321703Y350756D01*
X321698Y350707D01*
X321086Y350768D01*
Y350771D01*
Y350773D01*
X321089Y350781D01*
Y350791D01*
X321094Y350816D01*
X321099Y350849D01*
X321106Y350893D01*
X321119Y350941D01*
X321132Y350992D01*
X321150Y351048D01*
X321170Y351109D01*
X321193Y351167D01*
X321221Y351228D01*
X321251Y351289D01*
X321289Y351345D01*
X321330Y351401D01*
X321376Y351449D01*
X321427Y351495D01*
X321429Y351497D01*
X321439Y351505D01*
X321457Y351515D01*
X321480Y351530D01*
X321508Y351545D01*
X321541Y351566D01*
X321581Y351584D01*
X321625Y351606D01*
X321675Y351627D01*
X321729Y351647D01*
X321790Y351665D01*
X321853Y351680D01*
X321922Y351695D01*
X321993Y351706D01*
X322069Y351713D01*
X322148Y351716D01*
X322168D01*
X322194Y351713D01*
D02*
G37*
G36*
X319486Y351703D02*
X319534Y351700D01*
X319587Y351698D01*
X319643Y351695D01*
X319704Y351690D01*
X319765Y351685D01*
X319890Y351670D01*
X319948Y351660D01*
X320004Y351647D01*
X320057Y351634D01*
X320103Y351619D01*
X320106D01*
X320113Y351614D01*
X320126Y351609D01*
X320141Y351601D01*
X320162Y351591D01*
X320184Y351581D01*
X320210Y351566D01*
X320238Y351548D01*
X320266Y351528D01*
X320296Y351507D01*
X320329Y351482D01*
X320360Y351454D01*
X320390Y351424D01*
X320421Y351388D01*
X320449Y351352D01*
X320476Y351312D01*
X320479Y351309D01*
X320482Y351302D01*
X320489Y351289D01*
X320499Y351274D01*
X320509Y351251D01*
X320522Y351228D01*
X320535Y351198D01*
X320548Y351167D01*
X320560Y351129D01*
X320573Y351091D01*
X320586Y351050D01*
X320596Y351004D01*
X320614Y350910D01*
X320616Y350860D01*
X320619Y350806D01*
Y350801D01*
Y350791D01*
X320616Y350771D01*
Y350745D01*
X320611Y350715D01*
X320609Y350679D01*
X320601Y350639D01*
X320593Y350596D01*
X320581Y350550D01*
X320568Y350502D01*
X320550Y350453D01*
X320530Y350402D01*
X320504Y350352D01*
X320476Y350303D01*
X320443Y350255D01*
X320405Y350209D01*
X320403Y350207D01*
X320395Y350199D01*
X320382Y350187D01*
X320365Y350171D01*
X320344Y350154D01*
X320317Y350133D01*
X320284Y350110D01*
X320248Y350085D01*
X320205Y350060D01*
X320159Y350034D01*
X320106Y350011D01*
X320050Y349986D01*
X319989Y349966D01*
X319920Y349945D01*
X319849Y349927D01*
X319773Y349915D01*
X319776Y349912D01*
X319783Y349910D01*
X319793Y349902D01*
X319809Y349892D01*
X319826Y349882D01*
X319847Y349866D01*
X319895Y349833D01*
X319948Y349793D01*
X320007Y349747D01*
X320065Y349696D01*
X320118Y349643D01*
X320121Y349641D01*
X320126Y349635D01*
X320134Y349628D01*
X320144Y349615D01*
X320157Y349597D01*
X320174Y349577D01*
X320195Y349554D01*
X320215Y349524D01*
X320240Y349491D01*
X320268Y349453D01*
X320299Y349409D01*
X320332Y349364D01*
X320367Y349310D01*
X320405Y349254D01*
X320443Y349193D01*
X320487Y349125D01*
X320878Y348500D01*
X320103D01*
X319638Y349196D01*
X319636Y349201D01*
X319628Y349211D01*
X319615Y349231D01*
X319598Y349257D01*
X319577Y349285D01*
X319555Y349320D01*
X319529Y349356D01*
X319504Y349394D01*
X319445Y349475D01*
X319417Y349514D01*
X319389Y349552D01*
X319364Y349587D01*
X319339Y349618D01*
X319316Y349646D01*
X319298Y349666D01*
X319293Y349671D01*
X319283Y349681D01*
X319262Y349699D01*
X319240Y349719D01*
X319209Y349742D01*
X319176Y349765D01*
X319140Y349785D01*
X319102Y349800D01*
X319097Y349803D01*
X319082Y349806D01*
X319072Y349811D01*
X319059Y349813D01*
X319041Y349816D01*
X319024Y349821D01*
X319003Y349823D01*
X318978Y349826D01*
X318953Y349831D01*
X318922Y349833D01*
X318892Y349836D01*
X318856D01*
X318818Y349839D01*
X318648D01*
Y348500D01*
X318000D01*
Y351706D01*
X319443D01*
X319486Y351703D01*
D02*
G37*
G36*
X657163Y456056D02*
X656549D01*
Y458367D01*
X656544Y458365D01*
X656534Y458355D01*
X656516Y458337D01*
X656488Y458316D01*
X656457Y458291D01*
X656419Y458261D01*
X656374Y458228D01*
X656323Y458192D01*
X656267Y458157D01*
X656206Y458118D01*
X656142Y458078D01*
X656071Y458040D01*
X655998Y458004D01*
X655921Y457968D01*
X655840Y457935D01*
X655756Y457905D01*
Y458461D01*
X655759D01*
X655767Y458464D01*
X655779Y458469D01*
X655797Y458476D01*
X655820Y458487D01*
X655848Y458497D01*
X655878Y458509D01*
X655911Y458527D01*
X655949Y458545D01*
X655987Y458568D01*
X656031Y458591D01*
X656076Y458619D01*
X656125Y458647D01*
X656173Y458680D01*
X656224Y458718D01*
X656277Y458756D01*
X656280Y458758D01*
X656290Y458766D01*
X656305Y458779D01*
X656323Y458794D01*
X656346Y458817D01*
X656371Y458842D01*
X656402Y458870D01*
X656432Y458903D01*
X656462Y458939D01*
X656495Y458979D01*
X656528Y459023D01*
X656559Y459066D01*
X656589Y459114D01*
X656617Y459165D01*
X656643Y459218D01*
X656663Y459272D01*
X657163D01*
Y456056D01*
D02*
G37*
G36*
X653986Y459259D02*
X654034Y459256D01*
X654088Y459254D01*
X654143Y459251D01*
X654204Y459246D01*
X654265Y459241D01*
X654390Y459226D01*
X654448Y459216D01*
X654504Y459203D01*
X654557Y459190D01*
X654603Y459175D01*
X654606D01*
X654613Y459170D01*
X654626Y459165D01*
X654641Y459157D01*
X654662Y459147D01*
X654684Y459137D01*
X654710Y459122D01*
X654738Y459104D01*
X654766Y459084D01*
X654796Y459063D01*
X654829Y459038D01*
X654860Y459010D01*
X654890Y458979D01*
X654921Y458944D01*
X654949Y458908D01*
X654977Y458868D01*
X654979Y458865D01*
X654982Y458857D01*
X654989Y458845D01*
X654999Y458830D01*
X655010Y458807D01*
X655022Y458784D01*
X655035Y458753D01*
X655048Y458723D01*
X655060Y458685D01*
X655073Y458647D01*
X655086Y458606D01*
X655096Y458560D01*
X655114Y458466D01*
X655116Y458415D01*
X655119Y458362D01*
Y458357D01*
Y458347D01*
X655116Y458327D01*
Y458301D01*
X655111Y458271D01*
X655109Y458235D01*
X655101Y458195D01*
X655093Y458151D01*
X655081Y458106D01*
X655068Y458057D01*
X655050Y458009D01*
X655030Y457958D01*
X655005Y457907D01*
X654977Y457859D01*
X654943Y457811D01*
X654905Y457765D01*
X654903Y457763D01*
X654895Y457755D01*
X654883Y457742D01*
X654865Y457727D01*
X654844Y457709D01*
X654817Y457689D01*
X654783Y457666D01*
X654748Y457641D01*
X654705Y457615D01*
X654659Y457590D01*
X654606Y457567D01*
X654550Y457542D01*
X654489Y457522D01*
X654420Y457501D01*
X654349Y457483D01*
X654273Y457471D01*
X654276Y457468D01*
X654283Y457466D01*
X654293Y457458D01*
X654308Y457448D01*
X654326Y457438D01*
X654347Y457422D01*
X654395Y457389D01*
X654448Y457349D01*
X654507Y457303D01*
X654565Y457252D01*
X654618Y457199D01*
X654621Y457196D01*
X654626Y457191D01*
X654634Y457184D01*
X654644Y457171D01*
X654657Y457153D01*
X654674Y457133D01*
X654695Y457110D01*
X654715Y457080D01*
X654740Y457047D01*
X654768Y457008D01*
X654799Y456965D01*
X654832Y456920D01*
X654867Y456866D01*
X654905Y456810D01*
X654943Y456749D01*
X654987Y456681D01*
X655378Y456056D01*
X654603D01*
X654138Y456752D01*
X654136Y456757D01*
X654128Y456767D01*
X654116Y456787D01*
X654098Y456813D01*
X654077Y456841D01*
X654054Y456876D01*
X654029Y456912D01*
X654004Y456950D01*
X653945Y457031D01*
X653917Y457069D01*
X653889Y457107D01*
X653864Y457143D01*
X653839Y457174D01*
X653816Y457201D01*
X653798Y457222D01*
X653793Y457227D01*
X653783Y457237D01*
X653762Y457255D01*
X653739Y457275D01*
X653709Y457298D01*
X653676Y457321D01*
X653641Y457341D01*
X653602Y457356D01*
X653597Y457359D01*
X653582Y457361D01*
X653572Y457366D01*
X653559Y457369D01*
X653541Y457372D01*
X653524Y457377D01*
X653503Y457379D01*
X653478Y457382D01*
X653453Y457387D01*
X653422Y457389D01*
X653392Y457392D01*
X653356D01*
X653318Y457394D01*
X653148D01*
Y456056D01*
X652500D01*
Y459261D01*
X653943D01*
X653986Y459259D01*
D02*
G37*
G36*
X659165Y459269D02*
X659195Y459266D01*
X659236Y459261D01*
X659279Y459254D01*
X659330Y459244D01*
X659383Y459231D01*
X659442Y459213D01*
X659500Y459190D01*
X659561Y459162D01*
X659622Y459132D01*
X659681Y459094D01*
X659739Y459048D01*
X659795Y458997D01*
X659846Y458939D01*
X659848Y458934D01*
X659858Y458921D01*
X659874Y458896D01*
X659894Y458863D01*
X659919Y458819D01*
X659932Y458794D01*
X659945Y458766D01*
X659960Y458736D01*
X659973Y458703D01*
X659988Y458667D01*
X660003Y458629D01*
X660018Y458586D01*
X660034Y458543D01*
X660046Y458497D01*
X660062Y458446D01*
X660074Y458395D01*
X660087Y458339D01*
X660100Y458284D01*
X660112Y458223D01*
X660123Y458159D01*
X660133Y458093D01*
X660140Y458024D01*
X660148Y457951D01*
X660153Y457877D01*
X660158Y457798D01*
X660161Y457717D01*
Y457633D01*
Y457631D01*
Y457623D01*
Y457610D01*
Y457593D01*
Y457572D01*
X660158Y457547D01*
Y457519D01*
X660156Y457486D01*
X660153Y457450D01*
X660151Y457410D01*
X660148Y457369D01*
X660143Y457326D01*
X660135Y457229D01*
X660123Y457130D01*
X660105Y457024D01*
X660085Y456914D01*
X660059Y456805D01*
X660029Y456698D01*
X659993Y456594D01*
X659950Y456498D01*
X659902Y456409D01*
X659874Y456366D01*
X659846Y456328D01*
X659843Y456325D01*
X659833Y456312D01*
X659818Y456297D01*
X659797Y456277D01*
X659772Y456251D01*
X659739Y456223D01*
X659701Y456196D01*
X659658Y456165D01*
X659607Y456135D01*
X659554Y456104D01*
X659493Y456076D01*
X659429Y456051D01*
X659358Y456031D01*
X659284Y456015D01*
X659203Y456003D01*
X659119Y456000D01*
X659099D01*
X659073Y456003D01*
X659043Y456005D01*
X659002Y456010D01*
X658957Y456018D01*
X658906Y456031D01*
X658850Y456046D01*
X658792Y456063D01*
X658731Y456086D01*
X658667Y456117D01*
X658604Y456152D01*
X658540Y456193D01*
X658479Y456239D01*
X658421Y456295D01*
X658365Y456358D01*
X658362Y456363D01*
X658352Y456376D01*
X658339Y456399D01*
X658322Y456429D01*
X658299Y456470D01*
X658286Y456495D01*
X658276Y456521D01*
X658263Y456551D01*
X658248Y456582D01*
X658235Y456617D01*
X658223Y456653D01*
X658210Y456693D01*
X658197Y456737D01*
X658182Y456782D01*
X658169Y456831D01*
X658159Y456881D01*
X658146Y456935D01*
X658136Y456991D01*
X658126Y457052D01*
X658116Y457115D01*
X658106Y457181D01*
X658098Y457250D01*
X658093Y457321D01*
X658088Y457397D01*
X658083Y457476D01*
X658080Y457557D01*
Y457641D01*
Y457643D01*
Y457651D01*
Y457664D01*
Y457682D01*
X658083Y457702D01*
Y457727D01*
Y457755D01*
X658085Y457788D01*
X658088Y457824D01*
X658091Y457862D01*
X658093Y457905D01*
X658098Y457948D01*
X658106Y458042D01*
X658119Y458144D01*
X658136Y458248D01*
X658157Y458355D01*
X658182Y458464D01*
X658213Y458571D01*
X658248Y458675D01*
X658289Y458771D01*
X658337Y458863D01*
X658365Y458903D01*
X658393Y458941D01*
X658395Y458944D01*
X658406Y458957D01*
X658421Y458972D01*
X658441Y458992D01*
X658469Y459017D01*
X658500Y459045D01*
X658538Y459076D01*
X658581Y459106D01*
X658632Y459137D01*
X658685Y459167D01*
X658746Y459195D01*
X658809Y459221D01*
X658880Y459241D01*
X658954Y459256D01*
X659035Y459269D01*
X659119Y459272D01*
X659140D01*
X659165Y459269D01*
D02*
G37*
G36*
X659653Y476000D02*
X659038D01*
Y478311D01*
X659033Y478309D01*
X659023Y478299D01*
X659005Y478281D01*
X658977Y478261D01*
X658947Y478235D01*
X658908Y478205D01*
X658863Y478172D01*
X658812Y478136D01*
X658756Y478101D01*
X658695Y478063D01*
X658632Y478022D01*
X658560Y477984D01*
X658487Y477948D01*
X658411Y477913D01*
X658329Y477880D01*
X658245Y477849D01*
Y478405D01*
X658248D01*
X658256Y478408D01*
X658268Y478413D01*
X658286Y478421D01*
X658309Y478431D01*
X658337Y478441D01*
X658367Y478454D01*
X658400Y478471D01*
X658438Y478489D01*
X658477Y478512D01*
X658520Y478535D01*
X658566Y478563D01*
X658614Y478591D01*
X658662Y478624D01*
X658713Y478662D01*
X658766Y478700D01*
X658769Y478703D01*
X658779Y478710D01*
X658794Y478723D01*
X658812Y478738D01*
X658835Y478761D01*
X658860Y478786D01*
X658891Y478814D01*
X658921Y478847D01*
X658952Y478883D01*
X658985Y478924D01*
X659018Y478967D01*
X659048Y479010D01*
X659079Y479058D01*
X659107Y479109D01*
X659132Y479162D01*
X659152Y479216D01*
X659653D01*
Y476000D01*
D02*
G37*
G36*
X657163D02*
X656549D01*
Y478311D01*
X656544Y478309D01*
X656534Y478299D01*
X656516Y478281D01*
X656488Y478261D01*
X656457Y478235D01*
X656419Y478205D01*
X656374Y478172D01*
X656323Y478136D01*
X656267Y478101D01*
X656206Y478063D01*
X656142Y478022D01*
X656071Y477984D01*
X655998Y477948D01*
X655921Y477913D01*
X655840Y477880D01*
X655756Y477849D01*
Y478405D01*
X655759D01*
X655767Y478408D01*
X655779Y478413D01*
X655797Y478421D01*
X655820Y478431D01*
X655848Y478441D01*
X655878Y478454D01*
X655911Y478471D01*
X655949Y478489D01*
X655987Y478512D01*
X656031Y478535D01*
X656076Y478563D01*
X656125Y478591D01*
X656173Y478624D01*
X656224Y478662D01*
X656277Y478700D01*
X656280Y478703D01*
X656290Y478710D01*
X656305Y478723D01*
X656323Y478738D01*
X656346Y478761D01*
X656371Y478786D01*
X656402Y478814D01*
X656432Y478847D01*
X656462Y478883D01*
X656495Y478924D01*
X656528Y478967D01*
X656559Y479010D01*
X656589Y479058D01*
X656617Y479109D01*
X656643Y479162D01*
X656663Y479216D01*
X657163D01*
Y476000D01*
D02*
G37*
G36*
X653986Y479203D02*
X654034Y479200D01*
X654088Y479198D01*
X654143Y479195D01*
X654204Y479190D01*
X654265Y479185D01*
X654390Y479170D01*
X654448Y479160D01*
X654504Y479147D01*
X654557Y479134D01*
X654603Y479119D01*
X654606D01*
X654613Y479114D01*
X654626Y479109D01*
X654641Y479101D01*
X654662Y479091D01*
X654684Y479081D01*
X654710Y479066D01*
X654738Y479048D01*
X654766Y479028D01*
X654796Y479007D01*
X654829Y478982D01*
X654860Y478954D01*
X654890Y478924D01*
X654921Y478888D01*
X654949Y478852D01*
X654977Y478812D01*
X654979Y478809D01*
X654982Y478802D01*
X654989Y478789D01*
X654999Y478774D01*
X655010Y478751D01*
X655022Y478728D01*
X655035Y478698D01*
X655048Y478667D01*
X655060Y478629D01*
X655073Y478591D01*
X655086Y478550D01*
X655096Y478504D01*
X655114Y478410D01*
X655116Y478360D01*
X655119Y478306D01*
Y478301D01*
Y478291D01*
X655116Y478271D01*
Y478245D01*
X655111Y478215D01*
X655109Y478179D01*
X655101Y478139D01*
X655093Y478096D01*
X655081Y478050D01*
X655068Y478002D01*
X655050Y477953D01*
X655030Y477902D01*
X655005Y477852D01*
X654977Y477803D01*
X654943Y477755D01*
X654905Y477709D01*
X654903Y477707D01*
X654895Y477699D01*
X654883Y477687D01*
X654865Y477671D01*
X654844Y477654D01*
X654817Y477633D01*
X654783Y477610D01*
X654748Y477585D01*
X654705Y477560D01*
X654659Y477534D01*
X654606Y477511D01*
X654550Y477486D01*
X654489Y477466D01*
X654420Y477445D01*
X654349Y477427D01*
X654273Y477415D01*
X654276Y477412D01*
X654283Y477410D01*
X654293Y477402D01*
X654308Y477392D01*
X654326Y477382D01*
X654347Y477366D01*
X654395Y477333D01*
X654448Y477293D01*
X654507Y477247D01*
X654565Y477196D01*
X654618Y477143D01*
X654621Y477141D01*
X654626Y477135D01*
X654634Y477128D01*
X654644Y477115D01*
X654657Y477097D01*
X654674Y477077D01*
X654695Y477054D01*
X654715Y477024D01*
X654740Y476991D01*
X654768Y476953D01*
X654799Y476909D01*
X654832Y476864D01*
X654867Y476810D01*
X654905Y476754D01*
X654943Y476693D01*
X654987Y476625D01*
X655378Y476000D01*
X654603D01*
X654138Y476696D01*
X654136Y476701D01*
X654128Y476711D01*
X654116Y476731D01*
X654098Y476757D01*
X654077Y476785D01*
X654054Y476820D01*
X654029Y476856D01*
X654004Y476894D01*
X653945Y476975D01*
X653917Y477014D01*
X653889Y477052D01*
X653864Y477087D01*
X653839Y477118D01*
X653816Y477146D01*
X653798Y477166D01*
X653793Y477171D01*
X653783Y477181D01*
X653762Y477199D01*
X653739Y477219D01*
X653709Y477242D01*
X653676Y477265D01*
X653641Y477285D01*
X653602Y477300D01*
X653597Y477303D01*
X653582Y477306D01*
X653572Y477311D01*
X653559Y477313D01*
X653541Y477316D01*
X653524Y477321D01*
X653503Y477323D01*
X653478Y477326D01*
X653453Y477331D01*
X653422Y477333D01*
X653392Y477336D01*
X653356D01*
X653318Y477339D01*
X653148D01*
Y476000D01*
X652500D01*
Y479206D01*
X653943D01*
X653986Y479203D01*
D02*
G37*
G36*
X660105Y436142D02*
X658944D01*
X658845Y435596D01*
X658848D01*
X658855Y435601D01*
X658865Y435606D01*
X658880Y435611D01*
X658898Y435621D01*
X658921Y435629D01*
X658947Y435639D01*
X658975Y435649D01*
X659038Y435667D01*
X659109Y435684D01*
X659185Y435695D01*
X659267Y435700D01*
X659284D01*
X659307Y435697D01*
X659335Y435695D01*
X659371Y435690D01*
X659411Y435684D01*
X659457Y435674D01*
X659508Y435662D01*
X659559Y435646D01*
X659615Y435626D01*
X659673Y435603D01*
X659731Y435573D01*
X659790Y435540D01*
X659848Y435499D01*
X659907Y435453D01*
X659960Y435400D01*
X659962Y435397D01*
X659973Y435387D01*
X659985Y435369D01*
X660006Y435347D01*
X660026Y435316D01*
X660051Y435280D01*
X660077Y435240D01*
X660105Y435192D01*
X660130Y435141D01*
X660156Y435082D01*
X660181Y435019D01*
X660201Y434950D01*
X660222Y434877D01*
X660234Y434798D01*
X660245Y434717D01*
X660247Y434630D01*
Y434625D01*
Y434613D01*
X660245Y434592D01*
Y434564D01*
X660239Y434529D01*
X660234Y434488D01*
X660227Y434442D01*
X660219Y434394D01*
X660206Y434341D01*
X660191Y434285D01*
X660171Y434226D01*
X660151Y434165D01*
X660123Y434104D01*
X660092Y434044D01*
X660057Y433983D01*
X660016Y433924D01*
X660013Y433919D01*
X660001Y433906D01*
X659983Y433886D01*
X659958Y433858D01*
X659927Y433825D01*
X659889Y433790D01*
X659843Y433751D01*
X659790Y433713D01*
X659731Y433673D01*
X659665Y433635D01*
X659594Y433599D01*
X659518Y433566D01*
X659434Y433538D01*
X659345Y433518D01*
X659249Y433505D01*
X659147Y433500D01*
X659127D01*
X659104Y433503D01*
X659073D01*
X659035Y433508D01*
X658992Y433513D01*
X658944Y433520D01*
X658891Y433531D01*
X658835Y433543D01*
X658776Y433558D01*
X658715Y433576D01*
X658654Y433599D01*
X658594Y433627D01*
X658535Y433657D01*
X658477Y433696D01*
X658423Y433736D01*
X658421Y433739D01*
X658411Y433746D01*
X658398Y433762D01*
X658380Y433779D01*
X658357Y433805D01*
X658332Y433833D01*
X658307Y433868D01*
X658276Y433906D01*
X658248Y433950D01*
X658220Y433998D01*
X658192Y434051D01*
X658164Y434107D01*
X658141Y434171D01*
X658121Y434237D01*
X658103Y434305D01*
X658091Y434379D01*
X658703Y434442D01*
Y434440D01*
X658705Y434432D01*
Y434422D01*
X658708Y434407D01*
X658713Y434392D01*
X658718Y434371D01*
X658731Y434323D01*
X658751Y434270D01*
X658779Y434216D01*
X658812Y434160D01*
X658855Y434112D01*
X658858D01*
X658860Y434107D01*
X658868Y434102D01*
X658878Y434094D01*
X658906Y434074D01*
X658941Y434054D01*
X658985Y434031D01*
X659035Y434011D01*
X659094Y433998D01*
X659124Y433995D01*
X659155Y433993D01*
X659173D01*
X659188Y433995D01*
X659203Y433998D01*
X659223Y434000D01*
X659267Y434013D01*
X659317Y434031D01*
X659345Y434044D01*
X659373Y434059D01*
X659401Y434077D01*
X659427Y434097D01*
X659454Y434120D01*
X659480Y434148D01*
X659482Y434150D01*
X659485Y434155D01*
X659493Y434163D01*
X659500Y434178D01*
X659510Y434193D01*
X659523Y434214D01*
X659536Y434237D01*
X659548Y434264D01*
X659559Y434295D01*
X659571Y434331D01*
X659584Y434369D01*
X659594Y434412D01*
X659602Y434458D01*
X659610Y434506D01*
X659612Y434562D01*
X659615Y434618D01*
Y434620D01*
Y434630D01*
Y434646D01*
X659612Y434666D01*
X659610Y434691D01*
X659607Y434719D01*
X659604Y434750D01*
X659597Y434783D01*
X659582Y434854D01*
X659559Y434927D01*
X659543Y434963D01*
X659526Y434999D01*
X659503Y435032D01*
X659480Y435060D01*
X659477Y435062D01*
X659475Y435067D01*
X659467Y435072D01*
X659457Y435082D01*
X659442Y435095D01*
X659427Y435108D01*
X659409Y435121D01*
X659389Y435136D01*
X659338Y435161D01*
X659279Y435187D01*
X659246Y435197D01*
X659211Y435202D01*
X659173Y435207D01*
X659135Y435209D01*
X659122D01*
X659109Y435207D01*
X659089D01*
X659066Y435202D01*
X659041Y435197D01*
X659010Y435189D01*
X658977Y435182D01*
X658941Y435169D01*
X658903Y435154D01*
X658863Y435133D01*
X658822Y435110D01*
X658781Y435085D01*
X658741Y435052D01*
X658700Y435016D01*
X658660Y434976D01*
X658164Y435047D01*
X658479Y436716D01*
X660105D01*
Y436142D01*
D02*
G37*
G36*
X657163Y433556D02*
X656549D01*
Y435867D01*
X656544Y435865D01*
X656534Y435855D01*
X656516Y435837D01*
X656488Y435816D01*
X656457Y435791D01*
X656419Y435761D01*
X656374Y435728D01*
X656323Y435692D01*
X656267Y435657D01*
X656206Y435618D01*
X656142Y435578D01*
X656071Y435540D01*
X655998Y435504D01*
X655921Y435468D01*
X655840Y435435D01*
X655756Y435405D01*
Y435961D01*
X655759D01*
X655767Y435964D01*
X655779Y435969D01*
X655797Y435976D01*
X655820Y435987D01*
X655848Y435997D01*
X655878Y436009D01*
X655911Y436027D01*
X655949Y436045D01*
X655987Y436068D01*
X656031Y436091D01*
X656076Y436119D01*
X656125Y436147D01*
X656173Y436180D01*
X656224Y436218D01*
X656277Y436256D01*
X656280Y436258D01*
X656290Y436266D01*
X656305Y436279D01*
X656323Y436294D01*
X656346Y436317D01*
X656371Y436342D01*
X656402Y436370D01*
X656432Y436403D01*
X656462Y436439D01*
X656495Y436479D01*
X656528Y436523D01*
X656559Y436566D01*
X656589Y436614D01*
X656617Y436665D01*
X656643Y436718D01*
X656663Y436772D01*
X657163D01*
Y433556D01*
D02*
G37*
G36*
X653986Y436759D02*
X654034Y436756D01*
X654088Y436754D01*
X654143Y436751D01*
X654204Y436746D01*
X654265Y436741D01*
X654390Y436726D01*
X654448Y436716D01*
X654504Y436703D01*
X654557Y436690D01*
X654603Y436675D01*
X654606D01*
X654613Y436670D01*
X654626Y436665D01*
X654641Y436657D01*
X654662Y436647D01*
X654684Y436637D01*
X654710Y436622D01*
X654738Y436604D01*
X654766Y436584D01*
X654796Y436563D01*
X654829Y436538D01*
X654860Y436510D01*
X654890Y436479D01*
X654921Y436444D01*
X654949Y436408D01*
X654977Y436368D01*
X654979Y436365D01*
X654982Y436357D01*
X654989Y436345D01*
X654999Y436330D01*
X655010Y436307D01*
X655022Y436284D01*
X655035Y436253D01*
X655048Y436223D01*
X655060Y436185D01*
X655073Y436147D01*
X655086Y436106D01*
X655096Y436060D01*
X655114Y435966D01*
X655116Y435915D01*
X655119Y435862D01*
Y435857D01*
Y435847D01*
X655116Y435827D01*
Y435801D01*
X655111Y435771D01*
X655109Y435735D01*
X655101Y435695D01*
X655093Y435651D01*
X655081Y435606D01*
X655068Y435557D01*
X655050Y435509D01*
X655030Y435458D01*
X655005Y435407D01*
X654977Y435359D01*
X654943Y435311D01*
X654905Y435265D01*
X654903Y435263D01*
X654895Y435255D01*
X654883Y435242D01*
X654865Y435227D01*
X654844Y435209D01*
X654817Y435189D01*
X654783Y435166D01*
X654748Y435141D01*
X654705Y435115D01*
X654659Y435090D01*
X654606Y435067D01*
X654550Y435042D01*
X654489Y435022D01*
X654420Y435001D01*
X654349Y434983D01*
X654273Y434971D01*
X654276Y434968D01*
X654283Y434966D01*
X654293Y434958D01*
X654308Y434948D01*
X654326Y434938D01*
X654347Y434922D01*
X654395Y434889D01*
X654448Y434849D01*
X654507Y434803D01*
X654565Y434752D01*
X654618Y434699D01*
X654621Y434696D01*
X654626Y434691D01*
X654634Y434684D01*
X654644Y434671D01*
X654657Y434653D01*
X654674Y434633D01*
X654695Y434610D01*
X654715Y434580D01*
X654740Y434547D01*
X654768Y434508D01*
X654799Y434465D01*
X654832Y434420D01*
X654867Y434366D01*
X654905Y434310D01*
X654943Y434249D01*
X654987Y434181D01*
X655378Y433556D01*
X654603D01*
X654138Y434252D01*
X654136Y434257D01*
X654128Y434267D01*
X654116Y434287D01*
X654098Y434313D01*
X654077Y434341D01*
X654054Y434376D01*
X654029Y434412D01*
X654004Y434450D01*
X653945Y434531D01*
X653917Y434569D01*
X653889Y434607D01*
X653864Y434643D01*
X653839Y434674D01*
X653816Y434701D01*
X653798Y434722D01*
X653793Y434727D01*
X653783Y434737D01*
X653762Y434755D01*
X653739Y434775D01*
X653709Y434798D01*
X653676Y434821D01*
X653641Y434841D01*
X653602Y434856D01*
X653597Y434859D01*
X653582Y434861D01*
X653572Y434866D01*
X653559Y434869D01*
X653541Y434872D01*
X653524Y434877D01*
X653503Y434879D01*
X653478Y434882D01*
X653453Y434887D01*
X653422Y434889D01*
X653392Y434892D01*
X653356D01*
X653318Y434894D01*
X653148D01*
Y433556D01*
X652500D01*
Y436761D01*
X653943D01*
X653986Y436759D01*
D02*
G37*
%LPC*%
G36*
X373926Y547412D02*
X373908D01*
X373895Y547410D01*
X373880Y547407D01*
X373862Y547405D01*
X373822Y547395D01*
X373773Y547379D01*
X373725Y547354D01*
X373700Y547336D01*
X373674Y547318D01*
X373649Y547298D01*
X373626Y547273D01*
X373624Y547270D01*
X373621Y547265D01*
X373616Y547257D01*
X373606Y547247D01*
X373598Y547232D01*
X373588Y547214D01*
X373575Y547194D01*
X373565Y547169D01*
X373553Y547141D01*
X373542Y547110D01*
X373532Y547077D01*
X373522Y547042D01*
X373514Y547001D01*
X373509Y546958D01*
X373507Y546912D01*
X373504Y546864D01*
Y546861D01*
Y546851D01*
Y546836D01*
X373507Y546815D01*
X373509Y546790D01*
X373512Y546762D01*
X373514Y546729D01*
X373522Y546694D01*
X373537Y546620D01*
X373563Y546544D01*
X373578Y546506D01*
X373596Y546468D01*
X373616Y546435D01*
X373641Y546401D01*
X373644Y546399D01*
X373646Y546394D01*
X373654Y546386D01*
X373667Y546376D01*
X373680Y546363D01*
X373695Y546348D01*
X373733Y546318D01*
X373778Y546290D01*
X373832Y546262D01*
X373862Y546252D01*
X373893Y546244D01*
X373926Y546239D01*
X373959Y546236D01*
X373974D01*
X373987Y546239D01*
X374002Y546241D01*
X374017Y546244D01*
X374058Y546254D01*
X374104Y546269D01*
X374149Y546292D01*
X374172Y546307D01*
X374198Y546325D01*
X374218Y546348D01*
X374241Y546371D01*
Y546374D01*
X374246Y546376D01*
X374251Y546386D01*
X374259Y546396D01*
X374266Y546412D01*
X374276Y546429D01*
X374286Y546452D01*
X374297Y546478D01*
X374307Y546506D01*
X374317Y546539D01*
X374327Y546574D01*
X374335Y546615D01*
X374342Y546658D01*
X374347Y546706D01*
X374350Y546757D01*
X374353Y546813D01*
Y546815D01*
Y546826D01*
Y546843D01*
X374350Y546864D01*
Y546889D01*
X374345Y546920D01*
X374342Y546950D01*
X374337Y546986D01*
X374322Y547059D01*
X374302Y547136D01*
X374271Y547207D01*
X374251Y547240D01*
X374231Y547268D01*
X374228Y547270D01*
X374226Y547273D01*
X374218Y547280D01*
X374208Y547290D01*
X374182Y547313D01*
X374147Y547339D01*
X374104Y547367D01*
X374050Y547390D01*
X374022Y547400D01*
X373992Y547407D01*
X373959Y547410D01*
X373926Y547412D01*
D02*
G37*
G36*
X377352Y547095D02*
X376763D01*
X376722Y547092D01*
X376677D01*
X376628Y547090D01*
X376529Y547085D01*
X376481Y547082D01*
X376435Y547080D01*
X376392Y547075D01*
X376354Y547070D01*
X376321Y547065D01*
X376296Y547057D01*
X376293D01*
X376291Y547054D01*
X376275Y547049D01*
X376255Y547039D01*
X376230Y547024D01*
X376199Y547006D01*
X376169Y546981D01*
X376141Y546953D01*
X376113Y546920D01*
X376110Y546915D01*
X376103Y546902D01*
X376092Y546882D01*
X376080Y546854D01*
X376067Y546818D01*
X376057Y546777D01*
X376049Y546732D01*
X376047Y546681D01*
Y546678D01*
Y546673D01*
Y546666D01*
Y546653D01*
X376052Y546625D01*
X376057Y546587D01*
X376067Y546546D01*
X376082Y546503D01*
X376105Y546460D01*
X376133Y546419D01*
X376138Y546414D01*
X376148Y546404D01*
X376169Y546386D01*
X376197Y546366D01*
X376230Y546343D01*
X376273Y546323D01*
X376321Y546305D01*
X376377Y546292D01*
X376387D01*
X376395Y546290D01*
X376407D01*
X376423Y546287D01*
X376443D01*
X376466Y546285D01*
X376527D01*
X376565Y546282D01*
X376611D01*
X376659Y546280D01*
X377352D01*
Y547095D01*
D02*
G37*
G36*
Y519595D02*
X376763D01*
X376722Y519593D01*
X376677D01*
X376628Y519590D01*
X376529Y519585D01*
X376481Y519582D01*
X376435Y519580D01*
X376392Y519575D01*
X376354Y519570D01*
X376321Y519565D01*
X376296Y519557D01*
X376293D01*
X376291Y519554D01*
X376275Y519549D01*
X376255Y519539D01*
X376230Y519524D01*
X376199Y519506D01*
X376169Y519481D01*
X376141Y519453D01*
X376113Y519420D01*
X376110Y519415D01*
X376103Y519402D01*
X376092Y519382D01*
X376080Y519354D01*
X376067Y519318D01*
X376057Y519277D01*
X376049Y519232D01*
X376047Y519181D01*
Y519178D01*
Y519173D01*
Y519166D01*
Y519153D01*
X376052Y519125D01*
X376057Y519087D01*
X376067Y519046D01*
X376082Y519003D01*
X376105Y518960D01*
X376133Y518919D01*
X376138Y518914D01*
X376148Y518904D01*
X376169Y518886D01*
X376197Y518866D01*
X376230Y518843D01*
X376273Y518823D01*
X376321Y518805D01*
X376377Y518792D01*
X376387D01*
X376395Y518790D01*
X376407D01*
X376423Y518787D01*
X376443D01*
X376466Y518785D01*
X376527D01*
X376565Y518782D01*
X376611D01*
X376659Y518780D01*
X377352D01*
Y519595D01*
D02*
G37*
G36*
X373857Y521007D02*
X373839D01*
X373824Y521005D01*
X373809Y521002D01*
X373791Y521000D01*
X373745Y520989D01*
X373697Y520974D01*
X373644Y520951D01*
X373619Y520936D01*
X373591Y520916D01*
X373565Y520896D01*
X373542Y520873D01*
X373540Y520870D01*
X373537Y520865D01*
X373530Y520857D01*
X373522Y520847D01*
X373512Y520832D01*
X373502Y520817D01*
X373492Y520796D01*
X373479Y520771D01*
X373466Y520746D01*
X373456Y520715D01*
X373446Y520685D01*
X373436Y520649D01*
X373428Y520611D01*
X373420Y520570D01*
X373418Y520525D01*
X373415Y520479D01*
Y520476D01*
Y520469D01*
Y520456D01*
X373418Y520441D01*
X373420Y520423D01*
X373423Y520400D01*
X373430Y520349D01*
X373446Y520291D01*
X373469Y520230D01*
X373484Y520200D01*
X373502Y520172D01*
X373522Y520141D01*
X373545Y520116D01*
X373547Y520113D01*
X373550Y520111D01*
X373558Y520103D01*
X373568Y520095D01*
X373580Y520083D01*
X373596Y520073D01*
X373631Y520047D01*
X373680Y520022D01*
X373733Y519999D01*
X373796Y519984D01*
X373829Y519981D01*
X373865Y519978D01*
X373885D01*
X373903Y519981D01*
X373921Y519984D01*
X373941Y519986D01*
X373992Y519999D01*
X374048Y520017D01*
X374076Y520029D01*
X374104Y520045D01*
X374129Y520062D01*
X374157Y520085D01*
X374180Y520108D01*
X374203Y520136D01*
Y520139D01*
X374208Y520144D01*
X374213Y520151D01*
X374221Y520164D01*
X374228Y520177D01*
X374238Y520194D01*
X374256Y520235D01*
X374276Y520286D01*
X374294Y520342D01*
X374307Y520405D01*
X374309Y520438D01*
X374312Y520471D01*
Y520474D01*
Y520481D01*
Y520497D01*
X374309Y520512D01*
X374307Y520535D01*
X374304Y520560D01*
X374302Y520586D01*
X374297Y520616D01*
X374281Y520680D01*
X374256Y520746D01*
X374243Y520779D01*
X374226Y520809D01*
X374205Y520840D01*
X374182Y520868D01*
X374180Y520870D01*
X374177Y520873D01*
X374170Y520880D01*
X374160Y520890D01*
X374147Y520901D01*
X374132Y520911D01*
X374094Y520936D01*
X374045Y520964D01*
X373989Y520984D01*
X373928Y521002D01*
X373893Y521005D01*
X373857Y521007D01*
D02*
G37*
G36*
X373872Y519486D02*
X373855D01*
X373845Y519483D01*
X373829D01*
X373811Y519481D01*
X373771Y519473D01*
X373728Y519460D01*
X373680Y519443D01*
X373634Y519417D01*
X373593Y519384D01*
X373588Y519379D01*
X373575Y519364D01*
X373560Y519341D01*
X373540Y519308D01*
X373519Y519267D01*
X373504Y519219D01*
X373492Y519161D01*
X373486Y519097D01*
Y519095D01*
Y519090D01*
Y519079D01*
X373489Y519069D01*
Y519054D01*
X373492Y519036D01*
X373499Y518998D01*
X373512Y518952D01*
X373530Y518907D01*
X373555Y518861D01*
X373591Y518820D01*
X373596Y518815D01*
X373608Y518805D01*
X373634Y518787D01*
X373664Y518767D01*
X373705Y518749D01*
X373751Y518731D01*
X373806Y518721D01*
X373867Y518716D01*
X373885D01*
X373898Y518719D01*
X373911D01*
X373928Y518721D01*
X373969Y518729D01*
X374015Y518742D01*
X374061Y518762D01*
X374106Y518787D01*
X374149Y518823D01*
X374154Y518828D01*
X374165Y518841D01*
X374182Y518866D01*
X374200Y518896D01*
X374221Y518937D01*
X374238Y518983D01*
X374248Y519039D01*
X374254Y519100D01*
Y519102D01*
Y519107D01*
Y519118D01*
X374251Y519130D01*
Y519145D01*
X374248Y519163D01*
X374241Y519204D01*
X374228Y519250D01*
X374210Y519298D01*
X374185Y519343D01*
X374152Y519384D01*
X374147Y519389D01*
X374132Y519399D01*
X374109Y519417D01*
X374078Y519435D01*
X374038Y519453D01*
X373989Y519470D01*
X373936Y519481D01*
X373872Y519486D01*
D02*
G37*
G36*
X779181Y449953D02*
X779178D01*
X779173D01*
X779166D01*
X779153D01*
X779125Y449948D01*
X779087Y449943D01*
X779046Y449933D01*
X779003Y449918D01*
X778960Y449895D01*
X778919Y449867D01*
X778914Y449862D01*
X778904Y449852D01*
X778886Y449831D01*
X778866Y449803D01*
X778843Y449770D01*
X778823Y449727D01*
X778805Y449679D01*
X778792Y449623D01*
Y449613D01*
X778790Y449605D01*
Y449593D01*
X778787Y449577D01*
Y449557D01*
X778785Y449534D01*
Y449473D01*
X778782Y449435D01*
Y449389D01*
X778780Y449341D01*
Y448648D01*
X779595D01*
Y449237D01*
X779592Y449278D01*
Y449323D01*
X779590Y449372D01*
X779585Y449471D01*
X779582Y449519D01*
X779580Y449565D01*
X779575Y449608D01*
X779570Y449646D01*
X779565Y449679D01*
X779557Y449704D01*
Y449707D01*
X779554Y449709D01*
X779549Y449725D01*
X779539Y449745D01*
X779524Y449770D01*
X779506Y449801D01*
X779481Y449831D01*
X779453Y449859D01*
X779420Y449887D01*
X779415Y449890D01*
X779402Y449897D01*
X779382Y449908D01*
X779354Y449920D01*
X779318Y449933D01*
X779277Y449943D01*
X779232Y449951D01*
X779181Y449953D01*
D02*
G37*
G36*
X796737Y449953D02*
X796734D01*
X796729D01*
X796722D01*
X796709D01*
X796681Y449948D01*
X796643Y449943D01*
X796602Y449933D01*
X796559Y449918D01*
X796516Y449895D01*
X796475Y449867D01*
X796470Y449862D01*
X796460Y449852D01*
X796442Y449831D01*
X796422Y449803D01*
X796399Y449770D01*
X796379Y449727D01*
X796361Y449679D01*
X796348Y449623D01*
Y449613D01*
X796346Y449605D01*
Y449593D01*
X796343Y449577D01*
Y449557D01*
X796341Y449534D01*
Y449473D01*
X796338Y449435D01*
Y449389D01*
X796336Y449341D01*
Y448648D01*
X797151D01*
Y449237D01*
X797148Y449278D01*
Y449323D01*
X797146Y449372D01*
X797141Y449471D01*
X797138Y449519D01*
X797136Y449565D01*
X797131Y449608D01*
X797125Y449646D01*
X797120Y449679D01*
X797113Y449704D01*
Y449707D01*
X797110Y449709D01*
X797105Y449725D01*
X797095Y449745D01*
X797080Y449770D01*
X797062Y449801D01*
X797037Y449831D01*
X797009Y449859D01*
X796976Y449887D01*
X796971Y449890D01*
X796958Y449897D01*
X796937Y449907D01*
X796910Y449920D01*
X796874Y449933D01*
X796833Y449943D01*
X796788Y449951D01*
X796737Y449953D01*
D02*
G37*
G36*
X738289Y365280D02*
X738275D01*
X738240D01*
X738178D01*
X738095Y365273D01*
X737991Y365266D01*
X737873Y365259D01*
X737741Y365245D01*
X737596Y365231D01*
X737443Y365210D01*
X737277Y365183D01*
X737110Y365148D01*
X736937Y365113D01*
X736763Y365065D01*
X736590Y365009D01*
X736417Y364947D01*
X736250Y364878D01*
X736243Y364871D01*
X736209Y364857D01*
X736167Y364836D01*
X736105Y364801D01*
X736035Y364760D01*
X735945Y364711D01*
X735855Y364656D01*
X735751Y364586D01*
X735647Y364510D01*
X735536Y364420D01*
X735425Y364330D01*
X735314Y364226D01*
X735203Y364108D01*
X735092Y363990D01*
X734995Y363858D01*
X734898Y363719D01*
X734891Y363713D01*
X734877Y363685D01*
X734856Y363643D01*
X734822Y363588D01*
X734787Y363512D01*
X734746Y363428D01*
X734697Y363331D01*
X734656Y363220D01*
X734607Y363095D01*
X734565Y362964D01*
X734524Y362825D01*
X734489Y362672D01*
X734454Y362520D01*
X734434Y362354D01*
X734420Y362180D01*
X734413Y362007D01*
Y361944D01*
X734420Y361875D01*
X734427Y361785D01*
X734441Y361667D01*
X734461Y361528D01*
X734489Y361376D01*
X734531Y361216D01*
X734579Y361036D01*
X734642Y360849D01*
X734718Y360662D01*
X734801Y360460D01*
X734912Y360266D01*
X735037Y360072D01*
X735175Y359878D01*
X735342Y359691D01*
X735356Y359677D01*
X735384Y359649D01*
X735439Y359601D01*
X735522Y359538D01*
X735619Y359469D01*
X735751Y359386D01*
X735897Y359296D01*
X736070Y359205D01*
X736271Y359115D01*
X736500Y359025D01*
X736757Y358949D01*
X737034Y358872D01*
X737339Y358810D01*
X737505Y358782D01*
X737672Y358761D01*
X737852Y358741D01*
X738039Y358734D01*
X738227Y358720D01*
X738428D01*
X738435D01*
X738448D01*
X738469D01*
X738504D01*
X738546Y358727D01*
X738594D01*
X738650D01*
X738712Y358734D01*
X738858Y358748D01*
X739031Y358769D01*
X739218Y358796D01*
X739419Y358838D01*
X739634Y358886D01*
X739856Y358949D01*
X740085Y359025D01*
X740314Y359115D01*
X740536Y359219D01*
X740758Y359344D01*
X740966Y359483D01*
X741160Y359649D01*
X741174Y359663D01*
X741201Y359691D01*
X741250Y359746D01*
X741312Y359815D01*
X741389Y359913D01*
X741472Y360017D01*
X741562Y360148D01*
X741652Y360294D01*
X741749Y360453D01*
X741839Y360634D01*
X741923Y360828D01*
X741999Y361036D01*
X742061Y361251D01*
X742110Y361487D01*
X742138Y361736D01*
X742151Y361993D01*
Y362055D01*
X742144Y362090D01*
Y362132D01*
X742138Y362229D01*
X742124Y362354D01*
X742096Y362492D01*
X742068Y362652D01*
X742027Y362825D01*
X741971Y363005D01*
X741909Y363199D01*
X741825Y363394D01*
X741728Y363588D01*
X741610Y363789D01*
X741479Y363983D01*
X741319Y364170D01*
X741146Y364351D01*
X741132Y364364D01*
X741097Y364392D01*
X741042Y364434D01*
X740959Y364496D01*
X740855Y364566D01*
X740730Y364642D01*
X740584Y364732D01*
X740411Y364815D01*
X740217Y364905D01*
X740009Y364988D01*
X739773Y365065D01*
X739516Y365134D01*
X739239Y365196D01*
X738941Y365238D01*
X738629Y365273D01*
X738289Y365280D01*
D02*
G37*
G36*
X563331Y313266D02*
X560738D01*
X560654Y313259D01*
X560557Y313252D01*
X560439Y313238D01*
X560315Y313224D01*
X560176Y313210D01*
X559892Y313155D01*
X559746Y313120D01*
X559600Y313072D01*
X559462Y313023D01*
X559330Y312961D01*
X559212Y312891D01*
X559108Y312808D01*
X559101Y312801D01*
X559087Y312787D01*
X559060Y312760D01*
X559025Y312725D01*
X558990Y312676D01*
X558942Y312621D01*
X558893Y312552D01*
X558845Y312475D01*
X558796Y312385D01*
X558755Y312295D01*
X558706Y312184D01*
X558671Y312073D01*
X558637Y311948D01*
X558609Y311810D01*
X558595Y311671D01*
X558588Y311518D01*
Y311511D01*
Y311491D01*
Y311463D01*
X558595Y311414D01*
Y311366D01*
X558602Y311303D01*
X558616Y311234D01*
X558623Y311165D01*
X558664Y311005D01*
X558720Y310832D01*
X558789Y310658D01*
X558838Y310575D01*
X558893Y310492D01*
Y310485D01*
X558907Y310471D01*
X558928Y310450D01*
X558949Y310423D01*
X559018Y310347D01*
X559108Y310256D01*
X559226Y310166D01*
X559358Y310069D01*
X559517Y309986D01*
X559697Y309923D01*
X559704D01*
X559711Y309917D01*
X559732D01*
X559760Y309910D01*
X559795Y309903D01*
X559843Y309896D01*
X559899Y309889D01*
X559968Y309875D01*
X560044Y309868D01*
X560127Y309861D01*
X560224Y309854D01*
X560336Y309847D01*
X560453Y309840D01*
X560585D01*
X560724Y309833D01*
X563331D01*
Y313266D01*
D02*
G37*
G36*
X702201Y300184D02*
X702183D01*
X702173Y300182D01*
X702158Y300179D01*
X702140Y300176D01*
X702100Y300166D01*
X702051Y300151D01*
X702003Y300126D01*
X701978Y300110D01*
X701952Y300090D01*
X701927Y300070D01*
X701904Y300044D01*
X701901Y300042D01*
X701899Y300037D01*
X701894Y300029D01*
X701886Y300019D01*
X701876Y300004D01*
X701866Y299986D01*
X701856Y299966D01*
X701843Y299940D01*
X701833Y299912D01*
X701820Y299882D01*
X701810Y299849D01*
X701802Y299811D01*
X701792Y299773D01*
X701787Y299729D01*
X701785Y299681D01*
X701782Y299633D01*
Y299630D01*
Y299620D01*
Y299605D01*
X701785Y299585D01*
X701787Y299559D01*
X701790Y299529D01*
X701795Y299498D01*
X701800Y299463D01*
X701815Y299389D01*
X701841Y299310D01*
X701856Y299275D01*
X701873Y299237D01*
X701896Y299204D01*
X701919Y299171D01*
X701922Y299168D01*
X701924Y299163D01*
X701932Y299155D01*
X701945Y299145D01*
X701957Y299132D01*
X701973Y299120D01*
X702011Y299089D01*
X702056Y299059D01*
X702110Y299033D01*
X702138Y299023D01*
X702168Y299016D01*
X702199Y299011D01*
X702232Y299008D01*
X702249D01*
X702260Y299011D01*
X702275Y299013D01*
X702293Y299016D01*
X702331Y299026D01*
X702376Y299041D01*
X702425Y299064D01*
X702448Y299079D01*
X702470Y299097D01*
X702493Y299117D01*
X702516Y299140D01*
X702519Y299143D01*
X702521Y299148D01*
X702526Y299155D01*
X702534Y299165D01*
X702542Y299181D01*
X702552Y299198D01*
X702562Y299221D01*
X702575Y299247D01*
X702585Y299275D01*
X702595Y299308D01*
X702605Y299343D01*
X702613Y299381D01*
X702620Y299427D01*
X702625Y299473D01*
X702630Y299524D01*
Y299580D01*
Y299582D01*
Y299592D01*
Y299610D01*
X702628Y299630D01*
Y299656D01*
X702623Y299686D01*
X702620Y299719D01*
X702615Y299755D01*
X702600Y299828D01*
X702577Y299905D01*
X702564Y299940D01*
X702547Y299976D01*
X702529Y300009D01*
X702506Y300037D01*
X702503Y300039D01*
X702501Y300044D01*
X702493Y300049D01*
X702483Y300060D01*
X702458Y300082D01*
X702422Y300110D01*
X702379Y300138D01*
X702326Y300161D01*
X702298Y300171D01*
X702267Y300179D01*
X702234Y300182D01*
X702201Y300184D01*
D02*
G37*
G36*
X699341Y301220D02*
X698648D01*
Y300405D01*
X699237D01*
X699278Y300408D01*
X699323D01*
X699372Y300410D01*
X699471Y300415D01*
X699519Y300418D01*
X699565Y300420D01*
X699608Y300425D01*
X699646Y300430D01*
X699679Y300436D01*
X699704Y300443D01*
X699707D01*
X699709Y300446D01*
X699725Y300451D01*
X699745Y300461D01*
X699770Y300476D01*
X699801Y300494D01*
X699831Y300519D01*
X699859Y300547D01*
X699887Y300580D01*
X699890Y300585D01*
X699897Y300598D01*
X699908Y300618D01*
X699920Y300646D01*
X699933Y300682D01*
X699943Y300723D01*
X699951Y300768D01*
X699953Y300819D01*
Y300822D01*
Y300827D01*
Y300834D01*
Y300847D01*
X699948Y300875D01*
X699943Y300913D01*
X699933Y300954D01*
X699918Y300997D01*
X699895Y301040D01*
X699867Y301081D01*
X699862Y301086D01*
X699852Y301096D01*
X699831Y301114D01*
X699803Y301134D01*
X699770Y301157D01*
X699727Y301177D01*
X699679Y301195D01*
X699623Y301208D01*
X699613D01*
X699605Y301210D01*
X699593D01*
X699577Y301213D01*
X699557D01*
X699534Y301215D01*
X699473D01*
X699435Y301218D01*
X699389D01*
X699341Y301220D01*
D02*
G37*
G36*
X627298Y355776D02*
X626561Y354684D01*
X627298D01*
Y355776D01*
D02*
G37*
G36*
X624341Y356165D02*
X623648D01*
Y355349D01*
X624237D01*
X624278Y355352D01*
X624323D01*
X624372Y355354D01*
X624471Y355359D01*
X624519Y355362D01*
X624565Y355364D01*
X624608Y355369D01*
X624646Y355374D01*
X624679Y355380D01*
X624704Y355387D01*
X624707D01*
X624709Y355390D01*
X624725Y355395D01*
X624745Y355405D01*
X624770Y355420D01*
X624801Y355438D01*
X624831Y355463D01*
X624859Y355491D01*
X624887Y355524D01*
X624890Y355530D01*
X624897Y355542D01*
X624908Y355563D01*
X624920Y355590D01*
X624933Y355626D01*
X624943Y355667D01*
X624951Y355712D01*
X624953Y355763D01*
Y355766D01*
Y355771D01*
Y355778D01*
Y355791D01*
X624948Y355819D01*
X624943Y355857D01*
X624933Y355898D01*
X624918Y355941D01*
X624895Y355984D01*
X624867Y356025D01*
X624862Y356030D01*
X624852Y356040D01*
X624831Y356058D01*
X624803Y356078D01*
X624770Y356101D01*
X624727Y356121D01*
X624679Y356139D01*
X624623Y356152D01*
X624613D01*
X624605Y356154D01*
X624593D01*
X624577Y356157D01*
X624557D01*
X624534Y356159D01*
X624473D01*
X624435Y356162D01*
X624389D01*
X624341Y356165D01*
D02*
G37*
G36*
X596220Y344352D02*
X595405D01*
Y343763D01*
X595407Y343722D01*
Y343677D01*
X595410Y343628D01*
X595415Y343529D01*
X595418Y343481D01*
X595420Y343435D01*
X595425Y343392D01*
X595430Y343354D01*
X595435Y343321D01*
X595443Y343296D01*
Y343293D01*
X595446Y343291D01*
X595451Y343275D01*
X595461Y343255D01*
X595476Y343230D01*
X595494Y343199D01*
X595519Y343169D01*
X595547Y343141D01*
X595580Y343113D01*
X595585Y343110D01*
X595598Y343103D01*
X595618Y343092D01*
X595646Y343080D01*
X595682Y343067D01*
X595723Y343057D01*
X595768Y343049D01*
X595819Y343047D01*
X595821D01*
X595827D01*
X595834D01*
X595847D01*
X595875Y343052D01*
X595913Y343057D01*
X595954Y343067D01*
X595997Y343082D01*
X596040Y343105D01*
X596081Y343133D01*
X596086Y343138D01*
X596096Y343148D01*
X596114Y343169D01*
X596134Y343197D01*
X596157Y343230D01*
X596177Y343273D01*
X596195Y343321D01*
X596208Y343377D01*
Y343387D01*
X596210Y343395D01*
Y343407D01*
X596213Y343423D01*
Y343443D01*
X596215Y343466D01*
Y343527D01*
X596218Y343565D01*
Y343611D01*
X596220Y343659D01*
Y344352D01*
D02*
G37*
G36*
Y306852D02*
X595405D01*
Y306263D01*
X595407Y306222D01*
Y306177D01*
X595410Y306128D01*
X595415Y306029D01*
X595418Y305981D01*
X595420Y305935D01*
X595425Y305892D01*
X595430Y305854D01*
X595435Y305821D01*
X595443Y305796D01*
Y305793D01*
X595446Y305791D01*
X595451Y305775D01*
X595461Y305755D01*
X595476Y305730D01*
X595494Y305699D01*
X595519Y305669D01*
X595547Y305641D01*
X595580Y305613D01*
X595585Y305610D01*
X595598Y305603D01*
X595618Y305592D01*
X595646Y305580D01*
X595682Y305567D01*
X595723Y305557D01*
X595768Y305549D01*
X595819Y305547D01*
X595821D01*
X595827D01*
X595834D01*
X595847D01*
X595875Y305552D01*
X595913Y305557D01*
X595954Y305567D01*
X595997Y305582D01*
X596040Y305605D01*
X596081Y305633D01*
X596086Y305638D01*
X596096Y305648D01*
X596114Y305669D01*
X596134Y305697D01*
X596157Y305730D01*
X596177Y305773D01*
X596195Y305821D01*
X596208Y305877D01*
Y305887D01*
X596210Y305895D01*
Y305907D01*
X596213Y305923D01*
Y305943D01*
X596215Y305966D01*
Y306027D01*
X596218Y306065D01*
Y306111D01*
X596220Y306159D01*
Y306852D01*
D02*
G37*
G36*
X309119Y434100D02*
X309112D01*
X309091D01*
X309063D01*
X309013Y434093D01*
X308964D01*
X308901Y434086D01*
X308831Y434072D01*
X308760Y434065D01*
X308598Y434023D01*
X308422Y433966D01*
X308246Y433896D01*
X308162Y433847D01*
X308078Y433791D01*
X308071D01*
X308057Y433776D01*
X308036Y433755D01*
X308007Y433734D01*
X307930Y433664D01*
X307838Y433572D01*
X307747Y433453D01*
X307649Y433319D01*
X307564Y433157D01*
X307501Y432974D01*
Y432967D01*
X307494Y432960D01*
Y432939D01*
X307487Y432911D01*
X307480Y432876D01*
X307473Y432827D01*
X307466Y432770D01*
X307451Y432700D01*
X307444Y432623D01*
X307437Y432538D01*
X307430Y432440D01*
X307423Y432327D01*
X307416Y432207D01*
Y432074D01*
X307409Y431933D01*
Y429288D01*
X310892D01*
Y431919D01*
X310885Y432003D01*
X310878Y432102D01*
X310864Y432221D01*
X310850Y432348D01*
X310836Y432489D01*
X310779Y432777D01*
X310744Y432925D01*
X310695Y433073D01*
X310646Y433214D01*
X310582Y433347D01*
X310512Y433467D01*
X310428Y433572D01*
X310421Y433579D01*
X310406Y433593D01*
X310378Y433622D01*
X310343Y433657D01*
X310294Y433692D01*
X310238Y433741D01*
X310167Y433791D01*
X310090Y433840D01*
X309998Y433889D01*
X309907Y433931D01*
X309794Y433980D01*
X309682Y434016D01*
X309555Y434051D01*
X309415Y434079D01*
X309274Y434093D01*
X309119Y434100D01*
D02*
G37*
G36*
X376852Y494651D02*
X376263D01*
X376222Y494648D01*
X376177D01*
X376128Y494646D01*
X376029Y494641D01*
X375981Y494638D01*
X375935Y494636D01*
X375892Y494631D01*
X375854Y494626D01*
X375821Y494620D01*
X375796Y494613D01*
X375793D01*
X375791Y494610D01*
X375775Y494605D01*
X375755Y494595D01*
X375730Y494580D01*
X375699Y494562D01*
X375669Y494537D01*
X375641Y494509D01*
X375613Y494476D01*
X375610Y494470D01*
X375603Y494458D01*
X375592Y494437D01*
X375580Y494410D01*
X375567Y494374D01*
X375557Y494333D01*
X375549Y494288D01*
X375547Y494237D01*
Y494234D01*
Y494229D01*
Y494222D01*
Y494209D01*
X375552Y494181D01*
X375557Y494143D01*
X375567Y494102D01*
X375582Y494059D01*
X375605Y494016D01*
X375633Y493975D01*
X375638Y493970D01*
X375648Y493960D01*
X375669Y493942D01*
X375697Y493922D01*
X375730Y493899D01*
X375773Y493879D01*
X375821Y493861D01*
X375877Y493848D01*
X375887D01*
X375895Y493846D01*
X375907D01*
X375923Y493843D01*
X375943D01*
X375966Y493841D01*
X376027D01*
X376065Y493838D01*
X376111D01*
X376159Y493835D01*
X376852D01*
Y494651D01*
D02*
G37*
G36*
X659287Y413276D02*
X658550Y412184D01*
X659287D01*
Y413276D01*
D02*
G37*
G36*
X653841Y413665D02*
X653148D01*
Y412849D01*
X653737D01*
X653778Y412852D01*
X653823D01*
X653872Y412854D01*
X653971Y412859D01*
X654019Y412862D01*
X654065Y412864D01*
X654108Y412869D01*
X654146Y412874D01*
X654179Y412880D01*
X654204Y412887D01*
X654207D01*
X654209Y412890D01*
X654225Y412895D01*
X654245Y412905D01*
X654270Y412920D01*
X654301Y412938D01*
X654331Y412963D01*
X654359Y412991D01*
X654387Y413024D01*
X654390Y413030D01*
X654397Y413042D01*
X654408Y413063D01*
X654420Y413090D01*
X654433Y413126D01*
X654443Y413167D01*
X654451Y413212D01*
X654453Y413263D01*
Y413266D01*
Y413271D01*
Y413278D01*
Y413291D01*
X654448Y413319D01*
X654443Y413357D01*
X654433Y413398D01*
X654418Y413441D01*
X654395Y413484D01*
X654367Y413525D01*
X654362Y413530D01*
X654352Y413540D01*
X654331Y413558D01*
X654303Y413578D01*
X654270Y413601D01*
X654227Y413621D01*
X654179Y413639D01*
X654123Y413652D01*
X654113D01*
X654105Y413654D01*
X654093D01*
X654077Y413657D01*
X654057D01*
X654034Y413659D01*
X653973D01*
X653935Y413662D01*
X653889D01*
X653841Y413665D01*
D02*
G37*
G36*
X319341Y328665D02*
X318648D01*
Y327849D01*
X319237D01*
X319278Y327852D01*
X319323D01*
X319372Y327854D01*
X319471Y327859D01*
X319519Y327862D01*
X319565Y327864D01*
X319608Y327869D01*
X319646Y327874D01*
X319679Y327880D01*
X319704Y327887D01*
X319707D01*
X319709Y327890D01*
X319725Y327895D01*
X319745Y327905D01*
X319770Y327920D01*
X319801Y327938D01*
X319831Y327963D01*
X319859Y327991D01*
X319887Y328024D01*
X319890Y328030D01*
X319897Y328042D01*
X319908Y328063D01*
X319920Y328090D01*
X319933Y328126D01*
X319943Y328167D01*
X319951Y328212D01*
X319953Y328263D01*
Y328266D01*
Y328271D01*
Y328278D01*
Y328291D01*
X319948Y328319D01*
X319943Y328357D01*
X319933Y328398D01*
X319918Y328441D01*
X319895Y328484D01*
X319867Y328525D01*
X319862Y328530D01*
X319852Y328540D01*
X319831Y328558D01*
X319803Y328578D01*
X319770Y328601D01*
X319727Y328621D01*
X319679Y328639D01*
X319623Y328652D01*
X319613D01*
X319605Y328654D01*
X319593D01*
X319577Y328657D01*
X319557D01*
X319534Y328659D01*
X319473D01*
X319435Y328662D01*
X319389D01*
X319341Y328665D01*
D02*
G37*
G36*
Y351165D02*
X318648D01*
Y350349D01*
X319237D01*
X319278Y350352D01*
X319323D01*
X319372Y350354D01*
X319471Y350359D01*
X319519Y350362D01*
X319565Y350364D01*
X319608Y350369D01*
X319646Y350374D01*
X319679Y350380D01*
X319704Y350387D01*
X319707D01*
X319709Y350390D01*
X319725Y350395D01*
X319745Y350405D01*
X319770Y350420D01*
X319801Y350438D01*
X319831Y350463D01*
X319859Y350491D01*
X319887Y350524D01*
X319890Y350530D01*
X319897Y350542D01*
X319908Y350563D01*
X319920Y350590D01*
X319933Y350626D01*
X319943Y350667D01*
X319951Y350712D01*
X319953Y350763D01*
Y350766D01*
Y350771D01*
Y350778D01*
Y350791D01*
X319948Y350819D01*
X319943Y350857D01*
X319933Y350898D01*
X319918Y350941D01*
X319895Y350984D01*
X319867Y351025D01*
X319862Y351030D01*
X319852Y351040D01*
X319831Y351058D01*
X319803Y351078D01*
X319770Y351101D01*
X319727Y351121D01*
X319679Y351139D01*
X319623Y351152D01*
X319613D01*
X319605Y351154D01*
X319593D01*
X319577Y351157D01*
X319557D01*
X319534Y351159D01*
X319473D01*
X319435Y351162D01*
X319389D01*
X319341Y351165D01*
D02*
G37*
G36*
X653841Y458720D02*
X653148D01*
Y457905D01*
X653737D01*
X653778Y457907D01*
X653823D01*
X653872Y457910D01*
X653971Y457915D01*
X654019Y457918D01*
X654065Y457920D01*
X654108Y457925D01*
X654146Y457930D01*
X654179Y457935D01*
X654204Y457943D01*
X654207D01*
X654209Y457946D01*
X654225Y457951D01*
X654245Y457961D01*
X654270Y457976D01*
X654301Y457994D01*
X654331Y458019D01*
X654359Y458047D01*
X654387Y458080D01*
X654390Y458085D01*
X654397Y458098D01*
X654408Y458118D01*
X654420Y458146D01*
X654433Y458182D01*
X654443Y458223D01*
X654451Y458268D01*
X654453Y458319D01*
Y458322D01*
Y458327D01*
Y458334D01*
Y458347D01*
X654448Y458375D01*
X654443Y458413D01*
X654433Y458454D01*
X654418Y458497D01*
X654395Y458540D01*
X654367Y458581D01*
X654362Y458586D01*
X654352Y458596D01*
X654331Y458614D01*
X654303Y458634D01*
X654270Y458657D01*
X654227Y458677D01*
X654179Y458695D01*
X654123Y458708D01*
X654113D01*
X654105Y458710D01*
X654093D01*
X654077Y458713D01*
X654057D01*
X654034Y458715D01*
X653973D01*
X653935Y458718D01*
X653889D01*
X653841Y458720D01*
D02*
G37*
G36*
X659119Y458764D02*
X659101D01*
X659079Y458761D01*
X659053Y458756D01*
X659020Y458746D01*
X658987Y458733D01*
X658952Y458715D01*
X658919Y458692D01*
X658916Y458690D01*
X658903Y458680D01*
X658888Y458659D01*
X658870Y458634D01*
X658848Y458598D01*
X658825Y458555D01*
X658814Y458527D01*
X658804Y458499D01*
X658794Y458469D01*
X658784Y458436D01*
Y458433D01*
X658781Y458426D01*
X658779Y458410D01*
X658774Y458390D01*
X658769Y458362D01*
X658764Y458332D01*
X658759Y458291D01*
X658754Y458245D01*
X658748Y458195D01*
X658743Y458136D01*
X658738Y458070D01*
X658733Y457996D01*
X658728Y457918D01*
X658726Y457829D01*
X658723Y457735D01*
Y457633D01*
Y457631D01*
Y457628D01*
Y457618D01*
Y457608D01*
Y457595D01*
Y457580D01*
Y457542D01*
X658726Y457496D01*
Y457443D01*
X658728Y457387D01*
X658731Y457326D01*
X658736Y457196D01*
X658741Y457133D01*
X658746Y457069D01*
X658754Y457008D01*
X658761Y456953D01*
X658769Y456902D01*
X658779Y456858D01*
Y456856D01*
X658781Y456848D01*
X658784Y456838D01*
X658789Y456825D01*
X658794Y456808D01*
X658802Y456787D01*
X658817Y456744D01*
X658837Y456696D01*
X658863Y456650D01*
X658891Y456610D01*
X658906Y456592D01*
X658921Y456577D01*
X658926Y456574D01*
X658936Y456566D01*
X658954Y456554D01*
X658980Y456544D01*
X659007Y456531D01*
X659041Y456518D01*
X659079Y456511D01*
X659119Y456508D01*
X659137D01*
X659160Y456511D01*
X659185Y456516D01*
X659216Y456526D01*
X659251Y456536D01*
X659284Y456554D01*
X659317Y456577D01*
X659323Y456579D01*
X659333Y456592D01*
X659348Y456610D01*
X659368Y456635D01*
X659391Y456671D01*
X659414Y456714D01*
X659424Y456742D01*
X659434Y456770D01*
X659444Y456800D01*
X659454Y456833D01*
Y456836D01*
X659457Y456843D01*
X659460Y456858D01*
X659465Y456879D01*
X659470Y456904D01*
X659475Y456937D01*
X659480Y456975D01*
X659488Y457021D01*
X659493Y457074D01*
X659498Y457133D01*
X659503Y457199D01*
X659508Y457270D01*
X659513Y457351D01*
X659516Y457438D01*
X659518Y457532D01*
Y457633D01*
Y457636D01*
Y457641D01*
Y457649D01*
Y457659D01*
Y457671D01*
Y457687D01*
Y457725D01*
X659516Y457770D01*
Y457824D01*
X659513Y457880D01*
X659510Y457941D01*
X659503Y458070D01*
X659500Y458136D01*
X659493Y458197D01*
X659488Y458258D01*
X659480Y458314D01*
X659470Y458365D01*
X659460Y458408D01*
Y458410D01*
X659457Y458418D01*
X659454Y458428D01*
X659449Y458443D01*
X659444Y458459D01*
X659437Y458479D01*
X659421Y458525D01*
X659401Y458571D01*
X659376Y458619D01*
X659348Y458659D01*
X659333Y458677D01*
X659317Y458692D01*
X659312Y458695D01*
X659302Y458703D01*
X659284Y458715D01*
X659261Y458728D01*
X659231Y458741D01*
X659198Y458753D01*
X659160Y458761D01*
X659119Y458764D01*
D02*
G37*
G36*
X653841Y478665D02*
X653148D01*
Y477849D01*
X653737D01*
X653778Y477852D01*
X653823D01*
X653872Y477854D01*
X653971Y477859D01*
X654019Y477862D01*
X654065Y477864D01*
X654108Y477869D01*
X654146Y477874D01*
X654179Y477880D01*
X654204Y477887D01*
X654207D01*
X654209Y477890D01*
X654225Y477895D01*
X654245Y477905D01*
X654270Y477920D01*
X654301Y477938D01*
X654331Y477963D01*
X654359Y477991D01*
X654387Y478024D01*
X654390Y478030D01*
X654397Y478042D01*
X654408Y478063D01*
X654420Y478090D01*
X654433Y478126D01*
X654443Y478167D01*
X654451Y478212D01*
X654453Y478263D01*
Y478266D01*
Y478271D01*
Y478278D01*
Y478291D01*
X654448Y478319D01*
X654443Y478357D01*
X654433Y478398D01*
X654418Y478441D01*
X654395Y478484D01*
X654367Y478525D01*
X654362Y478530D01*
X654352Y478540D01*
X654331Y478558D01*
X654303Y478578D01*
X654270Y478601D01*
X654227Y478621D01*
X654179Y478639D01*
X654123Y478652D01*
X654113D01*
X654105Y478654D01*
X654093D01*
X654077Y478657D01*
X654057D01*
X654034Y478659D01*
X653973D01*
X653935Y478662D01*
X653889D01*
X653841Y478665D01*
D02*
G37*
G36*
Y436220D02*
X653148D01*
Y435405D01*
X653737D01*
X653778Y435407D01*
X653823D01*
X653872Y435410D01*
X653971Y435415D01*
X654019Y435418D01*
X654065Y435420D01*
X654108Y435425D01*
X654146Y435430D01*
X654179Y435435D01*
X654204Y435443D01*
X654207D01*
X654209Y435446D01*
X654225Y435451D01*
X654245Y435461D01*
X654270Y435476D01*
X654301Y435494D01*
X654331Y435519D01*
X654359Y435547D01*
X654387Y435580D01*
X654390Y435585D01*
X654397Y435598D01*
X654408Y435618D01*
X654420Y435646D01*
X654433Y435682D01*
X654443Y435723D01*
X654451Y435768D01*
X654453Y435819D01*
Y435822D01*
Y435827D01*
Y435834D01*
Y435847D01*
X654448Y435875D01*
X654443Y435913D01*
X654433Y435954D01*
X654418Y435997D01*
X654395Y436040D01*
X654367Y436081D01*
X654362Y436086D01*
X654352Y436096D01*
X654331Y436114D01*
X654303Y436134D01*
X654270Y436157D01*
X654227Y436177D01*
X654179Y436195D01*
X654123Y436208D01*
X654113D01*
X654105Y436210D01*
X654093D01*
X654077Y436213D01*
X654057D01*
X654034Y436215D01*
X653973D01*
X653935Y436218D01*
X653889D01*
X653841Y436220D01*
D02*
G37*
%LPD*%
D41*
X655500Y312750D02*
G03*
X655500Y312750I-4000J0D01*
G01*
Y294750D02*
G03*
X655500Y294750I-4000J0D01*
G01*
X403350Y547950D02*
X413350Y557950D01*
X415850D01*
X403350Y417950D02*
Y557950D01*
Y417950D02*
X588350D01*
Y557950D01*
X403350D02*
X588350D01*
X379000Y539000D02*
Y551000D01*
X350000Y539000D02*
Y551000D01*
Y539000D02*
X379000D01*
X350000Y551000D02*
X379000D01*
Y511500D02*
Y523500D01*
X350000Y511500D02*
Y523500D01*
Y511500D02*
X379000D01*
X350000Y523500D02*
X379000D01*
X771500Y447000D02*
X783500D01*
X771500Y476000D02*
X783500D01*
X771500Y447000D02*
Y476000D01*
X783500Y447000D02*
Y476000D01*
X789000Y447000D02*
X801000D01*
X789000Y476000D02*
X801000D01*
X789000Y447000D02*
Y476000D01*
X801000Y447000D02*
Y476000D01*
X748240Y342750D02*
Y482750D01*
X723240Y342750D02*
Y482750D01*
Y342750D02*
X748240D01*
X723240Y350750D02*
X730740Y343250D01*
X723240Y482750D02*
Y612750D01*
X748240D01*
Y482750D02*
Y612750D01*
X621500Y282750D02*
Y323750D01*
X680500Y282750D02*
Y323750D01*
X621500D02*
X680500D01*
X621500Y282750D02*
X680500D01*
X432000Y589000D02*
X461000D01*
X432000Y601000D02*
X461000D01*
Y589000D02*
Y601000D01*
X432000Y589000D02*
Y601000D01*
X431500Y611500D02*
X460500D01*
X431500Y623500D02*
X460500D01*
Y611500D02*
Y623500D01*
X431500Y611500D02*
Y623500D01*
X429600Y323300D02*
X569600D01*
X429600Y298300D02*
X569600D01*
X429600D02*
Y323300D01*
X569600Y298300D02*
Y323300D01*
X561600Y298300D02*
X569100Y305800D01*
X697000Y296500D02*
Y308500D01*
X726000Y296500D02*
Y308500D01*
X697000D02*
X726000D01*
X697000Y296500D02*
X726000D01*
X622000Y351500D02*
Y363500D01*
X651000Y351500D02*
Y363500D01*
X622000D02*
X651000D01*
X622000Y351500D02*
X651000D01*
X591500Y346000D02*
X603500D01*
X591500Y317000D02*
X603500D01*
Y346000D01*
X591500Y317000D02*
Y346000D01*
Y308500D02*
X603500D01*
X591500Y279500D02*
X603500D01*
Y308500D01*
X591500Y279500D02*
Y308500D01*
X471000Y607500D02*
X509000D01*
Y587500D02*
Y607500D01*
X471000Y587500D02*
X509000D01*
X471000D02*
Y607500D01*
X475000Y607500D02*
Y607500D01*
X471000Y603500D02*
X475000Y607500D01*
X290900Y555500D02*
X321000D01*
X290900Y425500D02*
X321000D01*
X290900D02*
Y555500D01*
X321000Y425500D02*
Y555500D01*
X291000Y433000D02*
X298500Y425500D01*
X378500Y486500D02*
Y498500D01*
X349500Y486500D02*
Y498500D01*
Y486500D02*
X378500D01*
X349500Y498500D02*
X378500D01*
X691000Y356500D02*
Y385500D01*
X679000Y356500D02*
Y385500D01*
X691000D01*
X679000Y356500D02*
X691000D01*
X651500Y409000D02*
Y421000D01*
X680500Y409000D02*
Y421000D01*
X651500D02*
X680500D01*
X651500Y409000D02*
X680500D01*
X317000Y324000D02*
Y336000D01*
X346000Y324000D02*
Y336000D01*
X317000D02*
X346000D01*
X317000Y324000D02*
X346000D01*
X317000Y346500D02*
Y358500D01*
X346000Y346500D02*
Y358500D01*
X317000D02*
X346000D01*
X317000Y346500D02*
X346000D01*
X304220Y370460D02*
X307720Y373960D01*
Y370460D02*
Y386460D01*
X291720D02*
X307720D01*
X291720Y370460D02*
Y386460D01*
Y370460D02*
X307720D01*
X651500Y454000D02*
Y466000D01*
X680500Y454000D02*
Y466000D01*
X651500D02*
X680500D01*
X651500Y454000D02*
X680500D01*
X651500Y474000D02*
Y486000D01*
X680500Y474000D02*
Y486000D01*
X651500D02*
X680500D01*
X651500Y474000D02*
X680500D01*
X651500Y431500D02*
Y443500D01*
X680500Y431500D02*
Y443500D01*
X651500D02*
X680500D01*
X651500Y431500D02*
X680500D01*
X474000Y595833D02*
Y596499D01*
X474666D01*
Y595833D01*
X474000D01*
X477332Y599832D02*
Y595833D01*
X479332D01*
X479998Y596499D01*
Y599165D01*
X479332Y599832D01*
X477332D01*
X483330Y595833D02*
X481997D01*
X481331Y596499D01*
Y597832D01*
X481997Y598499D01*
X483330D01*
X483997Y597832D01*
Y597166D01*
X481331D01*
X485330Y595833D02*
X487329D01*
X487995Y596499D01*
X487329Y597166D01*
X485996D01*
X485330Y597832D01*
X485996Y598499D01*
X487995D01*
X490661Y594500D02*
X491328D01*
X491994Y595166D01*
Y598499D01*
X489995D01*
X489328Y597832D01*
Y596499D01*
X489995Y595833D01*
X491994D01*
X493327D02*
X494660D01*
X493993D01*
Y598499D01*
X493327D01*
X496659Y595833D02*
Y598499D01*
X498659D01*
X499325Y597832D01*
Y595833D01*
X501324Y598499D02*
X502657D01*
X503324Y597832D01*
Y595833D01*
X501324D01*
X500658Y596499D01*
X501324Y597166D01*
X503324D01*
X505323Y599165D02*
Y598499D01*
X504657D01*
X505990D01*
X505323D01*
Y596499D01*
X505990Y595833D01*
X508655D02*
X509988D01*
X510655Y596499D01*
Y597832D01*
X509988Y598499D01*
X508655D01*
X507989Y597832D01*
Y596499D01*
X508655Y595833D01*
X511988Y598499D02*
Y595833D01*
Y597166D01*
X512654Y597832D01*
X513321Y598499D01*
X513987D01*
X302720Y376211D02*
Y380210D01*
X300054D01*
X296056Y376211D02*
X298721D01*
Y380210D01*
X296056D01*
X298721Y378211D02*
X297388D01*
X294723Y376211D02*
Y380210D01*
X292723D01*
X292057Y379544D01*
Y376878D01*
X292723Y376211D01*
X294723D01*
X290724Y380210D02*
X289391D01*
X290058D01*
Y376211D01*
X290724Y376878D01*
M02*
