G04*
G04 #@! TF.GenerationSoftware,Altium Limited,Altium Designer,22.9.1 (49)*
G04*
G04 Layer_Color=8421504*
%FSLAX44Y44*%
%MOMM*%
G71*
G04*
G04 #@! TF.SameCoordinates,EB67C6D0-91D5-4CF3-8B5F-14A5E2A69FE3*
G04*
G04*
G04 #@! TF.FilePolarity,Positive*
G04*
G01*
G75*
G04:AMPARAMS|DCode=11|XSize=1.27mm|YSize=0.61mm|CornerRadius=0.1525mm|HoleSize=0mm|Usage=FLASHONLY|Rotation=270.000|XOffset=0mm|YOffset=0mm|HoleType=Round|Shape=RoundedRectangle|*
%AMROUNDEDRECTD11*
21,1,1.2700,0.3050,0,0,270.0*
21,1,0.9650,0.6100,0,0,270.0*
1,1,0.3050,-0.1525,-0.4825*
1,1,0.3050,-0.1525,0.4825*
1,1,0.3050,0.1525,0.4825*
1,1,0.3050,0.1525,-0.4825*
%
%ADD11ROUNDEDRECTD11*%
G04:AMPARAMS|DCode=12|XSize=1.27mm|YSize=0.61mm|CornerRadius=0.1525mm|HoleSize=0mm|Usage=FLASHONLY|Rotation=0.000|XOffset=0mm|YOffset=0mm|HoleType=Round|Shape=RoundedRectangle|*
%AMROUNDEDRECTD12*
21,1,1.2700,0.3050,0,0,0.0*
21,1,0.9650,0.6100,0,0,0.0*
1,1,0.3050,0.4825,-0.1525*
1,1,0.3050,-0.4825,-0.1525*
1,1,0.3050,-0.4825,0.1525*
1,1,0.3050,0.4825,0.1525*
%
%ADD12ROUNDEDRECTD12*%
%ADD13R,1.0000X1.0000*%
%ADD14R,1.0000X1.0000*%
%ADD15R,3.5600X1.2700*%
%ADD16R,3.5600X1.2700*%
%ADD17R,0.9500X1.4000*%
%ADD18R,1.1500X0.7500*%
%ADD19R,1.2700X3.5600*%
%ADD20R,1.2700X3.5600*%
G04:AMPARAMS|DCode=21|XSize=1.1mm|YSize=1.9mm|CornerRadius=0.275mm|HoleSize=0mm|Usage=FLASHONLY|Rotation=0.000|XOffset=0mm|YOffset=0mm|HoleType=Round|Shape=RoundedRectangle|*
%AMROUNDEDRECTD21*
21,1,1.1000,1.3500,0,0,0.0*
21,1,0.5500,1.9000,0,0,0.0*
1,1,0.5500,0.2750,-0.6750*
1,1,0.5500,-0.2750,-0.6750*
1,1,0.5500,-0.2750,0.6750*
1,1,0.5500,0.2750,0.6750*
%
%ADD21ROUNDEDRECTD21*%
%ADD22R,2.9600X1.2700*%
%ADD23R,0.6500X0.8500*%
D11*
X569850Y421750D02*
D03*
X560850D02*
D03*
X551850D02*
D03*
X533750D02*
D03*
X506750D02*
D03*
X515750D02*
D03*
X524750D02*
D03*
X542850D02*
D03*
X497750D02*
D03*
X488750D02*
D03*
X479650D02*
D03*
X470650D02*
D03*
X461650D02*
D03*
X452650D02*
D03*
X569850Y554150D02*
D03*
X560850D02*
D03*
X551850D02*
D03*
X533750D02*
D03*
X506750D02*
D03*
X515750D02*
D03*
X524750D02*
D03*
X542850D02*
D03*
X497750D02*
D03*
X488750D02*
D03*
X479650D02*
D03*
X470650D02*
D03*
X461650D02*
D03*
X452650D02*
D03*
D12*
X584550Y469950D02*
D03*
Y460950D02*
D03*
Y433850D02*
D03*
Y424850D02*
D03*
Y442850D02*
D03*
Y451850D02*
D03*
Y478950D02*
D03*
Y487950D02*
D03*
Y551050D02*
D03*
Y542050D02*
D03*
Y515050D02*
D03*
Y505950D02*
D03*
Y496950D02*
D03*
Y524050D02*
D03*
Y533050D02*
D03*
D13*
X373000Y545000D02*
D03*
X356000D02*
D03*
X373000Y517500D02*
D03*
X356000D02*
D03*
X455000Y595000D02*
D03*
X438000D02*
D03*
X454500Y617500D02*
D03*
X437500D02*
D03*
X703000Y302500D02*
D03*
X720000D02*
D03*
X628000Y357500D02*
D03*
X645000D02*
D03*
X372500Y492500D02*
D03*
X355500D02*
D03*
X657500Y415000D02*
D03*
X674500D02*
D03*
X323000Y330000D02*
D03*
X340000D02*
D03*
X323000Y352500D02*
D03*
X340000D02*
D03*
X657500Y460000D02*
D03*
X674500D02*
D03*
X657500Y480000D02*
D03*
X674500D02*
D03*
X657500Y437500D02*
D03*
X674500D02*
D03*
D14*
X777500Y453000D02*
D03*
Y470000D02*
D03*
X795000Y453000D02*
D03*
Y470000D02*
D03*
X597500Y340000D02*
D03*
Y323000D02*
D03*
Y302500D02*
D03*
Y285500D02*
D03*
X685000Y379500D02*
D03*
Y362500D02*
D03*
D15*
X723240Y412750D02*
D03*
Y514350D02*
D03*
D16*
Y463550D02*
D03*
X749940Y438150D02*
D03*
X723240Y361950D02*
D03*
X749940Y387350D02*
D03*
Y539750D02*
D03*
Y488950D02*
D03*
Y590550D02*
D03*
X723240Y565150D02*
D03*
D17*
X672250Y303750D02*
D03*
X630750D02*
D03*
D18*
X667250Y319000D02*
D03*
X635750D02*
D03*
X667250Y288500D02*
D03*
X635750D02*
D03*
D19*
X499600Y298300D02*
D03*
D20*
X448800D02*
D03*
X474200Y325000D02*
D03*
X550400Y298300D02*
D03*
X525000Y325000D02*
D03*
D21*
X477500Y597500D02*
D03*
X502500D02*
D03*
D22*
X323800Y465100D02*
D03*
X291000Y439700D02*
D03*
Y541300D02*
D03*
X323800Y515900D02*
D03*
X291000Y490500D02*
D03*
D23*
X295470Y385710D02*
D03*
X303970D02*
D03*
X295470Y371210D02*
D03*
X303970D02*
D03*
M02*
