M48
;Layer_Color=9474304
;FILE_FORMAT=4:4
METRIC,LZ
;TYPE=PLATED
T1F00S00C0.3048
%
T01
X0045Y007475
X005225Y00745
X00545Y0075
X005525Y0076
X006025Y0075
X00615Y007475
X006607Y006818
X006825Y006775
X0071675Y0068175
X007675Y006875
X0074825Y0075325
X003825Y0064
X004225Y008275
X004728Y008125
X00475Y00965
X0043Y009725
X00563372Y00971296
X00568706Y00985012
X00550672Y01009904
X00575Y009225
X005875Y0093
X006325Y009625
X00636778Y00971296
X00665Y0098
X006575Y00995
X00677534Y00965034
X00675Y009425
X0072Y009775
X00770052Y00987552
X006575Y00865
X00645Y008175
X00795Y00815
M30
