G04*
G04 #@! TF.GenerationSoftware,Altium Limited,Altium Designer,22.9.1 (49)*
G04*
G04 Layer_Physical_Order=1*
G04 Layer_Color=255*
%FSLAX44Y44*%
%MOMM*%
G71*
G04*
G04 #@! TF.SameCoordinates,C56BC410-7C05-4C87-A6CA-29577A5DDFC1*
G04*
G04*
G04 #@! TF.FilePolarity,Positive*
G04*
G01*
G75*
%ADD13R,1.2700X3.5600*%
%ADD14R,1.2700X3.5600*%
%ADD15R,0.8500X0.6500*%
%ADD16R,2.9600X1.2700*%
%ADD17R,1.0000X1.0000*%
G04:AMPARAMS|DCode=18|XSize=1.27mm|YSize=0.61mm|CornerRadius=0.1525mm|HoleSize=0mm|Usage=FLASHONLY|Rotation=0.000|XOffset=0mm|YOffset=0mm|HoleType=Round|Shape=RoundedRectangle|*
%AMROUNDEDRECTD18*
21,1,1.2700,0.3050,0,0,0.0*
21,1,0.9650,0.6100,0,0,0.0*
1,1,0.3050,0.4825,-0.1525*
1,1,0.3050,-0.4825,-0.1525*
1,1,0.3050,-0.4825,0.1525*
1,1,0.3050,0.4825,0.1525*
%
%ADD18ROUNDEDRECTD18*%
G04:AMPARAMS|DCode=19|XSize=1.27mm|YSize=0.61mm|CornerRadius=0.1525mm|HoleSize=0mm|Usage=FLASHONLY|Rotation=90.000|XOffset=0mm|YOffset=0mm|HoleType=Round|Shape=RoundedRectangle|*
%AMROUNDEDRECTD19*
21,1,1.2700,0.3050,0,0,90.0*
21,1,0.9650,0.6100,0,0,90.0*
1,1,0.3050,0.1525,0.4825*
1,1,0.3050,0.1525,-0.4825*
1,1,0.3050,-0.1525,-0.4825*
1,1,0.3050,-0.1525,0.4825*
%
%ADD19ROUNDEDRECTD19*%
%ADD20R,1.0000X1.0000*%
G04:AMPARAMS|DCode=21|XSize=1.1mm|YSize=1.9mm|CornerRadius=0.275mm|HoleSize=0mm|Usage=FLASHONLY|Rotation=270.000|XOffset=0mm|YOffset=0mm|HoleType=Round|Shape=RoundedRectangle|*
%AMROUNDEDRECTD21*
21,1,1.1000,1.3500,0,0,270.0*
21,1,0.5500,1.9000,0,0,270.0*
1,1,0.5500,-0.6750,-0.2750*
1,1,0.5500,-0.6750,0.2750*
1,1,0.5500,0.6750,0.2750*
1,1,0.5500,0.6750,-0.2750*
%
%ADD21ROUNDEDRECTD21*%
%ADD22R,0.9500X1.4000*%
%ADD23R,1.1500X0.7500*%
%ADD24R,3.5600X1.2700*%
%ADD25R,3.5600X1.2700*%
%ADD40C,0.1524*%
%ADD41C,0.6096*%
G36*
X810856Y621643D02*
X326643D01*
Y1095856D01*
X810856D01*
Y621643D01*
D02*
G37*
%LPC*%
G36*
X774540Y1057540D02*
X769020D01*
Y1053020D01*
X774540D01*
Y1057540D01*
D02*
G37*
G36*
X766480D02*
X760960D01*
Y1053020D01*
X766480D01*
Y1057540D01*
D02*
G37*
G36*
X774540Y1050480D02*
X767750D01*
X760960D01*
Y1045960D01*
X761976D01*
Y1038476D01*
X773524D01*
Y1045960D01*
X774540D01*
Y1050480D01*
D02*
G37*
G36*
X788024Y1056524D02*
X776476D01*
Y1046976D01*
Y1038476D01*
X779919D01*
Y1021024D01*
X773476D01*
Y1007976D01*
X786524D01*
Y1021024D01*
X784581D01*
Y1038476D01*
X788024D01*
Y1043253D01*
X789197Y1043739D01*
X792635Y1040302D01*
Y1020837D01*
X788442D01*
Y1007789D01*
X801490D01*
Y1020837D01*
X797296D01*
Y1041267D01*
X797119Y1042159D01*
X796614Y1042915D01*
X788619Y1050910D01*
X788024Y1051307D01*
Y1056524D01*
D02*
G37*
G36*
X668974Y1057624D02*
X653226D01*
Y1018976D01*
X668974D01*
Y1035969D01*
X698234D01*
X709476Y1024728D01*
Y1017476D01*
X724024D01*
Y1020419D01*
X740976D01*
Y1017476D01*
X750919D01*
Y1016024D01*
X746976D01*
Y1003737D01*
X746931Y1003512D01*
Y1000264D01*
X746602Y999934D01*
X746097Y999178D01*
X745919Y998286D01*
Y997524D01*
X740976D01*
Y994581D01*
X724024D01*
Y997524D01*
X709476D01*
Y986976D01*
X714419D01*
Y980750D01*
X714596Y979858D01*
X715102Y979102D01*
X715535Y978669D01*
X715428Y978409D01*
Y976591D01*
X716124Y974910D01*
X717410Y973624D01*
X719091Y972928D01*
X720909D01*
X722590Y973624D01*
X723876Y974910D01*
X724572Y976591D01*
Y978409D01*
X723876Y980090D01*
X722590Y981376D01*
X720909Y982072D01*
X719091D01*
X719081Y982079D01*
Y986976D01*
X724024D01*
Y989919D01*
X740976D01*
Y986976D01*
X755524D01*
Y997524D01*
X753417D01*
X753276Y997609D01*
X752693Y998794D01*
X752834Y998976D01*
X759524D01*
Y1016024D01*
X755581D01*
Y1019750D01*
X755524Y1020036D01*
Y1028024D01*
X740976D01*
Y1025081D01*
X724024D01*
Y1028024D01*
X712772D01*
X700848Y1039948D01*
X700091Y1040453D01*
X699200Y1040631D01*
X668974D01*
Y1057624D01*
D02*
G37*
G36*
X786524Y1004024D02*
X773476D01*
Y994272D01*
X771220Y992017D01*
X770961Y992124D01*
X769142D01*
X767462Y991428D01*
X766176Y990142D01*
X765480Y988461D01*
Y986643D01*
X766176Y984962D01*
X767462Y983676D01*
X769142Y982980D01*
X770961D01*
X772642Y983676D01*
X773928Y984962D01*
X774624Y986643D01*
Y988461D01*
X774517Y988720D01*
X776772Y990976D01*
X786524D01*
Y1004024D01*
D02*
G37*
G36*
X718024Y1016024D02*
X705476D01*
Y1003593D01*
X681262D01*
X680370Y1003416D01*
X679614Y1002910D01*
X670552Y993848D01*
X670047Y993092D01*
X669870Y992200D01*
Y983257D01*
X668600Y982866D01*
X667590Y983876D01*
X665909Y984572D01*
X664090D01*
X662410Y983876D01*
X661124Y982590D01*
X661101Y982533D01*
X659831Y982786D01*
Y991016D01*
X660090Y991124D01*
X661376Y992410D01*
X662072Y994090D01*
Y995909D01*
X661376Y997590D01*
X660090Y998876D01*
X658409Y999572D01*
X656590D01*
X654910Y998876D01*
X653624Y997590D01*
X652928Y995909D01*
Y994090D01*
X653624Y992410D01*
X654910Y991124D01*
X655169Y991016D01*
Y910000D01*
X655347Y909108D01*
X655852Y908352D01*
X675976Y888228D01*
Y878476D01*
X689024D01*
Y891524D01*
X679272D01*
X659831Y910966D01*
Y977214D01*
X661101Y977467D01*
X661124Y977410D01*
X662410Y976124D01*
X662669Y976017D01*
Y930500D01*
X662847Y929608D01*
X663352Y928852D01*
X673976Y918228D01*
Y908476D01*
X687024D01*
Y921524D01*
X677272D01*
X667331Y931466D01*
Y976017D01*
X667590Y976124D01*
X668600Y977134D01*
X669870Y976743D01*
Y945300D01*
X670047Y944408D01*
X670537Y943674D01*
X670428Y943409D01*
Y941591D01*
X671124Y939910D01*
X672410Y938624D01*
X674091Y937928D01*
X675909D01*
X677590Y938624D01*
X678876Y939910D01*
X679572Y941591D01*
Y943409D01*
X678876Y945090D01*
X677590Y946376D01*
X675909Y947072D01*
X674531D01*
Y959955D01*
X675801Y960804D01*
X676625Y960462D01*
X678444D01*
X680124Y961158D01*
X681410Y962445D01*
X682106Y964125D01*
Y965204D01*
X794073D01*
X794965Y965381D01*
X795721Y965886D01*
X796614Y966779D01*
X797119Y967535D01*
X797296Y968427D01*
Y990789D01*
X801490D01*
Y1003837D01*
X788442D01*
Y990789D01*
X792635D01*
Y969865D01*
X678427D01*
X677535Y969688D01*
X677413Y969606D01*
X676625D01*
X675801Y969265D01*
X674531Y970114D01*
Y991235D01*
X682228Y998931D01*
X707762D01*
X707987Y998976D01*
X718024D01*
Y1016024D01*
D02*
G37*
G36*
X401024Y983974D02*
X362376D01*
Y968226D01*
X401024D01*
Y970169D01*
X426017D01*
X426124Y969910D01*
X427410Y968624D01*
X429091Y967928D01*
X430909D01*
X432590Y968624D01*
X433876Y969910D01*
X434572Y971591D01*
Y973409D01*
X433876Y975090D01*
X432590Y976376D01*
X430909Y977072D01*
X429091D01*
X427410Y976376D01*
X426124Y975090D01*
X426017Y974831D01*
X401024D01*
Y983974D01*
D02*
G37*
G36*
X561594Y1088181D02*
X474726D01*
X473834Y1088003D01*
X473078Y1087498D01*
X472824Y1087244D01*
X472319Y1086488D01*
X472141Y1085596D01*
Y1043940D01*
X472319Y1043048D01*
X472824Y1042292D01*
X473078Y1042038D01*
X473834Y1041533D01*
X474726Y1041355D01*
X500826D01*
Y1018976D01*
X516574D01*
Y1057624D01*
X500826D01*
Y1046017D01*
X491174D01*
Y1062691D01*
X518211D01*
X521417Y1059484D01*
Y1025652D01*
X521595Y1024760D01*
X522100Y1024004D01*
X553869Y992234D01*
Y966073D01*
X553485Y965997D01*
X552477Y965323D01*
X552464Y965303D01*
X550936D01*
X550923Y965323D01*
X549915Y965997D01*
X549531Y966073D01*
Y981202D01*
X549353Y982094D01*
X548848Y982850D01*
X519892Y1011806D01*
X519136Y1012311D01*
X518244Y1012489D01*
X467186D01*
X461871Y1017803D01*
X462357Y1018976D01*
X465774D01*
Y1057624D01*
X450026D01*
Y1018976D01*
X455569D01*
Y1018478D01*
X455747Y1017586D01*
X456252Y1016830D01*
X464572Y1008510D01*
X465328Y1008005D01*
X466220Y1007827D01*
X517278D01*
X544869Y980237D01*
Y966073D01*
X544485Y965997D01*
X543477Y965323D01*
X543464Y965304D01*
X541936D01*
X541923Y965323D01*
X540915Y965997D01*
X539725Y966234D01*
X536675D01*
X535485Y965997D01*
X534477Y965323D01*
X534414Y965228D01*
X532886D01*
X532823Y965323D01*
X531814Y965997D01*
X530625Y966234D01*
X527575D01*
X526385Y965997D01*
X525377Y965323D01*
X525364Y965304D01*
X523836D01*
X523823Y965323D01*
X522815Y965997D01*
X521625Y966234D01*
X518575D01*
X517385Y965997D01*
X516377Y965323D01*
X516364Y965303D01*
X514836D01*
X514823Y965323D01*
X513815Y965997D01*
X512625Y966234D01*
X509575D01*
X508385Y965997D01*
X507377Y965323D01*
X507364Y965304D01*
X505836D01*
X505823Y965323D01*
X504815Y965997D01*
X504431Y966073D01*
Y974725D01*
X504253Y975617D01*
X503748Y976373D01*
X500573Y979548D01*
X499817Y980053D01*
X498925Y980231D01*
X474105D01*
X434831Y1019505D01*
Y1045676D01*
X440374D01*
Y1084324D01*
X424626D01*
Y1045676D01*
X430169D01*
Y1018540D01*
X430347Y1017648D01*
X430852Y1016892D01*
X471492Y976252D01*
X472248Y975747D01*
X473140Y975569D01*
X497960D01*
X499769Y973760D01*
Y966073D01*
X499385Y965997D01*
X498377Y965323D01*
X498364Y965303D01*
X496836D01*
X496823Y965323D01*
X495815Y965997D01*
X494625Y966234D01*
X491575D01*
X490385Y965997D01*
X489377Y965323D01*
X488703Y964314D01*
X488466Y963125D01*
Y960631D01*
X482666D01*
X479465Y963831D01*
X479572Y964091D01*
Y965909D01*
X478876Y967590D01*
X477590Y968876D01*
X475909Y969572D01*
X474091D01*
X472410Y968876D01*
X471124Y967590D01*
X470428Y965909D01*
Y964091D01*
X471124Y962410D01*
X472410Y961124D01*
X474091Y960428D01*
X475909D01*
X476169Y960535D01*
X480052Y956652D01*
X480808Y956146D01*
X481700Y955969D01*
X488466D01*
Y953475D01*
X488703Y952285D01*
X489377Y951277D01*
X490385Y950603D01*
X491575Y950366D01*
X494625D01*
X495815Y950603D01*
X496823Y951277D01*
X496836Y951296D01*
X498364D01*
X498377Y951277D01*
X499385Y950603D01*
X500575Y950366D01*
X503625D01*
X504815Y950603D01*
X505823Y951277D01*
X505836Y951296D01*
X507364D01*
X507377Y951277D01*
X508385Y950603D01*
X508769Y950526D01*
Y884122D01*
X508946Y883230D01*
X509452Y882474D01*
X516999Y874927D01*
X516373Y873756D01*
X516000Y873831D01*
X497774D01*
X497697Y874215D01*
X497023Y875223D01*
X497004Y875236D01*
Y876764D01*
X497023Y876777D01*
X497697Y877785D01*
X497934Y878975D01*
Y882025D01*
X497697Y883215D01*
X497023Y884223D01*
X497004Y884236D01*
Y885764D01*
X497023Y885777D01*
X497697Y886785D01*
X497934Y887975D01*
Y891025D01*
X497697Y892215D01*
X497023Y893223D01*
X497004Y893236D01*
Y894764D01*
X497023Y894777D01*
X497697Y895786D01*
X497934Y896975D01*
Y900025D01*
X497697Y901215D01*
X497023Y902223D01*
X497004Y902236D01*
Y903764D01*
X497023Y903777D01*
X497697Y904785D01*
X497934Y905975D01*
Y909025D01*
X497697Y910214D01*
X497023Y911223D01*
X496929Y911286D01*
Y912814D01*
X497023Y912877D01*
X497697Y913885D01*
X497934Y915075D01*
Y918125D01*
X497697Y919315D01*
X497023Y920323D01*
X497004Y920336D01*
Y921864D01*
X497023Y921877D01*
X497697Y922885D01*
X497934Y924075D01*
Y927125D01*
X497697Y928315D01*
X497023Y929323D01*
X497004Y929336D01*
Y930864D01*
X497023Y930877D01*
X497697Y931886D01*
X497934Y933075D01*
Y936125D01*
X497697Y937315D01*
X497023Y938323D01*
X497004Y938336D01*
Y939864D01*
X497023Y939877D01*
X497697Y940885D01*
X497934Y942075D01*
Y945125D01*
X497697Y946314D01*
X497023Y947323D01*
X496015Y947997D01*
X494825Y948234D01*
X485363D01*
X481248Y952348D01*
X480492Y952853D01*
X479600Y953031D01*
X374324D01*
Y958574D01*
X335676D01*
Y942826D01*
X374324D01*
Y948369D01*
X478634D01*
X482066Y944937D01*
Y942075D01*
X482303Y940885D01*
X482977Y939877D01*
X482996Y939864D01*
Y938336D01*
X482977Y938323D01*
X482303Y937315D01*
X482227Y936931D01*
X412100D01*
X411208Y936753D01*
X410452Y936248D01*
X402294Y928090D01*
X401024Y928616D01*
Y933174D01*
X362376D01*
Y917426D01*
X399834D01*
X400360Y916156D01*
X386435Y902231D01*
X374324D01*
Y907774D01*
X335676D01*
Y892026D01*
X374324D01*
Y897569D01*
X387400D01*
X388292Y897747D01*
X389048Y898252D01*
X414065Y923269D01*
X482227D01*
X482303Y922885D01*
X482977Y921877D01*
X482996Y921864D01*
Y920336D01*
X482977Y920323D01*
X482303Y919315D01*
X482227Y918931D01*
X416600D01*
X415708Y918754D01*
X414952Y918248D01*
X397090Y900386D01*
X396585Y899630D01*
X396407Y898738D01*
Y882374D01*
X362376D01*
Y866626D01*
X396254D01*
X396740Y865453D01*
X382717Y851431D01*
X374324D01*
Y856974D01*
X335676D01*
Y841226D01*
X374324D01*
Y846769D01*
X383683D01*
X384575Y846947D01*
X385331Y847452D01*
X395482Y857603D01*
X395601Y857552D01*
X396530Y856855D01*
X396407Y856238D01*
Y831574D01*
X362376D01*
Y815826D01*
X396253D01*
X396739Y814653D01*
X382717Y800631D01*
X374324D01*
Y806174D01*
X335676D01*
Y790426D01*
X374324D01*
Y795969D01*
X381370D01*
X381856Y794796D01*
X380052Y792992D01*
X379547Y792236D01*
X379369Y791344D01*
Y780774D01*
X362376D01*
Y765026D01*
X396253D01*
X396739Y763853D01*
X382717Y749831D01*
X374324D01*
Y755374D01*
X335676D01*
Y739626D01*
X374324D01*
Y745169D01*
X383683D01*
X384575Y745347D01*
X385331Y745852D01*
X472548Y833069D01*
X482227D01*
X482303Y832685D01*
X482977Y831677D01*
X482996Y831664D01*
Y830136D01*
X482977Y830123D01*
X482303Y829115D01*
X482066Y827925D01*
Y825063D01*
X473968Y816965D01*
X473709Y817072D01*
X471890D01*
X470210Y816376D01*
X468924Y815090D01*
X468228Y813409D01*
Y811591D01*
X468924Y809910D01*
X470210Y808624D01*
X471890Y807928D01*
X473709D01*
X475390Y808624D01*
X476676Y809910D01*
X477372Y811591D01*
Y813409D01*
X477265Y813669D01*
X485363Y821767D01*
X494825D01*
X496015Y822003D01*
X497023Y822677D01*
X497697Y823686D01*
X497934Y824875D01*
Y827925D01*
X497697Y829115D01*
X497023Y830123D01*
X497004Y830136D01*
Y831664D01*
X497023Y831677D01*
X497697Y832685D01*
X497934Y833875D01*
Y836925D01*
X497697Y838115D01*
X497023Y839123D01*
X497004Y839136D01*
Y840664D01*
X497023Y840677D01*
X497697Y841685D01*
X497934Y842875D01*
Y845925D01*
X497697Y847115D01*
X497023Y848123D01*
X497707Y848911D01*
X497754Y848943D01*
X497756Y848944D01*
X498654Y850289D01*
X498970Y851875D01*
Y852130D01*
X490000D01*
Y854670D01*
X498970D01*
Y854925D01*
X498654Y856511D01*
X497756Y857856D01*
X497756Y857856D01*
X497729Y857882D01*
X497023Y858777D01*
X497697Y859786D01*
X497774Y860169D01*
X516534D01*
X517669Y859035D01*
Y833465D01*
X399035Y714831D01*
X363000D01*
X362108Y714653D01*
X361352Y714148D01*
X348228Y701024D01*
X338476D01*
Y687976D01*
X351524D01*
Y690169D01*
X358892D01*
Y689750D01*
X359224Y688082D01*
X360168Y686669D01*
X361582Y685724D01*
X363250Y685392D01*
X376750D01*
X378417Y685724D01*
X379831Y686669D01*
X380776Y688082D01*
X381107Y689750D01*
Y695250D01*
X380776Y696918D01*
X379831Y698331D01*
X378417Y699276D01*
X376750Y699608D01*
X363250D01*
X361582Y699276D01*
X360168Y698331D01*
X359224Y696918D01*
X358892Y695250D01*
Y694831D01*
X351524D01*
Y697728D01*
X363965Y710169D01*
X400000D01*
X400042Y710178D01*
X400668Y709007D01*
X400090Y708429D01*
X399585Y707673D01*
X399407Y706781D01*
Y699024D01*
X390976D01*
Y689272D01*
X376311Y674607D01*
X363250D01*
X361582Y674276D01*
X360168Y673331D01*
X359224Y671917D01*
X358892Y670250D01*
Y664750D01*
X359224Y663082D01*
X360168Y661668D01*
X361582Y660724D01*
X363250Y660392D01*
X376750D01*
X378417Y660724D01*
X379831Y661668D01*
X380776Y663082D01*
X381107Y664750D01*
Y670250D01*
X380776Y671917D01*
X380550Y672254D01*
X389706Y681410D01*
X390976Y680884D01*
Y668976D01*
X395169D01*
Y665965D01*
X381535Y652331D01*
X360965D01*
X347331Y665965D01*
Y670976D01*
X351524D01*
Y684024D01*
X338476D01*
Y670976D01*
X342669D01*
Y665000D01*
X342847Y664108D01*
X343352Y663352D01*
X358352Y648352D01*
X359108Y647847D01*
X360000Y647669D01*
X380169D01*
Y643983D01*
X379910Y643876D01*
X378624Y642590D01*
X377928Y640909D01*
Y639091D01*
X378624Y637410D01*
X379910Y636124D01*
X381591Y635428D01*
X383409D01*
X385090Y636124D01*
X386376Y637410D01*
X387072Y639091D01*
Y640909D01*
X386376Y642590D01*
X385090Y643876D01*
X384831Y643983D01*
Y649035D01*
X399148Y663352D01*
X399653Y664108D01*
X399831Y665000D01*
Y668976D01*
X404024D01*
Y682024D01*
X392116D01*
X391590Y683294D01*
X394272Y685976D01*
X404024D01*
Y696513D01*
X404069Y696738D01*
Y705815D01*
X444285Y746032D01*
X445783Y745734D01*
X446124Y744910D01*
X447410Y743624D01*
X447669Y743516D01*
Y731524D01*
X443476D01*
Y718476D01*
X456190D01*
X456524Y718476D01*
X457460Y717669D01*
Y717460D01*
X463730D01*
Y725000D01*
Y732540D01*
X457460D01*
Y732331D01*
X456524Y731524D01*
X456190Y731524D01*
X452331D01*
Y743516D01*
X452590Y743624D01*
X453876Y744910D01*
X454572Y746590D01*
Y748409D01*
X453876Y750089D01*
X452590Y751376D01*
X451766Y751717D01*
X451468Y753215D01*
X534105Y835852D01*
X534610Y836608D01*
X534788Y837500D01*
Y855043D01*
X534714Y855416D01*
X535884Y856042D01*
X556769Y835156D01*
Y763992D01*
X555499Y763466D01*
X555090Y763876D01*
X553409Y764572D01*
X551590D01*
X549910Y763876D01*
X548624Y762590D01*
X548517Y762331D01*
X529957D01*
X529065Y762153D01*
X528309Y761648D01*
X512949Y746289D01*
X512444Y745533D01*
X512371Y745168D01*
X498228Y731024D01*
X488810D01*
X488476Y731024D01*
X487540Y731831D01*
Y732540D01*
X481270D01*
Y725000D01*
Y717460D01*
X487420D01*
X487540Y717460D01*
X488596Y717976D01*
X488810Y717976D01*
X501524D01*
Y727626D01*
X502305Y728259D01*
X503476Y727750D01*
Y718476D01*
X516524D01*
Y731524D01*
X514116D01*
X513590Y732794D01*
X521331Y740535D01*
X521590Y740428D01*
X523409D01*
X525090Y741124D01*
X526376Y742410D01*
X527072Y744090D01*
Y745909D01*
X526376Y747590D01*
X525090Y748876D01*
X524266Y749217D01*
X523968Y750715D01*
X530922Y757669D01*
X548517D01*
X548624Y757410D01*
X549910Y756124D01*
X551590Y755428D01*
X553409D01*
X555090Y756124D01*
X555499Y756534D01*
X556769Y756008D01*
Y666824D01*
X551226D01*
Y628176D01*
X566974D01*
Y666824D01*
X561431D01*
Y835977D01*
X561771Y836247D01*
X562637Y836566D01*
X565169Y834035D01*
Y691200D01*
X565347Y690308D01*
X565852Y689552D01*
X576626Y678778D01*
Y654876D01*
X592374D01*
Y692533D01*
X593644Y693059D01*
X607569Y679134D01*
Y666824D01*
X602026D01*
Y628176D01*
X617774D01*
Y666824D01*
X612231D01*
Y680100D01*
X612054Y680992D01*
X611548Y681748D01*
X582331Y710965D01*
Y830000D01*
X582153Y830892D01*
X581648Y831648D01*
X531431Y881866D01*
Y950526D01*
X531814Y950603D01*
X532823Y951277D01*
X532886Y951371D01*
X534414D01*
X534477Y951277D01*
X535485Y950603D01*
X535869Y950526D01*
Y884708D01*
X536047Y883816D01*
X536552Y883060D01*
X587669Y831943D01*
Y712500D01*
X587846Y711608D01*
X588352Y710852D01*
X625909Y673295D01*
X626665Y672790D01*
X627426Y672638D01*
Y654876D01*
X643174D01*
Y693524D01*
X627426D01*
Y680029D01*
X626253Y679543D01*
X592331Y713465D01*
Y832908D01*
X592153Y833800D01*
X591648Y834556D01*
X540531Y885673D01*
Y950526D01*
X540915Y950603D01*
X541923Y951277D01*
X541936Y951296D01*
X543464D01*
X543477Y951277D01*
X544485Y950603D01*
X545675Y950366D01*
X548725D01*
X549915Y950603D01*
X550923Y951277D01*
X550936Y951296D01*
X552464D01*
X552477Y951277D01*
X553485Y950603D01*
X554675Y950366D01*
X557725D01*
X558915Y950603D01*
X559923Y951277D01*
X559936Y951296D01*
X561464D01*
X561477Y951277D01*
X562485Y950603D01*
X563675Y950366D01*
X566725D01*
X567914Y950603D01*
X568923Y951277D01*
X568936Y951296D01*
X570464D01*
X570477Y951277D01*
X571485Y950603D01*
X572269Y950447D01*
Y926235D01*
X571124Y925090D01*
X570428Y923410D01*
Y921591D01*
X571124Y919910D01*
X572410Y918624D01*
X574091Y917928D01*
X575910D01*
X577590Y918624D01*
X578876Y919910D01*
X579572Y921591D01*
Y923410D01*
X578876Y925090D01*
X577590Y926376D01*
X576931Y926649D01*
Y950613D01*
X577923Y951277D01*
X577936Y951296D01*
X579464D01*
X579477Y951277D01*
X580486Y950603D01*
X581675Y950366D01*
X584725D01*
X585915Y950603D01*
X586923Y951277D01*
X586987Y951371D01*
X588514D01*
X588577Y951277D01*
X589585Y950603D01*
X590775Y950366D01*
X593825D01*
X595015Y950603D01*
X596023Y951277D01*
X596036Y951296D01*
X597564D01*
X597577Y951277D01*
X598585Y950603D01*
X599775Y950366D01*
X602825D01*
X604014Y950603D01*
X605023Y951277D01*
X605036Y951296D01*
X606564D01*
X606577Y951277D01*
X607585Y950603D01*
X608775Y950366D01*
X609711D01*
X610197Y949193D01*
X593335Y932331D01*
X591483D01*
X591376Y932590D01*
X590090Y933876D01*
X588409Y934572D01*
X586590D01*
X584910Y933876D01*
X583624Y932590D01*
X582928Y930910D01*
Y929091D01*
X583624Y927410D01*
X584910Y926124D01*
X586590Y925428D01*
X588409D01*
X590090Y926124D01*
X591376Y927410D01*
X591483Y927669D01*
X594301D01*
X595192Y927847D01*
X595949Y928352D01*
X613283Y945687D01*
X614352Y945179D01*
X614466Y945074D01*
Y942075D01*
X614703Y940885D01*
X615377Y939877D01*
X615396Y939864D01*
Y938336D01*
X615377Y938323D01*
X614703Y937315D01*
X614466Y936125D01*
Y933075D01*
X614703Y931886D01*
X615377Y930877D01*
X615397Y930864D01*
Y929336D01*
X615377Y929323D01*
X614703Y928315D01*
X614466Y927125D01*
Y924075D01*
X614703Y922885D01*
X615377Y921877D01*
X615396Y921864D01*
Y920336D01*
X615377Y920323D01*
X614703Y919315D01*
X614466Y918125D01*
Y915075D01*
X614703Y913885D01*
X615377Y912877D01*
X615471Y912814D01*
Y911286D01*
X615377Y911223D01*
X614703Y910214D01*
X614466Y909025D01*
Y905975D01*
X614703Y904785D01*
X615377Y903777D01*
X615396Y903764D01*
Y902236D01*
X615377Y902223D01*
X614703Y901215D01*
X614466Y900025D01*
Y896975D01*
X614703Y895786D01*
X615377Y894777D01*
X615397Y894764D01*
Y893236D01*
X615377Y893223D01*
X614703Y892215D01*
X614466Y891025D01*
Y887975D01*
X614703Y886785D01*
X615377Y885777D01*
X615396Y885764D01*
Y884236D01*
X615377Y884223D01*
X614703Y883215D01*
X614466Y882025D01*
Y878975D01*
X614703Y877785D01*
X615377Y876777D01*
X615397Y876764D01*
Y875236D01*
X615377Y875223D01*
X614703Y874215D01*
X614466Y873025D01*
Y869975D01*
X614703Y868785D01*
X615377Y867777D01*
X615396Y867764D01*
Y866236D01*
X615377Y866223D01*
X614703Y865215D01*
X614627Y864831D01*
X603393D01*
X603392Y864831D01*
X603392Y864831D01*
X602948Y864743D01*
X602501Y864653D01*
X602500Y864653D01*
X602500Y864653D01*
X602120Y864399D01*
X601745Y864148D01*
X601744Y864148D01*
X601744Y864148D01*
X600852Y863255D01*
X600581Y862849D01*
X600347Y862499D01*
X600347Y862499D01*
X600347Y862498D01*
X600257Y862050D01*
X600169Y861607D01*
Y753983D01*
X599910Y753876D01*
X598624Y752590D01*
X597928Y750909D01*
Y749091D01*
X598624Y747410D01*
X599910Y746124D01*
X601591Y745428D01*
X603410D01*
X605090Y746124D01*
X606376Y747410D01*
X607072Y749091D01*
Y750909D01*
X606376Y752590D01*
X605090Y753876D01*
X604931Y753942D01*
X604878Y755157D01*
X605123Y755331D01*
X606101Y755603D01*
X610169Y751535D01*
Y751237D01*
X610347Y750345D01*
X610852Y749589D01*
X610898Y749543D01*
X610428Y748409D01*
Y746591D01*
X611124Y744910D01*
X612410Y743624D01*
X614090Y742928D01*
X615909D01*
X617590Y743624D01*
X618876Y744910D01*
X619572Y746591D01*
Y748409D01*
X618876Y750090D01*
X617590Y751376D01*
X615909Y752072D01*
X614961D01*
X614831Y752202D01*
Y752500D01*
X614654Y753392D01*
X614148Y754148D01*
X609831Y758466D01*
Y805623D01*
X610124Y805833D01*
X611101Y806103D01*
X675976Y741228D01*
Y731476D01*
X680169D01*
Y726024D01*
X675976D01*
Y712976D01*
X689024D01*
Y717169D01*
X705476D01*
Y713976D01*
X718024D01*
Y731024D01*
X705476D01*
Y721831D01*
X689024D01*
Y726024D01*
X684831D01*
Y731476D01*
X689024D01*
Y744524D01*
X679272D01*
X677510Y746286D01*
X677996Y747460D01*
X681230D01*
Y753730D01*
X674960D01*
Y750496D01*
X673787Y750010D01*
X614831Y808966D01*
Y821514D01*
X616101Y822193D01*
X616385Y822003D01*
X617575Y821767D01*
X627225D01*
X628415Y822003D01*
X629423Y822677D01*
X630097Y823686D01*
X630173Y824069D01*
X635134D01*
X640535Y818669D01*
X640428Y818409D01*
Y816591D01*
X641124Y814910D01*
X642410Y813624D01*
X644091Y812928D01*
X645909D01*
X647590Y813624D01*
X648876Y814910D01*
X649572Y816591D01*
Y818409D01*
X648876Y820090D01*
X647590Y821376D01*
X645909Y822072D01*
X644091D01*
X643831Y821965D01*
X637748Y828048D01*
X636992Y828553D01*
X636100Y828731D01*
X630173D01*
X630097Y829115D01*
X629423Y830123D01*
X629404Y830136D01*
Y831664D01*
X629423Y831677D01*
X630097Y832685D01*
X630173Y833069D01*
X655400D01*
X656292Y833247D01*
X657048Y833752D01*
X670965Y847669D01*
X675976D01*
Y843476D01*
X689024D01*
Y856524D01*
X675976D01*
Y852331D01*
X673466D01*
X661965Y863831D01*
X662072Y864091D01*
Y865909D01*
X661376Y867590D01*
X660090Y868876D01*
X658409Y869572D01*
X656591D01*
X654910Y868876D01*
X653624Y867590D01*
X652928Y865909D01*
Y864091D01*
X653624Y862410D01*
X654910Y861124D01*
X656591Y860428D01*
X658409D01*
X658669Y860535D01*
X667954Y851250D01*
X654434Y837731D01*
X630173D01*
X630097Y838115D01*
X629423Y839123D01*
X629403Y839136D01*
Y840664D01*
X629423Y840677D01*
X630097Y841685D01*
X630334Y842875D01*
Y845925D01*
X630097Y847115D01*
X629423Y848123D01*
X629404Y848136D01*
Y849664D01*
X629423Y849677D01*
X630097Y850685D01*
X630334Y851875D01*
Y854925D01*
X630097Y856115D01*
X629423Y857123D01*
X629329Y857186D01*
Y858714D01*
X629423Y858777D01*
X630097Y859786D01*
X630334Y860975D01*
Y864025D01*
X630097Y865215D01*
X629423Y866223D01*
X629404Y866236D01*
Y867764D01*
X629423Y867777D01*
X630097Y868785D01*
X630334Y869975D01*
Y873025D01*
X630097Y874215D01*
X629423Y875223D01*
X629403Y875236D01*
Y876764D01*
X629423Y876777D01*
X630097Y877785D01*
X630334Y878975D01*
Y882025D01*
X630097Y883215D01*
X629423Y884223D01*
X629404Y884236D01*
Y885764D01*
X629423Y885777D01*
X630097Y886785D01*
X630334Y887975D01*
Y891025D01*
X630097Y892215D01*
X629423Y893223D01*
X629403Y893236D01*
Y894764D01*
X629423Y894777D01*
X630097Y895786D01*
X630334Y896975D01*
Y900025D01*
X630097Y901215D01*
X629423Y902223D01*
X629404Y902236D01*
Y903764D01*
X629423Y903777D01*
X630097Y904785D01*
X630173Y905169D01*
X641562D01*
X642454Y905347D01*
X643210Y905852D01*
X650792Y913434D01*
X651298Y914190D01*
X651475Y915082D01*
Y1025924D01*
X651298Y1026816D01*
X650792Y1027572D01*
X638031Y1040333D01*
Y1045676D01*
X643574D01*
Y1084324D01*
X627826D01*
Y1045676D01*
X633369D01*
Y1039368D01*
X633547Y1038476D01*
X634052Y1037720D01*
X646814Y1024959D01*
Y988061D01*
X645640Y987575D01*
X615411Y1017803D01*
X615897Y1018976D01*
X618174D01*
Y1057624D01*
X602426D01*
Y1040222D01*
X601156Y1040097D01*
X601085Y1040452D01*
X600580Y1041208D01*
X592774Y1049014D01*
Y1084324D01*
X577026D01*
Y1075374D01*
X575853Y1074887D01*
X563242Y1087498D01*
X562486Y1088003D01*
X561594Y1088181D01*
D02*
G37*
G36*
X766024Y924074D02*
X733376D01*
Y917331D01*
X704024D01*
Y921524D01*
X690976D01*
Y908476D01*
X704024D01*
Y912669D01*
X733376D01*
Y908326D01*
X766024D01*
Y924074D01*
D02*
G37*
G36*
X798824Y898674D02*
X766176D01*
Y887331D01*
X706024D01*
Y891524D01*
X692976D01*
Y878476D01*
X706024D01*
Y882669D01*
X768250D01*
X769142Y882847D01*
X769260Y882926D01*
X798824D01*
Y898674D01*
D02*
G37*
G36*
X766024Y873274D02*
X733376D01*
Y860822D01*
X724884Y852331D01*
X706024D01*
Y856524D01*
X692976D01*
Y843476D01*
X706024D01*
Y847669D01*
X725850D01*
X726742Y847847D01*
X727498Y848352D01*
X736672Y857526D01*
X766024D01*
Y873274D01*
D02*
G37*
G36*
X767040Y823490D02*
X750970D01*
Y815870D01*
X767040D01*
Y823490D01*
D02*
G37*
G36*
X748430D02*
X732360D01*
Y815870D01*
X748430D01*
Y823490D01*
D02*
G37*
G36*
X798824Y847874D02*
X766176D01*
Y832126D01*
X792669D01*
Y818983D01*
X792410Y818876D01*
X791124Y817590D01*
X790428Y815909D01*
Y814091D01*
X791124Y812410D01*
X792410Y811124D01*
X794091Y810428D01*
X795909D01*
X797590Y811124D01*
X798876Y812410D01*
X799572Y814091D01*
Y815909D01*
X798876Y817590D01*
X797590Y818876D01*
X797331Y818983D01*
Y832126D01*
X798824D01*
Y847874D01*
D02*
G37*
G36*
X767040Y813330D02*
X750970D01*
Y805710D01*
X767040D01*
Y813330D01*
D02*
G37*
G36*
X748430D02*
X732360D01*
Y805710D01*
X748430D01*
Y813330D01*
D02*
G37*
G36*
X790040Y762540D02*
X783770D01*
Y756270D01*
X790040D01*
Y762540D01*
D02*
G37*
G36*
X690040D02*
X683770D01*
Y756270D01*
X690040D01*
Y762540D01*
D02*
G37*
G36*
X781230D02*
X774960D01*
Y756270D01*
X781230D01*
Y762540D01*
D02*
G37*
G36*
X681230D02*
X674960D01*
Y756270D01*
X681230D01*
Y762540D01*
D02*
G37*
G36*
X790040Y753730D02*
X783770D01*
Y747460D01*
X790040D01*
Y753730D01*
D02*
G37*
G36*
X781230D02*
X774960D01*
Y747460D01*
X781230D01*
Y753730D01*
D02*
G37*
G36*
X690040D02*
X683770D01*
Y747460D01*
X690040D01*
Y753730D01*
D02*
G37*
G36*
X545910Y754572D02*
X544091D01*
X542410Y753876D01*
X541124Y752590D01*
X540428Y750909D01*
Y749091D01*
X540536Y748831D01*
X527590Y735886D01*
X527085Y735130D01*
X526908Y734238D01*
Y731524D01*
X518476D01*
Y718476D01*
X531524D01*
Y729012D01*
X531569Y729238D01*
Y733273D01*
X543832Y745535D01*
X544091Y745428D01*
X545910D01*
X547590Y746124D01*
X548876Y747410D01*
X549572Y749091D01*
Y750909D01*
X548876Y752590D01*
X547590Y753876D01*
X545910Y754572D01*
D02*
G37*
G36*
X749159Y757822D02*
X747340D01*
X745660Y757126D01*
X744374Y755840D01*
X743678Y754159D01*
Y752340D01*
X744374Y750660D01*
X745660Y749374D01*
X745919Y749267D01*
Y743024D01*
X740976D01*
Y740081D01*
X724024D01*
Y743024D01*
X709476D01*
Y732476D01*
X724024D01*
Y735419D01*
X740976D01*
Y732476D01*
X755524D01*
Y743024D01*
X750581D01*
Y749267D01*
X750840Y749374D01*
X752126Y750660D01*
X752822Y752340D01*
Y754159D01*
X752126Y755840D01*
X750840Y757126D01*
X749159Y757822D01*
D02*
G37*
G36*
X789024Y744524D02*
X775976D01*
Y731476D01*
X780169D01*
Y726024D01*
X775976D01*
Y721831D01*
X759524D01*
Y731024D01*
X746976D01*
Y713976D01*
X759524D01*
Y717169D01*
X775976D01*
Y712976D01*
X789024D01*
Y726024D01*
X784831D01*
Y731476D01*
X789024D01*
Y744524D01*
D02*
G37*
G36*
X478730Y732540D02*
X466270D01*
Y725000D01*
Y717460D01*
X478730D01*
Y725000D01*
Y732540D01*
D02*
G37*
G36*
X471524Y714524D02*
X458476D01*
Y710229D01*
X456524D01*
Y714524D01*
X443476D01*
Y701476D01*
X454069D01*
X455169Y700500D01*
Y666824D01*
X449626D01*
Y628176D01*
X465374D01*
Y666824D01*
X459831D01*
Y699535D01*
X461772Y701476D01*
X471524D01*
Y714524D01*
D02*
G37*
G36*
X755524Y712524D02*
X740976D01*
Y709581D01*
X724024D01*
Y712524D01*
X709476D01*
Y701976D01*
X714419D01*
Y685733D01*
X714160Y685626D01*
X712874Y684340D01*
X712178Y682659D01*
Y680841D01*
X712874Y679160D01*
X714160Y677874D01*
X715841Y677178D01*
X717659D01*
X719340Y677874D01*
X720626Y679160D01*
X721322Y680841D01*
Y682659D01*
X720626Y684340D01*
X719340Y685626D01*
X719081Y685733D01*
Y701976D01*
X724024D01*
Y704919D01*
X740976D01*
Y701976D01*
X755524D01*
Y712524D01*
D02*
G37*
G36*
X486524Y714524D02*
X473476D01*
Y701476D01*
X480569D01*
Y693524D01*
X475026D01*
Y654876D01*
X490774D01*
Y693524D01*
X485231D01*
Y701476D01*
X486524D01*
Y705170D01*
X488476D01*
Y700976D01*
X501524D01*
Y714024D01*
X488476D01*
Y709831D01*
X486524D01*
Y714524D01*
D02*
G37*
G36*
X789024Y709024D02*
X775976D01*
Y699272D01*
X768669Y691965D01*
X768409Y692072D01*
X766591D01*
X764910Y691376D01*
X763624Y690090D01*
X762928Y688410D01*
Y686591D01*
X763624Y684910D01*
X764910Y683624D01*
X766591Y682928D01*
X768409D01*
X770090Y683624D01*
X771376Y684910D01*
X772072Y686591D01*
Y688410D01*
X771965Y688669D01*
X779272Y695976D01*
X789024D01*
Y709024D01*
D02*
G37*
G36*
X440990Y694540D02*
X433370D01*
Y675470D01*
X440990D01*
Y694540D01*
D02*
G37*
G36*
X430830D02*
X423210D01*
Y675470D01*
X430830D01*
Y694540D01*
D02*
G37*
G36*
X689024Y709024D02*
X675976D01*
Y695976D01*
X680169D01*
Y681483D01*
X679910Y681376D01*
X678624Y680090D01*
X677928Y678409D01*
Y676591D01*
X678624Y674910D01*
X679910Y673624D01*
X681591Y672928D01*
X683410D01*
X685090Y673624D01*
X686376Y674910D01*
X687072Y676591D01*
Y678409D01*
X686376Y680090D01*
X685090Y681376D01*
X684831Y681483D01*
Y695976D01*
X689024D01*
Y709024D01*
D02*
G37*
G36*
X531524Y714524D02*
X518476D01*
Y701476D01*
X522669D01*
Y694350D01*
X522847Y693458D01*
X523352Y692701D01*
X525826Y690227D01*
Y654876D01*
X541574D01*
Y693524D01*
X529122D01*
X527331Y695315D01*
Y701476D01*
X531524D01*
Y714524D01*
D02*
G37*
G36*
X440990Y672930D02*
X433370D01*
Y653860D01*
X440990D01*
Y672930D01*
D02*
G37*
G36*
X430830D02*
X423210D01*
Y653860D01*
X430830D01*
Y672930D01*
D02*
G37*
G36*
X661610Y686372D02*
X659791D01*
X658110Y685676D01*
X656824Y684390D01*
X656128Y682709D01*
Y680890D01*
X656824Y679210D01*
X658110Y677924D01*
X658369Y677816D01*
Y666824D01*
X652826D01*
Y628176D01*
X668574D01*
Y666824D01*
X663031D01*
Y677816D01*
X663290Y677924D01*
X664576Y679210D01*
X665272Y680890D01*
Y682709D01*
X664576Y684390D01*
X663290Y685676D01*
X661610Y686372D01*
D02*
G37*
G36*
X516524Y714524D02*
X503476D01*
Y701476D01*
X507669D01*
Y666824D01*
X500426D01*
Y628176D01*
X516174D01*
Y666824D01*
X512331D01*
Y701476D01*
X516524D01*
Y714524D01*
D02*
G37*
%LPD*%
G36*
X526226Y1063064D02*
X524956Y1062538D01*
X520824Y1066670D01*
X520068Y1067175D01*
X519176Y1067353D01*
X491174D01*
Y1083519D01*
X526226D01*
Y1063064D01*
D02*
G37*
G36*
X531769Y1026476D02*
X531947Y1025584D01*
X532452Y1024828D01*
X546207Y1011072D01*
X546100Y1010813D01*
Y1008995D01*
X546526Y1007966D01*
X545449Y1007247D01*
X526079Y1026617D01*
Y1044467D01*
X526226Y1045676D01*
X531769D01*
Y1026476D01*
D02*
G37*
G36*
X608147Y1018726D02*
X608652Y1017970D01*
X643765Y982857D01*
Y976807D01*
X642592Y976321D01*
X640635Y978278D01*
X639879Y978783D01*
X638987Y978961D01*
X627171D01*
Y987806D01*
X626993Y988698D01*
X626488Y989454D01*
X601263Y1014679D01*
Y1018718D01*
X602426Y1018976D01*
Y1018976D01*
X608097D01*
X608147Y1018726D01*
D02*
G37*
G36*
X573741Y1070407D02*
Y1043940D01*
X573919Y1043048D01*
X574424Y1042292D01*
X580869Y1035846D01*
Y966073D01*
X580486Y965997D01*
X579477Y965323D01*
X579464Y965303D01*
X577936D01*
X577923Y965323D01*
X576915Y965997D01*
X575725Y966234D01*
X572675D01*
X571516Y966003D01*
X571414Y966075D01*
X570618Y966945D01*
X570859Y967306D01*
X571037Y968198D01*
Y981029D01*
X571296Y981136D01*
X572582Y982422D01*
X573278Y984103D01*
Y985921D01*
X572582Y987602D01*
X571296Y988888D01*
X569615Y989584D01*
X567797D01*
X566973Y989243D01*
X565703Y990091D01*
Y1010858D01*
X565525Y1011750D01*
X565020Y1012506D01*
X561831Y1015695D01*
Y1018976D01*
X567374D01*
Y1057624D01*
X551626D01*
Y1018976D01*
X557169D01*
Y1014730D01*
X557347Y1013838D01*
X557852Y1013082D01*
X561041Y1009893D01*
Y975279D01*
X560782Y975172D01*
X559801Y974191D01*
X558531Y974622D01*
Y993200D01*
X558353Y994092D01*
X557848Y994848D01*
X548015Y1004681D01*
X548734Y1005758D01*
X549763Y1005332D01*
X551581D01*
X553262Y1006028D01*
X554548Y1007314D01*
X555244Y1008995D01*
Y1010813D01*
X554548Y1012494D01*
X553262Y1013780D01*
X551581Y1014476D01*
X549763D01*
X549504Y1014369D01*
X536431Y1027441D01*
Y1045676D01*
X541974D01*
Y1083519D01*
X560629D01*
X573741Y1070407D01*
D02*
G37*
G36*
X596601Y1038595D02*
Y1013714D01*
X596779Y1012822D01*
X597284Y1012066D01*
X622509Y986841D01*
Y977523D01*
X622687Y976631D01*
X623192Y975874D01*
X624084Y974982D01*
X624841Y974477D01*
X625733Y974299D01*
X631699D01*
X632547Y973029D01*
X632206Y972205D01*
Y970387D01*
X632902Y968706D01*
X633266Y968342D01*
X632740Y967072D01*
X631591D01*
X629910Y966376D01*
X628624Y965090D01*
X627928Y963409D01*
Y961591D01*
X628624Y959910D01*
X628477Y958309D01*
X625107Y954939D01*
X623934Y955425D01*
Y963125D01*
X623697Y964314D01*
X623023Y965323D01*
X622015Y965997D01*
X620825Y966234D01*
X617775D01*
X616586Y965997D01*
X615577Y965323D01*
X615564Y965303D01*
X614036D01*
X614023Y965323D01*
X613015Y965997D01*
X612631Y966073D01*
Y989700D01*
X612453Y990592D01*
X611948Y991348D01*
X594148Y1009148D01*
X593392Y1009653D01*
X592500Y1009831D01*
X591263D01*
X590371Y1009653D01*
X589615Y1009148D01*
X589109Y1008392D01*
X588932Y1007500D01*
X589109Y1006608D01*
X589615Y1005852D01*
X590371Y1005347D01*
X591263Y1005169D01*
X591535D01*
X607969Y988734D01*
Y966073D01*
X607585Y965997D01*
X606577Y965323D01*
X606564Y965303D01*
X605273D01*
X604230Y966240D01*
Y979400D01*
X604053Y980292D01*
X603548Y981048D01*
X602792Y981553D01*
X601900Y981731D01*
X601008Y981553D01*
X600252Y981048D01*
X599746Y980292D01*
X599569Y979400D01*
Y966193D01*
X598585Y965997D01*
X597577Y965323D01*
X597564Y965304D01*
X596036D01*
X596023Y965323D01*
X595015Y965997D01*
X594731Y966053D01*
Y992400D01*
X594553Y993292D01*
X594048Y994048D01*
X593292Y994553D01*
X592400Y994731D01*
X591508Y994553D01*
X590752Y994048D01*
X590247Y993292D01*
X590069Y992400D01*
Y966093D01*
X589585Y965997D01*
X588577Y965323D01*
X588514Y965229D01*
X586987D01*
X586923Y965323D01*
X585915Y965997D01*
X585531Y966073D01*
Y1036812D01*
X585354Y1037704D01*
X584848Y1038460D01*
X578902Y1044406D01*
X579428Y1045676D01*
X589520D01*
X596601Y1038595D01*
D02*
G37*
G36*
X643765Y937275D02*
Y925487D01*
X637210Y918931D01*
X630173D01*
X630097Y919315D01*
X629423Y920323D01*
X629404Y920336D01*
Y921864D01*
X629423Y921877D01*
X630097Y922885D01*
X630334Y924075D01*
Y926937D01*
X632618Y929221D01*
X633087D01*
X633979Y929399D01*
X634735Y929904D01*
X642592Y937761D01*
X643765Y937275D01*
D02*
G37*
G36*
X482303Y931886D02*
X482977Y930877D01*
X482997Y930864D01*
Y929336D01*
X482977Y929323D01*
X482303Y928315D01*
X482227Y927931D01*
X413100D01*
X412208Y927753D01*
X411452Y927248D01*
X402294Y918090D01*
X401024Y918616D01*
Y922969D01*
X402800D01*
X403692Y923147D01*
X404448Y923652D01*
X413066Y932269D01*
X482227D01*
X482303Y931886D01*
D02*
G37*
G36*
Y895786D02*
X482977Y894777D01*
X482997Y894764D01*
Y893346D01*
X482116Y892331D01*
X430893D01*
X430892Y892331D01*
X430892Y892331D01*
X430448Y892243D01*
X430001Y892154D01*
X430000Y892153D01*
X430000Y892153D01*
X429620Y891899D01*
X429245Y891648D01*
X429244Y891648D01*
X429244Y891648D01*
X428352Y890755D01*
X428081Y890350D01*
X427847Y889999D01*
X427847Y889999D01*
X427846Y889998D01*
X427757Y889550D01*
X427669Y889107D01*
Y880965D01*
X418482Y871778D01*
X417312Y872404D01*
X417331Y872500D01*
Y885642D01*
X427858Y896169D01*
X482227D01*
X482303Y895786D01*
D02*
G37*
G36*
Y904785D02*
X482977Y903777D01*
X482996Y903764D01*
Y902236D01*
X482977Y902223D01*
X482303Y901215D01*
X482227Y900831D01*
X426893D01*
X426001Y900654D01*
X425245Y900148D01*
X413601Y888505D01*
X412623Y888776D01*
X412331Y888985D01*
Y891535D01*
X425965Y905169D01*
X482227D01*
X482303Y904785D01*
D02*
G37*
G36*
X516377Y951277D02*
X517385Y950603D01*
X517769Y950526D01*
Y882545D01*
X517430Y882275D01*
X516563Y881955D01*
X513431Y885088D01*
Y950526D01*
X513815Y950603D01*
X514823Y951277D01*
X514836Y951296D01*
X516364D01*
X516377Y951277D01*
D02*
G37*
G36*
X482303Y886785D02*
X482977Y885777D01*
X482996Y885764D01*
Y884236D01*
X482977Y884223D01*
X482303Y883215D01*
X482236Y882879D01*
X435548D01*
X434656Y882701D01*
X433900Y882196D01*
X433628Y881924D01*
X433601Y881919D01*
X433445Y881935D01*
X432489Y882626D01*
X432331Y882857D01*
Y887670D01*
X482127D01*
X482303Y886785D01*
D02*
G37*
G36*
X525377Y951277D02*
X526385Y950603D01*
X526769Y950526D01*
Y880900D01*
X526788Y880804D01*
X525618Y880179D01*
X522431Y883365D01*
Y950526D01*
X522815Y950603D01*
X523823Y951277D01*
X523836Y951296D01*
X525364D01*
X525377Y951277D01*
D02*
G37*
G36*
X482303Y913885D02*
X482977Y912877D01*
X483071Y912814D01*
Y911286D01*
X482977Y911223D01*
X482303Y910214D01*
X482227Y909831D01*
X425000D01*
X424108Y909653D01*
X423352Y909148D01*
X408352Y894148D01*
X407847Y893392D01*
X407669Y892500D01*
Y876383D01*
X402197Y870911D01*
X401024Y871397D01*
Y879864D01*
X401069Y880088D01*
Y897772D01*
X417566Y914269D01*
X482227D01*
X482303Y913885D01*
D02*
G37*
G36*
Y877785D02*
X482977Y876777D01*
X482997Y876764D01*
Y875236D01*
X482977Y875223D01*
X482303Y874215D01*
X482066Y873025D01*
Y869975D01*
X482303Y868785D01*
X482977Y867777D01*
X482996Y867764D01*
Y866236D01*
X482977Y866223D01*
X482303Y865215D01*
X482066Y864025D01*
Y860975D01*
X482303Y859786D01*
X482977Y858777D01*
X482271Y857882D01*
X482244Y857856D01*
X482244Y857856D01*
X481346Y856511D01*
X481191Y855731D01*
X462065D01*
X462040Y855756D01*
Y858730D01*
X454500D01*
X446960D01*
Y852460D01*
X447669D01*
X448476Y851524D01*
Y838476D01*
X461524D01*
Y842069D01*
X482227D01*
X482303Y841685D01*
X482977Y840677D01*
X482997Y840664D01*
Y839136D01*
X482977Y839123D01*
X482303Y838115D01*
X482227Y837731D01*
X471582D01*
X470690Y837553D01*
X469934Y837048D01*
X402197Y769311D01*
X401024Y769797D01*
Y780774D01*
X384031D01*
Y790379D01*
X414148Y820496D01*
X414653Y821252D01*
X414831Y822144D01*
Y851535D01*
X429706Y866409D01*
X430976Y865883D01*
X430976Y865519D01*
Y856772D01*
X420852Y846648D01*
X420347Y845892D01*
X420169Y845000D01*
Y831483D01*
X419910Y831376D01*
X418624Y830090D01*
X417928Y828409D01*
Y826591D01*
X418624Y824910D01*
X419910Y823624D01*
X421591Y822928D01*
X423409D01*
X425090Y823624D01*
X426376Y824910D01*
X427072Y826591D01*
Y828409D01*
X426376Y830090D01*
X425090Y831376D01*
X424831Y831483D01*
Y844035D01*
X429287Y848491D01*
X430460Y848005D01*
Y846270D01*
X445540D01*
Y852540D01*
X444831D01*
X444024Y853476D01*
Y866524D01*
X431995D01*
X431616Y866524D01*
X431090Y867794D01*
X434696Y871400D01*
X435201Y872156D01*
X435379Y873048D01*
Y877468D01*
X435547Y877502D01*
X436304Y878007D01*
X436513Y878217D01*
X482217D01*
X482303Y877785D01*
D02*
G37*
G36*
X530126Y854078D02*
Y838465D01*
X523493Y831832D01*
X522322Y832458D01*
X522331Y832500D01*
Y860000D01*
X522312Y860096D01*
X523482Y860722D01*
X530126Y854078D01*
D02*
G37*
G36*
X430717Y875761D02*
Y874013D01*
X410852Y854148D01*
X410347Y853392D01*
X410169Y852500D01*
Y823110D01*
X408504Y821444D01*
X407331Y821930D01*
Y854035D01*
X429544Y876247D01*
X430717Y875761D01*
D02*
G37*
G36*
X577669Y829035D02*
Y710000D01*
X577846Y709108D01*
X578352Y708352D01*
X591910Y694794D01*
X591384Y693524D01*
X576626D01*
Y687029D01*
X575453Y686543D01*
X569831Y692166D01*
Y835000D01*
X569812Y835096D01*
X570982Y835722D01*
X577669Y829035D01*
D02*
G37*
%LPC*%
G36*
X462040Y867540D02*
X455770D01*
Y861270D01*
X462040D01*
Y867540D01*
D02*
G37*
G36*
X453230D02*
X446960D01*
Y861270D01*
X453230D01*
Y867540D01*
D02*
G37*
G36*
X445540Y843730D02*
X439270D01*
Y837460D01*
X445540D01*
Y843730D01*
D02*
G37*
G36*
X436730D02*
X430460D01*
Y837460D01*
X436730D01*
Y843730D01*
D02*
G37*
%LPD*%
D13*
X635300Y674200D02*
D03*
X660700Y647500D02*
D03*
X559100D02*
D03*
X609900D02*
D03*
X457500D02*
D03*
X432100Y674200D02*
D03*
X508300Y647500D02*
D03*
X533700Y674200D02*
D03*
X534100Y1065000D02*
D03*
X508700Y1038300D02*
D03*
X432500Y1065000D02*
D03*
X457900Y1038300D02*
D03*
X610300D02*
D03*
X559500D02*
D03*
X661100D02*
D03*
X635700Y1065000D02*
D03*
D14*
X584500Y674200D02*
D03*
X482900D02*
D03*
X483300Y1065000D02*
D03*
X584900D02*
D03*
D15*
X767750Y1051750D02*
D03*
Y1043250D02*
D03*
X782250D02*
D03*
Y1051750D02*
D03*
D16*
X749700Y814600D02*
D03*
X782500Y840000D02*
D03*
X749700Y916200D02*
D03*
X782500Y890800D02*
D03*
X749700Y865400D02*
D03*
D17*
X465000Y725000D02*
D03*
X480000D02*
D03*
X682500Y755000D02*
D03*
X782500D02*
D03*
X510000Y725000D02*
D03*
Y708000D02*
D03*
X397500Y692500D02*
D03*
Y675500D02*
D03*
X525000Y725000D02*
D03*
Y708000D02*
D03*
X682500Y738000D02*
D03*
X782500D02*
D03*
X345000Y694500D02*
D03*
Y677500D02*
D03*
X782500Y719500D02*
D03*
Y702500D02*
D03*
X682500Y719500D02*
D03*
Y702500D02*
D03*
X465000Y708000D02*
D03*
X480000D02*
D03*
X450000Y725000D02*
D03*
Y708000D02*
D03*
X495000Y724500D02*
D03*
Y707500D02*
D03*
X794966Y1014313D02*
D03*
Y997313D02*
D03*
X780000Y1014500D02*
D03*
Y997500D02*
D03*
D18*
X622400Y943600D02*
D03*
Y934600D02*
D03*
Y925600D02*
D03*
Y907500D02*
D03*
Y880500D02*
D03*
Y889500D02*
D03*
Y898500D02*
D03*
Y916600D02*
D03*
Y871500D02*
D03*
Y862500D02*
D03*
Y853400D02*
D03*
Y844400D02*
D03*
Y835400D02*
D03*
Y826400D02*
D03*
X490000Y943600D02*
D03*
Y934600D02*
D03*
Y925600D02*
D03*
Y907500D02*
D03*
Y880500D02*
D03*
Y889500D02*
D03*
Y898500D02*
D03*
Y916600D02*
D03*
Y871500D02*
D03*
Y862500D02*
D03*
Y853400D02*
D03*
Y844400D02*
D03*
Y835400D02*
D03*
Y826400D02*
D03*
D19*
X574200Y958300D02*
D03*
X583200D02*
D03*
X610300D02*
D03*
X619300D02*
D03*
X601300D02*
D03*
X592300D02*
D03*
X565200D02*
D03*
X556200D02*
D03*
X493100D02*
D03*
X502100D02*
D03*
X529100D02*
D03*
X538200D02*
D03*
X547200D02*
D03*
X520100D02*
D03*
X511100D02*
D03*
D20*
X455000Y845000D02*
D03*
X438000D02*
D03*
X454500Y860000D02*
D03*
X437500D02*
D03*
X682500Y850000D02*
D03*
X699500D02*
D03*
X682500Y885000D02*
D03*
X699500D02*
D03*
X680500Y915000D02*
D03*
X697500D02*
D03*
D21*
X370000Y692500D02*
D03*
Y667500D02*
D03*
D22*
X711750Y722500D02*
D03*
X753250D02*
D03*
X711750Y1007500D02*
D03*
X753250D02*
D03*
D23*
X716750Y707250D02*
D03*
X748250D02*
D03*
Y737750D02*
D03*
X716750D02*
D03*
Y992250D02*
D03*
X748250D02*
D03*
Y1022750D02*
D03*
X716750D02*
D03*
D24*
X355000Y798300D02*
D03*
Y899900D02*
D03*
D25*
Y849100D02*
D03*
X381700Y823700D02*
D03*
X355000Y747500D02*
D03*
X381700Y772900D02*
D03*
Y925300D02*
D03*
Y874500D02*
D03*
Y976100D02*
D03*
X355000Y950700D02*
D03*
D40*
X636100Y826400D02*
X645000Y817500D01*
X612500Y808000D02*
X682500Y738000D01*
X622400Y826400D02*
X636100D01*
X612500Y808000D02*
Y837800D01*
X748250Y737750D02*
Y753250D01*
X699200Y1038300D02*
X714750Y1022750D01*
X716750D01*
X661100Y1038300D02*
X699200D01*
X382500Y640000D02*
Y650000D01*
X397500Y665000D01*
Y675500D01*
X360000Y650000D02*
X382500D01*
X345000Y665000D02*
X360000Y650000D01*
X345000Y665000D02*
Y677500D01*
X397500Y692500D02*
X401738Y696738D01*
X400000Y712500D02*
X520000Y832500D01*
Y860000D01*
X363000Y712500D02*
X400000D01*
X377510Y672511D02*
X397500Y692500D01*
X532457Y837500D02*
Y855043D01*
X401738Y706781D02*
X532457Y837500D01*
X450000Y725000D02*
Y747500D01*
X486700Y826400D02*
X490000D01*
X472800Y812500D02*
X486700Y826400D01*
X422500Y827500D02*
Y845000D01*
X383683Y747500D02*
X471582Y835400D01*
X490000D01*
X355000Y747500D02*
X383683D01*
X422500Y845000D02*
X437500Y860000D01*
X767500Y687500D02*
X782500Y702500D01*
X795000Y815000D02*
Y834412D01*
X782500Y840000D02*
X789412D01*
X795000Y834412D01*
X716750Y980750D02*
X720000Y977500D01*
X665000Y930500D02*
Y980000D01*
X672200Y945300D02*
Y992200D01*
Y945300D02*
X675000Y942500D01*
X665000Y930500D02*
X680500Y915000D01*
X678427Y967534D02*
X794073D01*
X657500Y910000D02*
Y995000D01*
X678409Y965909D02*
Y967516D01*
X678427Y967534D01*
X677534Y965034D02*
X678409Y965909D01*
X794073Y967534D02*
X794966Y968427D01*
X657500Y910000D02*
X682500Y885000D01*
X716750Y980750D02*
Y992250D01*
Y1022750D02*
X748250D01*
X750250D02*
X753250Y1019750D01*
Y1007500D02*
Y1019750D01*
X748250Y1022750D02*
X750250D01*
X749262Y999298D02*
Y1003512D01*
X753250Y1007500D01*
X748250Y998286D02*
X749262Y999298D01*
X748250Y992250D02*
Y998286D01*
X716750Y992250D02*
X748250D01*
X475000Y965000D02*
X481700Y958300D01*
X355000Y950700D02*
X479600D01*
X402800Y925300D02*
X412100Y934600D01*
X486700Y943600D02*
X490000D01*
X412100Y934600D02*
X490000D01*
X479600Y950700D02*
X486700Y943600D01*
X481700Y958300D02*
X493100D01*
X385300Y972500D02*
X430000D01*
X381700Y976100D02*
X385300Y972500D01*
X465000Y725000D02*
X480000D01*
X612500Y751237D02*
X615000Y748737D01*
Y747500D02*
Y748737D01*
X612500Y751237D02*
Y752500D01*
X716750Y681750D02*
Y707250D01*
Y737750D02*
X748250D01*
X716750Y707250D02*
X748250D01*
X682500Y677500D02*
Y702500D01*
X660700Y647500D02*
Y681800D01*
X670000Y850000D02*
X672500D01*
X682500D01*
X657500Y865000D02*
X672500Y850000D01*
X794966Y968427D02*
Y997313D01*
X529239Y734238D02*
X545000Y750000D01*
X529239Y729238D02*
Y734238D01*
X529957Y760000D02*
X552500D01*
X672200Y992200D02*
X681262Y1001262D01*
X707762D02*
X711750Y1005250D01*
X681262Y1001262D02*
X707762D01*
X711750Y1005250D02*
Y1007500D01*
X517500Y862500D02*
X520000Y860000D01*
X490000Y862500D02*
X517500D01*
X345000Y694500D02*
X363000Y712500D01*
X516000Y871500D02*
X532457Y855043D01*
X490000Y871500D02*
X516000D01*
X401738Y696738D02*
Y706781D01*
X619100Y844400D02*
X622400D01*
X612500Y837800D02*
X619100Y844400D01*
X622400Y948936D02*
X631625Y958161D01*
Y961625D01*
X622400Y943600D02*
Y948936D01*
X631625Y961625D02*
X632500Y962500D01*
X643048Y941513D02*
Y972569D01*
X646096Y924521D02*
Y983822D01*
X638987Y976630D02*
X643048Y972569D01*
X636778Y971296D02*
X640000Y968074D01*
X641562Y907500D02*
X649144Y915082D01*
X640000Y942775D02*
Y968074D01*
X631825Y934600D02*
X640000Y942775D01*
X638175Y916600D02*
X646096Y924521D01*
X649144Y915082D02*
Y1025924D01*
X633087Y931552D02*
X643048Y941513D01*
X625733Y976630D02*
X638987D01*
X624840Y977523D02*
X625733Y976630D01*
X622400Y934600D02*
X631825D01*
X624840Y977523D02*
Y987806D01*
X594301Y930000D02*
X619300Y955000D01*
X587500Y930000D02*
X594301D01*
X590000Y712500D02*
Y832908D01*
X538200Y884708D02*
X590000Y832908D01*
Y712500D02*
X627557Y674943D01*
X580000Y710000D02*
X609900Y680100D01*
X580000Y710000D02*
Y830000D01*
X529100Y880900D02*
X580000Y830000D01*
X538200Y884708D02*
Y958300D01*
X483300Y1065022D02*
X519176D01*
X474726Y1043686D02*
X508700D01*
X770052Y987552D02*
X780000Y997500D01*
X568706Y968198D02*
Y985012D01*
X565200Y964692D02*
X568706Y968198D01*
X565200Y958300D02*
Y964692D01*
X381700Y772900D02*
Y791344D01*
X412500Y822144D01*
Y852500D01*
X433048Y873048D01*
Y878762D01*
X433941Y879655D01*
X434655D01*
X435548Y880548D01*
X489952D01*
X490000Y880500D01*
X355000Y798300D02*
X383683D01*
X405000Y819617D01*
Y855000D01*
X430000Y880000D01*
Y889107D01*
X430893Y890000D01*
X489500D01*
X490000Y889500D01*
X381700Y823700D02*
X393150D01*
X398738Y829288D01*
Y856238D01*
X415000Y872500D01*
Y886607D01*
X426893Y898500D01*
X490000D01*
X355000Y849100D02*
X383683D01*
X410000Y875417D01*
Y892500D01*
X425000Y907500D01*
X490000D01*
X381700Y874500D02*
X393150D01*
X398738Y880088D01*
Y898738D01*
X416600Y916600D01*
X490000D01*
X355000Y899900D02*
X387400D01*
X413100Y925600D01*
X490000D01*
X381700Y925300D02*
X402800D01*
X511100Y884122D02*
Y958300D01*
Y884122D02*
X559100Y836122D01*
Y647500D02*
Y836122D01*
X520100Y882400D02*
Y958300D01*
Y882400D02*
X567500Y835000D01*
Y691200D02*
Y835000D01*
Y691200D02*
X584500Y674200D01*
X529100Y880900D02*
Y958300D01*
X609900Y647500D02*
Y680100D01*
X627557Y674943D02*
X634557D01*
X635300Y674200D01*
X457900Y1018478D02*
Y1038300D01*
Y1018478D02*
X466220Y1010158D01*
X518244D01*
X547200Y981202D01*
Y958300D02*
Y981202D01*
X483300Y1065000D02*
Y1065022D01*
X519176D02*
X523748Y1060450D01*
Y1025652D02*
Y1060450D01*
Y1025652D02*
X556200Y993200D01*
Y958300D02*
Y993200D01*
X508700Y1038300D02*
Y1043686D01*
X474472Y1043940D02*
X474726Y1043686D01*
X474472Y1043940D02*
Y1085596D01*
X474726Y1085850D01*
X561594D01*
X576072Y1071372D01*
Y1043940D02*
Y1071372D01*
Y1043940D02*
X583200Y1036812D01*
Y958300D02*
Y1036812D01*
X610300Y958300D02*
Y989700D01*
X592500Y1007500D02*
X610300Y989700D01*
X591263Y1007500D02*
X592500D01*
X534100Y1026476D02*
X550672Y1009904D01*
X534100Y1026476D02*
Y1065000D01*
X559500Y1014730D02*
Y1038300D01*
Y1014730D02*
X563372Y1010858D01*
Y971296D02*
Y1010858D01*
X584900Y1053592D02*
Y1065000D01*
Y1053592D02*
X598932Y1039560D01*
Y1013714D02*
Y1039560D01*
Y1013714D02*
X624840Y987806D01*
X631652Y931552D02*
X633087D01*
X625700Y925600D02*
X631652Y931552D01*
X622400Y925600D02*
X625700D01*
X622400Y916600D02*
X638175D01*
X610300Y1019618D02*
X646096Y983822D01*
X610300Y1019618D02*
Y1038300D01*
X622400Y907500D02*
X641562D01*
X635700Y1039368D02*
X649144Y1025924D01*
X635700Y1039368D02*
Y1065000D01*
X482900Y674200D02*
Y705100D01*
X480500Y707500D02*
X482900Y705100D01*
X480000Y708000D02*
X480500Y707500D01*
X495000D01*
X450000Y708000D02*
X450102Y707898D01*
X464898D01*
X465000Y708000D01*
X457500Y700500D02*
X464898Y707898D01*
X457500Y647500D02*
Y700500D01*
X753250Y722500D02*
X756250Y719500D01*
X782500D01*
Y738000D01*
X345000Y694500D02*
X347000Y692500D01*
X370000D01*
Y667500D02*
X372924D01*
X377510Y672086D01*
Y672511D01*
X682500Y719500D02*
Y738000D01*
Y719500D02*
X708750D01*
X711750Y722500D01*
X525000Y725000D02*
X529239Y729238D01*
X602500Y750000D02*
Y861607D01*
X603393Y862500D01*
X622400D01*
X510000Y725000D02*
Y732500D01*
X522500Y745000D01*
X607500Y757500D02*
X612500Y752500D01*
X607500Y757500D02*
Y852500D01*
X608400Y853400D01*
X622400D01*
X495000Y724500D02*
X514597Y744098D01*
Y744641D01*
X529957Y760000D01*
X574600Y922900D02*
X575000Y922500D01*
X574600Y922900D02*
Y957900D01*
X574200Y958300D02*
X574600Y957900D01*
X619300Y955000D02*
Y958300D01*
X601900Y958900D02*
Y979400D01*
X601300Y958300D02*
X601900Y958900D01*
X592400Y958400D02*
Y992400D01*
X592300Y958300D02*
X592400Y958400D01*
X699500Y850000D02*
X725850D01*
X741250Y865400D01*
X749700D01*
X699500Y885000D02*
X768250D01*
X774050Y890800D01*
X782500D01*
X697500Y915000D02*
X748500D01*
X749700Y916200D01*
X508300Y647500D02*
X510000Y649200D01*
Y708000D01*
X525000Y694350D02*
Y708000D01*
Y694350D02*
X533700Y685650D01*
Y674200D02*
Y685650D01*
X455000Y845000D02*
X455600Y844400D01*
X490000D01*
X454500Y860000D02*
X461100Y853400D01*
X490000D01*
X782250Y1051750D02*
X784738Y1049262D01*
X786971D01*
X794966Y1041267D01*
Y1014313D02*
Y1041267D01*
X432500Y1018540D02*
Y1065000D01*
Y1018540D02*
X473140Y977900D01*
X498925D01*
X502100Y974725D01*
Y958300D02*
Y974725D01*
X622400Y835400D02*
X655400D01*
X670000Y850000D01*
X780000Y1014500D02*
X782250Y1016750D01*
Y1043250D01*
D41*
X645000Y817500D02*
D03*
X748250Y753250D02*
D03*
X382500Y640000D02*
D03*
X472800Y812500D02*
D03*
X450000Y747500D02*
D03*
X422500Y827500D02*
D03*
X767500Y687500D02*
D03*
X795000Y815000D02*
D03*
X720000Y977500D02*
D03*
X475000Y965000D02*
D03*
X430000Y972500D02*
D03*
X615000Y747500D02*
D03*
X716750Y681750D02*
D03*
X682500Y677500D02*
D03*
X660700Y681800D02*
D03*
X657500Y865000D02*
D03*
X675000Y942500D02*
D03*
X552500Y760000D02*
D03*
X545000Y750000D02*
D03*
X632500Y962500D02*
D03*
X636778Y971296D02*
D03*
X677534Y965034D02*
D03*
X770052Y987552D02*
D03*
X568706Y985012D02*
D03*
X550672Y1009904D02*
D03*
X563372Y971296D02*
D03*
X602500Y750000D02*
D03*
X522500Y745000D02*
D03*
X575000Y922500D02*
D03*
X587500Y930000D02*
D03*
X665000Y980000D02*
D03*
X657500Y995000D02*
D03*
M02*
