G04*
G04 #@! TF.GenerationSoftware,Altium Limited,Altium Designer,22.9.1 (49)*
G04*
G04 Layer_Color=16711935*
%FSLAX44Y44*%
%MOMM*%
G71*
G04*
G04 #@! TF.SameCoordinates,C56BC410-7C05-4C87-A6CA-29577A5DDFC1*
G04*
G04*
G04 #@! TF.FilePolarity,Negative*
G04*
G01*
G75*
%ADD39C,0.8128*%
D39*
X645000Y817500D02*
D03*
X748250Y753250D02*
D03*
X382500Y640000D02*
D03*
X472800Y812500D02*
D03*
X450000Y747500D02*
D03*
X422500Y827500D02*
D03*
X767500Y687500D02*
D03*
X795000Y815000D02*
D03*
X720000Y977500D02*
D03*
X475000Y965000D02*
D03*
X430000Y972500D02*
D03*
X615000Y747500D02*
D03*
X716750Y681750D02*
D03*
X682500Y677500D02*
D03*
X660700Y681800D02*
D03*
X657500Y865000D02*
D03*
X675000Y942500D02*
D03*
X552500Y760000D02*
D03*
X545000Y750000D02*
D03*
X632500Y962500D02*
D03*
X636778Y971296D02*
D03*
X677534Y965034D02*
D03*
X770052Y987552D02*
D03*
X568706Y985012D02*
D03*
X550672Y1009904D02*
D03*
X563372Y971296D02*
D03*
X602500Y750000D02*
D03*
X522500Y745000D02*
D03*
X575000Y922500D02*
D03*
X587500Y930000D02*
D03*
X665000Y980000D02*
D03*
X657500Y995000D02*
D03*
M02*
