G04*
G04 #@! TF.GenerationSoftware,Altium Limited,Altium Designer,22.9.1 (49)*
G04*
G04 Layer_Color=32896*
%FSLAX44Y44*%
%MOMM*%
G71*
G04*
G04 #@! TF.SameCoordinates,C56BC410-7C05-4C87-A6CA-29577A5DDFC1*
G04*
G04*
G04 #@! TF.FilePolarity,Positive*
G04*
G01*
G75*
%ADD12C,0.2540*%
D12*
X793189Y673458D02*
X794882Y675150D01*
X798267D01*
X799960Y673458D01*
Y666686D01*
X798267Y664994D01*
X794882D01*
X793189Y666686D01*
Y670072D01*
X796574D01*
X789803Y671765D02*
Y664994D01*
Y668379D01*
X788111Y670072D01*
X786418Y671765D01*
X784725D01*
X777954Y664994D02*
X774568D01*
X772875Y666686D01*
Y670072D01*
X774568Y671765D01*
X777954D01*
X779647Y670072D01*
Y666686D01*
X777954Y664994D01*
X769490Y671765D02*
Y666686D01*
X767797Y664994D01*
X762719D01*
Y671765D01*
X759333Y661608D02*
Y671765D01*
X754255D01*
X752562Y670072D01*
Y666686D01*
X754255Y664994D01*
X759333D01*
X749176Y671765D02*
X747484D01*
Y670072D01*
X749176D01*
Y671765D01*
Y666686D02*
X747484D01*
Y664994D01*
X749176D01*
Y666686D01*
X799960Y653481D02*
X796574D01*
X798267D01*
Y643324D01*
X799960D01*
X796574D01*
X791496D02*
Y650095D01*
X786418D01*
X784725Y648402D01*
Y643324D01*
X774568Y653481D02*
Y643324D01*
X779647D01*
X781339Y645017D01*
Y648402D01*
X779647Y650095D01*
X774568D01*
X771183Y643324D02*
X767797D01*
X769490D01*
Y650095D01*
X771183D01*
X761026D02*
X757640D01*
X755947Y648402D01*
Y643324D01*
X761026D01*
X762719Y645017D01*
X761026Y646710D01*
X755947D01*
X799960Y625040D02*
X796574D01*
X798267D01*
Y635197D01*
X799960Y633504D01*
X791496Y630118D02*
X784725D01*
X774568Y625040D02*
X781339D01*
X774568Y631811D01*
Y633504D01*
X776261Y635197D01*
X779647D01*
X781339Y633504D01*
X771183D02*
X769490Y635197D01*
X766104D01*
X764411Y633504D01*
Y626733D01*
X766104Y625040D01*
X769490D01*
X771183Y626733D01*
Y633504D01*
X761026Y630118D02*
X754255D01*
X744098Y625040D02*
X750869D01*
X744098Y631811D01*
Y633504D01*
X745791Y635197D01*
X749176D01*
X750869Y633504D01*
X740712D02*
X739020Y635197D01*
X735634D01*
X733941Y633504D01*
Y631811D01*
X735634Y630118D01*
X737327D01*
X735634D01*
X733941Y628426D01*
Y626733D01*
X735634Y625040D01*
X739020D01*
X740712Y626733D01*
X789803Y922736D02*
X792343Y925275D01*
X797421D01*
X799960Y922736D01*
Y920197D01*
X797421Y917657D01*
X792343D01*
X789803Y915118D01*
Y912579D01*
X792343Y910040D01*
X797421D01*
X799960Y912579D01*
X784725Y925275D02*
Y910040D01*
X779647Y915118D01*
X774568Y910040D01*
Y925275D01*
X769490D02*
Y910040D01*
X761872D01*
X759333Y912579D01*
Y922736D01*
X761872Y925275D01*
X769490D01*
X754255D02*
X749176D01*
X751716D01*
Y910040D01*
X754255D01*
X749176D01*
X733941Y925275D02*
X739020D01*
X741559Y922736D01*
Y912579D01*
X739020Y910040D01*
X733941D01*
X731402Y912579D01*
Y922736D01*
X733941Y925275D01*
X789803Y897736D02*
X792343Y900275D01*
X797421D01*
X799960Y897736D01*
Y895197D01*
X797421Y892657D01*
X792343D01*
X789803Y890118D01*
Y887579D01*
X792343Y885040D01*
X797421D01*
X799960Y887579D01*
X784725Y900275D02*
Y885040D01*
X779647Y890118D01*
X774568Y885040D01*
Y900275D01*
X759333Y897736D02*
X761872Y900275D01*
X766951D01*
X769490Y897736D01*
Y887579D01*
X766951Y885040D01*
X761872D01*
X759333Y887579D01*
X754255Y900275D02*
Y885040D01*
X744098D01*
X739020Y900275D02*
Y885040D01*
Y890118D01*
X728863Y900275D01*
X736480Y892657D01*
X728863Y885040D01*
X799960Y860040D02*
Y875275D01*
X792343D01*
X789803Y872736D01*
Y867657D01*
X792343Y865118D01*
X799960D01*
X794882D02*
X789803Y860040D01*
X774568Y875275D02*
X784725D01*
Y860040D01*
X774568D01*
X784725Y867657D02*
X779647D01*
X759333Y872736D02*
X761872Y875275D01*
X766951D01*
X769490Y872736D01*
Y870197D01*
X766951Y867657D01*
X761872D01*
X759333Y865118D01*
Y862579D01*
X761872Y860040D01*
X766951D01*
X769490Y862579D01*
X744098Y875275D02*
X754255D01*
Y860040D01*
X744098D01*
X754255Y867657D02*
X749176D01*
X739020Y875275D02*
X728863D01*
X733941D01*
Y860040D01*
X789803Y845236D02*
X792343Y847775D01*
X797421D01*
X799960Y845236D01*
Y835079D01*
X797421Y832540D01*
X792343D01*
X789803Y835079D01*
Y840157D01*
X794882D01*
X784725Y832540D02*
Y847775D01*
X774568Y832540D01*
Y847775D01*
X769490D02*
Y832540D01*
X761872D01*
X759333Y835079D01*
Y845236D01*
X761872Y847775D01*
X769490D01*
X799960Y817775D02*
Y807618D01*
X794882Y802540D01*
X789803Y807618D01*
Y817775D01*
X784725D02*
X774568D01*
X779647D01*
Y802540D01*
X769490D02*
Y812697D01*
X764411Y817775D01*
X759333Y812697D01*
Y802540D01*
Y810157D01*
X769490D01*
X754255Y802540D02*
Y817775D01*
X746637D01*
X744098Y815236D01*
Y810157D01*
X746637Y807618D01*
X754255D01*
X749176D02*
X744098Y802540D01*
X728863Y815236D02*
X731402Y817775D01*
X736480D01*
X739020Y815236D01*
Y805079D01*
X736480Y802540D01*
X731402D01*
X728863Y805079D01*
Y810157D01*
X733941D01*
X422225Y694960D02*
X432382D01*
X437460Y689882D01*
X432382Y684803D01*
X422225D01*
Y679725D02*
X437460D01*
Y672107D01*
X434921Y669568D01*
X424764D01*
X422225Y672107D01*
Y679725D01*
Y664490D02*
X437460D01*
Y656872D01*
X434921Y654333D01*
X424764D01*
X422225Y656872D01*
Y664490D01*
X444686Y724960D02*
Y719882D01*
Y722421D01*
X459921D01*
Y724960D01*
Y719882D01*
Y702107D02*
Y712264D01*
X449764Y702107D01*
X447225D01*
X444686Y704647D01*
Y709725D01*
X447225Y712264D01*
Y686872D02*
X444686Y689411D01*
Y694490D01*
X447225Y697029D01*
X457382D01*
X459921Y694490D01*
Y689411D01*
X457382Y686872D01*
X462460Y681794D02*
Y671637D01*
X447225Y656402D02*
X444686Y658941D01*
Y664020D01*
X447225Y666559D01*
X449764D01*
X452303Y664020D01*
Y658941D01*
X454842Y656402D01*
X457382D01*
X459921Y658941D01*
Y664020D01*
X457382Y666559D01*
X444686Y651324D02*
X459921D01*
Y643706D01*
X457382Y641167D01*
X447225D01*
X444686Y643706D01*
Y651324D01*
X459921Y636089D02*
X449764D01*
X444686Y631010D01*
X449764Y625932D01*
X459921D01*
X452303D01*
Y636089D01*
X469686Y724960D02*
Y719882D01*
Y722421D01*
X484921D01*
Y724960D01*
Y719882D01*
Y702107D02*
Y712264D01*
X474764Y702107D01*
X472225D01*
X469686Y704647D01*
Y709725D01*
X472225Y712264D01*
Y686872D02*
X469686Y689411D01*
Y694490D01*
X472225Y697029D01*
X482382D01*
X484921Y694490D01*
Y689411D01*
X482382Y686872D01*
X487460Y681794D02*
Y671637D01*
X472225Y656402D02*
X469686Y658941D01*
Y664020D01*
X472225Y666559D01*
X474764D01*
X477303Y664020D01*
Y658941D01*
X479842Y656402D01*
X482382D01*
X484921Y658941D01*
Y664020D01*
X482382Y666559D01*
X472225Y641167D02*
X469686Y643706D01*
Y648785D01*
X472225Y651324D01*
X482382D01*
X484921Y648785D01*
Y643706D01*
X482382Y641167D01*
X469686Y636089D02*
X484921D01*
Y625932D01*
X494686Y727460D02*
X507382D01*
X509921Y724921D01*
Y719842D01*
X507382Y717303D01*
X494686D01*
X509921Y712225D02*
X499764D01*
X494686Y707147D01*
X499764Y702068D01*
X509921D01*
X502303D01*
Y712225D01*
X509921Y696990D02*
X494686D01*
Y689372D01*
X497225Y686833D01*
X502303D01*
X504842Y689372D01*
Y696990D01*
Y691911D02*
X509921Y686833D01*
X494686Y681755D02*
Y671598D01*
Y676676D01*
X509921D01*
X512460Y666520D02*
Y656363D01*
X509921Y651285D02*
X494686D01*
Y643667D01*
X497225Y641128D01*
X502303D01*
X504842Y643667D01*
Y651285D01*
Y646206D02*
X509921Y641128D01*
X494686Y636049D02*
X509921Y625893D01*
X494686D02*
X509921Y636049D01*
X527186Y727460D02*
X539882D01*
X542421Y724921D01*
Y719842D01*
X539882Y717303D01*
X527186D01*
X542421Y712225D02*
X532264D01*
X527186Y707147D01*
X532264Y702068D01*
X542421D01*
X534803D01*
Y712225D01*
X542421Y696990D02*
X527186D01*
Y689372D01*
X529725Y686833D01*
X534803D01*
X537342Y689372D01*
Y696990D01*
Y691911D02*
X542421Y686833D01*
X527186Y681755D02*
Y671598D01*
Y676676D01*
X542421D01*
X544960Y666520D02*
Y656363D01*
X527186Y651285D02*
Y641128D01*
Y646206D01*
X542421D01*
X527186Y636049D02*
X542421Y625893D01*
X527186D02*
X542421Y636049D01*
X559764Y697303D02*
X557225Y699842D01*
Y704921D01*
X559764Y707460D01*
X569921D01*
X572460Y704921D01*
Y699842D01*
X569921Y697303D01*
X564842D01*
Y702382D01*
X572460Y692225D02*
X557225D01*
Y684607D01*
X559764Y682068D01*
X564842D01*
X567382Y684607D01*
Y692225D01*
X557225Y676990D02*
Y671911D01*
Y674451D01*
X572460D01*
Y676990D01*
Y671911D01*
X557225Y656676D02*
Y661755D01*
X559764Y664294D01*
X569921D01*
X572460Y661755D01*
Y656676D01*
X569921Y654137D01*
X559764D01*
X557225Y656676D01*
X572460Y649059D02*
Y643980D01*
Y646520D01*
X557225D01*
X559764Y649059D01*
Y636363D02*
X557225Y633824D01*
Y628745D01*
X559764Y626206D01*
X569921D01*
X572460Y628745D01*
Y633824D01*
X569921Y636363D01*
X559764D01*
X587264Y692303D02*
X584725Y694843D01*
Y699921D01*
X587264Y702460D01*
X597421D01*
X599960Y699921D01*
Y694843D01*
X597421Y692303D01*
X592342D01*
Y697382D01*
X599960Y687225D02*
X584725D01*
Y679607D01*
X587264Y677068D01*
X592342D01*
X594882Y679607D01*
Y687225D01*
X584725Y671990D02*
Y666911D01*
Y669451D01*
X599960D01*
Y671990D01*
Y666911D01*
X584725Y651676D02*
Y656755D01*
X587264Y659294D01*
X597421D01*
X599960Y656755D01*
Y651676D01*
X597421Y649137D01*
X587264D01*
X584725Y651676D01*
X599960Y644059D02*
Y638980D01*
Y641520D01*
X584725D01*
X587264Y644059D01*
X599960Y631363D02*
Y626285D01*
Y628824D01*
X584725D01*
X587264Y631363D01*
X612264Y697303D02*
X609725Y699842D01*
Y704921D01*
X612264Y707460D01*
X622421D01*
X624960Y704921D01*
Y699842D01*
X622421Y697303D01*
X617342D01*
Y702382D01*
X624960Y692225D02*
X609725D01*
Y684607D01*
X612264Y682068D01*
X617342D01*
X619882Y684607D01*
Y692225D01*
X609725Y676990D02*
Y671911D01*
Y674451D01*
X624960D01*
Y676990D01*
Y671911D01*
X609725Y656676D02*
Y661755D01*
X612264Y664294D01*
X622421D01*
X624960Y661755D01*
Y656676D01*
X622421Y654137D01*
X612264D01*
X609725Y656676D01*
X624960Y649059D02*
Y643980D01*
Y646520D01*
X609725D01*
X612264Y649059D01*
X624960Y626206D02*
Y636363D01*
X614803Y626206D01*
X612264D01*
X609725Y628745D01*
Y633824D01*
X612264Y636363D01*
X637264Y697303D02*
X634725Y699843D01*
Y704921D01*
X637264Y707460D01*
X647421D01*
X649960Y704921D01*
Y699843D01*
X647421Y697303D01*
X642343D01*
Y702382D01*
X649960Y692225D02*
X634725D01*
Y684607D01*
X637264Y682068D01*
X642343D01*
X644882Y684607D01*
Y692225D01*
X634725Y676990D02*
Y671911D01*
Y674451D01*
X649960D01*
Y676990D01*
Y671911D01*
X634725Y656676D02*
Y661755D01*
X637264Y664294D01*
X647421D01*
X649960Y661755D01*
Y656676D01*
X647421Y654137D01*
X637264D01*
X634725Y656676D01*
X649960Y649059D02*
Y643981D01*
Y646520D01*
X634725D01*
X637264Y649059D01*
Y636363D02*
X634725Y633824D01*
Y628745D01*
X637264Y626206D01*
X639803D01*
X642343Y628745D01*
Y631285D01*
Y628745D01*
X644882Y626206D01*
X647421D01*
X649960Y628745D01*
Y633824D01*
X647421Y636363D01*
X662264Y684803D02*
X659725Y687342D01*
Y692421D01*
X662264Y694960D01*
X672421D01*
X674960Y692421D01*
Y687342D01*
X672421Y684803D01*
X667342D01*
Y689882D01*
X674960Y679725D02*
X659725D01*
X674960Y669568D01*
X659725D01*
Y664490D02*
X674960D01*
Y656872D01*
X672421Y654333D01*
X662264D01*
X659725Y656872D01*
Y664490D01*
X407303Y745236D02*
X409842Y747775D01*
X414921D01*
X417460Y745236D01*
Y735079D01*
X414921Y732540D01*
X409842D01*
X407303Y735079D01*
Y740157D01*
X412382D01*
X402225Y732540D02*
Y747775D01*
X394607D01*
X392068Y745236D01*
Y740157D01*
X394607Y737618D01*
X402225D01*
X386990Y747775D02*
X381912D01*
X384451D01*
Y732540D01*
X386990D01*
X381912D01*
X366676Y747775D02*
X371755D01*
X374294Y745236D01*
Y735079D01*
X371755Y732540D01*
X366676D01*
X364137Y735079D01*
Y745236D01*
X366676Y747775D01*
X359059Y732540D02*
X353980D01*
X356520D01*
Y747775D01*
X359059Y745236D01*
X407303Y770236D02*
X409842Y772775D01*
X414921D01*
X417460Y770236D01*
Y760079D01*
X414921Y757540D01*
X409842D01*
X407303Y760079D01*
Y765158D01*
X412382D01*
X402225Y757540D02*
Y772775D01*
X394607D01*
X392068Y770236D01*
Y765158D01*
X394607Y762618D01*
X402225D01*
X386990Y772775D02*
X381912D01*
X384451D01*
Y757540D01*
X386990D01*
X381912D01*
X366676Y772775D02*
X371755D01*
X374294Y770236D01*
Y760079D01*
X371755Y757540D01*
X366676D01*
X364137Y760079D01*
Y770236D01*
X366676Y772775D01*
X348902Y757540D02*
X359059D01*
X348902Y767697D01*
Y770236D01*
X351441Y772775D01*
X356520D01*
X359059Y770236D01*
X407303Y795236D02*
X409842Y797775D01*
X414921D01*
X417460Y795236D01*
Y785079D01*
X414921Y782540D01*
X409842D01*
X407303Y785079D01*
Y790158D01*
X412382D01*
X402225Y782540D02*
Y797775D01*
X394607D01*
X392068Y795236D01*
Y790158D01*
X394607Y787618D01*
X402225D01*
X386990Y797775D02*
X381912D01*
X384451D01*
Y782540D01*
X386990D01*
X381912D01*
X366676Y797775D02*
X371755D01*
X374294Y795236D01*
Y785079D01*
X371755Y782540D01*
X366676D01*
X364137Y785079D01*
Y795236D01*
X366676Y797775D01*
X359059Y795236D02*
X356520Y797775D01*
X351441D01*
X348902Y795236D01*
Y792697D01*
X351441Y790158D01*
X353980D01*
X351441D01*
X348902Y787618D01*
Y785079D01*
X351441Y782540D01*
X356520D01*
X359059Y785079D01*
X407303Y820236D02*
X409842Y822775D01*
X414921D01*
X417460Y820236D01*
Y810079D01*
X414921Y807540D01*
X409842D01*
X407303Y810079D01*
Y815158D01*
X412382D01*
X402225Y807540D02*
Y822775D01*
X394607D01*
X392068Y820236D01*
Y815158D01*
X394607Y812618D01*
X402225D01*
X386990Y822775D02*
X381912D01*
X384451D01*
Y807540D01*
X386990D01*
X381912D01*
X366676Y822775D02*
X371755D01*
X374294Y820236D01*
Y810079D01*
X371755Y807540D01*
X366676D01*
X364137Y810079D01*
Y820236D01*
X366676Y822775D01*
X351441Y807540D02*
Y822775D01*
X359059Y815158D01*
X348902D01*
X407303Y847736D02*
X409842Y850275D01*
X414921D01*
X417460Y847736D01*
Y837579D01*
X414921Y835040D01*
X409842D01*
X407303Y837579D01*
Y842657D01*
X412382D01*
X402225Y835040D02*
Y850275D01*
X394607D01*
X392068Y847736D01*
Y842657D01*
X394607Y840118D01*
X402225D01*
X386990Y850275D02*
X381912D01*
X384451D01*
Y835040D01*
X386990D01*
X381912D01*
X366676Y850275D02*
X371755D01*
X374294Y847736D01*
Y837579D01*
X371755Y835040D01*
X366676D01*
X364137Y837579D01*
Y847736D01*
X366676Y850275D01*
X348902D02*
X359059D01*
Y842657D01*
X353980Y845197D01*
X351441D01*
X348902Y842657D01*
Y837579D01*
X351441Y835040D01*
X356520D01*
X359059Y837579D01*
X407303Y875236D02*
X409842Y877775D01*
X414921D01*
X417460Y875236D01*
Y865079D01*
X414921Y862540D01*
X409842D01*
X407303Y865079D01*
Y870157D01*
X412382D01*
X402225Y862540D02*
Y877775D01*
X394607D01*
X392068Y875236D01*
Y870157D01*
X394607Y867618D01*
X402225D01*
X386990Y877775D02*
X381912D01*
X384451D01*
Y862540D01*
X386990D01*
X381912D01*
X366676Y877775D02*
X371755D01*
X374294Y875236D01*
Y865079D01*
X371755Y862540D01*
X366676D01*
X364137Y865079D01*
Y875236D01*
X366676Y877775D01*
X348902D02*
X353980Y875236D01*
X359059Y870157D01*
Y865079D01*
X356520Y862540D01*
X351441D01*
X348902Y865079D01*
Y867618D01*
X351441Y870157D01*
X359059D01*
X407303Y905236D02*
X409842Y907775D01*
X414921D01*
X417460Y905236D01*
Y895079D01*
X414921Y892540D01*
X409842D01*
X407303Y895079D01*
Y900157D01*
X412382D01*
X402225Y892540D02*
Y907775D01*
X394607D01*
X392068Y905236D01*
Y900157D01*
X394607Y897618D01*
X402225D01*
X386990Y907775D02*
X381912D01*
X384451D01*
Y892540D01*
X386990D01*
X381912D01*
X366676Y907775D02*
X371755D01*
X374294Y905236D01*
Y895079D01*
X371755Y892540D01*
X366676D01*
X364137Y895079D01*
Y905236D01*
X366676Y907775D01*
X359059D02*
X348902D01*
Y905236D01*
X359059Y895079D01*
Y892540D01*
X407303Y932736D02*
X409842Y935275D01*
X414921D01*
X417460Y932736D01*
Y922579D01*
X414921Y920040D01*
X409842D01*
X407303Y922579D01*
Y927658D01*
X412382D01*
X402225Y920040D02*
Y935275D01*
X394607D01*
X392068Y932736D01*
Y927658D01*
X394607Y925118D01*
X402225D01*
X386990Y935275D02*
X381912D01*
X384451D01*
Y920040D01*
X386990D01*
X381912D01*
X366676Y935275D02*
X371755D01*
X374294Y932736D01*
Y922579D01*
X371755Y920040D01*
X366676D01*
X364137Y922579D01*
Y932736D01*
X366676Y935275D01*
X359059Y932736D02*
X356520Y935275D01*
X351441D01*
X348902Y932736D01*
Y930197D01*
X351441Y927658D01*
X348902Y925118D01*
Y922579D01*
X351441Y920040D01*
X356520D01*
X359059Y922579D01*
Y925118D01*
X356520Y927658D01*
X359059Y930197D01*
Y932736D01*
X356520Y927658D02*
X351441D01*
X407303Y957736D02*
X409842Y960275D01*
X414921D01*
X417460Y957736D01*
Y947579D01*
X414921Y945040D01*
X409842D01*
X407303Y947579D01*
Y952658D01*
X412382D01*
X402225Y945040D02*
Y960275D01*
X394607D01*
X392068Y957736D01*
Y952658D01*
X394607Y950118D01*
X402225D01*
X386990Y960275D02*
X381912D01*
X384451D01*
Y945040D01*
X386990D01*
X381912D01*
X366676Y960275D02*
X371755D01*
X374294Y957736D01*
Y947579D01*
X371755Y945040D01*
X366676D01*
X364137Y947579D01*
Y957736D01*
X366676Y960275D01*
X359059Y947579D02*
X356520Y945040D01*
X351441D01*
X348902Y947579D01*
Y957736D01*
X351441Y960275D01*
X356520D01*
X359059Y957736D01*
Y955197D01*
X356520Y952658D01*
X348902D01*
X407303Y982736D02*
X409842Y985275D01*
X414921D01*
X417460Y982736D01*
Y972579D01*
X414921Y970040D01*
X409842D01*
X407303Y972579D01*
Y977658D01*
X412382D01*
X402225Y970040D02*
Y985275D01*
X392068Y970040D01*
Y985275D01*
X386990D02*
Y970040D01*
X379372D01*
X376833Y972579D01*
Y982736D01*
X379372Y985275D01*
X386990D01*
X424725Y1094960D02*
X434882D01*
X439960Y1089882D01*
X434882Y1084803D01*
X424725D01*
X439960Y1079725D02*
X424725D01*
Y1072107D01*
X427264Y1069568D01*
X432342D01*
X434882Y1072107D01*
Y1079725D01*
Y1074647D02*
X439960Y1069568D01*
X424725Y1054333D02*
Y1064490D01*
X439960D01*
Y1054333D01*
X432342Y1064490D02*
Y1059411D01*
X424725Y1039098D02*
Y1049255D01*
X432342D01*
Y1044176D01*
Y1049255D01*
X439960D01*
X452264Y1084803D02*
X449725Y1087343D01*
Y1092421D01*
X452264Y1094960D01*
X462421D01*
X464960Y1092421D01*
Y1087343D01*
X462421Y1084803D01*
X457342D01*
Y1089882D01*
X464960Y1079725D02*
X449725D01*
Y1072107D01*
X452264Y1069568D01*
X457342D01*
X459882Y1072107D01*
Y1079725D01*
X449725Y1064490D02*
Y1059411D01*
Y1061951D01*
X464960D01*
Y1064490D01*
Y1059411D01*
X449725Y1044176D02*
Y1049255D01*
X452264Y1051794D01*
X462421D01*
X464960Y1049255D01*
Y1044176D01*
X462421Y1041637D01*
X452264D01*
X449725Y1044176D01*
X464960Y1036559D02*
Y1031481D01*
Y1034020D01*
X449725D01*
X452264Y1036559D01*
X464960Y1016245D02*
X449725D01*
X457342Y1023863D01*
Y1013706D01*
X477264Y1084803D02*
X474725Y1087343D01*
Y1092421D01*
X477264Y1094960D01*
X487421D01*
X489960Y1092421D01*
Y1087343D01*
X487421Y1084803D01*
X482342D01*
Y1089882D01*
X489960Y1079725D02*
X474725D01*
Y1072107D01*
X477264Y1069568D01*
X482342D01*
X484882Y1072107D01*
Y1079725D01*
X474725Y1064490D02*
Y1059411D01*
Y1061951D01*
X489960D01*
Y1064490D01*
Y1059411D01*
X474725Y1044176D02*
Y1049255D01*
X477264Y1051794D01*
X487421D01*
X489960Y1049255D01*
Y1044176D01*
X487421Y1041637D01*
X477264D01*
X474725Y1044176D01*
X489960Y1036559D02*
Y1031481D01*
Y1034020D01*
X474725D01*
X477264Y1036559D01*
X474725Y1013706D02*
Y1023863D01*
X482342D01*
X479803Y1018785D01*
Y1016245D01*
X482342Y1013706D01*
X487421D01*
X489960Y1016245D01*
Y1021324D01*
X487421Y1023863D01*
X504764Y1084803D02*
X502225Y1087343D01*
Y1092421D01*
X504764Y1094960D01*
X514921D01*
X517460Y1092421D01*
Y1087343D01*
X514921Y1084803D01*
X509842D01*
Y1089882D01*
X517460Y1079725D02*
X502225D01*
Y1072107D01*
X504764Y1069568D01*
X509842D01*
X512382Y1072107D01*
Y1079725D01*
X502225Y1064490D02*
Y1059411D01*
Y1061951D01*
X517460D01*
Y1064490D01*
Y1059411D01*
X502225Y1044176D02*
Y1049255D01*
X504764Y1051794D01*
X514921D01*
X517460Y1049255D01*
Y1044176D01*
X514921Y1041637D01*
X504764D01*
X502225Y1044176D01*
X517460Y1036559D02*
Y1031481D01*
Y1034020D01*
X502225D01*
X504764Y1036559D01*
X502225Y1013706D02*
X504764Y1018785D01*
X509842Y1023863D01*
X514921D01*
X517460Y1021324D01*
Y1016245D01*
X514921Y1013706D01*
X512382D01*
X509842Y1016245D01*
Y1023863D01*
X534764Y1084803D02*
X532225Y1087343D01*
Y1092421D01*
X534764Y1094960D01*
X544921D01*
X547460Y1092421D01*
Y1087343D01*
X544921Y1084803D01*
X539842D01*
Y1089882D01*
X547460Y1079725D02*
X532225D01*
Y1072107D01*
X534764Y1069568D01*
X539842D01*
X542382Y1072107D01*
Y1079725D01*
X532225Y1064490D02*
Y1059411D01*
Y1061951D01*
X547460D01*
Y1064490D01*
Y1059411D01*
X532225Y1044176D02*
Y1049255D01*
X534764Y1051794D01*
X544921D01*
X547460Y1049255D01*
Y1044176D01*
X544921Y1041637D01*
X534764D01*
X532225Y1044176D01*
X547460Y1036559D02*
Y1031481D01*
Y1034020D01*
X532225D01*
X534764Y1036559D01*
X532225Y1023863D02*
Y1013706D01*
X534764D01*
X544921Y1023863D01*
X547460D01*
X562264Y1084803D02*
X559725Y1087343D01*
Y1092421D01*
X562264Y1094960D01*
X572421D01*
X574960Y1092421D01*
Y1087343D01*
X572421Y1084803D01*
X567342D01*
Y1089882D01*
X574960Y1079725D02*
X559725D01*
Y1072107D01*
X562264Y1069568D01*
X567342D01*
X569882Y1072107D01*
Y1079725D01*
X559725Y1064490D02*
Y1059411D01*
Y1061951D01*
X574960D01*
Y1064490D01*
Y1059411D01*
X559725Y1044176D02*
Y1049255D01*
X562264Y1051794D01*
X572421D01*
X574960Y1049255D01*
Y1044176D01*
X572421Y1041637D01*
X562264D01*
X559725Y1044176D01*
X574960Y1036559D02*
Y1031481D01*
Y1034020D01*
X559725D01*
X562264Y1036559D01*
Y1023863D02*
X559725Y1021324D01*
Y1016245D01*
X562264Y1013706D01*
X564803D01*
X567342Y1016245D01*
X569882Y1013706D01*
X572421D01*
X574960Y1016245D01*
Y1021324D01*
X572421Y1023863D01*
X569882D01*
X567342Y1021324D01*
X564803Y1023863D01*
X562264D01*
X567342Y1021324D02*
Y1016245D01*
X589764Y1084803D02*
X587225Y1087343D01*
Y1092421D01*
X589764Y1094960D01*
X599921D01*
X602460Y1092421D01*
Y1087343D01*
X599921Y1084803D01*
X594842D01*
Y1089882D01*
X602460Y1079725D02*
X587225D01*
Y1072107D01*
X589764Y1069568D01*
X594842D01*
X597382Y1072107D01*
Y1079725D01*
X587225Y1064490D02*
Y1059411D01*
Y1061951D01*
X602460D01*
Y1064490D01*
Y1059411D01*
X587225Y1044176D02*
Y1049255D01*
X589764Y1051794D01*
X599921D01*
X602460Y1049255D01*
Y1044176D01*
X599921Y1041637D01*
X589764D01*
X587225Y1044176D01*
X602460Y1036559D02*
Y1031481D01*
Y1034020D01*
X587225D01*
X589764Y1036559D01*
X599921Y1023863D02*
X602460Y1021324D01*
Y1016245D01*
X599921Y1013706D01*
X589764D01*
X587225Y1016245D01*
Y1021324D01*
X589764Y1023863D01*
X592303D01*
X594842Y1021324D01*
Y1013706D01*
X614764Y1084803D02*
X612225Y1087343D01*
Y1092421D01*
X614764Y1094960D01*
X624921D01*
X627460Y1092421D01*
Y1087343D01*
X624921Y1084803D01*
X619842D01*
Y1089882D01*
X627460Y1079725D02*
X612225D01*
Y1072107D01*
X614764Y1069568D01*
X619842D01*
X622382Y1072107D01*
Y1079725D01*
X612225Y1064490D02*
Y1059411D01*
Y1061951D01*
X627460D01*
Y1064490D01*
Y1059411D01*
X612225Y1044176D02*
Y1049255D01*
X614764Y1051794D01*
X624921D01*
X627460Y1049255D01*
Y1044176D01*
X624921Y1041637D01*
X614764D01*
X612225Y1044176D01*
X627460Y1026402D02*
Y1036559D01*
X617303Y1026402D01*
X614764D01*
X612225Y1028941D01*
Y1034020D01*
X614764Y1036559D01*
Y1021324D02*
X612225Y1018785D01*
Y1013706D01*
X614764Y1011167D01*
X624921D01*
X627460Y1013706D01*
Y1018785D01*
X624921Y1021324D01*
X614764D01*
X639764Y1084803D02*
X637225Y1087343D01*
Y1092421D01*
X639764Y1094960D01*
X649921D01*
X652460Y1092421D01*
Y1087343D01*
X649921Y1084803D01*
X644842D01*
Y1089882D01*
X652460Y1079725D02*
X637225D01*
Y1072107D01*
X639764Y1069568D01*
X644842D01*
X647382Y1072107D01*
Y1079725D01*
X637225Y1064490D02*
Y1059411D01*
Y1061951D01*
X652460D01*
Y1064490D01*
Y1059411D01*
X637225Y1044176D02*
Y1049255D01*
X639764Y1051794D01*
X649921D01*
X652460Y1049255D01*
Y1044176D01*
X649921Y1041637D01*
X639764D01*
X637225Y1044176D01*
X652460Y1026402D02*
Y1036559D01*
X642303Y1026402D01*
X639764D01*
X637225Y1028941D01*
Y1034020D01*
X639764Y1036559D01*
X652460Y1021324D02*
Y1016245D01*
Y1018785D01*
X637225D01*
X639764Y1021324D01*
X664764Y1084803D02*
X662225Y1087343D01*
Y1092421D01*
X664764Y1094960D01*
X674921D01*
X677460Y1092421D01*
Y1087343D01*
X674921Y1084803D01*
X669843D01*
Y1089882D01*
X677460Y1079725D02*
X662225D01*
X677460Y1069568D01*
X662225D01*
Y1064490D02*
X677460D01*
Y1056872D01*
X674921Y1054333D01*
X664764D01*
X662225Y1056872D01*
Y1064490D01*
M02*
