G04*
G04 #@! TF.GenerationSoftware,Altium Limited,Altium Designer,22.9.1 (49)*
G04*
G04 Layer_Physical_Order=2*
G04 Layer_Color=16711680*
%FSLAX44Y44*%
%MOMM*%
G71*
G04*
G04 #@! TF.SameCoordinates,C56BC410-7C05-4C87-A6CA-29577A5DDFC1*
G04*
G04*
G04 #@! TF.FilePolarity,Positive*
G04*
G01*
G75*
%ADD40C,0.1524*%
%ADD41C,0.6096*%
G36*
X810856Y621643D02*
X326643D01*
Y1095856D01*
X810856D01*
Y621643D01*
D02*
G37*
%LPC*%
G36*
X551581Y1014476D02*
X549763D01*
X548082Y1013780D01*
X546796Y1012494D01*
X546100Y1010813D01*
Y1008995D01*
X546796Y1007314D01*
X548082Y1006028D01*
X549763Y1005332D01*
X551581D01*
X553262Y1006028D01*
X554548Y1007314D01*
X554655Y1007573D01*
X587893D01*
X589615Y1005852D01*
X590371Y1005347D01*
X591263Y1005169D01*
X592155Y1005347D01*
X592911Y1005852D01*
X593416Y1006608D01*
X593593Y1007500D01*
X593416Y1008392D01*
X592911Y1009148D01*
X590507Y1011552D01*
X589751Y1012057D01*
X588859Y1012235D01*
X554655D01*
X554548Y1012494D01*
X553262Y1013780D01*
X551581Y1014476D01*
D02*
G37*
G36*
X658409Y999572D02*
X656590D01*
X654910Y998876D01*
X653624Y997590D01*
X653517Y997331D01*
X595000D01*
X594108Y997153D01*
X593352Y996648D01*
X590752Y994048D01*
X590247Y993292D01*
X590069Y992400D01*
X590247Y991508D01*
X590484Y991153D01*
X589956Y989919D01*
X589921Y989883D01*
X571246D01*
X570354Y989705D01*
X569959Y989442D01*
X569615Y989584D01*
X567797D01*
X566116Y988888D01*
X564830Y987602D01*
X564134Y985921D01*
Y984103D01*
X564830Y982422D01*
X566116Y981136D01*
X567797Y980440D01*
X569615D01*
X571296Y981136D01*
X572582Y982422D01*
X573278Y984103D01*
Y985221D01*
X662339D01*
X662592Y983951D01*
X662410Y983876D01*
X661124Y982590D01*
X661017Y982331D01*
X602500D01*
X602057Y982243D01*
X601609Y982154D01*
X601609Y982153D01*
X601608Y982153D01*
X601249Y981913D01*
X600853Y981649D01*
X600252Y981049D01*
X599747Y980293D01*
X599569Y979401D01*
X599746Y978509D01*
X600251Y977753D01*
X601007Y977247D01*
X601899Y977069D01*
X602791Y977246D01*
X603424Y977669D01*
X661017D01*
X661124Y977410D01*
X662410Y976124D01*
X664090Y975428D01*
X665909D01*
X667590Y976124D01*
X668876Y977410D01*
X669572Y979091D01*
Y980910D01*
X668876Y982590D01*
X667590Y983876D01*
X667408Y983951D01*
X667661Y985221D01*
X766068D01*
X766176Y984962D01*
X767462Y983676D01*
X769142Y982980D01*
X770961D01*
X772642Y983676D01*
X773928Y984962D01*
X774624Y986643D01*
Y988461D01*
X773928Y990142D01*
X772642Y991428D01*
X770961Y992124D01*
X769142D01*
X767462Y991428D01*
X766176Y990142D01*
X766068Y989883D01*
X660412D01*
X660124Y990993D01*
X660119Y991153D01*
X661376Y992410D01*
X662072Y994090D01*
Y995909D01*
X661376Y997590D01*
X660090Y998876D01*
X658409Y999572D01*
D02*
G37*
G36*
X721270Y983022D02*
Y978770D01*
X725522D01*
X724737Y980665D01*
X723165Y982237D01*
X721270Y983022D01*
D02*
G37*
G36*
X718730D02*
X716835Y982237D01*
X715263Y980665D01*
X714478Y978770D01*
X718730D01*
Y983022D01*
D02*
G37*
G36*
X431270Y978022D02*
Y973770D01*
X435522D01*
X434737Y975665D01*
X433165Y977237D01*
X431270Y978022D01*
D02*
G37*
G36*
X428730D02*
X426835Y977237D01*
X425263Y975665D01*
X424478Y973770D01*
X428730D01*
Y978022D01*
D02*
G37*
G36*
X637687Y975868D02*
X635869D01*
X634188Y975172D01*
X632902Y973886D01*
X632795Y973627D01*
X567355D01*
X567248Y973886D01*
X565962Y975172D01*
X564281Y975868D01*
X562463D01*
X560782Y975172D01*
X559496Y973886D01*
X558800Y972205D01*
Y970387D01*
X559496Y968706D01*
X560782Y967420D01*
X562463Y966724D01*
X564281D01*
X565962Y967420D01*
X567248Y968706D01*
X567355Y968965D01*
X632230D01*
X632662Y968342D01*
X631999Y967072D01*
X631591D01*
X629910Y966376D01*
X628624Y965090D01*
X627928Y963409D01*
Y961591D01*
X628624Y959910D01*
X629910Y958624D01*
X631591Y957928D01*
X633409D01*
X635090Y958624D01*
X636376Y959910D01*
X637072Y961591D01*
Y962704D01*
X673551D01*
X673658Y962445D01*
X674945Y961158D01*
X676625Y960462D01*
X678444D01*
X680124Y961158D01*
X681410Y962445D01*
X682106Y964125D01*
Y965944D01*
X681410Y967624D01*
X680124Y968910D01*
X678444Y969606D01*
X676625D01*
X674945Y968910D01*
X673658Y967624D01*
X673551Y967365D01*
X641109D01*
X640583Y968635D01*
X640654Y968706D01*
X641350Y970387D01*
Y972205D01*
X640654Y973886D01*
X639368Y975172D01*
X637687Y975868D01*
D02*
G37*
G36*
X725522Y976230D02*
X721270D01*
Y971978D01*
X723165Y972763D01*
X724737Y974335D01*
X725522Y976230D01*
D02*
G37*
G36*
X718730D02*
X714478D01*
X715263Y974335D01*
X716835Y972763D01*
X718730Y971978D01*
Y976230D01*
D02*
G37*
G36*
X435522Y971230D02*
X431270D01*
Y966978D01*
X433165Y967763D01*
X434737Y969335D01*
X435522Y971230D01*
D02*
G37*
G36*
X428730D02*
X424478D01*
X425263Y969335D01*
X426835Y967763D01*
X428730Y966978D01*
Y971230D01*
D02*
G37*
G36*
X476270Y970522D02*
Y966270D01*
X480522D01*
X479737Y968165D01*
X478165Y969737D01*
X476270Y970522D01*
D02*
G37*
G36*
X473730D02*
X471835Y969737D01*
X470263Y968165D01*
X469478Y966270D01*
X473730D01*
Y970522D01*
D02*
G37*
G36*
X480522Y963730D02*
X476270D01*
Y959478D01*
X478165Y960263D01*
X479737Y961835D01*
X480522Y963730D01*
D02*
G37*
G36*
X473730D02*
X469478D01*
X470263Y961835D01*
X471835Y960263D01*
X473730Y959478D01*
Y963730D01*
D02*
G37*
G36*
X588409Y934572D02*
X586590D01*
X584910Y933876D01*
X583624Y932590D01*
X583517Y932331D01*
X568393D01*
X568392Y932331D01*
X568392Y932331D01*
X567948Y932243D01*
X567501Y932153D01*
X567500Y932153D01*
X567500Y932153D01*
X567120Y931899D01*
X566744Y931648D01*
X566744Y931648D01*
X566744Y931648D01*
X565851Y930755D01*
X565581Y930349D01*
X565347Y929999D01*
X565347Y929999D01*
X565346Y929998D01*
X565257Y929550D01*
X565169Y929107D01*
Y893465D01*
X543352Y871648D01*
X542847Y870892D01*
X542669Y870000D01*
Y772331D01*
X472500D01*
X471609Y772153D01*
X470852Y771648D01*
X451169Y751964D01*
X450910Y752072D01*
X449091D01*
X447410Y751376D01*
X446124Y750089D01*
X445428Y748409D01*
Y746590D01*
X446124Y744910D01*
X447410Y743624D01*
X449091Y742928D01*
X450910D01*
X452590Y743624D01*
X453876Y744910D01*
X454572Y746590D01*
Y748409D01*
X454465Y748668D01*
X473466Y767669D01*
X544107D01*
X544550Y767757D01*
X544999Y767846D01*
X544999Y767847D01*
X544999Y767847D01*
X545349Y768081D01*
X545755Y768351D01*
X546648Y769244D01*
X546648Y769244D01*
X546648Y769244D01*
X546899Y769620D01*
X547153Y770000D01*
X547153Y770000D01*
X547154Y770001D01*
X547243Y770448D01*
X547331Y770892D01*
X547331Y770892D01*
X547331Y770892D01*
Y869034D01*
X569148Y890852D01*
X569653Y891608D01*
X569831Y892500D01*
Y919714D01*
X571101Y919967D01*
X571124Y919910D01*
X572410Y918624D01*
X572669Y918517D01*
Y885965D01*
X550852Y864148D01*
X550346Y863392D01*
X550169Y862500D01*
Y763983D01*
X549910Y763876D01*
X548624Y762590D01*
X547928Y760909D01*
Y759091D01*
X548624Y757410D01*
X549910Y756124D01*
X551590Y755428D01*
X553409D01*
X555090Y756124D01*
X556376Y757410D01*
X557072Y759091D01*
Y760909D01*
X556376Y762590D01*
X555090Y763876D01*
X554831Y763983D01*
Y861535D01*
X576648Y883352D01*
X577154Y884108D01*
X577331Y885000D01*
Y918517D01*
X577590Y918624D01*
X578876Y919910D01*
X579572Y921591D01*
Y923410D01*
X578876Y925090D01*
X577590Y926376D01*
X577533Y926399D01*
X577786Y927669D01*
X583517D01*
X583624Y927410D01*
X584910Y926124D01*
X586590Y925428D01*
X588409D01*
X590090Y926124D01*
X591376Y927410D01*
X592072Y929091D01*
Y930910D01*
X591376Y932590D01*
X590090Y933876D01*
X588409Y934572D01*
D02*
G37*
G36*
X675909Y947072D02*
X674091D01*
X672410Y946376D01*
X671124Y945090D01*
X670428Y943409D01*
Y941591D01*
X671124Y939910D01*
X672410Y938624D01*
X672669Y938517D01*
Y923465D01*
X655852Y906648D01*
X655347Y905892D01*
X655169Y905000D01*
Y868983D01*
X654910Y868876D01*
X653624Y867590D01*
X652928Y865909D01*
Y864091D01*
X653624Y862410D01*
X654910Y861124D01*
X656591Y860428D01*
X658409D01*
X660090Y861124D01*
X661376Y862410D01*
X662072Y864091D01*
Y865909D01*
X661376Y867590D01*
X660090Y868876D01*
X659831Y868983D01*
Y904035D01*
X676648Y920852D01*
X677153Y921608D01*
X677331Y922500D01*
Y938517D01*
X677590Y938624D01*
X678876Y939910D01*
X679572Y941591D01*
Y943409D01*
X678876Y945090D01*
X677590Y946376D01*
X675909Y947072D01*
D02*
G37*
G36*
X423770Y833022D02*
Y828770D01*
X428022D01*
X427237Y830665D01*
X425665Y832237D01*
X423770Y833022D01*
D02*
G37*
G36*
X421230D02*
X419335Y832237D01*
X417763Y830665D01*
X416978Y828770D01*
X421230D01*
Y833022D01*
D02*
G37*
G36*
X428022Y826230D02*
X423770D01*
Y821978D01*
X425665Y822763D01*
X427237Y824335D01*
X428022Y826230D01*
D02*
G37*
G36*
X421230D02*
X416978D01*
X417763Y824335D01*
X419335Y822763D01*
X421230Y821978D01*
Y826230D01*
D02*
G37*
G36*
X646270Y823022D02*
Y818770D01*
X650522D01*
X649737Y820665D01*
X648165Y822237D01*
X646270Y823022D01*
D02*
G37*
G36*
X643730D02*
X641835Y822237D01*
X640263Y820665D01*
X639478Y818770D01*
X643730D01*
Y823022D01*
D02*
G37*
G36*
X796270Y820522D02*
Y816270D01*
X800522D01*
X799737Y818165D01*
X798165Y819737D01*
X796270Y820522D01*
D02*
G37*
G36*
X793730D02*
X791835Y819737D01*
X790263Y818165D01*
X789478Y816270D01*
X793730D01*
Y820522D01*
D02*
G37*
G36*
X474070Y818022D02*
Y813770D01*
X478322D01*
X477537Y815665D01*
X475965Y817237D01*
X474070Y818022D01*
D02*
G37*
G36*
X471530D02*
X469635Y817237D01*
X468063Y815665D01*
X467277Y813770D01*
X471530D01*
Y818022D01*
D02*
G37*
G36*
X650522Y816230D02*
X646270D01*
Y811978D01*
X648165Y812763D01*
X649737Y814335D01*
X650522Y816230D01*
D02*
G37*
G36*
X643730D02*
X639478D01*
X640263Y814335D01*
X641835Y812763D01*
X643730Y811978D01*
Y816230D01*
D02*
G37*
G36*
X800522Y813730D02*
X796270D01*
Y809478D01*
X798165Y810263D01*
X799737Y811835D01*
X800522Y813730D01*
D02*
G37*
G36*
X793730D02*
X789478D01*
X790263Y811835D01*
X791835Y810263D01*
X793730Y809478D01*
Y813730D01*
D02*
G37*
G36*
X478322Y811230D02*
X474070D01*
Y806978D01*
X475965Y807763D01*
X477537Y809335D01*
X478322Y811230D01*
D02*
G37*
G36*
X471530D02*
X467277D01*
X468063Y809335D01*
X469635Y807763D01*
X471530Y806978D01*
Y811230D01*
D02*
G37*
G36*
X749520Y758772D02*
Y754520D01*
X753772D01*
X752987Y756415D01*
X751415Y757987D01*
X749520Y758772D01*
D02*
G37*
G36*
X746980D02*
X745085Y757987D01*
X743513Y756415D01*
X742728Y754520D01*
X746980D01*
Y758772D01*
D02*
G37*
G36*
X603410Y754572D02*
X601591D01*
X599910Y753876D01*
X598624Y752590D01*
X598517Y752331D01*
X548983D01*
X548876Y752590D01*
X547590Y753876D01*
X545910Y754572D01*
X544091D01*
X542410Y753876D01*
X541124Y752590D01*
X540428Y750909D01*
Y749091D01*
X540631Y748601D01*
X539783Y747331D01*
X526483D01*
X526376Y747590D01*
X525090Y748876D01*
X523409Y749572D01*
X521590D01*
X519910Y748876D01*
X518624Y747590D01*
X517928Y745909D01*
Y744090D01*
X518624Y742410D01*
X519910Y741124D01*
X521590Y740428D01*
X523409D01*
X525090Y741124D01*
X526376Y742410D01*
X526483Y742669D01*
X541665D01*
X541898Y742513D01*
X542790Y742335D01*
X612166D01*
X613058Y742513D01*
X613814Y743018D01*
X613831Y743035D01*
X614090Y742928D01*
X615909D01*
X617590Y743624D01*
X618876Y744910D01*
X619572Y746591D01*
Y748409D01*
X618876Y750090D01*
X617590Y751376D01*
X615909Y752072D01*
X614090D01*
X612410Y751376D01*
X611124Y750090D01*
X610428Y748409D01*
Y746997D01*
X607580D01*
X606731Y748267D01*
X607072Y749091D01*
Y750909D01*
X606376Y752590D01*
X605090Y753876D01*
X603410Y754572D01*
D02*
G37*
G36*
X753772Y751980D02*
X749520D01*
Y747728D01*
X751415Y748513D01*
X752987Y750085D01*
X753772Y751980D01*
D02*
G37*
G36*
X746980D02*
X742728D01*
X743513Y750085D01*
X745085Y748513D01*
X746980Y747728D01*
Y751980D01*
D02*
G37*
G36*
X768770Y693023D02*
Y688770D01*
X773022D01*
X772237Y690666D01*
X770665Y692237D01*
X768770Y693023D01*
D02*
G37*
G36*
X766230D02*
X764335Y692237D01*
X762763Y690666D01*
X761978Y688770D01*
X766230D01*
Y693023D01*
D02*
G37*
G36*
X661970Y687322D02*
Y683070D01*
X666223D01*
X665437Y684965D01*
X663866Y686537D01*
X661970Y687322D01*
D02*
G37*
G36*
X659430D02*
X657535Y686537D01*
X655963Y684965D01*
X655178Y683070D01*
X659430D01*
Y687322D01*
D02*
G37*
G36*
X718020Y687272D02*
Y683020D01*
X722272D01*
X721487Y684915D01*
X719915Y686487D01*
X718020Y687272D01*
D02*
G37*
G36*
X715480D02*
X713585Y686487D01*
X712013Y684915D01*
X711227Y683020D01*
X715480D01*
Y687272D01*
D02*
G37*
G36*
X773022Y686230D02*
X768770D01*
Y681978D01*
X770665Y682763D01*
X772237Y684335D01*
X773022Y686230D01*
D02*
G37*
G36*
X766230D02*
X761978D01*
X762763Y684335D01*
X764335Y682763D01*
X766230Y681978D01*
Y686230D01*
D02*
G37*
G36*
X683770Y683022D02*
Y678770D01*
X688022D01*
X687237Y680665D01*
X685665Y682237D01*
X683770Y683022D01*
D02*
G37*
G36*
X681230D02*
X679335Y682237D01*
X677763Y680665D01*
X676978Y678770D01*
X681230D01*
Y683022D01*
D02*
G37*
G36*
X666223Y680530D02*
X661970D01*
Y676277D01*
X663866Y677063D01*
X665437Y678634D01*
X666223Y680530D01*
D02*
G37*
G36*
X659430D02*
X655178D01*
X655963Y678634D01*
X657535Y677063D01*
X659430Y676277D01*
Y680530D01*
D02*
G37*
G36*
X722272Y680480D02*
X718020D01*
Y676228D01*
X719915Y677013D01*
X721487Y678585D01*
X722272Y680480D01*
D02*
G37*
G36*
X715480D02*
X711227D01*
X712013Y678585D01*
X713585Y677013D01*
X715480Y676228D01*
Y680480D01*
D02*
G37*
G36*
X688022Y676230D02*
X683770D01*
Y671978D01*
X685665Y672763D01*
X687237Y674335D01*
X688022Y676230D01*
D02*
G37*
G36*
X681230D02*
X676978D01*
X677763Y674335D01*
X679335Y672763D01*
X681230Y671978D01*
Y676230D01*
D02*
G37*
G36*
X383770Y645522D02*
Y641270D01*
X388022D01*
X387237Y643165D01*
X385665Y644737D01*
X383770Y645522D01*
D02*
G37*
G36*
X381230D02*
X379335Y644737D01*
X377763Y643165D01*
X376978Y641270D01*
X381230D01*
Y645522D01*
D02*
G37*
G36*
X388022Y638730D02*
X383770D01*
Y634478D01*
X385665Y635263D01*
X387237Y636835D01*
X388022Y638730D01*
D02*
G37*
G36*
X381230D02*
X376978D01*
X377763Y636835D01*
X379335Y635263D01*
X381230Y634478D01*
Y638730D01*
D02*
G37*
%LPD*%
G36*
X653624Y992410D02*
X654881Y991153D01*
X654876Y990993D01*
X654587Y989883D01*
X594975D01*
X594449Y991153D01*
X595965Y992669D01*
X653517D01*
X653624Y992410D01*
D02*
G37*
D40*
X472500Y770000D02*
X544107D01*
X450000Y747500D02*
X472500Y770000D01*
X544107D02*
X545000Y770892D01*
X612166Y744666D02*
X615000Y747500D01*
X657500Y865000D02*
Y905000D01*
X675000Y922500D01*
Y942500D01*
X545000Y750000D02*
X602500D01*
X522500Y745000D02*
X542457D01*
X552500Y760000D02*
Y862500D01*
X542457Y745000D02*
X542790Y744666D01*
X612166D01*
X632500Y962500D02*
X635034Y965034D01*
X677534D01*
X563372Y971296D02*
X636778D01*
X575000Y885000D02*
Y922500D01*
X552500Y862500D02*
X575000Y885000D01*
X568393Y930000D02*
X587500D01*
X567500Y892500D02*
Y929107D01*
X545000Y770892D02*
Y870000D01*
X567500Y929107D02*
X568393Y930000D01*
X545000Y870000D02*
X567500Y892500D01*
X571246Y987552D02*
X770052D01*
X568706Y985012D02*
X571246Y987552D01*
X588859Y1009904D02*
X591263Y1007500D01*
X550672Y1009904D02*
X588859D01*
X602500Y980000D02*
X665000D01*
X601900Y979400D02*
X602500Y980000D01*
X595000Y995000D02*
X657500D01*
X592400Y992400D02*
X595000Y995000D01*
D41*
X645000Y817500D02*
D03*
X748250Y753250D02*
D03*
X382500Y640000D02*
D03*
X472800Y812500D02*
D03*
X450000Y747500D02*
D03*
X422500Y827500D02*
D03*
X767500Y687500D02*
D03*
X795000Y815000D02*
D03*
X720000Y977500D02*
D03*
X475000Y965000D02*
D03*
X430000Y972500D02*
D03*
X615000Y747500D02*
D03*
X716750Y681750D02*
D03*
X682500Y677500D02*
D03*
X660700Y681800D02*
D03*
X657500Y865000D02*
D03*
X675000Y942500D02*
D03*
X552500Y760000D02*
D03*
X545000Y750000D02*
D03*
X632500Y962500D02*
D03*
X636778Y971296D02*
D03*
X677534Y965034D02*
D03*
X770052Y987552D02*
D03*
X568706Y985012D02*
D03*
X550672Y1009904D02*
D03*
X563372Y971296D02*
D03*
X602500Y750000D02*
D03*
X522500Y745000D02*
D03*
X575000Y922500D02*
D03*
X587500Y930000D02*
D03*
X665000Y980000D02*
D03*
X657500Y995000D02*
D03*
M02*
